<?xml version="1.0" standalone="no"?>
<svg width="567" height="384" viewBox="0 0 567 384" xmlns="http://www.w3.org/2000/svg">
<title>
/home/eva/Module/Optik2/Bilder/e-Funktion.svg
</title>
<desc>
Creator: ROOT Version 5.32/02
CreationDate: Fri May  4 17:04:16 2012</desc>
<defs>
</defs>
<rect x="0" y="0" width="567" height="384" fill="white"/>
<rect x="57" y="38" width="453" height="308" fill="white"/>
<rect x="57" y="38" width="453" height="308" fill="none" stroke="black"/>
<rect x="57" y="38" width="453" height="308" fill="white"/>
<rect x="57" y="38" width="453" height="308" fill="none" stroke="black"/>
<path d="M57,346h 453" fill="none" stroke="black"/>
<path d="M57,336v 10" fill="none" stroke="black"/>
<path d="M75,341v 5" fill="none" stroke="black"/>
<path d="M93,341v 5" fill="none" stroke="black"/>
<path d="M111,341v 5" fill="none" stroke="black"/>
<path d="M129,341v 5" fill="none" stroke="black"/>
<path d="M146,336v 10" fill="none" stroke="black"/>
<path d="M164,341v 5" fill="none" stroke="black"/>
<path d="M182,341v 5" fill="none" stroke="black"/>
<path d="M200,341v 5" fill="none" stroke="black"/>
<path d="M218,341v 5" fill="none" stroke="black"/>
<path d="M236,336v 10" fill="none" stroke="black"/>
<path d="M254,341v 5" fill="none" stroke="black"/>
<path d="M272,341v 5" fill="none" stroke="black"/>
<path d="M290,341v 5" fill="none" stroke="black"/>
<path d="M308,341v 5" fill="none" stroke="black"/>
<path d="M326,336v 10" fill="none" stroke="black"/>
<path d="M344,341v 5" fill="none" stroke="black"/>
<path d="M362,341v 5" fill="none" stroke="black"/>
<path d="M380,341v 5" fill="none" stroke="black"/>
<path d="M398,341v 5" fill="none" stroke="black"/>
<path d="M416,336v 10" fill="none" stroke="black"/>
<path d="M434,341v 5" fill="none" stroke="black"/>
<path d="M452,341v 5" fill="none" stroke="black"/>
<path d="M470,341v 5" fill="none" stroke="black"/>
<path d="M488,341v 5" fill="none" stroke="black"/>
<path d="M506,336v 10" fill="none" stroke="black"/>
<path d="M506,336v 10" fill="none" stroke="black"/>
<text x="53" y="358" fill="black" font-size="12" font-family="Helvetica">
0
</text>
<text x="137" y="358" fill="black" font-size="12" font-family="Helvetica">
0.5
</text>
<text x="234" y="358" fill="black" font-size="12" font-family="Helvetica">
1
</text>
<text x="317" y="358" fill="black" font-size="12" font-family="Helvetica">
1.5
</text>
<text x="412" y="358" fill="black" font-size="12" font-family="Helvetica">
2
</text>
<text x="496" y="358" fill="black" font-size="12" font-family="Helvetica">
2.5
</text>
<path d="M57,346v -308" fill="none" stroke="black"/>
<path d="M70,346h -13" fill="none" stroke="black"/>
<path d="M63,332h -6" fill="none" stroke="black"/>
<path d="M63,318h -6" fill="none" stroke="black"/>
<path d="M63,304h -6" fill="none" stroke="black"/>
<path d="M70,290h -13" fill="none" stroke="black"/>
<path d="M63,276h -6" fill="none" stroke="black"/>
<path d="M63,262h -6" fill="none" stroke="black"/>
<path d="M63,248h -6" fill="none" stroke="black"/>
<path d="M70,234h -13" fill="none" stroke="black"/>
<path d="M63,220h -6" fill="none" stroke="black"/>
<path d="M63,206h -6" fill="none" stroke="black"/>
<path d="M63,192h -6" fill="none" stroke="black"/>
<path d="M70,178h -13" fill="none" stroke="black"/>
<path d="M63,164h -6" fill="none" stroke="black"/>
<path d="M63,150h -6" fill="none" stroke="black"/>
<path d="M63,136h -6" fill="none" stroke="black"/>
<path d="M70,122h -13" fill="none" stroke="black"/>
<path d="M63,108h -6" fill="none" stroke="black"/>
<path d="M63,94h -6" fill="none" stroke="black"/>
<path d="M63,80h -6" fill="none" stroke="black"/>
<path d="M70,66h -13" fill="none" stroke="black"/>
<path d="M70,66h -13" fill="none" stroke="black"/>
<path d="M63,52h -6" fill="none" stroke="black"/>
<text x="47" y="350" fill="black" font-size="12" font-family="Helvetica">
0
</text>
<text x="37" y="294" fill="black" font-size="12" font-family="Helvetica">
0.2
</text>
<text x="37" y="238" fill="black" font-size="12" font-family="Helvetica">
0.4
</text>
<text x="37" y="182" fill="black" font-size="12" font-family="Helvetica">
0.6
</text>
<text x="37" y="127" fill="black" font-size="12" font-family="Helvetica">
0.8
</text>
<text x="49" y="70" fill="black" font-size="12" font-family="Helvetica">
1
</text>
<path d="M65,66l 18, 26l 18, 24l 18, 22l 18, 20l 18, 17l 18, 17l 18, 14l 18, 13l 17, 13l 18, 10l 18, 10l 18, 9l 18, 8l 18, 7l 18, 7l 18, 6l 18, 5l 18, 5l 18, 4l 18, 4l 18, 4l 18, 3l 18, 3l 18, 3l 14, 2" fill="none" stroke="#000066" stroke-width="3"
 stroke-dasharray=" 3, 3"/>
<text x="244" y="18" fill="black" font-size="16" font-family="Helvetica">
e-Funktion
</text></svg>
