<?xml version="1.0" encoding="UTF-8" standalone="no"?>
<!-- Created with Inkscape (http://www.inkscape.org/) -->

<svg
   xmlns:dc="http://purl.org/dc/elements/1.1/"
   xmlns:cc="http://creativecommons.org/ns#"
   xmlns:rdf="http://www.w3.org/1999/02/22-rdf-syntax-ns#"
   xmlns:svg="http://www.w3.org/2000/svg"
   xmlns="http://www.w3.org/2000/svg"
   xmlns:sodipodi="http://sodipodi.sourceforge.net/DTD/sodipodi-0.dtd"
   xmlns:inkscape="http://www.inkscape.org/namespaces/inkscape"
   width="1600px"
   height="1200px"
   id="svg5652"
   version="1.1"
   inkscape:version="0.48.3.1 r9886"
   sodipodi:docname="Gitter_Intensitaet_gesamt.png">
  <defs
     id="defs5654" />
  <sodipodi:namedview
     id="base"
     pagecolor="#ffffff"
     bordercolor="#666666"
     borderopacity="1.0"
     inkscape:pageopacity="0.0"
     inkscape:pageshadow="2"
     inkscape:zoom="0.3"
     inkscape:cx="800"
     inkscape:cy="600"
     inkscape:current-layer="layer1"
     inkscape:document-units="px"
     showgrid="false"
     inkscape:window-width="1920"
     inkscape:window-height="1033"
     inkscape:window-x="-2"
     inkscape:window-y="-3"
     inkscape:window-maximized="1" />
  <metadata
     id="metadata5657">
    <rdf:RDF>
      <cc:Work
         rdf:about="">
        <dc:format>image/svg+xml</dc:format>
        <dc:type
           rdf:resource="http://purl.org/dc/dcmitype/StillImage" />
        <dc:title></dc:title>
      </cc:Work>
    </rdf:RDF>
  </metadata>
  <g
     id="layer1"
     inkscape:label="Layer 1"
     inkscape:groupmode="layer">
    <rect
       style="fill:none;stroke:#000000;stroke-width:3.29355597"
       x="77.462761"
       y="44.876953"
       width="1491.981"
       height="1014.4153"
       id="rect4917" />
    <rect
       style="fill:none;stroke:#000000;stroke-width:3.29355597"
       x="77.462761"
       y="44.876953"
       width="1491.981"
       height="1014.4153"
       id="rect4921" />
    <path
       style="fill:none;stroke:#000000;stroke-width:3.29355597"
       inkscape:connector-curvature="0"
       d="M 77.462725,1059.2922 H 1569.4436"
       id="path4923" />
    <text
       style="font-size:59.28401184px;font-weight:bold;fill:#000000;font-family:Helvetica"
       x="1549.6824"
       y="1177.8602"
       font-size="18"
       font-weight="bold"
       id="text4925">)</text>
    <text
       x="1520.0404"
       y="1177.8602"
       font-size="18"
       id="text4927"
       style="font-size:59.28401184px;fill:#000000;font-family:Times">α</text>
    <text
       style="font-size:59.28401184px;font-weight:bold;fill:#000000;font-family:Helvetica"
       x="1408.0594"
       y="1177.8602"
       font-size="18"
       font-weight="bold"
       id="text4929">sin(</text>
    <path
       style="fill:none;stroke:#000000;stroke-width:3.29355597"
       inkscape:connector-curvature="0"
       d="m 199.3243,1026.3567 v 32.9355"
       id="path4931" />
    <path
       style="fill:none;stroke:#000000;stroke-width:3.29355597"
       inkscape:connector-curvature="0"
       d="m 261.90187,1042.8244 v 16.4678"
       id="path4933" />
    <path
       style="fill:none;stroke:#000000;stroke-width:3.29355597"
       inkscape:connector-curvature="0"
       d="m 324.47943,1042.8244 v 16.4678"
       id="path4935" />
    <path
       style="fill:none;stroke:#000000;stroke-width:3.29355597"
       inkscape:connector-curvature="0"
       d="m 387.05698,1042.8244 v 16.4678"
       id="path4937" />
    <path
       style="fill:none;stroke:#000000;stroke-width:3.29355597"
       inkscape:connector-curvature="0"
       d="m 449.63455,1042.8244 v 16.4678"
       id="path4939" />
    <path
       style="fill:none;stroke:#000000;stroke-width:3.29355597"
       inkscape:connector-curvature="0"
       d="m 512.21212,1026.3567 v 32.9355"
       id="path4941" />
    <path
       style="fill:none;stroke:#000000;stroke-width:3.29355597"
       inkscape:connector-curvature="0"
       d="m 574.78968,1042.8244 v 16.4678"
       id="path4943" />
    <path
       style="fill:none;stroke:#000000;stroke-width:3.29355597"
       inkscape:connector-curvature="0"
       d="m 637.36725,1042.8244 v 16.4678"
       id="path4945" />
    <path
       style="fill:none;stroke:#000000;stroke-width:3.29355597"
       inkscape:connector-curvature="0"
       d="m 699.94482,1042.8244 v 16.4678"
       id="path4947" />
    <path
       style="fill:none;stroke:#000000;stroke-width:3.29355597"
       inkscape:connector-curvature="0"
       d="m 762.52238,1042.8244 v 16.4678"
       id="path4949" />
    <path
       style="fill:none;stroke:#000000;stroke-width:3.29355597"
       inkscape:connector-curvature="0"
       d="m 821.80639,1026.3567 v 32.9355"
       id="path4951" />
    <path
       style="fill:none;stroke:#000000;stroke-width:3.29355597"
       inkscape:connector-curvature="0"
       d="m 884.38396,1042.8244 v 16.4678"
       id="path4953" />
    <path
       style="fill:none;stroke:#000000;stroke-width:3.29355597"
       inkscape:connector-curvature="0"
       d="m 946.96152,1042.8244 v 16.4678"
       id="path4955" />
    <path
       style="fill:none;stroke:#000000;stroke-width:3.29355597"
       inkscape:connector-curvature="0"
       d="m 1009.5391,1042.8244 v 16.4678"
       id="path4957" />
    <path
       style="fill:none;stroke:#000000;stroke-width:3.29355597"
       inkscape:connector-curvature="0"
       d="m 1072.1166,1042.8244 v 16.4678"
       id="path4959" />
    <path
       style="fill:none;stroke:#000000;stroke-width:3.29355597"
       inkscape:connector-curvature="0"
       d="m 1134.6942,1026.3567 v 32.9355"
       id="path4961" />
    <path
       style="fill:none;stroke:#000000;stroke-width:3.29355597"
       inkscape:connector-curvature="0"
       d="m 1197.2718,1042.8244 v 16.4678"
       id="path4963" />
    <path
       style="fill:none;stroke:#000000;stroke-width:3.29355597"
       inkscape:connector-curvature="0"
       d="m 1259.8493,1042.8244 v 16.4678"
       id="path4965" />
    <path
       style="fill:none;stroke:#000000;stroke-width:3.29355597"
       inkscape:connector-curvature="0"
       d="m 1322.4269,1042.8244 v 16.4678"
       id="path4967" />
    <path
       style="fill:none;stroke:#000000;stroke-width:3.29355597"
       inkscape:connector-curvature="0"
       d="m 1385.0044,1042.8244 v 16.4678"
       id="path4969" />
    <path
       style="fill:none;stroke:#000000;stroke-width:3.29355597"
       inkscape:connector-curvature="0"
       d="m 1447.5821,1026.3567 v 32.9355"
       id="path4971" />
    <path
       style="fill:none;stroke:#000000;stroke-width:3.29355597"
       inkscape:connector-curvature="0"
       d="m 199.3243,1026.3567 v 32.9355"
       id="path4973" />
    <path
       style="fill:none;stroke:#000000;stroke-width:3.29355597"
       inkscape:connector-curvature="0"
       d="m 136.74673,1042.8244 v 16.4678"
       id="path4975" />
    <path
       style="fill:none;stroke:#000000;stroke-width:3.29355597"
       inkscape:connector-curvature="0"
       d="m 1447.5821,1026.3567 v 32.9355"
       id="path4977" />
    <path
       style="fill:none;stroke:#000000;stroke-width:3.29355597"
       inkscape:connector-curvature="0"
       d="m 1506.8661,1042.8244 v 16.4678"
       id="path4979" />
    <text
       style="font-size:59.28401184px;font-weight:bold;fill:#000000;font-family:Helvetica"
       x="176.26945"
       y="1115.2826"
       font-size="18"
       font-weight="bold"
       id="text4981">-1</text>
    <text
       style="font-size:59.28401184px;font-weight:bold;fill:#000000;font-family:Helvetica"
       x="459.51526"
       y="1115.2826"
       font-size="18"
       font-weight="bold"
       id="text4983">-0.5</text>
    <text
       style="font-size:59.28401184px;font-weight:bold;fill:#000000;font-family:Helvetica"
       x="808.6322"
       y="1115.2826"
       font-size="18"
       font-weight="bold"
       id="text4985">0</text>
    <text
       style="font-size:59.28401184px;font-weight:bold;fill:#000000;font-family:Helvetica"
       x="1095.1716"
       y="1115.2826"
       font-size="18"
       font-weight="bold"
       id="text4987">0.5</text>
    <text
       style="font-size:59.28401184px;font-weight:bold;fill:#000000;font-family:Helvetica"
       x="1431.1144"
       y="1115.2826"
       font-size="18"
       font-weight="bold"
       id="text4989">1</text>
    <path
       style="fill:none;stroke:#000000;stroke-width:3.29355597"
       inkscape:connector-curvature="0"
       d="M 77.462725,1059.2922 V 44.876921"
       id="path4991" />
    <g
       transform="matrix(0,-3.2935562,3.2935562,0,-98.281337,128.70333)"
       id="g4993">
      <text
         x="16"
         y="44"
         font-size="18"
         font-weight="bold"
         id="text4995"
         style="font-size:18px;font-weight:bold;fill:#000000;font-family:Helvetica">)</text>
    </g>
    <g
       transform="matrix(0,-3.2935562,3.2935562,0,-134.51045,158.34533)"
       id="g4997">
      <text
         x="16"
         y="55"
         font-size="18"
         id="text4999"
         style="font-size:18px;fill:#000000;font-family:Times">α</text>
    </g>
    <text
       transform="matrix(0,-1,1,0,0,0)"
       x="-148.46466"
       y="46.635117"
       font-size="18"
       font-weight="bold"
       id="text5003"
       style="font-size:59.28401184px;font-weight:bold;fill:#000000;font-family:Helvetica">I(</text>
    <path
       style="fill:none;stroke:#000000;stroke-width:3.29355597"
       inkscape:connector-curvature="0"
       d="M 120.27895,1059.2922 H 77.462725"
       id="path5005" />
    <g
       id="g5469"
       transform="matrix(3.2935562,0,0,3.2935562,-145.01979,1879.7785)">
      <path
         id="path5461"
         d="m 103.38775,-252.82275 h 3 v -1 h 9 v -1 h 4 v -1 h 3 l 1,-1 h 2 l 1,-1 h 2 v -1 h 3 v -1 h 2 l 1,-1 h 2 v -1 h 3 v -1 h 2 v -1 h 3 v -1 h 4 v -1 h 6 v -1 h 5.99999 l 1,1 h 5 v 1 h 3 v 1 h 3 v 1 h 2 l 1,1 h 1 l 1,1 h 2 v 1 h 1 l 1,1 h 1 l 1,1 h 1 l 1,1 h 2 v 1 h 2 v 1 h 3 v 1 h 5 v 1 h 2 v -1 h 4 l 1,-1 h 1 l 1,-1 h 1 v -1 h 1 v -1 h 1 l 1,-1 v -1 h 1 v -1 h 1 v -1 h 1 v -1 l 1,-1 v -1 h 1 v -1 h 1 v -2 h 1 v -2 h 1 v -2 h 1 v -2 h 1 v -2 h 1 v -2 l 1,-1 v -1 l 1,-1 v -2 l 1,-1 v -2 h 1 v -3 h 1 v -2 l 1,-1 v -3 h 1 v -3 h 1 v -3 h 1 v -4 h 1 v -3 l 1,-1 v -2 l 1,-1 v -3 l 1,-1 v -3 l 1,-1 v -3 l 1,-1 v -3 l 1,-1 v -4 h 1 v -4 h 1 v -4 l 1,-1 v -4 l 1,-1 v -3 l 1,-1 v -3 l 1,-1 v -4 l 1,-1 v -4 l 1,-1 v -4 l 1,-1 v -3 l 1,-1 v -5 l 1,-1 v -3 l 1,-1 v -4 l 1,-1 v -4 l 1,-1 v -4 l 1,-1 v -4 l 1,-1 v -4 l 1,-1 v -5 l 1,-1 v -3 l 1,-1 v -4 l 1,-0.99999 v -4 l 1,-1 v -4 l 1,-1 v -4 l 1,-1 v -4 l 1,-1 v -4 l 1,-1 v -4 h 1 v -4 l 1,-1 v -4 l 1,-1 v -3 l 1,-1 v -4 h 1 v -4 l 1,-1 v -4 h 1 v -3 l 1,-1 v -3 l 1,-1 v -4 h 1 v -3 l 1,-1 v -2 l 1,-1 v -3 h 1 v -3 l 1,-1 v -2 l 1,-1 v -2 l 1,-1 v -2.00001 l 1,-1 v -2 h 1 v -2 l 1,-1 v -1 l 1,-1 v -2 h 1 v -2 h 1 v -1 l 1,-1 v -1 h 1 v -1 l 1,-1 1,-1 1,-1 h 1 v -0.99999 h 5 v 0.99999 h 1 v 1 h 1 l 1,1 1,1 v 1 h 1 v 1 l 1,1 v 1 h 1 v 2 l 1,1 v 1 l 1,1 v 1 l 1,1 v 2 h 1 v 3 h 1 v 2.00001 l 1,1 v 2 l 1,1 v 3 h 1 v 3 h 1 v 3 l 1,1 v 3 l 1,1 v 2 l 1,1 v 3 l 1,1 v 3 l 1,1 v 3 l 1,1 v 3 l 1,1 v 4 h 1 v 5 h 1 v 4 l 1,1 v 3 l 1,1 v 4 h 1 v 5 l 1,1 v 3 l 1,1 v 4 l 1,1 v 5 l 1,1 v 3 l 1,1 v 4 l 1,0.99999 v 4 l 1,1 v 4 l 1,1 v 4 l 1,1 v 4 l 1,1 v 5 h 1 v 4 l 1,1 v 4 l 1,1 v 5 l 1,1 v 3 l 1,1 v 4 l 1,1 v 3 l 1,1 v 5 l 1,1 v 3 l 1,1 v 4 l 1,1 v 4 l 1,1 v 3 l 1,1 v 3 l 1,1 v 4 h 1 v 4 l 1,1 v 3 l 1,1 v 3 l 1,1 v 4 h 1 v 3 l 1,1 v 3 l 1,1 v 2 l 1,1 v 3 l 1,1 v 3 h 1 v 3 h 1 v 3 l 1,1 v 2 l 1,1 v 2 h 1 v 3 l 1,1 v 2 h 1 v 2 l 1,1 v 1 l 1,1 v 2 h 1 v 2 h 1 v 2 h 1 v 2 l 1,1 v 1 h 1 v 2 h 1 v 1 h 1 v 2 h 1 v 1 h 1 v 1 h 1 v 1 l 1,1 1,1 h 1 v 1 h 1 v 1 h 1 l 1,1 h 1 v 1 h 5 v 1 h 2 v -1 h 5 v -1 h 3 v -1 h 2 v -1 h 2 l 1,-1 h 1 v -1 h 2 l 1,-1 h 1 v -1 h 2 v -1 h 2 l 1,-1 h 2 v -1 h 2 l 1,-1 h 3 v -1 h 5 l 1,-1 h 6 v 1 h 6 v 1 h 3 l 1,1 h 2 l 1,1 h 2 v 1 h 3 v 1 h 2 l 1,1 h 2 v 1 h 2 l 1,1 h 2 l 1,1 h 2 l 1,1 h 3 v 1 h 4 v 1 h 9 v 1 h 2"
         inkscape:connector-curvature="0"
         style="fill:none;stroke:#cc6666;stroke-width:5;stroke-dasharray:5, 5" />
    </g>
    <path
       style="fill:none;stroke:#000066;stroke-width:16.46778107"
       inkscape:connector-curvature="0"
       d="m 199.3243,1059.2922 h 36.22912 l 3.29355,-3.2936 h 3.29356 v 3.2936 h 19.76134 v -3.2936 h 9.88066 v 3.2936 h 13.17423 v -3.2936 h 13.17423 v 3.2936 h 13.17422 v -3.2936 h 13.17422 v 3.2936 h 9.88064 v -3.2936 h 19.76134 v 3.2936 h 3.29355 l 3.29356,-3.2936 h 19.76135 v 3.2936 h 3.29355 v -3.2936 h 3.29356 l 3.29355,-3.2935 v -3.2936 h 3.29356 v -6.5871 l 3.29356,-3.2935 v -6.5871 h 3.29355 v -6.5871 l 3.29356,-3.2936 v -3.2936 h 6.58711 l 3.29356,3.2936 v 3.2936 l 3.29356,3.2935 v 6.5871 h 3.29355 v 6.5871 l 3.29355,3.2936 v 3.2935 h 3.29356 v 6.5871 h 6.58712 v 3.2936 h 3.29355 v -3.2936 h 19.76134 v 3.2936 h 9.88067 v -3.2936 h 9.88066 v 3.2936 h 69.16468 v -3.2936 h 13.17423 l 3.29355,3.2936 h 6.58712 v -3.2936 h 19.76134 v 3.2936 h 3.29355 v -3.2936 h 3.29355 v -6.5871 l 3.29357,-3.2935 v -9.8807 l 3.29355,-3.2935 v -19.7613 l 3.29356,-3.2936 v -23.05492 l 3.29355,-6.58711 v -32.93556 l 3.29355,-6.58712 v -19.76133 l 3.29357,-6.58711 v -13.17423 l 3.29355,-3.29355 h 3.29356 v 13.17423 l 3.29355,3.29355 v 23.05489 l 3.29356,6.58711 v 26.34845 l 3.29356,6.58711 v 32.93559 l 3.29355,6.5871 v 19.7613 l 3.29356,3.2936 v 13.1742 l 3.29355,3.2935 v 3.2936 l 3.29356,-3.2936 v -3.2935 h 3.29356 v -6.5871 h 3.29356 v -3.2936 h 6.5871 v 3.2936 h 3.29356 v 6.5871 h 3.29356 v 3.2935 h 3.29356 v 3.2936 l 3.29355,-3.2936 h 3.29355 v -3.2935 l 3.29356,-3.2936 h 9.88067 v 6.5871 h 6.58711 v 3.2936 l 3.29355,-3.2936 h 3.29357 v -3.2935 h 3.29355 v -3.2936 h 6.58711 v 3.2936 h 3.29356 v 3.2935 h 6.58711 v 3.2936 -3.2936 h 3.29356 l 3.29355,-3.2935 v -3.2936 h 3.29356 v -3.2935 h 6.58712 v 3.2935 h 3.29355 v 3.2936 l 3.29355,3.2935 3.29356,3.2936 v -3.2936 h 3.29356 v -3.2935 h 3.29356 v -6.5871 l 3.29355,-3.2936 v -3.2935 h 6.58711 v 3.2935 l 3.29356,3.2936 v 6.5871 h 3.29356 v 3.2935 l 3.29355,3.2936 v -3.2936 h 3.29356 v -13.1742 h 3.29355 v -13.1742 l 3.29356,-3.2935 v -9.8807 l 3.29356,-3.2935 h 3.29355 v 9.8806 l 3.29356,3.2936 v 16.4677 l 3.29355,3.2936 v 9.8806 l 3.29357,3.2936 v -16.4678 l 3.29355,-6.5871 v -49.40332 l 3.29355,-16.46778 v -92.21957 l 3.29356,-29.642 V 687.12037 l 3.29355,-36.22912 V 502.68122 l 3.29357,-36.22911 V 328.12275 l 3.29355,-32.93556 V 196.3805 l 3.29355,-19.76133 V 137.0965 h 3.29356 v 39.52267 l 3.29355,19.76133 v 98.80669 l 3.29356,32.93556 v 174.55847 l 3.29356,36.22912 v 148.21003 l 3.29356,36.22912 v 125.15514 l 3.29355,29.642 v 92.21957 l 3.29355,16.46778 v 55.99042 l 3.29356,6.5871 v 9.8807 l 3.29356,-3.2936 v -9.8806 l 3.29356,-3.2936 v -19.7613 l 3.29355,-3.2936 v -6.587 h 3.29356 l 3.29355,3.2935 v 9.8807 l 3.29356,3.2935 v 13.1742 l 3.29356,3.2936 v 9.8806 h 3.29355 v 3.2936 l 3.29356,-3.2936 v -3.2935 h 3.29355 v -6.5871 l 3.29356,-3.2936 v -3.2935 h 3.29356 l 3.29355,3.2935 v 3.2936 h 3.29356 v 6.5871 h 3.29355 v 3.2935 h 3.29357 v 3.2936 -3.2936 h 3.29355 l 3.29355,-3.2935 v -3.2936 h 3.29356 v -3.2935 h 6.58712 v 3.2935 h 3.29355 v 3.2936 l 3.29356,3.2935 3.29355,3.2936 v -3.2936 h 6.58712 v -3.2935 l 3.29355,-3.2936 h 6.58711 v 3.2936 h 3.29355 v 3.2935 h 3.29357 l 3.29355,3.2936 v -3.2936 h 3.29356 l 3.29355,-3.2935 v -3.2936 h 9.88067 v 3.2936 h 3.29356 v 3.2935 h 3.29355 l 3.29356,3.2936 v -3.2936 h 3.29355 v -3.2935 h 3.29357 v -6.5871 h 3.29355 v -3.2936 h 6.58712 v 3.2936 h 3.29358 v 6.5871 h 3.29354 v 6.5871 h 3.2935 v -3.2936 l 3.2936,-3.2935 v -13.1742 l 3.2936,-3.2936 v -26.3484 l 3.2934,-6.5871 v -26.34849 l 3.2936,-6.58711 v -26.34845 l 3.2936,-6.58711 v -23.05489 l 3.2936,-3.29355 v -13.17423 h 3.2935 l 3.2936,3.29355 v 13.17423 l 3.2935,6.58711 v 26.34845 l 3.2936,6.58711 v 26.34845 l 3.2935,6.58711 v 23.05492 l 3.2936,3.2936 v 23.0548 l 3.2936,3.2936 v 9.8806 l 3.2934,3.2936 v 3.2935 h 3.2936 v 3.2936 h 3.2936 v -3.2936 h 19.7613 v 3.2936 h 6.5872 l 3.2935,-3.2936 h 13.1743 v 3.2936 h 69.1646 v -3.2936 h 9.8806 v 3.2936 h 9.8808 v -3.2936 h 19.7613 v 3.2936 h 3.2936 v -3.2936 h 6.587 v -6.5871 h 3.2936 v -3.2935 l 3.2936,-3.2936 v -6.5871 l 3.2936,-3.2935 v -6.5871 h 3.2935 v -3.2936 l 3.2935,-3.2936 h 6.5872 v 3.2936 l 3.2935,3.2936 v 6.5871 h 3.2936 v 9.8806 h 3.2935 v 6.5871 h 3.2936 v 3.2936 l 3.2935,3.2935 h 3.2936 v 3.2936 h 3.2936 v -3.2936 h 19.7613 v 3.2936 h 6.5871 v -3.2936 h 19.7613 v 3.2936 h 6.5872 l 3.2935,-3.2936 h 13.1742 v 3.2936 h 13.1742 v -3.2936 h 13.1743 v 3.2936 h 13.1742 v -3.2936 h 9.8806 v 3.2936 h 19.7614 v -3.2936 h 3.2936 v 3.2936 h 36.2291"
       id="path5095" />
  </g>
</svg>
