<?xml version="1.0" standalone="no"?>
<svg width="567" height="384" viewBox="0 0 567 384" xmlns="http://www.w3.org/2000/svg">
<title>
/home/eva/Module/svn/physik/Modul_10/Bilder/Gitter_Einhuellende.svg
</title>
<desc>
Creator: ROOT Version 5.32/02
CreationDate: Fri Oct  5 14:41:48 2012</desc>
<defs>
</defs>
<rect x="0" y="0" width="567" height="384" fill="white"/>
<rect x="57" y="38" width="453" height="308" fill="white"/>
<rect x="57" y="38" width="453" height="308" fill="none" stroke="black"/>
<rect x="57" y="38" width="453" height="308" fill="white"/>
<rect x="57" y="38" width="453" height="308" fill="none" stroke="black"/>
<path d="M57,346h 453" fill="none" stroke="black"/>
<path d="M94,336v 10" fill="none" stroke="black"/>
<path d="M113,341v 5" fill="none" stroke="black"/>
<path d="M132,341v 5" fill="none" stroke="black"/>
<path d="M151,341v 5" fill="none" stroke="black"/>
<path d="M170,341v 5" fill="none" stroke="black"/>
<path d="M189,336v 10" fill="none" stroke="black"/>
<path d="M208,341v 5" fill="none" stroke="black"/>
<path d="M227,341v 5" fill="none" stroke="black"/>
<path d="M246,341v 5" fill="none" stroke="black"/>
<path d="M265,341v 5" fill="none" stroke="black"/>
<path d="M283,336v 10" fill="none" stroke="black"/>
<path d="M302,341v 5" fill="none" stroke="black"/>
<path d="M321,341v 5" fill="none" stroke="black"/>
<path d="M340,341v 5" fill="none" stroke="black"/>
<path d="M359,341v 5" fill="none" stroke="black"/>
<path d="M378,336v 10" fill="none" stroke="black"/>
<path d="M397,341v 5" fill="none" stroke="black"/>
<path d="M416,341v 5" fill="none" stroke="black"/>
<path d="M435,341v 5" fill="none" stroke="black"/>
<path d="M454,341v 5" fill="none" stroke="black"/>
<path d="M473,336v 10" fill="none" stroke="black"/>
<path d="M94,336v 10" fill="none" stroke="black"/>
<path d="M75,341v 5" fill="none" stroke="black"/>
<path d="M473,336v 10" fill="none" stroke="black"/>
<path d="M491,341v 5" fill="none" stroke="black"/>
<text x="89" y="358" fill="black" font-size="12" font-family="Helvetica">
-1
</text>
<text x="178" y="358" fill="black" font-size="12" font-family="Helvetica">
-0.5
</text>
<text x="280" y="358" fill="black" font-size="12" font-family="Helvetica">
0
</text>
<text x="369" y="358" fill="black" font-size="12" font-family="Helvetica">
0.5
</text>
<text x="470" y="358" fill="black" font-size="12" font-family="Helvetica">
1
</text>
<path d="M57,346v -308" fill="none" stroke="black"/>
<path d="M70,346h -13" fill="none" stroke="black"/>
<path d="M63,332h -6" fill="none" stroke="black"/>
<path d="M63,318h -6" fill="none" stroke="black"/>
<path d="M63,304h -6" fill="none" stroke="black"/>
<path d="M70,290h -13" fill="none" stroke="black"/>
<path d="M63,276h -6" fill="none" stroke="black"/>
<path d="M63,262h -6" fill="none" stroke="black"/>
<path d="M63,248h -6" fill="none" stroke="black"/>
<path d="M70,234h -13" fill="none" stroke="black"/>
<path d="M63,220h -6" fill="none" stroke="black"/>
<path d="M63,206h -6" fill="none" stroke="black"/>
<path d="M63,192h -6" fill="none" stroke="black"/>
<path d="M70,178h -13" fill="none" stroke="black"/>
<path d="M63,164h -6" fill="none" stroke="black"/>
<path d="M63,150h -6" fill="none" stroke="black"/>
<path d="M63,136h -6" fill="none" stroke="black"/>
<path d="M70,122h -13" fill="none" stroke="black"/>
<path d="M63,108h -6" fill="none" stroke="black"/>
<path d="M63,94h -6" fill="none" stroke="black"/>
<path d="M63,80h -6" fill="none" stroke="black"/>
<path d="M70,66h -13" fill="none" stroke="black"/>
<path d="M70,66h -13" fill="none" stroke="black"/>
<path d="M63,52h -6" fill="none" stroke="black"/>
<text x="47" y="350" fill="black" font-size="12" font-family="Helvetica">
0
</text>
<text x="37" y="294" fill="black" font-size="12" font-family="Helvetica">
0.2
</text>
<text x="37" y="238" fill="black" font-size="12" font-family="Helvetica">
0.4
</text>
<text x="37" y="182" fill="black" font-size="12" font-family="Helvetica">
0.6
</text>
<text x="37" y="127" fill="black" font-size="12" font-family="Helvetica">
0.8
</text>
<text x="49" y="70" fill="black" font-size="12" font-family="Helvetica">
1
</text>
<path d="M94,346h 3v -1h 9v -1h 4v -1h 3l 1, -1h 2l 1, -1h 2v -1h 3v -1h 2l 1, -1h 2v -1h 3v -1h 2v -1h 3v -1h 4v -1h 6v -1h 6l 1, 1h 5v 1h 3v 1h 3v 1h 2l 1, 1h 1l 1, 1h 2v 1h 1l 1, 1h 1l 1, 1h 1l 1, 1h 2v 1h 2v 1h 3v 1h 5v 1h 2v -1h 4l 1, -1h 1l 1,
 -1h 1v -1h 1v -1h 1l 1, -1v -1h 1v -1h 1v -1h 1v -1l 1, -1v -1h 1v -1h 1v -2h 1v -2h 1v -2h 1v -2h 1v -2h 1v -2l 1, -1v -1l 1, -1v -2l 1, -1v -2h 1v -3h 1v -2l 1, -1v -3h 1v -3h 1v -3h 1v -4h 1v -3l 1, -1v -2l 1, -1v -3l 1, -1v -3l 1, -1v -3l 1, -1v
 -3l 1, -1v -4h 1v -4h 1v -4l 1, -1v -4l 1, -1v -3l 1, -1v -3l 1, -1v -4l 1, -1v -4l 1, -1v -4l 1, -1v -3l 1, -1v -5l 1, -1v -3l 1, -1v -4l 1, -1v -4l 1, -1v -4l 1, -1v -4l 1, -1v -4l 1, -1v -5l 1, -1v -3l 1, -1v -4l 1, -1v -4l 1, -1v -4l 1, -1v -4l
 1, -1v -4l 1, -1v -4l 1, -1v -4h 1v -4l 1, -1v -4l 1, -1v -3l 1, -1v -4h 1v -4l 1, -1v -4h 1v -3l 1, -1v -3l 1, -1v -4h 1v -3l 1, -1v -2l 1, -1v -3h 1v -3l 1, -1v -2l 1, -1v -2l 1, -1v -2l 1, -1v -2h 1v -2l 1, -1v -1l 1, -1v -2h 1v -2h 1v -1l 1, -1v
 -1h 1v -1l 1, -1l 1, -1l 1, -1h 1v -1h 5v 1h 1v 1h 1l 1, 1l 1, 1v 1h 1v 1l 1, 1v 1h 1v 2l 1, 1v 1l 1, 1v 1l 1, 1v 2h 1v 3h 1v 2l 1, 1v 2l 1, 1v 3h 1v 3h 1v 3l 1, 1v 3l 1, 1v 2l 1, 1v 3l 1, 1v 3l 1, 1v 3l 1, 1v 3l 1, 1v 4h 1v 5h 1v 4l 1, 1v 3l 1, 1v
 4h 1v 5l 1, 1v 3l 1, 1v 4l 1, 1v 5l 1, 1v 3l 1, 1v 4l 1, 1v 4l 1, 1v 4l 1, 1v 4l 1, 1v 4l 1, 1v 5h 1v 4l 1, 1v 4l 1, 1v 5l 1, 1v 3l 1, 1v 4l 1, 1v 3l 1, 1v 5l 1, 1v 3l 1, 1v 4l 1, 1v 4l 1, 1v 3l 1, 1v 3l 1, 1v 4h 1v 4l 1, 1v 3l 1, 1v 3l 1, 1v 4h 1v
 3l 1, 1v 3l 1, 1v 2l 1, 1v 3l 1, 1v 3h 1v 3h 1v 3l 1, 1v 2l 1, 1v 2h 1v 3l 1, 1v 2h 1v 2l 1, 1v 1l 1, 1v 2h 1v 2h 1v 2h 1v 2l 1, 1v 1h 1v 2h 1v 1h 1v 2h 1v 1h 1v 1h 1v 1l 1, 1l 1, 1h 1v 1h 1v 1h 1l 1, 1h 1v 1h 5v 1h 2v -1h 5v -1h 3v -1h 2v -1h 2l 1,
 -1h 1v -1h 2l 1, -1h 1v -1h 2v -1h 2l 1, -1h 2v -1h 2l 1, -1h 3v -1h 5l 1, -1h 6v 1h 6v 1h 3l 1, 1h 2l 1, 1h 2v 1h 3v 1h 2l 1, 1h 2v 1h 2l 1, 1h 2l 1, 1h 2l 1, 1h 3v 1h 4v 1h 9v 1h 2" fill="none" stroke="#cc6666" stroke-width="5" stroke-dasharray="
 5, 5"/>
<text x="251" y="18" fill="black" font-size="16" font-family="Helvetica">
Funktion
</text></svg>
