<?xml version="1.0" standalone="no"?>
<svg width="567" height="384" viewBox="0 0 567 384" xmlns="http://www.w3.org/2000/svg">
<title>
/home/eva/Module/svn/physik/Modul_10/Bilder/Gitter_Intensitaet.svg
</title>
<desc>
Creator: ROOT Version 5.32/02
CreationDate: Fri Oct  5 14:40:24 2012</desc>
<defs>
</defs>
<rect x="0" y="0" width="567" height="384" fill="white"/>
<rect x="57" y="38" width="453" height="308" fill="white"/>
<rect x="57" y="38" width="453" height="308" fill="none" stroke="black"/>
<rect x="57" y="38" width="453" height="308" fill="white"/>
<rect x="57" y="38" width="453" height="308" fill="none" stroke="black"/>
<path d="M57,346h 453" fill="none" stroke="black"/>
<text x="504" y="382" fill="black" font-size="18" font-family="Helvetica" font-weight="bold">
)
</text>
<text x="493" y="382" fill="black" font-size="18" font-family="Times">
&#0945;
</text>
<text x="461" y="382" fill="black" font-size="18" font-family="Helvetica" font-weight="bold">
sin(
</text>
<path d="M94,336v 10" fill="none" stroke="black"/>
<path d="M113,341v 5" fill="none" stroke="black"/>
<path d="M132,341v 5" fill="none" stroke="black"/>
<path d="M151,341v 5" fill="none" stroke="black"/>
<path d="M170,341v 5" fill="none" stroke="black"/>
<path d="M189,336v 10" fill="none" stroke="black"/>
<path d="M208,341v 5" fill="none" stroke="black"/>
<path d="M227,341v 5" fill="none" stroke="black"/>
<path d="M246,341v 5" fill="none" stroke="black"/>
<path d="M265,341v 5" fill="none" stroke="black"/>
<path d="M283,336v 10" fill="none" stroke="black"/>
<path d="M302,341v 5" fill="none" stroke="black"/>
<path d="M321,341v 5" fill="none" stroke="black"/>
<path d="M340,341v 5" fill="none" stroke="black"/>
<path d="M359,341v 5" fill="none" stroke="black"/>
<path d="M378,336v 10" fill="none" stroke="black"/>
<path d="M397,341v 5" fill="none" stroke="black"/>
<path d="M416,341v 5" fill="none" stroke="black"/>
<path d="M435,341v 5" fill="none" stroke="black"/>
<path d="M454,341v 5" fill="none" stroke="black"/>
<path d="M473,336v 10" fill="none" stroke="black"/>
<path d="M94,336v 10" fill="none" stroke="black"/>
<path d="M75,341v 5" fill="none" stroke="black"/>
<path d="M473,336v 10" fill="none" stroke="black"/>
<path d="M491,341v 5" fill="none" stroke="black"/>
<text x="87" y="363" fill="black" font-size="18" font-family="Helvetica" font-weight="bold">
-1
</text>
<text x="173" y="363" fill="black" font-size="18" font-family="Helvetica" font-weight="bold">
-0.5
</text>
<text x="279" y="363" fill="black" font-size="18" font-family="Helvetica" font-weight="bold">
0
</text>
<text x="366" y="363" fill="black" font-size="18" font-family="Helvetica" font-weight="bold">
0.5
</text>
<text x="468" y="363" fill="black" font-size="18" font-family="Helvetica" font-weight="bold">
1
</text>
<path d="M57,346v -308" fill="none" stroke="black"/>
<g transform="rotate(-90,16,44)">
<text x="16" y="44" fill="black" font-size="18" font-family="Helvetica" font-weight="bold">
)
</text>
</g>
<g transform="rotate(-90,16,55)">
<text x="16" y="55" fill="black" font-size="18" font-family="Times">
&#0945;
</text>
</g>
<g transform="rotate(-90,16,66)">
<text x="16" y="66" fill="black" font-size="18" font-family="Helvetica" font-weight="bold">
I(
</text>
</g>
<path d="M70,346h -13" fill="none" stroke="black"/>
<path d="M63,337h -6" fill="none" stroke="black"/>
<path d="M63,328h -6" fill="none" stroke="black"/>
<path d="M63,319h -6" fill="none" stroke="black"/>
<path d="M63,311h -6" fill="none" stroke="black"/>
<path d="M70,302h -13" fill="none" stroke="black"/>
<path d="M63,293h -6" fill="none" stroke="black"/>
<path d="M63,284h -6" fill="none" stroke="black"/>
<path d="M63,276h -6" fill="none" stroke="black"/>
<path d="M63,267h -6" fill="none" stroke="black"/>
<path d="M70,258h -13" fill="none" stroke="black"/>
<path d="M63,249h -6" fill="none" stroke="black"/>
<path d="M63,241h -6" fill="none" stroke="black"/>
<path d="M63,232h -6" fill="none" stroke="black"/>
<path d="M63,223h -6" fill="none" stroke="black"/>
<path d="M70,214h -13" fill="none" stroke="black"/>
<path d="M63,205h -6" fill="none" stroke="black"/>
<path d="M63,197h -6" fill="none" stroke="black"/>
<path d="M63,188h -6" fill="none" stroke="black"/>
<path d="M63,179h -6" fill="none" stroke="black"/>
<path d="M70,170h -13" fill="none" stroke="black"/>
<path d="M63,162h -6" fill="none" stroke="black"/>
<path d="M63,153h -6" fill="none" stroke="black"/>
<path d="M63,144h -6" fill="none" stroke="black"/>
<path d="M63,135h -6" fill="none" stroke="black"/>
<path d="M70,127h -13" fill="none" stroke="black"/>
<path d="M63,118h -6" fill="none" stroke="black"/>
<path d="M63,109h -6" fill="none" stroke="black"/>
<path d="M63,100h -6" fill="none" stroke="black"/>
<path d="M63,92h -6" fill="none" stroke="black"/>
<path d="M70,83h -13" fill="none" stroke="black"/>
<path d="M63,74h -6" fill="none" stroke="black"/>
<path d="M63,65h -6" fill="none" stroke="black"/>
<path d="M63,57h -6" fill="none" stroke="black"/>
<path d="M63,48h -6" fill="none" stroke="black"/>
<path d="M70,39h -13" fill="none" stroke="black"/>
<path d="M70,39h -13" fill="none" stroke="black"/>
<text x="44" y="351" fill="black" font-size="18" font-family="Helvetica" font-weight="bold">
0
</text>
<text x="34" y="308" fill="black" font-size="18" font-family="Helvetica" font-weight="bold">
10
</text>
<text x="34" y="264" fill="black" font-size="18" font-family="Helvetica" font-weight="bold">
20
</text>
<text x="34" y="220" fill="black" font-size="18" font-family="Helvetica" font-weight="bold">
30
</text>
<text x="34" y="176" fill="black" font-size="18" font-family="Helvetica" font-weight="bold">
40
</text>
<text x="34" y="133" fill="black" font-size="18" font-family="Helvetica" font-weight="bold">
50
</text>
<text x="34" y="89" fill="black" font-size="18" font-family="Helvetica" font-weight="bold">
60
</text>
<text x="34" y="45" fill="black" font-size="18" font-family="Helvetica" font-weight="bold">
70
</text>
<path d="M94,346h 11l 1, -1h 1v 1h 6v -1h 3v 1h 4v -1h 4v 1h 4v -1h 4v 1h 3v -1h 6v 1h 1l 1, -1h 6v 1h 1v -1h 1l 1, -1v -1h 1v -2l 1, -1v -2h 1v -2l 1, -1v -1h 2l 1, 1v 1l 1, 1v 2h 1v 2l 1, 1v 1h 1v 2h 2v 1h 1v -1h 6v 1h 3v -1h 3v 1h 21v -1h 4l 1, 1h
 2v -1h 6v 1h 1v -1h 1v -2l 1, -1v -3l 1, -1v -6l 1, -1v -7l 1, -2v -10l 1, -2v -6l 1, -2v -4l 1, -1h 1v 4l 1, 1v 7l 1, 2v 8l 1, 2v 10l 1, 2v 6l 1, 1v 4l 1, 1v 1l 1, -1v -1h 1v -2h 1v -1h 2v 1h 1v 2h 1v 1h 1v 1l 1, -1h 1v -1l 1, -1h 3v 2h 2v 1l 1,
 -1h 1v -1h 1v -1h 2v 1h 1v 1h 2v 1v -1h 1l 1, -1v -1h 1v -1h 2v 1h 1v 1l 1, 1l 1, 1v -1h 1v -1h 1v -2l 1, -1v -1h 2v 1l 1, 1v 2h 1v 1l 1, 1v -1h 1v -4h 1v -4l 1, -1v -3l 1, -1h 1v 3l 1, 1v 5l 1, 1v 3l 1, 1v -5l 1, -2v -15l 1, -5v -28l 1, -9v -49l 1,
 -11v -45l 1, -11v -42l 1, -10v -30l 1, -6v -12h 1v 12l 1, 6v 30l 1, 10v 53l 1, 11v 45l 1, 11v 38l 1, 9v 28l 1, 5v 17l 1, 2v 3l 1, -1v -3l 1, -1v -6l 1, -1v -2h 1l 1, 1v 3l 1, 1v 4l 1, 1v 3h 1v 1l 1, -1v -1h 1v -2l 1, -1v -1h 1l 1, 1v 1h 1v 2h 1v 1h
 1v 1v -1h 1l 1, -1v -1h 1v -1h 2v 1h 1v 1l 1, 1l 1, 1v -1h 2v -1l 1, -1h 2v 1h 1v 1h 1l 1, 1v -1h 1l 1, -1v -1h 3v 1h 1v 1h 1l 1, 1v -1h 1v -1h 1v -2h 1v -1h 2v 1h 1v 2h 1v 2h 1v -1l 1, -1v -4l 1, -1v -8l 1, -2v -8l 1, -2v -8l 1, -2v -7l 1, -1v -4h
 1l 1, 1v 4l 1, 2v 8l 1, 2v 8l 1, 2v 7l 1, 1v 7l 1, 1v 3l 1, 1v 1h 1v 1h 1v -1h 6v 1h 2l 1, -1h 4v 1h 21v -1h 3v 1h 3v -1h 6v 1h 1v -1h 2v -2h 1v -1l 1, -1v -2l 1, -1v -2h 1v -1l 1, -1h 2v 1l 1, 1v 2h 1v 3h 1v 2h 1v 1l 1, 1h 1v 1h 1v -1h 6v 1h 2v -1h
 6v 1h 2l 1, -1h 4v 1h 4v -1h 4v 1h 4v -1h 3v 1h 6v -1h 1v 1h 11" fill="none" stroke="#000066" stroke-width="5"/>
<text x="250" y="18" fill="white" font-size="17" font-family="Helvetica">
Funktion
</text></svg>
