<?xml version="1.0" encoding="UTF-8" standalone="no"?>
<!-- Created with Inkscape (http://www.inkscape.org/) -->

<svg
   xmlns:dc="http://purl.org/dc/elements/1.1/"
   xmlns:cc="http://creativecommons.org/ns#"
   xmlns:rdf="http://www.w3.org/1999/02/22-rdf-syntax-ns#"
   xmlns:svg="http://www.w3.org/2000/svg"
   xmlns="http://www.w3.org/2000/svg"
   xmlns:sodipodi="http://sodipodi.sourceforge.net/DTD/sodipodi-0.dtd"
   xmlns:inkscape="http://www.inkscape.org/namespaces/inkscape"
   width="1600px"
   height="1200px"
   id="svg7262"
   version="1.1"
   inkscape:version="0.48.3.1 r9886"
   sodipodi:docname="Michelson.png">
  <defs
     id="defs7264">
    <marker
       inkscape:stockid="Arrow1Send"
       orient="auto"
       refY="0.0"
       refX="0.0"
       id="Arrow1Send"
       style="overflow:visible;">
      <path
         id="path4095"
         d="M 0.0,0.0 L 5.0,-5.0 L -12.5,0.0 L 5.0,5.0 L 0.0,0.0 z "
         style="fill-rule:evenodd;stroke:#000000;stroke-width:1.0pt;"
         transform="scale(0.2) rotate(180) translate(6,0)" />
    </marker>
    <marker
       inkscape:stockid="Arrow1Sstart"
       orient="auto"
       refY="0.0"
       refX="0.0"
       id="Arrow1Sstart"
       style="overflow:visible">
      <path
         id="path4092"
         d="M 0.0,0.0 L 5.0,-5.0 L -12.5,0.0 L 5.0,5.0 L 0.0,0.0 z "
         style="fill-rule:evenodd;stroke:#000000;stroke-width:1.0pt"
         transform="scale(0.2) translate(6,0)" />
    </marker>
    <marker
       inkscape:stockid="Arrow1Mstart"
       orient="auto"
       refY="0.0"
       refX="0.0"
       id="Arrow1Mstart"
       style="overflow:visible">
      <path
         id="path4086"
         d="M 0.0,0.0 L 5.0,-5.0 L -12.5,0.0 L 5.0,5.0 L 0.0,0.0 z "
         style="fill-rule:evenodd;stroke:#000000;stroke-width:1.0pt"
         transform="scale(0.4) translate(10,0)" />
    </marker>
  </defs>
  <sodipodi:namedview
     id="base"
     pagecolor="#ffffff"
     bordercolor="#666666"
     borderopacity="1.0"
     inkscape:pageopacity="0.0"
     inkscape:pageshadow="2"
     inkscape:zoom="0.6"
     inkscape:cx="812.43406"
     inkscape:cy="633.33333"
     inkscape:current-layer="layer1"
     inkscape:document-units="px"
     showgrid="false"
     inkscape:window-width="1920"
     inkscape:window-height="1033"
     inkscape:window-x="-2"
     inkscape:window-y="-3"
     inkscape:window-maximized="1" />
  <metadata
     id="metadata7267">
    <rdf:RDF>
      <cc:Work
         rdf:about="">
        <dc:format>image/svg+xml</dc:format>
        <dc:type
           rdf:resource="http://purl.org/dc/dcmitype/StillImage" />
        <dc:title></dc:title>
      </cc:Work>
    </rdf:RDF>
  </metadata>
  <g
     id="layer1"
     inkscape:label="Layer 1"
     inkscape:groupmode="layer">
    <path
       style="fill:#000626;fill-opacity:1;stroke:#ff9b00;stroke-width:10;stroke-linecap:butt;stroke-linejoin:miter;stroke-miterlimit:4;stroke-opacity:1;stroke-dasharray:none"
       d="m 110,573.333 1239.3333,0"
       id="path7882"
       inkscape:connector-curvature="0"
       sodipodi:nodetypes="cc" />
    <path
       style="fill:#000626;fill-opacity:1;stroke:#ff9b00;stroke-width:10;stroke-linecap:butt;stroke-linejoin:miter;stroke-miterlimit:4;stroke-opacity:1;stroke-dasharray:none"
       d="m 789.99999,1101.3325 0,-991.33249"
       id="path7882-8"
       inkscape:connector-curvature="0"
       sodipodi:nodetypes="cc" />
    <path
       style="fill:#000626;fill-opacity:1;stroke:#b2b2b2;stroke-width:50.073;stroke-linecap:butt;stroke-linejoin:miter;stroke-miterlimit:4;stroke-opacity:1;stroke-dasharray:none"
       d="M 669.89603,693.77074 909.4373,454.22945"
       id="path7882-4"
       inkscape:connector-curvature="0"
       sodipodi:nodetypes="cc" />
    <path
       style="fill:none;stroke:#787878;stroke-width:46.28406524999999760;stroke-linecap:butt;stroke-linejoin:miter;stroke-miterlimit:4;stroke-opacity:1;stroke-dasharray:none"
       d="m 625.4728,86.66667 335.72103,0"
       id="path4036-51-4-5"
       inkscape:connector-curvature="0"
       sodipodi:nodetypes="cc" />
    <path
       style="fill:none;stroke:#bababa;stroke-width:98.47575378;stroke-linecap:butt;stroke-linejoin:miter;stroke-miterlimit:4;stroke-opacity:1;stroke-dasharray:none"
       d="m 1564.758,1142.8923 -1519.737936,0"
       id="path4036-51"
       inkscape:connector-curvature="0"
       sodipodi:nodetypes="cc" />
    <text
       xml:space="preserve"
       style="font-size:56px;font-style:normal;font-variant:normal;font-weight:bold;font-stretch:normal;line-height:125%;letter-spacing:0px;word-spacing:0px;fill:#000000;fill-opacity:1;stroke:none;font-family:FreeSans;-inkscape-font-specification:Sans Bold"
       x="556.66669"
       y="1162.6666"
       id="text7307"
       sodipodi:linespacing="125%"><tspan
         sodipodi:role="line"
         id="tspan7309"
         x="556.66669"
         y="1162.6666">Beobachtungsschirm</tspan></text>
    <path
       style="fill:none;stroke:#787878;stroke-width:46.28406525;stroke-linecap:butt;stroke-linejoin:miter;stroke-miterlimit:4;stroke-opacity:1;stroke-dasharray:none"
       d="m 1346,747.40047 0,-335.72105"
       id="path4036-51-4"
       inkscape:connector-curvature="0"
       sodipodi:nodetypes="cc" />
    <path
       style="fill:none;stroke:#000000;stroke-width:17.2;stroke-linecap:butt;stroke-linejoin:miter;stroke-miterlimit:4;stroke-opacity:1;stroke-dasharray:none;marker-start:url(#Arrow1Sstart);marker-mid:none;marker-end:url(#Arrow1Send)"
       d="m 1417.3333,580 139.3334,0"
       id="path7920"
       inkscape:connector-curvature="0"
       sodipodi:nodetypes="cc" />
    <path
       style="fill:#ff9b00;fill-opacity:1;fill-rule:evenodd;stroke:#ff9b00;stroke-width:0;stroke-linecap:round;stroke-miterlimit:4;stroke-opacity:1;stroke-dasharray:none;stroke-dashoffset:0"
       d="m 749.18625,470.66667 c 0.22318,-0.6875 9.5406,-33.21323 20.70538,-72.27939 11.16478,-39.06617 20.55318,-70.75367 20.86312,-70.41667 0.59175,0.64342 40.74525,140.85554 40.74525,142.27846 0,0.45183 -9.18752,-8.36028 -20.41673,-19.58247 l -20.41673,-20.40398 -20.94303,20.82703 c -11.51867,11.45486 -20.76043,20.26452 -20.53726,19.57702 z"
       id="path8852"
       inkscape:connector-curvature="0" />
    <path
       style="fill:#ff9b00;fill-opacity:1;fill-rule:evenodd;stroke:#ff9b00;stroke-width:0;stroke-linecap:round;stroke-miterlimit:4;stroke-opacity:1;stroke-dasharray:none;stroke-dashoffset:0"
       d="m 749.67844,171.16946 c 0.22318,0.6875 9.5406,33.21323 20.70538,72.27939 11.16478,39.06617 20.55318,70.75367 20.86312,70.41667 0.59175,-0.64342 40.74525,-140.85554 40.74525,-142.27846 0,-0.45183 -9.18752,8.36028 -20.41673,19.58247 l -20.41673,20.40398 -20.94303,-20.82703 c -11.51867,-11.45486 -20.76043,-20.26452 -20.53726,-19.57702 z"
       id="path8852-8"
       inkscape:connector-curvature="0" />
    <path
       style="fill:#ff9b00;fill-opacity:1;fill-rule:evenodd;stroke:#ff9b00;stroke-width:0;stroke-linecap:round;stroke-miterlimit:4;stroke-opacity:1;stroke-dasharray:none;stroke-dashoffset:0"
       d="m 1231.3305,613.65487 c -0.6875,-0.2232 -33.2132,-9.5406 -72.2794,-20.7054 -39.0662,-11.1647 -70.7536,-20.5531 -70.4166,-20.8631 0.6434,-0.5917 140.8555,-40.7452 142.2784,-40.7452 0.4518,0 -8.3603,9.1875 -19.5825,20.4167 l -20.4039,20.4167 20.827,20.9431 c 11.4548,11.5186 20.2645,20.7604 19.577,20.5372 z"
       id="path8852-7"
       inkscape:connector-curvature="0" />
    <path
       style="fill:#ff9b00;fill-opacity:1;fill-rule:evenodd;stroke:#ff9b00;stroke-width:0;stroke-linecap:round;stroke-miterlimit:4;stroke-opacity:1;stroke-dasharray:none;stroke-dashoffset:0"
       d="m 933.66949,532.17842 c 0.6875,0.22318 33.21323,9.5406 72.27941,20.70538 39.0662,11.16478 70.7537,20.55318 70.4167,20.86312 -0.6435,0.59175 -140.85559,40.74529 -142.27851,40.74529 -0.45183,0 8.36028,-9.18756 19.58247,-20.41677 l 20.40398,-20.41673 -20.82703,-20.94303 c -11.45486,-11.51867 -20.26452,-20.76043 -19.57702,-20.53726 z"
       id="path8852-0"
       inkscape:connector-curvature="0" />
    <path
       style="fill:#ff9b00;fill-opacity:1;fill-rule:evenodd;stroke:#ff9b00;stroke-width:0;stroke-linecap:round;stroke-miterlimit:4;stroke-opacity:1;stroke-dasharray:none;stroke-dashoffset:0"
       d="m 748.51177,785.33613 c 0.22318,0.6875 9.5406,33.21324 20.70538,72.27944 11.16478,39.0661 20.55318,70.7536 20.86312,70.4166 0.59175,-0.6434 40.74525,-140.85554 40.74525,-142.27844 0,-0.4519 -9.18752,8.3602 -20.41673,19.5824 l -20.41673,20.40404 -20.94303,-20.82704 c -11.51867,-11.4549 -20.76043,-20.2645 -20.53726,-19.577 z"
       id="path8852-1"
       inkscape:connector-curvature="0" />
    <path
       style="fill:#ff9b00;fill-opacity:1;fill-rule:evenodd;stroke:#ff9b00;stroke-width:0;stroke-linecap:round;stroke-miterlimit:4;stroke-opacity:1;stroke-dasharray:none;stroke-dashoffset:0"
       d="m 418.66947,530.8451 c 0.6875,0.22318 33.21323,9.5406 72.27939,20.70538 39.06617,11.16478 70.75367,20.55318 70.41667,20.86312 -0.64342,0.59175 -140.85554,40.74525 -142.27846,40.74525 -0.45183,0 8.36028,-9.18752 19.58247,-20.41673 l 20.40398,-20.41673 -20.82703,-20.94303 C 426.79163,539.86369 417.98197,530.62193 418.66947,530.8451 z"
       id="path8852-08"
       inkscape:connector-curvature="0" />
    <text
       xml:space="preserve"
       style="font-size:56px;font-style:normal;font-variant:normal;font-weight:bold;font-stretch:normal;line-height:125%;letter-spacing:0px;word-spacing:0px;fill:#000000;fill-opacity:1;stroke:none;font-family:FreeSans;-inkscape-font-specification:Sans Bold"
       x="1241.6666"
       y="390"
       id="text8900"
       sodipodi:linespacing="125%"><tspan
         sodipodi:role="line"
         id="tspan8902"
         x="1241.6666"
         y="390">Spiegel 2</tspan></text>
    <text
       xml:space="preserve"
       style="font-size:56px;font-style:normal;font-variant:normal;font-weight:bold;font-stretch:normal;line-height:125%;letter-spacing:0px;word-spacing:0px;fill:#000000;fill-opacity:1;stroke:none;font-family:FreeSans;-inkscape-font-specification:Sans Bold"
       x="979.13715"
       y="102.97733"
       id="text8900-0"
       sodipodi:linespacing="125%"><tspan
         sodipodi:role="line"
         id="tspan8902-3"
         x="979.13715"
         y="102.97733">Spiegel 1</tspan></text>
    <text
       xml:space="preserve"
       style="font-size:56px;font-style:normal;font-variant:normal;font-weight:bold;font-stretch:normal;line-height:125%;letter-spacing:0px;word-spacing:0px;fill:#000000;fill-opacity:1;stroke:none;font-family:FreeSans;-inkscape-font-specification:Sans Bold"
       x="800"
       y="658.33337"
       id="text8925"
       sodipodi:linespacing="125%"><tspan
         sodipodi:role="line"
         id="tspan8927"
         x="800"
         y="658.33337">halbdurchlässiger</tspan><tspan
         sodipodi:role="line"
         x="800"
         y="728.33337"
         id="tspan8929">Spiegel</tspan></text>
    <path
       sodipodi:type="arc"
       style="fill:#ffc500;fill-opacity:1;fill-rule:evenodd;stroke:#ffc500;stroke-width:6.30066872;stroke-linecap:round;stroke-miterlimit:4;stroke-opacity:1;stroke-dasharray:none;stroke-dashoffset:0"
       id="path2993-0"
       sodipodi:cx="1300"
       sodipodi:cy="800"
       sodipodi:rx="70"
       sodipodi:ry="60"
       d="m 1370,800 a 70,60 0 1 1 -140,0 70,60 0 1 1 140,0 z"
       transform="matrix(0.51446904,1.1760422e-4,-0.02379641,0.61991437,-559.77263,76.582285)" />
  </g>
</svg>
