<?xml version="1.0" encoding="UTF-8" standalone="no"?>
<!-- Created with Inkscape (http://www.inkscape.org/) -->

<svg
   xmlns:dc="http://purl.org/dc/elements/1.1/"
   xmlns:cc="http://creativecommons.org/ns#"
   xmlns:rdf="http://www.w3.org/1999/02/22-rdf-syntax-ns#"
   xmlns:svg="http://www.w3.org/2000/svg"
   xmlns="http://www.w3.org/2000/svg"
   xmlns:sodipodi="http://sodipodi.sourceforge.net/DTD/sodipodi-0.dtd"
   xmlns:inkscape="http://www.inkscape.org/namespaces/inkscape"
   width="1600px"
   height="1200px"
   id="svg2985"
   version="1.1"
   inkscape:version="0.48.3.1 r9886"
   sodipodi:docname="New document 2">
  <defs
     id="defs2987" />
  <sodipodi:namedview
     id="base"
     pagecolor="#ffffff"
     bordercolor="#666666"
     borderopacity="1.0"
     inkscape:pageopacity="0.0"
     inkscape:pageshadow="2"
     inkscape:zoom="0.6"
     inkscape:cx="787.56594"
     inkscape:cy="533.33333"
     inkscape:current-layer="g4562"
     inkscape:document-units="px"
     showgrid="false"
     inkscape:window-width="1920"
     inkscape:window-height="1033"
     inkscape:window-x="-2"
     inkscape:window-y="-3"
     inkscape:window-maximized="1" />
  <metadata
     id="metadata2990">
    <rdf:RDF>
      <cc:Work
         rdf:about="">
        <dc:format>image/svg+xml</dc:format>
        <dc:type
           rdf:resource="http://purl.org/dc/dcmitype/StillImage" />
        <dc:title></dc:title>
      </cc:Work>
    </rdf:RDF>
  </metadata>
  <g
     id="layer1"
     inkscape:label="Layer 1"
     inkscape:groupmode="layer">
    <path
       style="fill:none;stroke:#000000;stroke-width:9.2;stroke-linecap:butt;stroke-linejoin:miter;stroke-opacity:1;stroke-miterlimit:4;stroke-dasharray:none"
       d="M 273.33333,490 1310,223.33333"
       id="path3763"
       inkscape:connector-curvature="0" />
    <path
       style="fill:none;stroke:#000000;stroke-width:9.19999981;stroke-linecap:butt;stroke-linejoin:miter;stroke-miterlimit:4;stroke-opacity:1;stroke-dasharray:none"
       d="M 1233.6414,1032.0427 259.69206,587.95726"
       id="path3763-2"
       inkscape:connector-curvature="0"
       inkscape:transform-center-x="-30"
       inkscape:transform-center-y="-140" />
    <text
       xml:space="preserve"
       style="font-size:32px;font-style:normal;font-variant:normal;font-weight:bold;font-stretch:normal;line-height:125%;letter-spacing:0px;word-spacing:0px;fill:#000000;fill-opacity:1;stroke:none;font-family:FreeSans;-inkscape-font-specification:Sans Bold"
       x="133.33333"
       y="353.33334"
       id="text3783"
       sodipodi:linespacing="125%"><tspan
         sodipodi:role="line"
         id="tspan3785"
         x="133.33333"
         y="353.33334"
         style="font-size:64px">Licht-</tspan><tspan
         sodipodi:role="line"
         x="133.33333"
         y="433.33334"
         id="tspan3787"
         style="font-size:64px">quelle</tspan></text>
    <path
       sodipodi:type="arc"
       style="fill:#000000;fill-opacity:1;fill-rule:evenodd;stroke:#000000;stroke-width:9.19999980999999956;stroke-linecap:round;stroke-miterlimit:4;stroke-opacity:1;stroke-dasharray:none;stroke-dashoffset:0"
       id="path3797"
       sodipodi:cx="1321.6666"
       sodipodi:cy="226.66667"
       sodipodi:rx="41.666668"
       sodipodi:ry="40"
       d="m 1363.3333,226.66667 a 41.666668,40 0 1 1 -83.3333,0 41.666668,40 0 1 1 83.3333,0 z"
       transform="matrix(0.96200463,0,0,1.0020882,48.550545,-0.47332173)" />
    <path
       sodipodi:type="arc"
       style="fill:#000000;fill-opacity:1;fill-rule:evenodd;stroke:#000000;stroke-width:9.19999981;stroke-linecap:round;stroke-miterlimit:4;stroke-opacity:1;stroke-dasharray:none;stroke-dashoffset:0"
       id="path3797-0"
       sodipodi:cx="1321.6666"
       sodipodi:cy="226.66667"
       sodipodi:rx="41.666668"
       sodipodi:ry="40"
       d="m 1363.3333,226.66667 a 41.666668,40 0 1 1 -83.3333,0 41.666668,40 0 1 1 83.3333,0 z"
       transform="matrix(0.96200463,0,0,1.0020882,-1.449414,802.86)" />
    <text
       xml:space="preserve"
       style="font-size:32px;font-style:normal;font-variant:normal;font-weight:bold;font-stretch:normal;line-height:125%;letter-spacing:0px;word-spacing:0px;fill:#000000;fill-opacity:1;stroke:none;font-family:FreeSans;-inkscape-font-specification:Sans Bold"
       x="1176.6666"
       y="876.66669"
       id="text3817"
       sodipodi:linespacing="125%"><tspan
         sodipodi:role="line"
         id="tspan3819"
         x="1176.6666"
         y="876.66669"
         style="font-size:64px">Raum-</tspan><tspan
         sodipodi:role="line"
         x="1176.6666"
         y="956.66669"
         style="font-size:64px"
         id="tspan3821">punkt 2</tspan></text>
    <text
       xml:space="preserve"
       style="font-size:32px;font-style:normal;font-variant:normal;font-weight:bold;font-stretch:normal;line-height:125%;letter-spacing:0px;word-spacing:0px;fill:#000000;fill-opacity:1;stroke:none;font-family:FreeSans;-inkscape-font-specification:Sans Bold"
       x="1210.7355"
       y="63.018665"
       id="text3817-6"
       sodipodi:linespacing="125%"><tspan
         sodipodi:role="line"
         id="tspan3819-9"
         x="1210.7355"
         y="63.018665"
         style="font-size:64px">Raum-</tspan><tspan
         sodipodi:role="line"
         x="1210.7355"
         y="143.01866"
         style="font-size:64px"
         id="tspan3821-3">punkt 1</tspan></text>
    <text
       xml:space="preserve"
       style="font-size:32px;font-style:normal;font-variant:normal;font-weight:bold;font-stretch:normal;line-height:125%;letter-spacing:0px;word-spacing:0px;fill:#000000;fill-opacity:1;stroke:none;font-family:FreeSans;-inkscape-font-specification:Sans Bold"
       x="1033.3333"
       y="366.66669"
       id="text3847"
       sodipodi:linespacing="125%"><tspan
         sodipodi:role="line"
         id="tspan3849"
         x="1033.3333"
         y="366.66669"
         style="font-size:64px;font-weight:bold;-inkscape-font-specification:FreeSans Bold">φ  =  φ  + 2π/λ Δs</tspan></text>
    <text
       xml:space="preserve"
       style="font-size:32px;font-style:normal;font-variant:normal;font-weight:bold;font-stretch:normal;line-height:125%;letter-spacing:0px;word-spacing:0px;fill:#000000;fill-opacity:1;stroke:none;font-family:FreeSans;-inkscape-font-specification:Sans Bold"
       x="1070.0001"
       y="400.66666"
       id="text3851"
       sodipodi:linespacing="125%"><tspan
         sodipodi:role="line"
         id="tspan3853"
         x="1070.0001"
         y="400.66666"
         style="font-size:48px;font-weight:bold;-inkscape-font-specification:FreeSans Bold">1</tspan></text>
    <text
       xml:space="preserve"
       style="font-size:32px;font-style:normal;font-variant:normal;font-weight:bold;font-stretch:normal;line-height:125%;letter-spacing:0px;word-spacing:0px;fill:#000000;fill-opacity:1;stroke:none;font-family:FreeSans;-inkscape-font-specification:Sans Bold"
       x="1565.9626"
       y="391.68268"
       id="text3851-0"
       sodipodi:linespacing="125%"><tspan
         sodipodi:role="line"
         id="tspan3853-4"
         x="1565.9626"
         y="391.68268"
         style="font-size:48px;font-weight:bold;-inkscape-font-specification:FreeSans Bold">1</tspan></text>
    <text
       xml:space="preserve"
       style="font-size:32px;font-style:normal;font-variant:normal;font-weight:bold;font-stretch:normal;line-height:125%;letter-spacing:0px;word-spacing:0px;fill:#000000;fill-opacity:1;stroke:none;font-family:FreeSans;-inkscape-font-specification:Sans Bold"
       x="1240.6293"
       y="401.01599"
       id="text3851-2"
       sodipodi:linespacing="125%"><tspan
         sodipodi:role="line"
         id="tspan3853-9"
         x="1240.6293"
         y="401.01599"
         style="font-size:48px;font-weight:bold;-inkscape-font-specification:FreeSans Bold">0</tspan></text>
    <text
       xml:space="preserve"
       style="font-size:32px;font-style:normal;font-variant:normal;font-weight:bold;font-stretch:normal;line-height:125%;letter-spacing:0px;word-spacing:0px;fill:#000000;fill-opacity:1;stroke:none;font-family:FreeSans;-inkscape-font-specification:Sans Bold"
       x="1015.2799"
       y="1142.588"
       id="text3847-9"
       sodipodi:linespacing="125%"><tspan
         sodipodi:role="line"
         id="tspan3849-6"
         x="1015.2799"
         y="1142.588"
         style="font-size:64px;font-weight:bold;-inkscape-font-specification:FreeSans Bold">φ  =  φ  + 2π/λ Δs</tspan></text>
    <text
       xml:space="preserve"
       style="font-size:32px;font-style:normal;font-variant:normal;font-weight:bold;font-stretch:normal;line-height:125%;letter-spacing:0px;word-spacing:0px;fill:#000000;fill-opacity:1;stroke:none;font-family:FreeSans;-inkscape-font-specification:Sans Bold"
       x="1051.9468"
       y="1176.588"
       id="text3851-9"
       sodipodi:linespacing="125%"><tspan
         sodipodi:role="line"
         id="tspan3853-41"
         x="1051.9468"
         y="1176.588"
         style="font-size:48px;font-weight:bold;-inkscape-font-specification:FreeSans Bold">2</tspan></text>
    <text
       xml:space="preserve"
       style="font-size:32px;font-style:normal;font-variant:normal;font-weight:bold;font-stretch:normal;line-height:125%;letter-spacing:0px;word-spacing:0px;fill:#000000;fill-opacity:1;stroke:none;font-family:FreeSans;-inkscape-font-specification:Sans Bold"
       x="1547.9093"
       y="1167.604"
       id="text3851-0-2"
       sodipodi:linespacing="125%"><tspan
         sodipodi:role="line"
         id="tspan3853-4-2"
         x="1547.9093"
         y="1167.604"
         style="font-size:48px;font-weight:bold;-inkscape-font-specification:FreeSans Bold">2</tspan></text>
    <text
       xml:space="preserve"
       style="font-size:32px;font-style:normal;font-variant:normal;font-weight:bold;font-stretch:normal;line-height:125%;letter-spacing:0px;word-spacing:0px;fill:#000000;fill-opacity:1;stroke:none;font-family:FreeSans;-inkscape-font-specification:Sans Bold"
       x="1222.5759"
       y="1176.9374"
       id="text3851-2-3"
       sodipodi:linespacing="125%"><tspan
         sodipodi:role="line"
         id="tspan3853-9-3"
         x="1222.5759"
         y="1176.9374"
         style="font-size:48px;font-weight:bold;-inkscape-font-specification:FreeSans Bold">0</tspan></text>
    <text
       xml:space="preserve"
       style="font-size:32px;font-style:normal;font-variant:normal;font-weight:bold;font-stretch:normal;line-height:125%;letter-spacing:0px;word-spacing:0px;fill:#000000;fill-opacity:1;stroke:none;font-family:FreeSans;-inkscape-font-specification:Sans Bold"
       x="70"
       y="1110"
       id="text3936"
       sodipodi:linespacing="125%"><tspan
         sodipodi:role="line"
         id="tspan3938"></tspan></text>
    <text
       xml:space="preserve"
       style="font-size:32px;font-style:normal;font-variant:normal;font-weight:bold;font-stretch:normal;line-height:125%;letter-spacing:0px;word-spacing:0px;fill:#000000;fill-opacity:1;stroke:none;font-family:FreeSans;-inkscape-font-specification:Sans Bold"
       x="520"
       y="820"
       id="text3940"
       sodipodi:linespacing="125%"><tspan
         sodipodi:role="line"
         id="tspan3942"
         x="520"
         y="820"
         style="font-size:64px"> Δs</tspan></text>
    <text
       xml:space="preserve"
       style="font-size:32px;font-style:normal;font-variant:normal;font-weight:bold;font-stretch:normal;line-height:125%;letter-spacing:0px;word-spacing:0px;fill:#000000;fill-opacity:1;stroke:none;font-family:FreeSans;-inkscape-font-specification:Sans Bold"
       x="514.5683"
       y="345.92535"
       id="text3940-6"
       sodipodi:linespacing="125%"><tspan
         sodipodi:role="line"
         id="tspan3942-0"
         x="514.5683"
         y="345.92535"
         style="font-size:64px"> Δs</tspan></text>
    <text
       xml:space="preserve"
       style="font-size:32px;font-style:normal;font-variant:normal;font-weight:bold;font-stretch:normal;line-height:125%;letter-spacing:0px;word-spacing:0px;fill:#000000;fill-opacity:1;stroke:none;font-family:FreeSans;-inkscape-font-specification:Sans Bold"
       x="611.29602"
       y="357.01599"
       id="text3851-0-4"
       sodipodi:linespacing="125%"><tspan
         sodipodi:role="line"
         id="tspan3853-4-1"
         x="611.29602"
         y="357.01599"
         style="font-size:48px;font-weight:bold;-inkscape-font-specification:FreeSans Bold">1</tspan></text>
    <text
       xml:space="preserve"
       style="font-size:32px;font-style:normal;font-variant:normal;font-weight:bold;font-stretch:normal;line-height:125%;letter-spacing:0px;word-spacing:0px;fill:#000000;fill-opacity:1;stroke:none;font-family:FreeSans;-inkscape-font-specification:Sans Bold"
       x="616.91998"
       y="840.70929"
       id="text3851-0-2-7"
       sodipodi:linespacing="125%"><tspan
         sodipodi:role="line"
         id="tspan3853-4-2-2"
         x="616.91998"
         y="840.70929"
         style="font-size:48px;font-weight:bold;-inkscape-font-specification:FreeSans Bold">2</tspan></text>
    <g
       id="g4562"
       transform="translate(-1136.8333,554.6667)">
      <path
         id="path4554"
         d="m 1357.5182,-90.675445 0.093,0.348823 1.2831,-0.34324 0.093,0.348813 1.283,-0.343243 0.28,1.046475 1.2833,-0.34332 0.1867,0.697648 1.2832,-0.343263 0.2799,1.04647 1.2831,-0.343238 0.2799,1.04647 1.2831,-0.343243 0.3732,1.395288 1.2835,-0.343316 0.7464,2.790591 1.3765,0.0056 0.4667,1.744123 1.283,-0.343242 0.4666,1.744119 1.3764,0.0056 0.4666,1.744115 1.2833,-0.34332 1.1198,4.185888 1.3765,0.0056 0.4666,1.744114 1.3764,0.0056 0.6532,2.441771 1.283,-0.343244 0.6533,2.441773 1.2833,-0.34332 1.3998,5.232355 1.2831,-0.343269 0.6533,2.441769 1.3763,0.0056 0.6533,2.441769 1.283,-0.343242 0.6532,2.441764 1.3767,0.0055 0.7465,2.790592 1.2831,-0.343243 1.4931,5.581182 1.2831,-0.343269 0.6532,2.441766 1.3763,0.0056 0.6533,2.441768 1.2834,-0.343345 0.8398,3.139414 1.2832,-0.343238 1.3063,4.88353 1.2832,-0.34327 0.7465,2.79059 1.283,-0.343212 0.6532,2.441765 1.2835,-0.343346 0.5599,2.092943 1.3764,0.0056 0.5599,2.092945 1.3765,0.0056 1.0265,3.837061 1.3764,0.0056 0.5598,2.092939 1.2834,-0.343316 0.4665,1.744119 1.2832,-0.34324 0.3732,1.395291 1.2832,-0.343264 0.8398,3.139412 1.2831,-0.343239 0.3732,1.395292 1.2834,-0.343316 0.28,1.04647 1.2831,-0.343239 0.2799,1.046469 1.2831,-0.343268 0.3733,1.395295 1.2834,-0.343316 0.093,0.348822 1.283,-0.343213 0.093,0.348821 1.2832,-0.343264 0.093,0.348822 2.5666,-0.686584 -0.1867,-0.697648 1.1897,-0.69204 -0.093,-0.348822 1.2832,-0.343269 -0.1867,-0.697648 1.2831,-0.343238 -0.1866,-0.697648 1.2834,-0.343346 -0.6531,-2.441766 1.283,-0.343212 -0.3733,-1.395296 1.2831,-0.343269 -0.3732,-1.395295 1.2831,-0.343239 -0.4666,-1.744117 1.2835,-0.343346 -0.4666,-1.744118 1.283,-0.343217 -1.0265,-3.837061 1.2832,-0.343265 -0.5599,-2.092944 1.1898,-0.692064 -0.5599,-2.092944 1.2835,-0.343341 -0.6532,-2.441765 1.2829,-0.343218 -1.3063,-4.88353 1.2831,-0.343269 -0.6532,-2.441764 1.1898,-0.692066 -0.6532,-2.441765 1.2833,-0.34332 -0.7464,-2.790587 1.283,-0.343242 -1.3997,-5.232357 1.1897,-0.692065 -0.6532,-2.441766 1.1899,-0.69209 -0.5599,-2.092944 1.1901,-0.692142 -0.7465,-2.790587 1.283,-0.343242 -0.7464,-2.790587 1.1897,-0.692065 -1.3064,-4.883536 1.2832,-0.343264 -0.7465,-2.790591 1.2834,-0.343316 -0.7466,-2.790588 1.2831,-0.343242 -0.6532,-2.441769 1.2831,-0.343239 -1.2131,-4.534717 1.1899,-0.692082 -0.5599,-2.092941 1.2833,-0.34332 -0.5598,-2.09295 1.283,-0.34324 -0.5598,-2.09293 1.283,-0.34324 -0.5599,-2.09295 1.2832,-0.34327 -0.8398,-3.13942 1.1901,-0.69213 -0.3733,-1.3953 1.283,-0.34324 -0.2799,-1.04646 1.1898,-0.69208 -0.3733,-1.39529 1.2831,-0.34324 -0.4666,-1.74412 1.2835,-0.34335 -0.1866,-0.69764 1.2829,-0.34322 -0.093,-0.34881 1.2832,-0.34327 -0.1866,-0.69765 1.2834,-0.34331 -0.093,-0.34883 1.2832,-0.34327 0.093,0.34883 1.2831,-0.34325 0.093,0.34882 1.2831,-0.34324 0.093,0.34884 1.2834,-0.34333 0.093,0.34882 1.2832,-0.34326 0.4666,1.74412 1.3764,0.006 0.1866,0.69764 1.3764,0.006 0.2799,1.04647 1.2835,-0.34332 0.3731,1.39529 1.2833,-0.34326 0.8398,3.13941 1.3764,0.006 0.3733,1.3953 1.3764,0.006 0.4665,1.7441 1.3767,0.005 0.4666,1.74413 1.2832,-0.34327 0.6532,2.44176 1.283,-0.34324 1.2131,4.53471 1.283,-0.34322 0.6532,2.44177 1.2835,-0.34335 0.7465,2.790594 1.2831,-0.343234 0.5599,2.092934 1.3765,0.0056 1.4931,5.581182 1.2829,-0.343217 0.6532,2.441764 1.3768,0.0055 0.6532,2.441765 1.2831,-0.343238 0.7465,2.790591 1.2832,-0.343269 1.493,5.581177 1.283,-0.343212 0.7466,2.790591 1.3767,0.0055 0.5599,2.092944 1.3764,0.0056 0.6532,2.441765 1.2832,-0.343264 0.7465,2.790587 1.283,-0.343214 1.3064,4.88353 1.2835,-0.343341 0.6532,2.441765 1.3764,0.0056 0.5599,2.092943 1.2831,-0.343269 0.5599,2.092945 1.3763,0.0056 1.0265,3.837061 1.2834,-0.343346 0.4667,1.744123 1.3764,0.0056 0.4665,1.744118 1.283,-0.343243 0.3733,1.395295 1.2832,-0.343239 0.7464,2.790588 1.2834,-0.343316 0.2799,1.046469 1.2833,-0.343264 0.2799,1.046469 1.283,-0.343243 0.28,1.046473 1.2831,-0.343243 0.093,0.348826 1.2834,-0.34332 0.28,1.046474 1.2831,-0.34327 0.093,0.348828 2.5663,-0.686564 -0.093,-0.348822 1.283,-0.343244 -0.2799,-1.046469 1.2832,-0.343264 -0.093,-0.348827 1.2832,-0.343238 -0.28,-1.046474 1.2834,-0.343316 -0.28,-1.046473 1.2831,-0.343239 -0.28,-1.046474 1.2832,-0.343265 -0.7465,-2.790591 1.2831,-0.343239 -0.3733,-1.395296 1.1902,-0.692168 -0.4665,-1.744117 1.2829,-0.343217 -0.4666,-1.744118 1.1898,-0.692064 -1.0265,-3.837062 1.2832,-0.343268 -0.5598,-2.092939 1.19,-0.692142 -0.5599,-2.092944 1.283,-0.343243 -0.6531,-2.441765 1.1897,-0.692064 -1.2131,-4.53471 1.2832,-0.343265 -0.7465,-2.790591 1.1901,-0.692142 -0.6532,-2.441765 1.283,-0.343242 -0.6532,-2.441766 1.1898,-0.692065 -0.6532,-2.441766 1.2832,-0.343263 -1.4931,-5.581183 1.1901,-0.692145 -0.6532,-2.44176 1.1898,-0.69206 -0.6532,-2.44177 1.283,-0.34324 -0.6532,-2.44177 1.1899,-0.69209 -1.493,-5.58118 1.2833,-0.34332 -0.5598,-2.09294 1.1898,-0.69206 -0.6532,-2.44177 1.283,-0.34324 -0.6532,-2.44177 1.1899,-0.69209 -0.5599,-2.09294 1.2834,-0.34331 -1.2131,-4.53471 1.2829,-0.34321 -0.5599,-2.09297 1.2832,-0.34326 -0.5599,-2.09294 1.2832,-0.34323 -0.4667,-1.74413 1.2836,-0.34334 -0.8399,-3.13942 1.283,-0.34321 -0.3733,-1.39529 1.2832,-0.34326 -0.3733,-1.3953 1.2832,-0.34325 -0.28,-1.04647 1.2835,-0.34334 -0.4667,-1.74412 1.2831,-0.34322 -0.093,-0.34881 1.2832,-0.34327 -0.093,-0.34883 1.1897,-0.69205 1.2836,-0.34335 -0.093,-0.34883 1.283,-0.34321 0.093,0.34882 1.2832,-0.34326 0.1867,0.69765 1.2833,-0.34332 0.093,0.34882 1.2831,-0.34328 0.1866,0.69766 1.3763,0.006 0.3733,1.3953 1.3765,0.006 0.3733,1.3953 1.2833,-0.34332 0.3733,1.39528 1.283,-0.34324 0.3733,1.39529 1.2831,-0.34323 0.4666,1.74411 1.2831,-0.34324 0.9331,3.48825 1.2834,-0.34335 0.56,2.09294 1.2831,-0.34324 0.5598,2.09294 1.2831,-0.34324 0.6532,2.44176 1.2831,-0.34324 1.2131,4.53472 1.3767,0.005 0.56,2.09294 1.3764,0.006 0.6531,2.44177 1.2833,-0.34327 0.7464,2.79059 1.3764,0.006 1.3064,4.88352 1.2834,-0.34334 0.7466,2.7906 1.283,-0.34324 0.8399,3.13941 1.2832,-0.34327 0.6531,2.44177 1.2831,-0.34322 0.7464,2.79059 1.2836,-0.34334 1.3997,5.23235 1.3764,0.006 0.6532,2.44177 1.3765,0.006 0.6532,2.441767 1.2829,-0.343218 0.6533,2.441769 1.2833,-0.34332 1.3064,4.88353 1.3765,0.0056 0.5599,2.092943 1.2831,-0.343238 0.6532,2.441764 1.283,-0.343243 0.56,2.092944 1.2834,-0.343316 0.4665,1.744118 1.2832,-0.34327 1.0264,3.837062 1.3764,0.0056 0.3733,1.395297 1.2831,-0.343239 0.3732,1.39529 1.3767,0.0055 0.28,1.046473 1.2832,-0.343268 0.6531,2.441765 1.2832,-0.343238 0.1866,0.697647 1.283,-0.343243 0.1867,0.697648 1.2834,-0.343316 0.1866,0.697647 1.2832,-0.343268 0.1866,0.697648 2.5662,-0.686482 -0.093,-0.348823 1.2833,-0.34332 -0.093,-0.348825 1.2832,-0.343265 -0.093,-0.348827 1.1899,-0.69206 -0.28,-1.046474 1.1899,-0.692115 -0.1866,-0.697648 1.2832,-0.343265 -0.28,-1.046475 1.2832,-0.343238 -0.3733,-1.395296 1.2832,-0.343264 -0.8399,-3.139418 1.2833,-0.343289 -0.3732,-1.395296 1.1898,-0.692091 -0.3733,-1.395296 1.1898,-0.692064 -0.5598,-2.092939 1.2831,-0.34327 -0.5599,-2.092944 1.2833,-0.343289 -1.2131,-4.534702 1.2832,-0.34328 -0.5599,-2.09294 1.1898,-0.69206 -0.5599,-2.09294 1.2831,-0.34327 -0.7464,-2.79059 1.2832,-0.34329 -1.3064,-4.88353 1.1899,-0.69209 -0.7466,-2.7906 1.2832,-0.34324 -0.7466,-2.79058 1.2832,-0.34328 -0.6532,-2.44176 1.1899,-0.69211 -1.3997,-5.23236 1.2832,-0.34326 -0.8398,-3.13942 1.283,-0.34324 -0.6532,-2.44177 1.1898,-0.69206 -0.6532,-2.44177 1.2834,-0.34332 -0.6532,-2.44176 1.1897,-0.69207 -1.3997,-5.23235 1.2832,-0.34327 -0.5599,-2.09294 1.2831,-0.34324 -0.7465,-2.7906 1.2834,-0.34335 -0.5598,-2.09293 1.2829,-0.34322 -1.1197,-4.18589 1.2831,-0.34326 -0.5599,-2.09294 1.2832,-0.34324 -0.4666,-1.74412 1.1902,-0.69217 -0.4667,-1.74412 1.2831,-0.34322 -0.7466,-2.79059 1.2832,-0.34326 -0.3732,-1.39529 1.283,-0.34324 -0.2799,-1.04647 1.2834,-0.34335 -0.2799,-1.04647 1.283,-0.34321 -0.1866,-0.69766 1.2831,-0.34326 -0.2799,-1.04647 1.2831,-0.34325 -0.093,-0.34881 1.2834,-0.34335 -0.093,-0.34881 2.566,-0.68647 0.1866,0.69765 1.2832,-0.34328 0.093,0.34884 1.2834,-0.34332 0.2799,1.04646 1.2831,-0.34323 0.1867,0.69764 1.283,-0.34324 0.28,1.04647 1.2834,-0.34334 0.6532,2.44176 1.3764,0.006 0.3733,1.3953 1.2831,-0.34324 0.3732,1.39529 1.2831,-0.34325 0.4666,1.74412 1.3768,0.005 0.9332,3.48823 1.3764,0.006 0.5598,2.09293 1.2831,-0.34323 0.5599,2.09294 1.2831,-0.34324 0.6531,2.44176 1.2836,-0.34334 1.3063,4.88354 1.2832,-0.34324 0.6532,2.44176 1.3764,0.006 0.6531,2.44176 1.2832,-0.34325 0.6532,2.44177 1.3768,0.005 0.7464,2.79058 1.2831,-0.34324 1.3998,5.23235 1.3763,0.006 0.6532,2.44176 1.2831,-0.34326 0.7465,2.79058 1.2834,-0.34332 0.7465,2.7906 1.3765,0.006 1.3064,4.88353 1.3763,0.006 0.6533,2.44176 1.2831,-0.34327 0.7466,2.7906 1.2833,-0.34332 0.6532,2.44176 1.2832,-0.34327 0.5598,2.09294 1.3763,0.006 1.2131,4.53472 1.2833,-0.34327 0.5599,2.09294 1.3766,0.005 0.5599,2.09295 1.2832,-0.34327 0.4666,1.74412 1.283,-0.34321 0.9331,3.48823 1.2832,-0.34327 0.3732,1.3953 1.2834,-0.34332 0.3733,1.3953 1.2831,-0.34328 0.2799,1.04648 1.2832,-0.34324 0.5599,2.09294 1.3764,0.006 0.1866,0.69765 1.2834,-0.34332 0.093,0.34882 1.2832,-0.34324 0.1866,0.69764 1.2831,-0.34326 0.093,0.34883 1.2829,-0.34322 -0.093,-0.34882 2.5665,-0.68659 -0.1866,-0.69765 1.2831,-0.34326 -0.093,-0.34883 1.283,-0.34321 -0.4667,-1.74412 1.2836,-0.34334 -0.3733,-1.3953 1.283,-0.34324 -0.2799,-1.04647 1.1899,-0.69209 -0.2799,-1.04647 1.1899,-0.69212 -0.3732,-1.39529 1.2831,-0.34327 -0.9331,-3.48823 1.283,-0.34325 -0.4665,-1.74412 1.2831,-0.34326 -0.5598,-2.09295 1.2832,-0.34329 -0.5599,-2.09294 1.2832,-0.34326 -1.3064,-4.88354 1.2831,-0.34324 -0.6532,-2.44176 1.2832,-0.34328 -0.6532,-2.44176 1.2832,-0.3433 -0.7465,-2.79058 1.2831,-0.34325 -1.3998,-5.23235 1.2833,-0.34326 -0.6532,-2.44177 1.1897,-0.69206 -0.6531,-2.44177 1.19,-0.69214 -0.7465,-2.7906 1.283,-0.34324 -0.6532,-2.44176 1.1899,-0.69209 -1.3998,-5.23236 1.1899,-0.69205 -0.6533,-2.44178 1.2835,-0.34332 -0.7466,-2.79058 1.2831,-0.34325 -0.6533,-2.44176 1.1899,-0.69209 -1.3064,-4.88353 1.1898,-0.69207 -0.4665,-1.74412 1.19,-0.69213 -0.6532,-2.44178 1.2831,-0.34324 -0.5599,-2.09294 1.2832,-0.34327 -0.5599,-2.09294 1.1897,-0.69207 -0.9331,-3.48823 1.2834,-0.34332 -0.4666,-1.74412 1.2831,-0.34324 -0.4666,-1.74413 1.2831,-0.34326 -0.3731,-1.39529 1.283,-0.34324 -0.6532,-2.44177 1.2832,-0.34329 -0.3731,-1.3953 1.2831,-0.34326 -0.1866,-0.69766 1.2831,-0.34323 -0.1867,-0.69764 1.2832,-0.34327 -0.1867,-0.69765 1.2834,-0.34328 -0.093,-0.34883 2.5663,-0.68652 0.093,0.34883 1.2832,-0.34326 0.093,0.34882 1.2834,-0.34333 0.2799,1.04647 1.2831,-0.34324 0.1866,0.69765 1.2831,-0.34325 0.3733,1.3953 1.2832,-0.34326 0.2799,1.04647 1.2833,-0.34332 0.6533,2.44177 1.3764,0.006 0.3732,1.39529 1.2831,-0.34323 0.4666,1.74411 1.3768,0.005 0.4665,1.74413 1.2831,-0.34325 0.4666,1.74411 1.2831,-0.34323 1.2131,4.53471 1.283,-0.34325 0.56,2.09294 1.2833,-0.34331 0.6532,2.44176 1.2832,-0.34326 0.6532,2.44177 1.3763,0.006 1.3065,4.88353 1.2831,-0.34327 0.7465,2.7906 1.2834,-0.34333 0.6532,2.44177 1.3765,0.006 0.6531,2.44176 1.3763,0.006 1.3998,5.23236 1.3765,0.006 0.6532,2.44177 1.3767,0.005 0.6532,2.44177 1.3765,0.006 0.6532,2.44177 1.283,-0.34323 0.7465,2.7906 1.2832,-0.34327 1.3997,5.23235 1.2834,-0.34331 0.6532,2.44177 1.2831,-0.34327 0.6532,2.44176 1.3763,0.006 0.5599,2.09294 1.2833,-0.34326 1.2131,4.53471 1.2833,-0.34332 0.5599,2.09294 1.2831,-0.34327 0.56,2.09295 1.2829,-0.34322 0.4666,1.74412 1.2831,-0.34324 0.8398,3.13941 1.2835,-0.34334 0.3733,1.3953 1.283,-0.34326 0.3733,1.3953 1.283,-0.34324 0.28,1.04647 1.3764,0.006 0.1867,0.69765 1.2834,-0.34335 0.3733,1.3953 1.283,-0.34324 0.093,0.34882 1.283,-0.34324 0.093,0.34883 1.283,-0.34324 0.093,0.34882 1.2834,-0.34335 -0.093,-0.34882 1.283,-0.34324 -0.1867,-0.69765 1.2832,-0.34324 -0.093,-0.34883 1.2831,-0.34324 -0.1866,-0.69764 1.2834,-0.34335 -0.1866,-0.69765 1.2831,-0.34323 -0.6532,-2.44177 1.2831,-0.34325 -0.3733,-1.39529 1.2831,-0.34324 -0.3733,-1.39529 1.1902,-0.69217 -0.3733,-1.3953 1.2832,-0.34324 -1.0265,-3.83706 1.283,-0.34325 -0.5598,-2.09293 1.2834,-0.34332 -0.56,-2.09294 1.1898,-0.69207 -0.4665,-1.74412 1.2831,-0.34327 -1.3064,-4.88353 1.2831,-0.34323 -0.7465,-2.7906 1.2833,-0.34332 -0.6532,-2.44176 1.2832,-0.34324 -0.6533,-2.44177 1.1898,-0.69209 -0.6531,-2.44177 1.2831,-0.34323 -1.493,-5.58118 1.2833,-0.34333 -0.7465,-2.79058 1.2831,-0.34325 -0.6532,-2.44175 1.1899,-0.6921 -0.6533,-2.44176 1.1898,-0.69207 -1.3997,-5.23236 1.1901,-0.69214 -0.6533,-2.44177 1.2831,-0.34324 -0.6532,-2.44176 1.1899,-0.69209 -0.6532,-2.44176 1.1898,-0.69206 -0.5599,-2.09296 1.2833,-0.34331 -1.3064,-4.88353 1.1898,-0.69207 -0.4666,-1.74412 1.2831,-0.34324 -0.5599,-2.09295 1.1898,-0.69208 -0.5598,-2.09295 1.2832,-0.34329 -0.9331,-3.48824 1.2832,-0.34326 -0.4666,-1.74412 1.2831,-0.34324 -0.3732,-1.39529 1.2831,-0.34327 -0.3733,-1.3953 1.2834,-0.3433 -0.6533,-2.44176 1.2832,-0.34326 -0.1866,-0.69766 1.283,-0.34324 -0.1865,-0.69765 1.1898,-0.69208 1.2833,-0.34329 -0.1867,-0.69764 1.2833,-0.34328 -0.093,-0.34881"
         inkscape:connector-curvature="0"
         style="fill:none;stroke:#ff7600;stroke-width:6.30100012;stroke-miterlimit:4;stroke-opacity:1;stroke-dasharray:none" />
      <rect
         id="rect4392"
         height="384"
         width="567"
         y="92.5"
         x="40"
         style="fill:#ffffff" />
      <rect
         id="rect4394"
         height="308"
         width="453"
         y="38"
         x="57"
         style="fill:#ffffff" />
      <path
         id="path4554-3"
         d="m 1883.9273,-230.42645 0.093,0.34882 1.2831,-0.34324 0.093,0.34881 1.283,-0.34324 0.28,1.04647 1.2833,-0.34332 0.1867,0.69765 1.2832,-0.34326 0.2799,1.04647 1.2831,-0.34324 0.2799,1.04647 1.2831,-0.34324 0.3732,1.39529 1.2835,-0.34332 0.7464,2.79059 1.3765,0.006 0.4667,1.74412 1.283,-0.34324 0.4666,1.74412 1.3764,0.006 0.4666,1.74412 1.2833,-0.34332 1.1198,4.18588 1.3765,0.006 0.4666,1.74412 1.3764,0.006 0.6532,2.44177 1.283,-0.34325 0.6533,2.44178 1.2833,-0.34332 1.3998,5.23235 1.2831,-0.34327 0.6533,2.44177 1.3763,0.006 0.6533,2.44177 1.283,-0.34324 0.6532,2.44176 1.3767,0.006 0.7465,2.7906 1.2831,-0.34325 1.4931,5.58118 1.2831,-0.34326 0.6532,2.44176 1.3763,0.006 0.6533,2.44177 1.2834,-0.34335 0.8398,3.13942 1.2832,-0.34324 1.3063,4.88353 1.2832,-0.34327 0.7465,2.79059 1.283,-0.34321 0.6532,2.44176 1.2835,-0.34334 0.5599,2.09294 1.3764,0.006 0.5599,2.09295 1.3765,0.006 1.0265,3.83706 1.3764,0.006 0.5598,2.09294 1.2834,-0.34332 0.4665,1.74412 1.2832,-0.34324 0.3732,1.39529 1.2832,-0.34326 0.8398,3.13941 1.2831,-0.34324 0.3732,1.39529 1.2834,-0.34332 0.28,1.04647 1.2831,-0.34323 0.2799,1.04646 1.2831,-0.34326 0.3733,1.39529 1.2834,-0.34331 0.093,0.34882 1.283,-0.34322 0.093,0.34883 1.2832,-0.34327 0.093,0.34882 2.5666,-0.68658 -0.1867,-0.69765 1.1897,-0.69204 -0.093,-0.34882 1.2832,-0.34327 -0.1867,-0.69765 1.2831,-0.34324 -0.1866,-0.69764 1.2834,-0.34335 -0.6531,-2.44177 1.283,-0.34321 -0.3733,-1.39529 1.2831,-0.34327 -0.3732,-1.3953 1.2831,-0.34324 -0.4666,-1.74411 1.2835,-0.34335 -0.4666,-1.74412 1.283,-0.34321 -1.0265,-3.83707 1.2832,-0.34326 -0.5599,-2.09294 1.1898,-0.69207 -0.5599,-2.09294 1.2835,-0.34334 -0.6532,-2.44177 1.2829,-0.34322 -1.3063,-4.88353 1.2831,-0.34327 -0.6532,-2.44176 1.1898,-0.69207 -0.6532,-2.44176 1.2833,-0.34332 -0.7464,-2.79059 1.283,-0.34324 -1.3997,-5.23236 1.1897,-0.69206 -0.6532,-2.44177 1.1899,-0.69209 -0.5599,-2.09294 1.1901,-0.69214 -0.7465,-2.79059 1.283,-0.34324 -0.7464,-2.79059 1.1897,-0.69206 -1.3064,-4.88354 1.2832,-0.34326 -0.7465,-2.7906 1.2834,-0.34331 -0.7466,-2.79059 1.2831,-0.34324 -0.6532,-2.44177 1.2831,-0.34324 -1.2131,-4.53472 1.1899,-0.69208 -0.5599,-2.09294 1.2833,-0.34332 -0.5598,-2.09295 1.283,-0.34324 -0.5598,-2.09293 1.283,-0.34324 -0.5599,-2.09295 1.2832,-0.34327 -0.8398,-3.13942 1.1901,-0.69213 -0.3733,-1.3953 1.283,-0.34324 -0.2799,-1.04646 1.1898,-0.69208 -0.3733,-1.39529 1.2831,-0.34324 -0.4666,-1.74412 1.2835,-0.34335 -0.1866,-0.69764 1.2829,-0.34322 -0.093,-0.34881 1.2832,-0.34327 -0.1866,-0.69765 1.2834,-0.34331 -0.093,-0.34883 1.2832,-0.34327 0.093,0.34883 1.2831,-0.34325 0.093,0.34882 1.2831,-0.34324 0.093,0.34884 1.2834,-0.34333 0.093,0.34882 1.2832,-0.34326 0.4666,1.74412 1.3764,0.006 0.1866,0.69764 1.3764,0.006 0.2799,1.04647 1.2835,-0.34332 0.3731,1.39529 1.2833,-0.34326 0.8398,3.13941 1.3764,0.006 0.3733,1.3953 1.3764,0.006 0.4665,1.7441 1.3767,0.005 0.4666,1.74413 1.2832,-0.34327 0.6532,2.44176 1.283,-0.34324 1.2131,4.53471 1.283,-0.34322 0.6532,2.44177 1.2835,-0.34335 0.7465,2.79059 1.2831,-0.34323 0.5599,2.09293 1.3765,0.006 1.4931,5.58119 1.2829,-0.34322 0.6532,2.44176 1.3768,0.006 0.6532,2.44177 1.2831,-0.34324 0.7465,2.79059 1.2832,-0.34327 1.493,5.58118 1.283,-0.34321 0.7466,2.79059 1.3767,0.005 0.5599,2.09294 1.3764,0.006 0.6532,2.44177 1.2832,-0.34327 0.7465,2.79059 1.283,-0.34321 1.3064,4.88353 1.2835,-0.34334 0.6532,2.44176 1.3764,0.006 0.5599,2.09294 1.2831,-0.34327 0.5599,2.09295 1.3763,0.006 1.0265,3.83706 1.2834,-0.34335 0.4667,1.74413 1.3764,0.006 0.4665,1.74412 1.283,-0.34325 0.3733,1.3953 1.2832,-0.34324 0.7464,2.79059 1.2834,-0.34332 0.2799,1.04647 1.2833,-0.34326 0.2799,1.04646 1.283,-0.34324 0.28,1.04647 1.2831,-0.34324 0.093,0.34883 1.2834,-0.34332 0.28,1.04647 1.2831,-0.34327 0.093,0.34883 2.5663,-0.68656 -0.093,-0.34883 1.283,-0.34324 -0.2799,-1.04647 1.2832,-0.34326 -0.093,-0.34883 1.2832,-0.34324 -0.28,-1.04647 1.2834,-0.34332 -0.28,-1.04647 1.2831,-0.34324 -0.28,-1.04647 1.2832,-0.34327 -0.7465,-2.79059 1.2831,-0.34324 -0.3733,-1.3953 1.1902,-0.69216 -0.4665,-1.74412 1.2829,-0.34322 -0.4666,-1.74412 1.1898,-0.69206 -1.0265,-3.83706 1.2832,-0.34327 -0.5598,-2.09294 1.19,-0.69214 -0.5599,-2.09294 1.283,-0.34325 -0.6531,-2.44176 1.1897,-0.69207 -1.2131,-4.53471 1.2832,-0.34326 -0.7465,-2.79059 1.1901,-0.69214 -0.6532,-2.44177 1.283,-0.34324 -0.6532,-2.44177 1.1898,-0.69206 -0.6532,-2.44177 1.2832,-0.34326 -1.4931,-5.58118 1.1901,-0.69215 -0.6532,-2.44176 1.1898,-0.69206 -0.6532,-2.44177 1.283,-0.34324 -0.6532,-2.44177 1.1899,-0.69209 -1.493,-5.58118 1.2833,-0.34332 -0.5598,-2.09294 1.1898,-0.69206 -0.6532,-2.44177 1.283,-0.34324 -0.6532,-2.44177 1.1899,-0.69209 -0.5599,-2.09294 1.2834,-0.34331 -1.2131,-4.53471 1.2829,-0.34321 -0.5599,-2.09297 1.2832,-0.34326 -0.5599,-2.09294 1.2832,-0.34323 -0.4667,-1.74413 1.2836,-0.34334 -0.8399,-3.13942 1.283,-0.34321 -0.3733,-1.39529 1.2832,-0.34326 -0.3733,-1.3953 1.2832,-0.34325 -0.28,-1.04647 1.2835,-0.34334 -0.4667,-1.74412 1.2831,-0.34322 -0.093,-0.34881 1.2832,-0.34327 -0.093,-0.34883 1.1897,-0.69205 1.2836,-0.34335 -0.093,-0.34883 1.283,-0.34321 0.093,0.34882 1.2832,-0.34326 0.1867,0.69765 1.2833,-0.34332 0.093,0.34882 1.2831,-0.34328 0.1866,0.69766 1.3763,0.006 0.3733,1.3953 1.3765,0.006 0.3733,1.3953 1.2833,-0.34332 0.3733,1.39528 1.283,-0.34324 0.3733,1.39529 1.2831,-0.34323 0.4666,1.74411 1.2831,-0.34324 0.9331,3.48825 1.2834,-0.34335 0.56,2.09294 1.2831,-0.34324 0.5598,2.09294 1.2831,-0.34324 0.6532,2.44176 1.2831,-0.34324 1.2131,4.53472 1.3767,0.005 0.56,2.09294 1.3764,0.006 0.6531,2.44177 1.2833,-0.34327 0.7464,2.79059 1.3764,0.006 1.3064,4.88352 1.2834,-0.34334 0.7466,2.7906 1.283,-0.34324 0.8399,3.13941 1.2832,-0.34327 0.6531,2.44177 1.2831,-0.34322 0.7464,2.79059 1.2836,-0.34334 1.3997,5.23235 1.3764,0.006 0.6532,2.44177 1.3765,0.006 0.6532,2.44177 1.2829,-0.34322 0.6533,2.44177 1.2833,-0.34332 1.3064,4.88353 1.3765,0.006 0.5599,2.09294 1.2831,-0.34324 0.6532,2.44177 1.283,-0.34325 0.56,2.09295 1.2834,-0.34332 0.4665,1.74412 1.2832,-0.34327 1.0264,3.83706 1.3764,0.006 0.3733,1.3953 1.2831,-0.34324 0.3732,1.39529 1.3767,0.005 0.28,1.04647 1.2832,-0.34326 0.6531,2.44176 1.2832,-0.34324 0.1866,0.69765 1.283,-0.34324 0.1867,0.69764 1.2834,-0.34331 0.1866,0.69765 1.2832,-0.34327 0.1866,0.69765 2.5662,-0.68649 -0.093,-0.34882 1.2833,-0.34332 -0.093,-0.34882 1.2832,-0.34327 -0.093,-0.34883 1.1899,-0.69206 -0.28,-1.04647 1.1899,-0.69212 -0.1866,-0.69764 1.2832,-0.34327 -0.28,-1.04647 1.2832,-0.34324 -0.3733,-1.3953 1.2832,-0.34326 -0.8399,-3.13942 1.2833,-0.34329 -0.3732,-1.39529 1.1898,-0.6921 -0.3733,-1.39529 1.1898,-0.69207 -0.5598,-2.09293 1.2831,-0.34327 -0.5599,-2.09295 1.2833,-0.34329 -1.2131,-4.5347 1.2832,-0.34328 -0.5599,-2.09294 1.1898,-0.69206 -0.5599,-2.09294 1.2831,-0.34327 -0.7464,-2.79059 1.2832,-0.34329 -1.3064,-4.88353 1.1899,-0.69209 -0.7466,-2.7906 1.2832,-0.34324 -0.7466,-2.79058 1.2832,-0.34328 -0.6532,-2.44176 1.1899,-0.69211 -1.3997,-5.23236 1.2832,-0.34326 -0.8398,-3.13942 1.283,-0.34324 -0.6532,-2.44177 1.1898,-0.69206 -0.6532,-2.44177 1.2834,-0.34332 -0.6532,-2.44176 1.1897,-0.69207 -1.3997,-5.23235 1.2832,-0.34327 -0.5599,-2.09294 1.2831,-0.34324 -0.7465,-2.7906 1.2834,-0.34335 -0.5598,-2.09293 1.2829,-0.34322 -1.1197,-4.18589 1.2831,-0.34326 -0.5599,-2.09294 1.2832,-0.34324 -0.4666,-1.74412 1.1902,-0.69217 -0.4667,-1.74412 1.2831,-0.34322 -0.7466,-2.79059 1.2832,-0.34326 -0.3732,-1.39529 1.283,-0.34324 -0.2799,-1.04647 1.2834,-0.34335 -0.2799,-1.04647 1.283,-0.34321 -0.1866,-0.69766 1.2831,-0.34326 -0.2799,-1.04647 1.2831,-0.34325 -0.093,-0.34881 1.2834,-0.34335 -0.093,-0.34881 2.566,-0.68647 0.1866,0.69765 1.2832,-0.34328 0.093,0.34884 1.2834,-0.34332 0.2799,1.04646 1.2831,-0.34323 0.1867,0.69764 1.283,-0.34324 0.28,1.04647 1.2834,-0.34334 0.6532,2.44176 1.3764,0.006 0.3733,1.3953 1.2831,-0.34324 0.3732,1.39529 1.2831,-0.34325 0.4666,1.74412 1.3768,0.005 0.9332,3.48823 1.3764,0.006 0.5598,2.09293 1.2831,-0.34323 0.5599,2.09294 1.2831,-0.34324 0.6531,2.44176 1.2836,-0.34334 1.3063,4.88354 1.2832,-0.34324 0.6532,2.44176 1.3764,0.006 0.6531,2.44176 1.2832,-0.34325 0.6532,2.44177 1.3768,0.005 0.7464,2.79058 1.2831,-0.34324 1.3998,5.23235 1.3763,0.006 0.6532,2.44176 1.2831,-0.34326 0.7465,2.79058 1.2834,-0.34332 0.7465,2.7906 1.3765,0.006 1.3064,4.88353 1.3763,0.006 0.6533,2.44176 1.2831,-0.34327 0.7466,2.7906 1.2833,-0.34332 0.6532,2.44176 1.2832,-0.34327 0.5598,2.09294 1.3763,0.006 1.2131,4.53472 1.2833,-0.34327 0.5599,2.09294 1.3766,0.005 0.5599,2.09295 1.2832,-0.34327 0.4666,1.74412 1.283,-0.34321 0.9331,3.48823 1.2832,-0.34327 0.3732,1.3953 1.2834,-0.34332 0.3733,1.3953 1.2831,-0.34328 0.2799,1.04648 1.2832,-0.34324 0.5599,2.09294 1.3764,0.006 0.1866,0.69765 1.2834,-0.34332 0.093,0.34882 1.2832,-0.34324 0.1866,0.69764 1.2831,-0.34326 0.093,0.34883 1.2829,-0.34322 -0.093,-0.34882 2.5665,-0.68659 -0.1866,-0.69765 1.2831,-0.34326 -0.093,-0.34883 1.283,-0.34321 -0.4667,-1.74412 1.2836,-0.34334 -0.3733,-1.3953 1.283,-0.34324 -0.2799,-1.04647 1.1899,-0.69209 -0.2799,-1.04647 1.1899,-0.69212 -0.3732,-1.39529 1.2831,-0.34327 -0.9331,-3.48823 1.283,-0.34325 -0.4665,-1.74412 1.2831,-0.34326 -0.5598,-2.09295 1.2832,-0.34329 -0.5599,-2.09294 1.2832,-0.34326 -1.3064,-4.88354 1.2831,-0.34324 -0.6532,-2.44176 1.2832,-0.34328 -0.6532,-2.44176 1.2832,-0.3433 -0.7465,-2.79058 1.2831,-0.34325 -1.3998,-5.23235 1.2833,-0.34326 -0.6532,-2.44177 1.1897,-0.69206 -0.6531,-2.44177 1.19,-0.69214 -0.7465,-2.7906 1.283,-0.34324 -0.6532,-2.44176 1.1899,-0.69209 -1.3998,-5.23236 1.1899,-0.69205 -0.6533,-2.44178 1.2835,-0.34332 -0.7466,-2.79058 1.2831,-0.34325 -0.6533,-2.44176 1.1899,-0.69209 -1.3064,-4.88353 1.1898,-0.69207 -0.4665,-1.74412 1.19,-0.69213 -0.6532,-2.44178 1.2831,-0.34324 -0.5599,-2.09294 1.2832,-0.34327 -0.5599,-2.09294 1.1897,-0.69207 -0.9331,-3.48823 1.2834,-0.34332 -0.4666,-1.74412 1.2831,-0.34324 -0.4666,-1.74413 1.2831,-0.34326 -0.3731,-1.39529 1.283,-0.34324 -0.6532,-2.44177 1.2832,-0.34329 -0.3731,-1.3953 1.2831,-0.34326 -0.1866,-0.69766 1.2831,-0.34323 -0.1867,-0.69764 1.2832,-0.34327 -0.1867,-0.69765 1.2834,-0.34328 -0.093,-0.34883 2.5663,-0.68652 0.093,0.34883 1.2832,-0.34326 0.093,0.34882 1.2834,-0.34333 0.2799,1.04647 1.2831,-0.34324 0.1866,0.69765 1.2831,-0.34325 0.3733,1.3953 1.2832,-0.34326 0.2799,1.04647 1.2833,-0.34332 0.6533,2.44177 1.3764,0.006 0.3732,1.39529 1.2831,-0.34323 0.4666,1.74411 1.3768,0.005 0.4665,1.74413 1.2831,-0.34325 0.4666,1.74411 1.2831,-0.34323 1.2131,4.53471 1.283,-0.34325 0.56,2.09294 1.2833,-0.34331 0.6532,2.44176 1.2832,-0.34326 0.6532,2.44177 1.3763,0.006 1.3065,4.88353 1.2831,-0.34327 0.7465,2.7906 1.2834,-0.34333 0.6532,2.44177 1.3765,0.006 0.6531,2.44176 1.3763,0.006 1.3998,5.23236 1.3765,0.006 0.6532,2.44177 1.3767,0.005 0.6532,2.44177 1.3765,0.006 0.6532,2.44177 1.283,-0.34323 0.7465,2.7906 1.2832,-0.34327 1.3997,5.23235 1.2834,-0.34331 0.6532,2.44177 1.2831,-0.34327 0.6532,2.44176 1.3763,0.006 0.5599,2.09294 1.2833,-0.34326 1.2131,4.53471 1.2833,-0.34332 0.5599,2.09294 1.2831,-0.34327 0.56,2.09295 1.2829,-0.34322 0.4666,1.74412 1.2831,-0.34324 0.8398,3.13941 1.2835,-0.34334 0.3733,1.3953 1.283,-0.34326 0.3733,1.3953 1.283,-0.34324 0.28,1.04647 1.3764,0.006 0.1867,0.69765 1.2834,-0.34335 0.3733,1.3953 1.283,-0.34324 0.093,0.34882 1.283,-0.34324 0.093,0.34883 1.283,-0.34324 0.093,0.34882 1.2834,-0.34335 -0.093,-0.34882 1.283,-0.34324 -0.1867,-0.69765 1.2832,-0.34324 -0.093,-0.34883 1.2831,-0.34324 -0.1866,-0.69764 1.2834,-0.34335 -0.1866,-0.69765 1.2831,-0.34323 -0.6532,-2.44177 1.2831,-0.34325 -0.3733,-1.39529 1.2831,-0.34324 -0.3733,-1.39529 1.1902,-0.69217 -0.3733,-1.3953 1.2832,-0.34324 -1.0265,-3.83706 1.283,-0.34325 -0.5598,-2.09293 1.2834,-0.34332 -0.56,-2.09294 1.1898,-0.69207 -0.4665,-1.74412 1.2831,-0.34327 -1.3064,-4.88353 1.2831,-0.34323 -0.7465,-2.7906 1.2833,-0.34332 -0.6532,-2.44176 1.2832,-0.34324 -0.6533,-2.44177 1.1898,-0.69209 -0.6531,-2.44177 1.2831,-0.34323 -1.493,-5.58118 1.2833,-0.34333 -0.7465,-2.79058 1.2831,-0.34325 -0.6532,-2.44175 1.1899,-0.6921 -0.6533,-2.44176 1.1898,-0.69207 -1.3997,-5.23236 1.1901,-0.69214 -0.6533,-2.44177 1.2831,-0.34324 -0.6532,-2.44176 1.1899,-0.69209 -0.6532,-2.44176 1.1898,-0.69206 -0.5599,-2.09296 1.2833,-0.34331 -1.3064,-4.88353 1.1898,-0.69207 -0.4666,-1.74412 1.2831,-0.34324 -0.5599,-2.09295 1.1898,-0.69208 -0.5598,-2.09295 1.2832,-0.34329 -0.9331,-3.48824 1.2832,-0.34326 -0.4666,-1.74412 1.2831,-0.34324 -0.3732,-1.39529 1.2831,-0.34327 -0.3733,-1.3953 1.2834,-0.3433 -0.6533,-2.44176 1.2832,-0.34326 -0.1866,-0.69766 1.283,-0.34324 -0.1865,-0.69765 1.1898,-0.69208 1.2833,-0.34329 -0.1867,-0.69764 1.2833,-0.34328 -0.093,-0.34881"
         inkscape:connector-curvature="0"
         style="fill:none;stroke:#ff7600;stroke-width:6.30100012;stroke-miterlimit:4;stroke-opacity:1;stroke-dasharray:none" />
      <path
         id="path4554-3-3"
         d="m 1373.9113,-44.087795 -0.1525,0.327174 1.2043,0.560275 -0.1527,0.327188 1.2043,0.560205 -0.4569,0.982215 1.2045,0.560333 -0.3046,0.654831 1.2043,0.560334 -0.457,0.982144 1.2043,0.560275 -0.4569,0.982145 1.2043,0.560264 -0.6094,1.309532 1.2046,0.560473 -1.2186,2.619067 1.0517,0.888041 -0.7614,1.637041 1.2041,0.560215 -0.7615,1.636974 1.0517,0.887979 -0.7616,1.636985 1.2044,0.560344 -1.8277,3.928707 1.0518,0.888048 -0.7616,1.636984 1.0517,0.887968 -1.0662,2.291752 1.2042,0.560199 -1.0662,2.291821 1.2045,0.560345 -2.2847,4.9109311 1.2043,0.5602447 -1.0661,2.2918122 1.0516,0.887908 -1.0662,2.291815 1.2042,0.560215 -1.0661,2.291732 1.0519,0.888178 -1.2186,2.619129 1.2043,0.560265 -2.437,5.238324 1.2043,0.560255 -1.0662,2.291735 1.0516,0.887909 -1.0662,2.291823 1.2046,0.560383 -1.3708,2.946503 1.2043,0.560345 -2.1325,4.583428 1.2044,0.560314 -1.2186,2.619129 1.2042,0.560225 -1.0662,2.291743 1.2047,0.560453 -0.914,1.964368 1.0517,0.887971 -0.9139,1.964368 1.0517,0.888039 -1.6753,3.60134 1.0515,0.887981 -0.9139,1.964302 1.2045,0.560403 -0.7615,1.636898 1.2043,0.560343 -0.6094,1.309534 1.2044,0.560329 -1.3708,2.946499 1.2043,0.560273 -0.6093,1.309521 1.2045,0.560416 -0.4568,0.982207 1.2041,0.560289 -0.457,0.982139 1.2043,0.560253 -0.6092,1.309598 1.2046,0.560403 -0.1526,0.32719 1.2042,0.560226 -0.1525,0.327194 1.2044,0.56032 -0.1527,0.32718 2.409,1.120723 0.3045,-0.654815 1.3565,0.232844 0.1526,-0.327197 1.2043,0.56032 0.3045,-0.654826 1.2043,0.560273 0.3047,-0.654762 1.2046,0.560373 1.0663,-2.291684 1.2042,0.560236 0.6092,-1.309597 1.2042,0.560253 0.6093,-1.309531 1.2043,0.560273 0.7616,-1.636982 1.2046,0.560453 0.7615,-1.636978 1.2042,0.560236 1.6755,-3.601351 1.2044,0.560319 0.9137,-1.964356 1.3567,0.232879 0.9139,-1.96435 1.2046,0.560453 1.0663,-2.291753 1.204,0.560162 2.1325,-4.583424 1.2043,0.560253 1.0662,-2.29174 1.3566,0.232881 1.0662,-2.291734 1.2044,0.560338 1.2186,-2.61906 1.2043,0.560205 2.2848,-4.910882 1.3564,0.232841 1.0662,-2.291752 1.3567,0.232931 0.9139,-1.964359 1.3568,0.233031 1.2186,-2.61913 1.2042,0.560205 1.2186,-2.619066 1.3565,0.232838 2.1324,-4.583505 1.2044,0.560325 1.2186,-2.61913 1.2044,0.560408 1.2185,-2.619189 1.2043,0.560274 1.0662,-2.291752 1.2043,0.560275 1.98,-4.256111 1.3567,0.232941 0.9139,-1.964369 1.2045,0.560343 0.914,-1.964298 1.2041,0.560205 0.914,-1.964289 1.2042,0.560215 0.9138,-1.964368 1.2043,0.560317 1.3709,-2.946513 1.357,0.233027 0.6092,-1.309608 1.2042,0.560216 0.4569,-0.982135 1.3567,0.232871 0.6091,-1.309588 1.2043,0.560275 0.7615,-1.636983 1.2046,0.560455 0.3047,-0.654761 1.2042,0.560155 0.1524,-0.327175 1.2044,0.560315 0.3047,-0.654771 1.2046,0.560403 0.1525,-0.327194 1.2043,0.560324 -0.1524,0.327185 1.2042,0.560268 -0.1526,0.327195 1.2043,0.560275 -0.1526,0.327197 1.2045,0.560404 -0.1524,0.327184 1.2044,0.560315 -0.7617,1.636985 1.0517,0.887978 -0.3046,0.65475 1.0517,0.887988 -0.457,0.982135 1.2046,0.560473 -0.6095,1.309472 1.2045,0.560385 -1.3709,2.946513 1.0518,0.887968 -0.6093,1.309607 1.0516,0.887971 -0.7615,1.636893 1.0525,0.887411 -0.7616,1.636984 1.2044,0.560315 -1.0662,2.291742 1.2042,0.560205 -1.9801,4.256111 1.2041,0.560229 -1.0662,2.291752 1.2047,0.560443 -1.2186,2.619119 1.2043,0.560285 -0.9138,1.964348 1.0517,0.888048 -2.437,5.238327 1.2041,0.56016 -1.0662,2.29174 1.052,0.888233 -1.0663,2.291751 1.2043,0.560272 -1.2185,2.619132 1.2044,0.560309 -2.4371,5.238253 1.2042,0.560232 -1.2185,2.619192 1.0525,0.887404 -0.9138,1.96436 1.0516,0.887983 -1.0662,2.29175 1.2044,0.5603 -1.2186,2.619131 1.2042,0.560236 -2.1324,4.583491 1.2046,0.560453 -1.0662,2.29174 1.0517,0.88797 -0.9138,1.964359 1.2043,0.560253 -0.9139,1.964369 1.0514,0.88792 -1.6753,3.601335 1.2046,0.56038 -0.7616,1.63705 1.0518,0.88797 -0.7617,1.63693 1.2042,0.56019 -0.6092,1.30961 1.2044,0.56033 -1.2187,2.61907 1.2046,0.5604 -0.457,0.98215 1.2044,0.56039 -0.457,0.98214 1.2042,0.56021 -0.4568,0.9822 1.2041,0.56029 -0.1525,0.32719 1.2046,0.5604 -0.4569,0.98222 1.2043,0.56023 -0.1526,0.32721 2.4086,1.12055 0.1526,-0.3272 1.2042,0.56021 0.457,-0.98215 1.2043,0.56033 0.1525,-0.3272 1.2044,0.56034 0.457,-0.98222 1.2044,0.56042 0.457,-0.98221 1.2043,0.56026 0.4569,-0.98222 1.2044,0.56032 1.2184,-2.61912 1.2043,0.56027 0.6092,-1.30959 1.357,0.23307 0.7616,-1.63692 1.2041,0.56017 0.7616,-1.637 1.3565,0.23291 1.6754,-3.60134 1.2044,0.56031 0.914,-1.96429 1.3568,0.23295 0.9139,-1.96436 1.2041,0.56021 1.0663,-2.29168 1.3566,0.23282 1.9801,-4.2561 1.2043,0.56031 1.2186,-2.61912 1.3568,0.23303 1.0663,-2.291758 1.2041,0.560209 1.0663,-2.291744 1.3565,0.232895 1.0662,-2.29174 1.2044,0.56031 2.437,-5.23831 1.3568,0.233016 1.0663,-2.291744 1.3566,0.232885 1.0662,-2.29174 1.2041,0.560206 1.0662,-2.291741 1.3567,0.232942 2.4371,-5.238263 1.2045,0.560337 0.9139,-1.964293 1.3565,0.232895 1.0663,-2.291753 1.2041,0.560219 1.0663,-2.291754 1.3568,0.232929 0.9138,-1.96436 1.2045,0.560417 1.9801,-4.2561 1.2042,0.560156 0.9138,-1.96438 1.2043,0.560323 0.9139,-1.964359 1.2043,0.560349 0.7616,-1.637058 1.2046,0.56053 1.3708,-2.946589 1.2042,0.560226 0.6093,-1.309591 1.2044,0.56032 0.6091,-1.309588 1.2044,0.56032 0.457,-0.98221 1.2045,0.560453 0.7615,-1.637045 1.2042,0.560293 0.1526,-0.327178 1.2043,0.560323 0.1526,-0.327211 1.3566,0.232845 1.2046,0.56051 0.1526,-0.327197 1.2042,0.560226 -0.1526,0.327197 1.2044,0.56032 -0.3046,0.654838 1.2045,0.560327 -0.1526,0.3272 1.2042,0.560243 -0.3046,0.654769 1.0516,0.887916 -0.6092,1.309597 1.0518,0.88804 -0.6093,1.309601 1.2045,0.560336 -0.6092,1.309578 1.2042,0.560216 -0.6093,1.30959 1.2043,0.560293 -0.7615,1.636968 1.2042,0.560276 -1.5232,3.2739 1.2046,0.560383 -0.9139,1.96443 1.2043,0.560272 -0.9139,1.964293 1.2042,0.560273 -1.0662,2.29174 1.2042,0.560276 -1.98,4.25611 1.0526,0.887401 -0.9138,1.964416 1.0516,0.887997 -1.0662,2.29167 1.2044,0.560379 -1.2187,2.619077 1.0518,0.88797 -2.1326,4.58348 1.2046,0.56038 -1.2183,2.6192 1.2042,0.56022 -1.3708,2.94656 1.2044,0.56032 -1.0665,2.29169 1.2043,0.56028 -1.2186,2.61908 1.2047,0.56052 -2.2846,4.91084 1.0516,0.888 -1.0662,2.29174 1.0518,0.88804 -1.0663,2.29174 1.2041,0.56017 -1.0661,2.29181 1.2045,0.56034 -2.1325,4.58348 1.0518,0.88805 -0.9139,1.96435 1.2043,0.56028 -1.0662,2.29175 1.2041,0.5602 -0.9138,1.96443 1.2045,0.56042 -0.7615,1.63691 1.2044,0.5603 -1.6756,3.60128 1.0518,0.88797 -0.6094,1.30961 1.2043,0.56028 -0.6093,1.30953 1.0525,0.8874 -0.4569,0.98221 1.2044,0.56033 -1.0662,2.29166 1.2043,0.56033 -0.3046,0.65477 1.2041,0.56022 -0.3045,0.65482 1.2044,0.56042 -0.3046,0.65476 1.2043,0.56031 -0.3046,0.65477 2.4085,1.12055 0.1527,-0.32719 1.2044,0.56034 0.1525,-0.32718 1.2044,0.56031 0.1525,-0.3272 1.3568,0.23295 0.4569,-0.98221 1.3566,0.23293 0.3046,-0.65476 1.2044,0.56031 0.4569,-0.98221 1.2044,0.56033 0.6092,-1.3096 1.2044,0.56033 1.3707,-2.94659 1.2045,0.56037 0.6093,-1.30953 1.3565,0.23287 0.6094,-1.3096 1.3565,0.23289 0.914,-1.96429 1.2043,0.56024 0.9139,-1.96436 1.2043,0.56036 1.9802,-4.25609 1.2043,0.56031 0.9139,-1.96437 1.3567,0.2329 0.9137,-1.96436 1.2044,0.56024 1.2185,-2.61906 1.2045,0.56029 2.1323,-4.58347 1.3568,0.23293 1.2184,-2.6192 1.2044,0.56033 1.2183,-2.61917 1.2044,0.56031 1.0663,-2.29176 1.3567,0.23293 2.2848,-4.91088 1.2042,0.56034 1.3709,-2.94653 1.2042,0.56022 1.0662,-2.29176 1.3567,0.23289 1.0662,-2.29175 1.2045,0.56041 1.0662,-2.29174 1.3565,0.23282 2.2848,-4.91087 1.2044,0.56032 0.9138,-1.96436 1.2043,0.56027 1.2184,-2.61913 1.2046,0.56037 0.914,-1.96428 1.2041,0.56016 1.8279,-3.92866 1.2043,0.56025 0.9137,-1.96436 1.2044,0.56034 0.7616,-1.63699 1.357,0.23307 0.7615,-1.63704 1.2043,0.56029 1.2183,-2.61918 1.2044,0.56031 0.6093,-1.30953 1.2042,0.56022 0.457,-0.98216 1.2046,0.56039 0.4569,-0.98214 1.2042,0.56023 0.3046,-0.65478 1.2043,0.56027 0.457,-0.98216 1.2043,0.56027 0.1525,-0.32718 1.2045,0.56039 0.1527,-0.32719 2.4082,1.12043 -0.3046,0.65477 1.2044,0.56031 -0.1525,0.3272 1.2044,0.5604 -0.4569,0.98214 1.2043,0.56027 -0.3046,0.65483 1.2042,0.56021 -0.4569,0.98222 1.2045,0.56039 -1.0662,2.29174 1.0517,0.88798 -0.6092,1.30959 1.2043,0.56028 -0.6093,1.30953 1.2042,0.56026 -0.7615,1.63698 1.0525,0.88748 -1.523,3.27394 1.0516,0.88797 -0.9138,1.96428 1.2042,0.56029 -0.9139,1.96437 1.2042,0.56027 -1.0662,2.29167 1.2047,0.56053 -2.1325,4.58342 1.2043,0.56034 -1.0662,2.29174 1.0517,0.88797 -1.0663,2.29169 1.2043,0.56033 -1.0662,2.29174 1.0526,0.88747 -1.2185,2.61905 1.2043,0.56027 -2.2848,4.91094 1.0516,0.88791 -1.0662,2.29175 1.2044,0.56024 -1.2187,2.61914 1.2046,0.5604 -1.2184,2.61912 1.0516,0.88805 -2.1323,4.58349 1.0515,0.88791 -1.0662,2.29181 1.2044,0.56024 -1.2184,2.6192 1.2044,0.56035 -1.0662,2.29174 1.2043,0.56031 -0.9139,1.9643 1.0516,0.8879 -1.98,4.25612 1.2043,0.56037 -0.9139,1.96438 1.0525,0.88733 -0.9139,1.96436 1.2044,0.56032 -0.7616,1.63698 1.2042,0.56024 -1.5231,3.27389 1.2042,0.56031 -0.6092,1.30953 1.2045,0.5604 -0.6091,1.3096 1.2043,0.56024 -0.4571,0.98217 1.2043,0.56034 -0.9139,1.96436 1.0517,0.88797 -0.3046,0.65477 1.2045,0.5604 -0.1526,0.32719 1.2044,0.56033 -0.3047,0.65477 1.2043,0.56026 -0.1525,0.32719 1.204,0.56016 0.1527,-0.3272 2.4088,1.12067 0.3047,-0.65477 1.2042,0.56025 0.1525,-0.32718 1.2043,0.56022 0.7615,-1.63704 1.2047,0.56052 0.6091,-1.30959 1.2042,0.5602 0.4571,-0.98214 1.3566,0.23292 0.457,-0.98214 1.3566,0.23291 0.6093,-1.30953 1.2044,0.56025 1.5231,-3.27389 1.2042,0.56021 0.7617,-1.63692 1.2043,0.56025 0.914,-1.96429 1.2043,0.56029 0.9138,-1.96436 1.2044,0.56033 2.1324,-4.5835 1.2043,0.56028 1.0662,-2.29174 1.2044,0.56031 1.0662,-2.29175 1.2044,0.56029 1.2184,-2.61911 1.2043,0.56026 2.2848,-4.91093 1.2043,0.56039 1.0662,-2.29174 1.3566,0.23281 1.0663,-2.29167 1.3568,0.23294 1.2184,-2.61912 1.2042,0.56022 1.0663,-2.29175 1.3567,0.23293 2.2846,-4.91094 1.3567,0.23296 1.0661,-2.29181 1.2046,0.56048 1.2185,-2.61919 1.2043,0.56026 1.0661,-2.2918 1.3567,0.23294 2.1324,-4.5835 1.3565,0.2329 0.7617,-1.63693 1.3568,0.23297 1.0662,-2.29175 1.2043,0.56027 0.9138,-1.96436 1.2044,0.56031 0.9139,-1.96435 1.3565,0.23282 1.5231,-3.27388 1.2046,0.5604 0.7616,-1.63699 1.2043,0.56027 0.7615,-1.63699 1.2043,0.56027 0.6093,-1.30945 1.2043,0.5602 1.0662,-2.29175 1.2044,0.5603 0.6093,-1.30948 1.2044,0.56026 0.3046,-0.65478 1.2043,0.56029 0.3046,-0.65482 1.2043,0.5603 0.3045,-0.65483 1.2045,0.56045 0.1526,-0.3272 2.4086,1.12058 -0.1525,0.3272 1.2044,0.56032 -0.1526,0.32718 1.2045,0.5604 -0.4569,0.98214 1.2043,0.56029 -0.3047,0.65477 1.2043,0.56026 -0.6092,1.3096 1.2043,0.56031 -0.457,0.98215 1.2044,0.56035 -1.0661,2.29182 1.0518,0.88796 -0.6093,1.30953 1.2042,0.56028 -0.7616,1.63698 1.0526,0.88747 -0.7616,1.63692 1.2042,0.56026 -0.7615,1.63697 1.2042,0.56029 -1.9801,4.25611 1.2043,0.56019 -0.9138,1.96444 1.2044,0.56033 -1.0662,2.29175 1.2044,0.56031 -1.0663,2.29176 1.0517,0.88791 -2.1323,4.58356 1.2042,0.56024 -1.2185,2.61913 1.2046,0.5604 -1.0663,2.29176 1.0517,0.88804 -1.0662,2.29167 1.0516,0.8879 -2.2846,4.91095 1.0517,0.88803 -1.0662,2.29176 1.0525,0.8874 -1.0662,2.29175 1.0517,0.88804 -1.0662,2.29175 1.2042,0.56021 -1.2185,2.61914 1.2043,0.56031 -2.2847,4.91088 1.2046,0.56041 -1.0663,2.29175 1.2042,0.56025 -1.0661,2.29173 1.0517,0.88791 -0.914,1.96437 1.2045,0.56037 -1.9802,4.25613 1.2045,0.56032 -0.9138,1.96436 1.2042,0.56026 -0.9138,1.96444 1.2042,0.56015 -0.7617,1.63699 1.2043,0.56027 -1.3709,2.94651 1.2047,0.56045 -0.6092,1.30961 1.2042,0.56018 -0.6093,1.30962 1.2042,0.56019 -0.4569,0.98222 1.0518,0.88797 -0.3047,0.65484 1.2046,0.56037 -0.6092,1.3096 1.2042,0.56022 -0.1526,0.32717 1.2042,0.56022 -0.1526,0.3272 1.2042,0.5602 -0.1525,0.3272 1.2046,0.56037 0.1524,-0.32717 1.2043,0.56019 0.3046,-0.65483 1.2043,0.56034 0.1525,-0.32719 1.2043,0.56028 0.3046,-0.65476 1.2046,0.56039 0.3046,-0.65478 1.2043,0.56028 1.0662,-2.29174 1.2043,0.56026 0.6092,-1.30959 1.2043,0.56027 0.6092,-1.3096 1.357,0.23307 0.6092,-1.30961 1.2044,0.56034 1.6754,-3.60132 1.2042,0.56019 0.914,-1.96428 1.2045,0.56039 0.9138,-1.96441 1.3566,0.23288 0.7616,-1.63691 1.2042,0.56024 2.1325,-4.58348 1.2043,0.56027 1.2185,-2.61913 1.2045,0.56034 1.0662,-2.29174 1.2043,0.56033 1.0662,-2.2918 1.3566,0.23287 1.0663,-2.29168 1.2043,0.56027 2.437,-5.23825 1.2044,0.56034 1.2185,-2.61912 1.2044,0.56026 1.0662,-2.29173 1.3567,0.23292 1.0661,-2.2918 1.3565,0.2329 2.2848,-4.91088 1.3568,0.23302 1.0661,-2.29181 1.2043,0.56028 1.0662,-2.29174 1.3568,0.23292 1.0661,-2.29174 1.3567,0.2329 0.9138,-1.96438 1.2045,0.56035 2.1324,-4.58349 1.3566,0.23288 0.7616,-1.63697 1.2042,0.56027 0.9139,-1.96437 1.3566,0.23288 0.914,-1.9643 1.2044,0.5603 1.5231,-3.2739 1.2044,0.56033 0.7616,-1.63699 1.2042,0.56028 0.6094,-1.30953 1.2042,0.56025 0.6092,-1.30961 1.2046,0.56042 1.0661,-2.2918 1.2044,0.56032 0.3046,-0.65478 1.2042,0.56022 0.3048,-0.65471 1.3565,0.23289 1.2045,0.56035 0.3045,-0.65482 1.2044,0.56038 0.1527,-0.32719"
         inkscape:connector-curvature="0"
         style="fill:none;stroke:#ff7600;stroke-width:6.30100012;stroke-miterlimit:4;stroke-opacity:1;stroke-dasharray:none" />
      <path
         id="path4554-3-3-8"
         d="m 1868.1302,187.39478 -0.1525,0.32718 1.2043,0.56027 -0.1526,0.32719 1.2042,0.5602 -0.4569,0.98222 1.2045,0.56033 -0.3046,0.65484 1.2043,0.56033 -0.4569,0.98214 1.2042,0.56027 -0.4569,0.98215 1.2043,0.56026 -0.6094,1.30954 1.2046,0.56047 -1.2185,2.61906 1.0516,0.88805 -0.7614,1.63704 1.2042,0.56022 -0.7615,1.63697 1.0516,0.88798 -0.7616,1.63698 1.2045,0.56035 -1.8278,3.92871 1.0518,0.88805 -0.7616,1.63698 1.0517,0.88797 -1.0662,2.29175 1.2042,0.56019 -1.0662,2.29182 1.2045,0.56035 -2.2847,4.91093 1.2043,0.56025 -1.0661,2.29181 1.0517,0.88791 -1.0662,2.29181 1.2041,0.56022 -1.0661,2.29172 1.0519,0.88819 -1.2186,2.61912 1.2043,0.56027 -2.437,5.23832 1.2043,0.56026 -1.0662,2.29174 1.0516,0.8879 -1.0662,2.29183 1.2046,0.56038 -1.3708,2.9465 1.2043,0.56035 -2.1325,4.58343 1.2044,0.56031 -1.2186,2.61913 1.2042,0.56023 -1.0662,2.29174 1.2047,0.56045 -0.914,1.96437 1.0517,0.88797 -0.9139,1.96437 1.0518,0.88804 -1.6754,3.60134 1.0515,0.88797 -0.9139,1.96431 1.2046,0.5604 -0.7616,1.6369 1.2043,0.56034 -0.6093,1.30954 1.2043,0.56032 -1.3708,2.9465 1.2043,0.56028 -0.6093,1.30952 1.2045,0.56041 -0.4568,0.98221 1.2041,0.56029 -0.4569,0.98214 1.2042,0.56025 -0.6091,1.3096 1.2046,0.5604 -0.1527,0.32719 1.2042,0.56023 -0.1525,0.32719 1.2044,0.56032 -0.1526,0.32718 2.4089,1.12073 0.3045,-0.65482 1.3565,0.23285 0.1526,-0.3272 1.2044,0.56032 0.3045,-0.65483 1.2042,0.56027 0.3047,-0.65476 1.2046,0.56038 1.0663,-2.29169 1.2042,0.56024 0.6092,-1.3096 1.2043,0.56025 0.6092,-1.30953 1.2043,0.56028 0.7616,-1.63699 1.2046,0.56046 0.7615,-1.63698 1.2042,0.56023 1.6755,-3.60135 1.2044,0.56032 0.9137,-1.96435 1.3568,0.23288 0.9138,-1.96435 1.2046,0.56045 1.0663,-2.29175 1.204,0.56016 2.1325,-4.58343 1.2043,0.56026 1.0662,-2.29174 1.3566,0.23288 1.0662,-2.29173 1.2044,0.56034 1.2187,-2.61907 1.2042,0.56021 2.2848,-4.91089 1.3564,0.23285 1.0662,-2.29176 1.3568,0.23294 0.9138,-1.96436 1.3568,0.23303 1.2186,-2.61914 1.2043,0.56022 1.2185,-2.61907 1.3565,0.23283 2.1325,-4.5835 1.2043,0.56032 1.2186,-2.61912 1.2045,0.56041 1.2184,-2.61919 1.2043,0.56027 1.0662,-2.29175 1.2043,0.56027 1.9801,-4.25611 1.3566,0.23294 0.9139,-1.96437 1.2045,0.56035 0.914,-1.9643 1.2042,0.5602 0.9139,-1.96429 1.2042,0.56021 0.9139,-1.96436 1.2043,0.56032 1.3709,-2.94651 1.3569,0.23302 0.6093,-1.3096 1.2041,0.56021 0.457,-0.98214 1.3566,0.23288 0.6092,-1.30959 1.2042,0.56027 0.7616,-1.63698 1.2046,0.56046 0.3046,-0.65477 1.2042,0.56016 0.1525,-0.32717 1.2044,0.5603 0.3046,-0.65477 1.2046,0.56041 0.1526,-0.32719 1.2043,0.56032 -0.1525,0.32719 1.2042,0.56026 -0.1526,0.3272 1.2043,0.56027 -0.1525,0.3272 1.2045,0.5604 -0.1525,0.32719 1.2044,0.56031 -0.7616,1.63699 1.0516,0.88797 -0.3046,0.65475 1.0517,0.88799 -0.457,0.98213 1.2046,0.56048 -0.6094,1.30947 1.2044,0.56039 -1.3708,2.94651 1.0517,0.88797 -0.6093,1.3096 1.0517,0.88798 -0.7615,1.6369 1.0524,0.8874 -0.7615,1.63698 1.2044,0.56032 -1.0663,2.29174 1.2042,0.56021 -1.98,4.25611 1.204,0.56023 -1.0662,2.29175 1.2047,0.56045 -1.2185,2.61911 1.2043,0.56029 -0.9139,1.96435 1.0517,0.88804 -2.437,5.23833 1.2041,0.56016 -1.0662,2.29174 1.052,0.88823 -1.0662,2.29175 1.2043,0.56027 -1.2186,2.61914 1.2044,0.56031 -2.4371,5.23825 1.2043,0.56023 -1.2186,2.61919 1.0526,0.88741 -0.9139,1.96436 1.0516,0.88798 -1.0662,2.29175 1.2044,0.5603 -1.2185,2.61913 1.2041,0.56024 -2.1324,4.58349 1.2046,0.56045 -1.0662,2.29174 1.0518,0.88797 -0.9139,1.96436 1.2043,0.56025 -0.9139,1.96437 1.0515,0.88792 -1.6754,3.60134 1.2046,0.56037 -0.7615,1.63706 1.0517,0.88797 -0.7617,1.63693 1.2043,0.56019 -0.6093,1.30961 1.2044,0.56033 -1.2187,2.61906 1.2046,0.56041 -0.457,0.98215 1.2045,0.56038 -0.4571,0.98215 1.2042,0.5602 -0.4568,0.98221 1.2042,0.56029 -0.1526,0.32718 1.2046,0.56041 -0.4569,0.98222 1.2044,0.56023 -0.1527,0.32721 2.4087,1.12055 0.1525,-0.3272 1.2042,0.56021 0.457,-0.98216 1.2043,0.56034 0.1526,-0.3272 1.2044,0.56034 0.4569,-0.98222 1.2045,0.56042 0.4569,-0.98221 1.2043,0.56026 0.4569,-0.98222 1.2044,0.56032 1.2184,-2.61912 1.2043,0.56026 0.6092,-1.30958 1.357,0.23306 0.7616,-1.63692 1.2041,0.56017 0.7616,-1.63699 1.3566,0.23291 1.6753,-3.60134 1.2044,0.56031 0.914,-1.9643 1.3568,0.23296 0.9139,-1.96436 1.2042,0.56021 1.0663,-2.29169 1.3565,0.23283 1.9802,-4.2561 1.2042,0.56031 1.2186,-2.61912 1.3568,0.23302 1.0663,-2.29175 1.2041,0.56021 1.0663,-2.29175 1.3565,0.2329 1.0662,-2.29174 1.2044,0.56031 2.437,-5.23831 1.3569,0.23301 1.0663,-2.29174 1.3565,0.23289 1.0662,-2.29174 1.2042,0.5602 1.0662,-2.29174 1.3566,0.23294 2.4371,-5.23826 1.2045,0.56034 0.9139,-1.9643 1.3566,0.2329 1.0663,-2.29175 1.2041,0.56021 1.0663,-2.29175 1.3567,0.23293 0.9138,-1.96436 1.2045,0.56042 1.9801,-4.2561 1.2042,0.56015 0.9138,-1.96438 1.2043,0.56033 0.9139,-1.96436 1.2044,0.56035 0.7615,-1.63706 1.2047,0.56053 1.3708,-2.94659 1.2041,0.56022 0.6093,-1.30959 1.2044,0.56032 0.6092,-1.30958 1.2044,0.56032 0.4569,-0.98221 1.2046,0.56045 0.7614,-1.63705 1.2043,0.5603 0.1525,-0.32718 1.2043,0.56032 0.1527,-0.32721 1.3565,0.23285 1.2047,0.56051 0.1525,-0.3272 1.2042,0.56022 -0.1526,0.3272 1.2044,0.56032 -0.3046,0.65484 1.2045,0.56033 -0.1526,0.3272 1.2043,0.56024 -0.3046,0.65477 1.0515,0.88791 -0.6092,1.3096 1.0518,0.88804 -0.6093,1.3096 1.2045,0.56034 -0.6092,1.30958 1.2042,0.56021 -0.6093,1.30959 1.2043,0.5603 -0.7615,1.63696 1.2042,0.56028 -1.5232,3.2739 1.2046,0.56038 -0.9138,1.96443 1.2043,0.56027 -0.914,1.9643 1.2043,0.56027 -1.0662,2.29174 1.2042,0.56028 -1.9801,4.25611 1.0526,0.8874 -0.9137,1.96441 1.0515,0.888 -1.0662,2.29167 1.2044,0.56038 -1.2187,2.61907 1.0518,0.88797 -2.1325,4.58349 1.2046,0.56038 -1.2184,2.6192 1.2042,0.56021 -1.3708,2.94657 1.2044,0.56032 -1.0664,2.29169 1.2043,0.56028 -1.2187,2.61907 1.2047,0.56052 -2.2846,4.91085 1.0516,0.888 -1.0662,2.29174 1.0518,0.88803 -1.0663,2.29175 1.2041,0.56017 -1.0661,2.2918 1.2045,0.56035 -2.1324,4.58348 1.0517,0.88805 -0.9138,1.96435 1.2042,0.56028 -1.0662,2.29174 1.2041,0.56021 -0.9137,1.96443 1.2044,0.56041 -0.7615,1.63691 1.2044,0.56031 -1.6756,3.60128 1.0518,0.88797 -0.6094,1.30961 1.2043,0.56027 -0.6093,1.30953 1.0525,0.88741 -0.4569,0.98221 1.2044,0.56033 -1.0662,2.29166 1.2044,0.56033 -0.3047,0.65477 1.2042,0.56021 -0.3046,0.65482 1.2045,0.56043 -0.3047,0.65476 1.2044,0.56031 -0.3046,0.65477 2.4084,1.12055 0.1527,-0.32719 1.2045,0.56033 0.1524,-0.32717 1.2044,0.56031 0.1526,-0.32721 1.3567,0.23296 0.4569,-0.98221 1.3566,0.23292 0.3046,-0.65476 1.2044,0.56031 0.4569,-0.98221 1.2044,0.56033 0.6092,-1.30959 1.2044,0.56033 1.3708,-2.94659 1.2045,0.56036 0.6092,-1.30953 1.3566,0.23288 0.6093,-1.30961 1.3566,0.2329 0.9139,-1.96429 1.2043,0.56024 0.914,-1.96436 1.2042,0.56036 1.9802,-4.25609 1.2043,0.56031 0.914,-1.96437 1.3566,0.2329 0.9137,-1.96436 1.2044,0.56024 1.2186,-2.61906 1.2045,0.56029 2.1323,-4.58347 1.3567,0.23293 1.2184,-2.6192 1.2044,0.56033 1.2184,-2.61918 1.2044,0.56031 1.0663,-2.29175 1.3566,0.23293 2.2848,-4.91088 1.2042,0.56033 1.3709,-2.94652 1.2042,0.56022 1.0662,-2.29176 1.3567,0.23288 1.0662,-2.29175 1.2045,0.56042 1.0662,-2.29174 1.3565,0.23281 2.2848,-4.91087 1.2044,0.56032 0.9138,-1.96436 1.2043,0.56028 1.2185,-2.61913 1.2046,0.56037 0.9139,-1.96428 1.2041,0.56016 1.8279,-3.92867 1.2043,0.56025 0.9138,-1.96435 1.2044,0.56034 0.7616,-1.63699 1.3569,0.23307 0.7615,-1.63704 1.2043,0.56028 1.2183,-2.61917 1.2044,0.56031 0.6093,-1.30953 1.2042,0.56021 0.457,-0.98215 1.2046,0.56038 0.4569,-0.98214 1.2042,0.56024 0.3046,-0.65478 1.2043,0.56026 0.457,-0.98215 1.2043,0.56026 0.1525,-0.32717 1.2045,0.56038 0.1527,-0.32719 2.4082,1.12044 -0.3045,0.65477 1.2043,0.5603 -0.1525,0.3272 1.2045,0.56041 -0.457,0.98214 1.2043,0.56027 -0.3046,0.65483 1.2042,0.56021 -0.4569,0.98222 1.2046,0.56039 -1.0662,2.29174 1.0516,0.88797 -0.6092,1.3096 1.2043,0.56027 -0.6093,1.30953 1.2042,0.56027 -0.7615,1.63698 1.0525,0.88747 -1.523,3.27395 1.0517,0.88797 -0.9139,1.96428 1.2043,0.56028 -0.914,1.96438 1.2042,0.56026 -1.0662,2.29167 1.2047,0.56053 -2.1324,4.58342 1.2042,0.56035 -1.0662,2.29174 1.0517,0.88797 -1.0663,2.29168 1.2044,0.56033 -1.0662,2.29174 1.0525,0.88748 -1.2185,2.61905 1.2043,0.56027 -2.2847,4.91094 1.0515,0.88791 -1.0662,2.29175 1.2044,0.56024 -1.2187,2.61914 1.2046,0.56039 -1.2184,2.61913 1.0516,0.88804 -2.1323,4.58349 1.0516,0.88792 -1.0662,2.29181 1.2043,0.56024 -1.2184,2.6192 1.2044,0.56035 -1.0662,2.29174 1.2044,0.56031 -0.914,1.9643 1.0516,0.8879 -1.98,4.25612 1.2044,0.56037 -0.914,1.96437 1.0525,0.88734 -0.9138,1.96436 1.2044,0.56032 -0.7617,1.63698 1.2042,0.56023 -1.5231,3.27389 1.2043,0.56032 -0.6093,1.30953 1.2046,0.5604 -0.6092,1.3096 1.2043,0.56024 -0.4571,0.98216 1.2043,0.56035 -0.9138,1.96436 1.0516,0.88797 -0.3046,0.65477 1.2045,0.56039 -0.1525,0.3272 1.2044,0.56033 -0.3047,0.65476 1.2042,0.56027 -0.1525,0.32718 1.2041,0.56017 0.1526,-0.3272 2.4088,1.12067 0.3047,-0.65477 1.2043,0.56025 0.1524,-0.32718 1.2043,0.56022 0.7615,-1.63704 1.2047,0.56052 0.6092,-1.3096 1.2041,0.56021 0.4571,-0.98214 1.3566,0.23292 0.457,-0.98214 1.3567,0.23291 0.6092,-1.30953 1.2044,0.56025 1.5232,-3.27389 1.2041,0.5602 0.7618,-1.63691 1.2042,0.56025 0.914,-1.96429 1.2043,0.56029 0.9138,-1.96436 1.2044,0.56033 2.1324,-4.5835 1.2043,0.56027 1.0662,-2.29174 1.2044,0.56032 1.0662,-2.29175 1.2044,0.56029 1.2184,-2.61912 1.2043,0.56027 2.2848,-4.91094 1.2044,0.56039 1.0662,-2.29174 1.3565,0.23282 1.0663,-2.29168 1.3568,0.23295 1.2185,-2.61912 1.2042,0.56022 1.0663,-2.29176 1.3566,0.23294 2.2846,-4.91094 1.3568,0.23296 1.0661,-2.29181 1.2046,0.56047 1.2184,-2.61919 1.2043,0.56027 1.0661,-2.2918 1.3567,0.23294 2.1324,-4.5835 1.3566,0.23289 0.7617,-1.63692 1.3567,0.23297 1.0662,-2.29175 1.2043,0.56027 0.9138,-1.96436 1.2044,0.56031 0.9139,-1.96435 1.3565,0.23281 1.5232,-3.27388 1.2045,0.56041 0.7617,-1.63699 1.2042,0.56027 0.7616,-1.63699 1.2042,0.56026 0.6093,-1.30945 1.2043,0.5602 1.0662,-2.29175 1.2044,0.5603 0.6094,-1.30947 1.2043,0.56026 0.3046,-0.65478 1.2043,0.56028 0.3046,-0.65482 1.2043,0.56031 0.3046,-0.65483 1.2045,0.56044 0.1525,-0.32719 2.4087,1.12058 -0.1526,0.3272 1.2044,0.56032 -0.1526,0.32717 1.2045,0.56041 -0.4569,0.98214 1.2043,0.56028 -0.3047,0.65477 1.2043,0.56027 -0.6092,1.30959 1.2043,0.56032 -0.4569,0.98215 1.2043,0.56035 -1.0661,2.29181 1.0518,0.88796 -0.6093,1.30953 1.2042,0.56029 -0.7615,1.63698 1.0525,0.88746 -0.7616,1.63693 1.2043,0.56026 -0.7615,1.63697 1.2041,0.56028 -1.98,4.25611 1.2042,0.56019 -0.9138,1.96444 1.2045,0.56034 -1.0662,2.29175 1.2043,0.56031 -1.0663,2.29175 1.0517,0.88792 -2.1323,4.58355 1.2043,0.56025 -1.2186,2.61913 1.2046,0.5604 -1.0663,2.29175 1.0517,0.88804 -1.0662,2.29167 1.0516,0.88791 -2.2846,4.91095 1.0517,0.88803 -1.0662,2.29176 1.0525,0.88739 -1.0662,2.29175 1.0518,0.88804 -1.0663,2.29175 1.2042,0.56022 -1.2185,2.61913 1.2044,0.56032 -2.2848,4.91087 1.2046,0.56042 -1.0663,2.29175 1.2043,0.56024 -1.0661,2.29174 1.0516,0.8879 -0.914,1.96438 1.2045,0.56037 -1.9801,4.25612 1.2045,0.56033 -0.9139,1.96436 1.2043,0.56025 -0.9139,1.96444 1.2042,0.56016 -0.7616,1.63699 1.2043,0.56026 -1.3709,2.94651 1.2047,0.56045 -0.6093,1.30962 1.2043,0.56018 -0.6094,1.30961 1.2043,0.56019 -0.457,0.98222 1.0518,0.88797 -0.3047,0.65485 1.2046,0.56037 -0.6092,1.3096 1.2042,0.56021 -0.1526,0.32718 1.2042,0.56022 -0.1525,0.32719 1.2041,0.56021 -0.1525,0.3272 1.2046,0.56037 0.1524,-0.32717 1.2043,0.56019 0.3046,-0.65483 1.2043,0.56033 0.1525,-0.32719 1.2043,0.56029 0.3046,-0.65476 1.2046,0.56038 0.3047,-0.65477 1.2043,0.56027 1.0662,-2.29174 1.2042,0.56026 0.6092,-1.30958 1.2043,0.56027 0.6093,-1.3096 1.3569,0.23306 0.6093,-1.3096 1.2044,0.56034 1.6753,-3.60133 1.2042,0.5602 0.914,-1.96428 1.2046,0.56039 0.9137,-1.96442 1.3567,0.23288 0.7616,-1.63691 1.2042,0.56025 2.1325,-4.58348 1.2042,0.56027 1.2185,-2.61913 1.2045,0.56034 1.0662,-2.29174 1.2044,0.56033 1.0662,-2.2918 1.3565,0.23287 1.0663,-2.29168 1.2043,0.56027 2.437,-5.23825 1.2045,0.56034 1.2184,-2.61912 1.2044,0.56026 1.0662,-2.29173 1.3567,0.23292 1.0661,-2.2918 1.3566,0.23289 2.2847,-4.91088 1.3568,0.23303 1.0661,-2.29181 1.2043,0.56027 1.0662,-2.29174 1.3569,0.23293 1.0661,-2.29174 1.3566,0.23289 0.9138,-1.96438 1.2045,0.56036 2.1324,-4.58349 1.3567,0.23288 0.7615,-1.63698 1.2043,0.56027 0.9138,-1.96436 1.3567,0.23288 0.9139,-1.96431 1.2044,0.5603 1.5231,-3.2739 1.2044,0.56033 0.7616,-1.63699 1.2042,0.56029 0.6094,-1.30954 1.2043,0.56026 0.6091,-1.30961 1.2046,0.56041 1.0661,-2.29179 1.2044,0.56032 0.3046,-0.65478 1.2042,0.56021 0.3048,-0.6547 1.3565,0.23288 1.2045,0.56036 0.3046,-0.65482 1.2044,0.56038 0.1526,-0.32719"
         inkscape:connector-curvature="0"
         style="fill:none;stroke:#ff7600;stroke-width:6.30100012;stroke-miterlimit:4;stroke-opacity:1;stroke-dasharray:none" />
      <path
         id="path4554-3-3-8-3"
         d="m 1967.9221,232.1364 -0.1525,0.32718 1.2043,0.56027 -0.1526,0.32719 1.2042,0.5602 -0.4569,0.98222 1.2045,0.56033 -0.3046,0.65484 1.2043,0.56033 -0.4569,0.98214 1.2042,0.56027 -0.4569,0.98215 1.2043,0.56026 -0.6094,1.30954 1.2046,0.56047 -1.2185,2.61906 1.0516,0.88805 -0.7614,1.63704 1.2042,0.56022 -0.7615,1.63697 1.0516,0.88798 -0.7616,1.63698 1.2045,0.56035 -1.8278,3.92871 1.0518,0.88805 -0.7616,1.63698 1.0517,0.88797 -1.0662,2.29175 1.2042,0.56019 -1.0662,2.29182 1.2045,0.56035 -2.2847,4.91093 1.2043,0.56025 -1.0661,2.29181 1.0517,0.88791 -1.0662,2.29181 1.2041,0.56022 -1.0661,2.29172 1.0519,0.88819 -1.2186,2.61912 1.2043,0.56027 -2.437,5.23832 1.2043,0.56026 -1.0662,2.29174 1.0516,0.8879 -1.0662,2.29183 1.2046,0.56038 -1.3708,2.9465 1.2043,0.56035 -2.1325,4.58343 1.2044,0.56031 -1.2186,2.61913 1.2042,0.56023 -1.0662,2.29174 1.2047,0.56045 -0.914,1.96437 1.0517,0.88797 -0.9139,1.96437 1.0518,0.88804 -1.6754,3.60134 1.0515,0.88797 -0.9139,1.96431 1.2046,0.5604 -0.7616,1.6369 1.2043,0.56034 -0.6093,1.30954 1.2043,0.56032 -1.3708,2.9465 1.2043,0.56028 -0.6093,1.30952 1.2045,0.56041 -0.4568,0.98221 1.2041,0.56029 -0.4569,0.98214 1.2042,0.56025 -0.6091,1.3096 1.2046,0.5604 -0.1527,0.32719 1.2042,0.56023 -0.1525,0.32719 1.2044,0.56032 -0.1526,0.32718 2.4089,1.12073 0.3045,-0.65482 1.3565,0.23285 0.1526,-0.3272 1.2044,0.56032 0.3045,-0.65483 1.2042,0.56027 0.3047,-0.65476 1.2046,0.56038 1.0663,-2.29169 1.2042,0.56024 0.6092,-1.3096 1.2043,0.56025 0.6092,-1.30953 1.2043,0.56028 0.7616,-1.63699 1.2046,0.56046 0.7615,-1.63698 1.2042,0.56023 1.6755,-3.60135 1.2044,0.56032 0.9137,-1.96435 1.3568,0.23288 0.9138,-1.96435 1.2046,0.56045 1.0663,-2.29175 1.204,0.56016 2.1325,-4.58343 1.2043,0.56026 1.0662,-2.29174 1.3566,0.23288 1.0662,-2.29173 1.2044,0.56034 1.2187,-2.61907 1.2042,0.56021 2.2848,-4.91089 1.3564,0.23285 1.0662,-2.29176 1.3568,0.23294 0.9138,-1.96436 1.3568,0.23303 1.2186,-2.61914 1.2043,0.56022 1.2185,-2.61907 1.3565,0.23283 2.1325,-4.5835 1.2043,0.56032 1.2186,-2.61912 1.2045,0.56041 1.2184,-2.61919 1.2043,0.56027 1.0662,-2.29175 1.2043,0.56027 1.9801,-4.25611 1.3566,0.23294 0.9139,-1.96437 1.2045,0.56035 0.914,-1.9643 1.2042,0.5602 0.9139,-1.96429 1.2042,0.56021 0.9139,-1.96436 1.2043,0.56032 1.3709,-2.94651 1.3569,0.23302 0.6093,-1.3096 1.2041,0.56021 0.457,-0.98214 1.3566,0.23288 0.6092,-1.30959 1.2042,0.56027 0.7616,-1.63698 1.2046,0.56046 0.3046,-0.65477 1.2042,0.56016 0.1525,-0.32717 1.2044,0.5603 0.3046,-0.65477 1.2046,0.56041 0.1526,-0.32719 1.2043,0.56032 -0.1525,0.32719 1.2042,0.56026 -0.1526,0.3272 1.2043,0.56027 -0.1525,0.3272 1.2045,0.5604 -0.1525,0.32719 1.2044,0.56031 -0.7616,1.63699 1.0516,0.88797 -0.3046,0.65475 1.0517,0.88799 -0.457,0.98213 1.2046,0.56048 -0.6094,1.30947 1.2044,0.56039 -1.3708,2.94651 1.0517,0.88797 -0.6093,1.3096 1.0517,0.88798 -0.7615,1.6369 1.0524,0.8874 -0.7615,1.63698 1.2044,0.56032 -1.0663,2.29174 1.2042,0.56021 -1.98,4.25611 1.204,0.56023 -1.0662,2.29175 1.2047,0.56045 -1.2185,2.61911 1.2043,0.56029 -0.9139,1.96435 1.0517,0.88804 -2.437,5.23833 1.2041,0.56016 -1.0662,2.29174 1.052,0.88823 -1.0662,2.29175 1.2043,0.56027 -1.2186,2.61914 1.2044,0.56031 -2.4371,5.23825 1.2043,0.56023 -1.2186,2.61919 1.0526,0.88741 -0.9139,1.96436 1.0516,0.88798 -1.0662,2.29175 1.2044,0.5603 -1.2185,2.61913 1.2041,0.56024 -2.1324,4.58349 1.2046,0.56045 -1.0662,2.29174 1.0518,0.88797 -0.9139,1.96436 1.2043,0.56025 -0.9139,1.96437 1.0515,0.88792 -1.6754,3.60134 1.2046,0.56037 -0.7615,1.63706 1.0517,0.88797 -0.7617,1.63693 1.2043,0.56019 -0.6093,1.30961 1.2044,0.56033 -1.2187,2.61906 1.2046,0.56041 -0.457,0.98215 1.2045,0.56038 -0.4571,0.98215 1.2042,0.5602 -0.4568,0.98221 1.2042,0.56029 -0.1526,0.32718 1.2046,0.56041 -0.4569,0.98222 1.2044,0.56023 -0.1527,0.32721 2.4087,1.12055 0.1525,-0.3272 1.2042,0.56021 0.457,-0.98216 1.2043,0.56034 0.1526,-0.3272 1.2044,0.56034 0.4569,-0.98222 1.2045,0.56042 0.4569,-0.98221 1.2043,0.56026 0.4569,-0.98222 1.2044,0.56032 1.2184,-2.61912 1.2043,0.56026 0.6092,-1.30958 1.357,0.23306 0.7616,-1.63692 1.2041,0.56017 0.7616,-1.63699 1.3566,0.23291 1.6753,-3.60134 1.2044,0.56031 0.914,-1.9643 1.3568,0.23296 0.9139,-1.96436 1.2042,0.56021 1.0663,-2.29169 1.3565,0.23283 1.9802,-4.2561 1.2042,0.56031 1.2186,-2.61912 1.3568,0.23302 1.0663,-2.29175 1.2041,0.56021 1.0663,-2.29175 1.3565,0.2329 1.0662,-2.29174 1.2044,0.56031 2.437,-5.23831 1.3569,0.23301 1.0663,-2.29174 1.3565,0.23289 1.0662,-2.29174 1.2042,0.5602 1.0662,-2.29174 1.3566,0.23294 2.4371,-5.23826 1.2045,0.56034 0.9139,-1.9643 1.3566,0.2329 1.0663,-2.29175 1.2041,0.56021 1.0663,-2.29175 1.3567,0.23293 0.9138,-1.96436 1.2045,0.56042 1.9801,-4.2561 1.2042,0.56015 0.9138,-1.96438 1.2043,0.56033 0.9139,-1.96436 1.2044,0.56035 0.7615,-1.63706 1.2047,0.56053 1.3708,-2.94659 1.2041,0.56022 0.6093,-1.30959 1.2044,0.56032 0.6092,-1.30958 1.2044,0.56032 0.4569,-0.98221 1.2046,0.56045 0.7614,-1.63705 1.2043,0.5603 0.1525,-0.32718 1.2043,0.56032 0.1527,-0.32721 1.3565,0.23285 1.2047,0.56051 0.1525,-0.3272 1.2042,0.56022 -0.1526,0.3272 1.2044,0.56032 -0.3046,0.65484 1.2045,0.56033 -0.1526,0.3272 1.2043,0.56024 -0.3046,0.65477 1.0515,0.88791 -0.6092,1.3096 1.0518,0.88804 -0.6093,1.3096 1.2045,0.56034 -0.6092,1.30958 1.2042,0.56021 -0.6093,1.30959 1.2043,0.5603 -0.7615,1.63696 1.2042,0.56028 -1.5232,3.2739 1.2046,0.56038 -0.9138,1.96443 1.2043,0.56027 -0.914,1.9643 1.2043,0.56027 -1.0662,2.29174 1.2042,0.56028 -1.9801,4.25611 1.0526,0.8874 -0.9137,1.96441 1.0515,0.888 -1.0662,2.29167 1.2044,0.56038 -1.2187,2.61907 1.0518,0.88797 -2.1325,4.58349 1.2046,0.56038 -1.2184,2.6192 1.2042,0.56021 -1.3708,2.94657 1.2044,0.56032 -1.0664,2.29169 1.2043,0.56028 -1.2187,2.61907 1.2047,0.56052 -2.2846,4.91085 1.0516,0.888 -1.0662,2.29174 1.0518,0.88803 -1.0663,2.29175 1.2041,0.56017 -1.0661,2.2918 1.2045,0.56035 -2.1324,4.58348 1.0517,0.88805 -0.9138,1.96435 1.2042,0.56028 -1.0662,2.29174 1.2041,0.56021 -0.9137,1.96443 1.2044,0.56041 -0.7615,1.63691 1.2044,0.56031 -1.6756,3.60128 1.0518,0.88797 -0.6094,1.30961 1.2043,0.56027 -0.6093,1.30953 1.0525,0.88741 -0.4569,0.98221 1.2044,0.56033 -1.0662,2.29166 1.2044,0.56033 -0.3047,0.65477 1.2042,0.56021 -0.3046,0.65482 1.2045,0.56043 -0.3047,0.65476 1.2044,0.56031 -0.3046,0.65477 2.4084,1.12055 0.1527,-0.32719 1.2045,0.56033 0.1524,-0.32717 1.2044,0.56031 0.1526,-0.32721 1.3567,0.23296 0.4569,-0.98221 1.3566,0.23292 0.3046,-0.65476 1.2044,0.56031 0.4569,-0.98221 1.2044,0.56033 0.6092,-1.30959 1.2044,0.56033 1.3708,-2.94659 1.2045,0.56036 0.6092,-1.30953 1.3566,0.23288 0.6093,-1.30961 1.3566,0.2329 0.9139,-1.96429 1.2043,0.56024 0.914,-1.96436 1.2042,0.56036 1.9802,-4.25609 1.2043,0.56031 0.914,-1.96437 1.3566,0.2329 0.9137,-1.96436 1.2044,0.56024 1.2186,-2.61906 1.2045,0.56029 2.1323,-4.58347 1.3567,0.23293 1.2184,-2.6192 1.2044,0.56033 1.2184,-2.61918 1.2044,0.56031 1.0663,-2.29175 1.3566,0.23293 2.2848,-4.91088 1.2042,0.56033 1.3709,-2.94652 1.2042,0.56022 1.0662,-2.29176 1.3567,0.23288 1.0662,-2.29175 1.2045,0.56042 1.0662,-2.29174 1.3565,0.23281 2.2848,-4.91087 1.2044,0.56032 0.9138,-1.96436 1.2043,0.56028 1.2185,-2.61913 1.2046,0.56037 0.9139,-1.96428 1.2041,0.56016 1.8279,-3.92867 1.2043,0.56025 0.9138,-1.96435 1.2044,0.56034 0.7616,-1.63699 1.3569,0.23307 0.7615,-1.63704 1.2043,0.56028 1.2183,-2.61917 1.2044,0.56031 0.6093,-1.30953 1.2042,0.56021 0.457,-0.98215 1.2046,0.56038 0.4569,-0.98214 1.2042,0.56024 0.3046,-0.65478 1.2043,0.56026 0.457,-0.98215 1.2043,0.56026 0.1525,-0.32717 1.2045,0.56038 0.1527,-0.32719 2.4082,1.12044 -0.3045,0.65477 1.2043,0.5603 -0.1525,0.3272 1.2045,0.56041 -0.457,0.98214 1.2043,0.56027 -0.3046,0.65483 1.2042,0.56021 -0.4569,0.98222 1.2046,0.56039 -1.0662,2.29174 1.0516,0.88797 -0.6092,1.3096 1.2043,0.56027 -0.6093,1.30953 1.2042,0.56027 -0.7615,1.63698 1.0525,0.88747 -1.523,3.27395 1.0517,0.88797 -0.9139,1.96428 1.2043,0.56028 -0.914,1.96438 1.2042,0.56026 -1.0662,2.29167 1.2047,0.56053 -2.1324,4.58342 1.2042,0.56035 -1.0662,2.29174 1.0517,0.88797 -1.0663,2.29168 1.2044,0.56033 -1.0662,2.29174 1.0525,0.88748 -1.2185,2.61905 1.2043,0.56027 -2.2847,4.91094 1.0515,0.88791 -1.0662,2.29175 1.2044,0.56024 -1.2187,2.61914 1.2046,0.56039 -1.2184,2.61913 1.0516,0.88804 -2.1323,4.58349 1.0516,0.88792 -1.0662,2.29181 1.2043,0.56024 -1.2184,2.6192 1.2044,0.56035 -1.0662,2.29174 1.2044,0.56031 -0.914,1.9643 1.0516,0.8879 -1.98,4.25612 1.2044,0.56037 -0.914,1.96437 1.0525,0.88734 -0.9138,1.96436 1.2044,0.56032 -0.7617,1.63698 1.2042,0.56023 -1.5231,3.27389 1.2043,0.56032 -0.6093,1.30953 1.2046,0.5604 -0.6092,1.3096 1.2043,0.56024 -0.4571,0.98216 1.2043,0.56035 -0.9138,1.96436 1.0516,0.88797 -0.3046,0.65477 1.2045,0.56039 -0.1525,0.3272 1.2044,0.56033 -0.3047,0.65476 1.2042,0.56027 -0.1525,0.32718 1.2041,0.56017 0.1526,-0.3272 2.4088,1.12067 0.3047,-0.65477 1.2043,0.56025 0.1524,-0.32718 1.2043,0.56022 0.7615,-1.63704 1.2047,0.56052 0.6092,-1.3096 1.2041,0.56021 0.4571,-0.98214 1.3566,0.23292 0.457,-0.98214 1.3567,0.23291 0.6092,-1.30953 1.2044,0.56025 1.5232,-3.27389 1.2041,0.5602 0.7618,-1.63691 1.2042,0.56025 0.914,-1.96429 1.2043,0.56029 0.9138,-1.96436 1.2044,0.56033 2.1324,-4.5835 1.2043,0.56027 1.0662,-2.29174 1.2044,0.56032 1.0662,-2.29175 1.2044,0.56029 1.2184,-2.61912 1.2043,0.56027 2.2848,-4.91094 1.2044,0.56039 1.0662,-2.29174 1.3565,0.23282 1.0663,-2.29168 1.3568,0.23295 1.2185,-2.61912 1.2042,0.56022 1.0663,-2.29176 1.3566,0.23294 2.2846,-4.91094 1.3568,0.23296 1.0661,-2.29181 1.2046,0.56047 1.2184,-2.61919 1.2043,0.56027 1.0661,-2.2918 1.3567,0.23294 2.1324,-4.5835 1.3566,0.23289 0.7617,-1.63692 1.3567,0.23297 1.0662,-2.29175 1.2043,0.56027 0.9138,-1.96436 1.2044,0.56031 0.9139,-1.96435 1.3565,0.23281 1.5232,-3.27388 1.2045,0.56041 0.7617,-1.63699 1.2042,0.56027 0.7616,-1.63699 1.2042,0.56026 0.6093,-1.30945 1.2043,0.5602 1.0662,-2.29175 1.2044,0.5603 0.6094,-1.30947 1.2043,0.56026 0.3046,-0.65478 1.2043,0.56028 0.3046,-0.65482 1.2043,0.56031 0.3046,-0.65483 1.2045,0.56044 0.1525,-0.32719 2.4087,1.12058 -0.1526,0.3272 1.2044,0.56032 -0.1526,0.32717 1.2045,0.56041 -0.4569,0.98214 1.2043,0.56028 -0.3047,0.65477 1.2043,0.56027 -0.6092,1.30959 1.2043,0.56032 -0.4569,0.98215 1.2043,0.56035 -1.0661,2.29181 1.0518,0.88796 -0.6093,1.30953 1.2042,0.56029 -0.7615,1.63698 1.0525,0.88746 -0.7616,1.63693 1.2043,0.56026 -0.7615,1.63697 1.2041,0.56028 -1.98,4.25611 1.2042,0.56019 -0.9138,1.96444 1.2045,0.56034 -1.0662,2.29175 1.2043,0.56031 -1.0663,2.29175 1.0517,0.88792 -2.1323,4.58355 1.2043,0.56025 -1.2186,2.61913 1.2046,0.5604 -1.0663,2.29175 1.0517,0.88804 -1.0662,2.29167 1.0516,0.88791 -2.2846,4.91095 1.0517,0.88803 -1.0662,2.29176 1.0525,0.88739 -1.0662,2.29175 1.0518,0.88804 -1.0663,2.29175 1.2042,0.56022 -1.2185,2.61913 1.2044,0.56032 -2.2848,4.91087 1.2046,0.56042 -1.0663,2.29175 1.2043,0.56024 -1.0661,2.29174 1.0516,0.8879 -0.914,1.96438 1.2045,0.56037 -1.9801,4.25612 1.2045,0.56033 -0.9139,1.96436 1.2043,0.56025 -0.9139,1.96444 1.2042,0.56016 -0.7616,1.63699 1.2043,0.56026 -1.3709,2.94651 1.2047,0.56045 -0.6093,1.30962 1.2043,0.56018 -0.6094,1.30961 1.2043,0.56019 -0.457,0.98222 1.0518,0.88797 -0.3047,0.65485 1.2046,0.56037 -0.6092,1.3096 1.2042,0.56021 -0.1526,0.32718 1.2042,0.56022 -0.1525,0.32719 1.2041,0.56021 -0.1525,0.3272 1.2046,0.56037 0.1524,-0.32717 1.2043,0.56019 0.3046,-0.65483 1.2043,0.56033 0.1525,-0.32719 1.2043,0.56029 0.3046,-0.65476 1.2046,0.56038 0.3047,-0.65477 1.2043,0.56027 1.0662,-2.29174 1.2042,0.56026 0.6092,-1.30958 1.2043,0.56027 0.6093,-1.3096 1.3569,0.23306 0.6093,-1.3096 1.2044,0.56034 1.6753,-3.60133 1.2042,0.5602 0.914,-1.96428 1.2046,0.56039 0.9137,-1.96442 1.3567,0.23288 0.7616,-1.63691 1.2042,0.56025 2.1325,-4.58348 1.2042,0.56027 1.2185,-2.61913 1.2045,0.56034 1.0662,-2.29174 1.2044,0.56033 1.0662,-2.2918 1.3565,0.23287 1.0663,-2.29168 1.2043,0.56027 2.437,-5.23825 1.2045,0.56034 1.2184,-2.61912 1.2044,0.56026 1.0662,-2.29173 1.3567,0.23292 1.0661,-2.2918 1.3566,0.23289 2.2847,-4.91088 1.3568,0.23303 1.0661,-2.29181 1.2043,0.56027 1.0662,-2.29174 1.3569,0.23293 1.0661,-2.29174 1.3566,0.23289 0.9138,-1.96438 1.2045,0.56036 2.1324,-4.58349 1.3567,0.23288 0.7615,-1.63698 1.2043,0.56027 0.9138,-1.96436 1.3567,0.23288 0.9139,-1.96431 1.2044,0.5603 1.5231,-3.2739 1.2044,0.56033 0.7616,-1.63699 1.2042,0.56029 0.6094,-1.30954 1.2043,0.56026 0.6091,-1.30961 1.2046,0.56041 1.0661,-2.29179 1.2044,0.56032 0.3046,-0.65478 1.2042,0.56021 0.3048,-0.6547 1.3565,0.23288 1.2045,0.56036 0.3046,-0.65482 1.2044,0.56038 0.1526,-0.32719"
         inkscape:connector-curvature="0"
         style="fill:none;stroke:#ff7600;stroke-width:6.30100012;stroke-miterlimit:4;stroke-opacity:1;stroke-dasharray:none" />
      <path
         id="path4554-3-5"
         d="m 1989.094,-258.09312 0.093,0.34882 1.2831,-0.34324 0.093,0.34881 1.283,-0.34324 0.28,1.04647 1.2833,-0.34332 0.1867,0.69765 1.2832,-0.34326 0.2799,1.04647 1.2831,-0.34324 0.2799,1.04647 1.2831,-0.34324 0.3732,1.39529 1.2835,-0.34332 0.7464,2.79059 1.3765,0.006 0.4667,1.74412 1.283,-0.34324 0.4666,1.74412 1.3764,0.006 0.4666,1.74412 1.2833,-0.34332 1.1198,4.18588 1.3765,0.006 0.4666,1.74412 1.3764,0.006 0.6532,2.44177 1.283,-0.34325 0.6533,2.44178 1.2833,-0.34332 1.3998,5.23235 1.2831,-0.34327 0.6533,2.44177 1.3763,0.006 0.6533,2.44177 1.283,-0.34324 0.6532,2.44176 1.3767,0.006 0.7465,2.7906 1.2831,-0.34325 1.4931,5.58118 1.2831,-0.34326 0.6532,2.44176 1.3763,0.006 0.6533,2.44177 1.2834,-0.34335 0.8398,3.13942 1.2832,-0.34324 1.3063,4.88353 1.2832,-0.34327 0.7465,2.79059 1.283,-0.34321 0.6532,2.44176 1.2835,-0.34334 0.5599,2.09294 1.3764,0.006 0.5599,2.09295 1.3765,0.006 1.0265,3.83706 1.3764,0.006 0.5598,2.09294 1.2834,-0.34332 0.4665,1.74412 1.2832,-0.34324 0.3732,1.39529 1.2832,-0.34326 0.8398,3.13941 1.2831,-0.34324 0.3732,1.39529 1.2834,-0.34332 0.28,1.04647 1.2831,-0.34323 0.2799,1.04646 1.2831,-0.34326 0.3733,1.39529 1.2834,-0.34331 0.093,0.34882 1.283,-0.34322 0.093,0.34883 1.2832,-0.34327 0.093,0.34882 2.5666,-0.68658 -0.1867,-0.69765 1.1897,-0.69204 -0.093,-0.34882 1.2832,-0.34327 -0.1867,-0.69765 1.2831,-0.34324 -0.1866,-0.69764 1.2834,-0.34335 -0.6531,-2.44177 1.283,-0.34321 -0.3733,-1.39529 1.2831,-0.34327 -0.3732,-1.3953 1.2831,-0.34324 -0.4666,-1.74411 1.2835,-0.34335 -0.4666,-1.74412 1.283,-0.34321 -1.0265,-3.83707 1.2832,-0.34326 -0.5599,-2.09294 1.1898,-0.69207 -0.5599,-2.09294 1.2835,-0.34334 -0.6532,-2.44177 1.2829,-0.34322 -1.3063,-4.88353 1.2831,-0.34327 -0.6532,-2.44176 1.1898,-0.69207 -0.6532,-2.44176 1.2833,-0.34332 -0.7464,-2.79059 1.283,-0.34324 -1.3997,-5.23236 1.1897,-0.69206 -0.6532,-2.44177 1.1899,-0.69209 -0.5599,-2.09294 1.1901,-0.69214 -0.7465,-2.79059 1.283,-0.34324 -0.7464,-2.79059 1.1897,-0.69206 -1.3064,-4.88354 1.2832,-0.34326 -0.7465,-2.7906 1.2834,-0.34331 -0.7466,-2.79059 1.2831,-0.34324 -0.6532,-2.44177 1.2831,-0.34324 -1.2131,-4.53472 1.1899,-0.69208 -0.5599,-2.09294 1.2833,-0.34332 -0.5598,-2.09295 1.283,-0.34324 -0.5598,-2.09293 1.283,-0.34324 -0.5599,-2.09295 1.2832,-0.34327 -0.8398,-3.13942 1.1901,-0.69213 -0.3733,-1.3953 1.283,-0.34324 -0.2799,-1.04646 1.1898,-0.69208 -0.3733,-1.39529 1.2831,-0.34324 -0.4666,-1.74412 1.2835,-0.34335 -0.1866,-0.69764 1.2829,-0.34322 -0.093,-0.34881 1.2832,-0.34327 -0.1866,-0.69765 1.2834,-0.34331 -0.093,-0.34883 1.2832,-0.34327 0.093,0.34883 1.2831,-0.34325 0.093,0.34882 1.2831,-0.34324 0.093,0.34884 1.2834,-0.34333 0.093,0.34882 1.2832,-0.34326 0.4666,1.74412 1.3764,0.006 0.1866,0.69764 1.3764,0.006 0.2799,1.04647 1.2835,-0.34332 0.3731,1.39529 1.2833,-0.34326 0.8398,3.13941 1.3764,0.006 0.3733,1.3953 1.3764,0.006 0.4665,1.7441 1.3767,0.005 0.4666,1.74413 1.2832,-0.34327 0.6532,2.44176 1.283,-0.34324 1.2131,4.53471 1.283,-0.34322 0.6532,2.44177 1.2835,-0.34335 0.7465,2.79059 1.2831,-0.34323 0.5599,2.09293 1.3765,0.006 1.4931,5.58119 1.2829,-0.34322 0.6532,2.44176 1.3768,0.006 0.6532,2.44177 1.2831,-0.34324 0.7465,2.79059 1.2832,-0.34327 1.493,5.58118 1.283,-0.34321 0.7466,2.79059 1.3767,0.005 0.5599,2.09294 1.3764,0.006 0.6532,2.44177 1.2832,-0.34327 0.7465,2.79059 1.283,-0.34321 1.3064,4.88353 1.2835,-0.34334 0.6532,2.44176 1.3764,0.006 0.5599,2.09294 1.2831,-0.34327 0.5599,2.09295 1.3763,0.006 1.0265,3.83706 1.2834,-0.34335 0.4667,1.74413 1.3764,0.006 0.4665,1.74412 1.283,-0.34325 0.3733,1.3953 1.2832,-0.34324 0.7464,2.79059 1.2834,-0.34332 0.2799,1.04647 1.2833,-0.34326 0.2799,1.04646 1.283,-0.34324 0.28,1.04647 1.2831,-0.34324 0.093,0.34883 1.2834,-0.34332 0.28,1.04647 1.2831,-0.34327 0.093,0.34883 2.5663,-0.68656 -0.093,-0.34883 1.283,-0.34324 -0.2799,-1.04647 1.2832,-0.34326 -0.093,-0.34883 1.2832,-0.34324 -0.28,-1.04647 1.2834,-0.34332 -0.28,-1.04647 1.2831,-0.34324 -0.28,-1.04647 1.2832,-0.34327 -0.7465,-2.79059 1.2831,-0.34324 -0.3733,-1.3953 1.1902,-0.69216 -0.4665,-1.74412 1.2829,-0.34322 -0.4666,-1.74412 1.1898,-0.69206 -1.0265,-3.83706 1.2832,-0.34327 -0.5598,-2.09294 1.19,-0.69214 -0.5599,-2.09294 1.283,-0.34325 -0.6531,-2.44176 1.1897,-0.69207 -1.2131,-4.53471 1.2832,-0.34326 -0.7465,-2.79059 1.1901,-0.69214 -0.6532,-2.44177 1.283,-0.34324 -0.6532,-2.44177 1.1898,-0.69206 -0.6532,-2.44177 1.2832,-0.34326 -1.4931,-5.58118 1.1901,-0.69215 -0.6532,-2.44176 1.1898,-0.69206 -0.6532,-2.44177 1.283,-0.34324 -0.6532,-2.44177 1.1899,-0.69209 -1.493,-5.58118 1.2833,-0.34332 -0.5598,-2.09294 1.1898,-0.69206 -0.6532,-2.44177 1.283,-0.34324 -0.6532,-2.44177 1.1899,-0.69209 -0.5599,-2.09294 1.2834,-0.34331 -1.2131,-4.53471 1.2829,-0.34321 -0.5599,-2.09297 1.2832,-0.34326 -0.5599,-2.09294 1.2832,-0.34323 -0.4667,-1.74413 1.2836,-0.34334 -0.8399,-3.13942 1.283,-0.34321 -0.3733,-1.39529 1.2832,-0.34326 -0.3733,-1.3953 1.2832,-0.34325 -0.28,-1.04647 1.2835,-0.34334 -0.4667,-1.74412 1.2831,-0.34322 -0.093,-0.34881 1.2832,-0.34327 -0.093,-0.34883 1.1897,-0.69205 1.2836,-0.34335 -0.093,-0.34883 1.283,-0.34321 0.093,0.34882 1.2832,-0.34326 0.1867,0.69765 1.2833,-0.34332 0.093,0.34882 1.2831,-0.34328 0.1866,0.69766 1.3763,0.006 0.3733,1.3953 1.3765,0.006 0.3733,1.3953 1.2833,-0.34332 0.3733,1.39528 1.283,-0.34324 0.3733,1.39529 1.2831,-0.34323 0.4666,1.74411 1.2831,-0.34324 0.9331,3.48825 1.2834,-0.34335 0.56,2.09294 1.2831,-0.34324 0.5598,2.09294 1.2831,-0.34324 0.6532,2.44176 1.2831,-0.34324 1.2131,4.53472 1.3767,0.005 0.56,2.09294 1.3764,0.006 0.6531,2.44177 1.2833,-0.34327 0.7464,2.79059 1.3764,0.006 1.3064,4.88352 1.2834,-0.34334 0.7466,2.7906 1.283,-0.34324 0.8399,3.13941 1.2832,-0.34327 0.6531,2.44177 1.2831,-0.34322 0.7464,2.79059 1.2836,-0.34334 1.3997,5.23235 1.3764,0.006 0.6532,2.44177 1.3765,0.006 0.6532,2.44177 1.2829,-0.34322 0.6533,2.44177 1.2833,-0.34332 1.3064,4.88353 1.3765,0.006 0.5599,2.09294 1.2831,-0.34324 0.6532,2.44177 1.283,-0.34325 0.56,2.09295 1.2834,-0.34332 0.4665,1.74412 1.2832,-0.34327 1.0264,3.83706 1.3764,0.006 0.3733,1.3953 1.2831,-0.34324 0.3732,1.39529 1.3767,0.005 0.28,1.04647 1.2832,-0.34326 0.6531,2.44176 1.2832,-0.34324 0.1866,0.69765 1.283,-0.34324 0.1867,0.69764 1.2834,-0.34331 0.1866,0.69765 1.2832,-0.34327 0.1866,0.69765 2.5662,-0.68649 -0.093,-0.34882 1.2833,-0.34332 -0.093,-0.34882 1.2832,-0.34327 -0.093,-0.34883 1.1899,-0.69206 -0.28,-1.04647 1.1899,-0.69212 -0.1866,-0.69764 1.2832,-0.34327 -0.28,-1.04647 1.2832,-0.34324 -0.3733,-1.3953 1.2832,-0.34326 -0.8399,-3.13942 1.2833,-0.34329 -0.3732,-1.39529 1.1898,-0.6921 -0.3733,-1.39529 1.1898,-0.69207 -0.5598,-2.09293 1.2831,-0.34327 -0.5599,-2.09295 1.2833,-0.34329 -1.2131,-4.5347 1.2832,-0.34328 -0.5599,-2.09294 1.1898,-0.69206 -0.5599,-2.09294 1.2831,-0.34327 -0.7464,-2.79059 1.2832,-0.34329 -1.3064,-4.88353 1.1899,-0.69209 -0.7466,-2.7906 1.2832,-0.34324 -0.7466,-2.79058 1.2832,-0.34328 -0.6532,-2.44176 1.1899,-0.69211 -1.3997,-5.23236 1.2832,-0.34326 -0.8398,-3.13942 1.283,-0.34324 -0.6532,-2.44177 1.1898,-0.69206 -0.6532,-2.44177 1.2834,-0.34332 -0.6532,-2.44176 1.1897,-0.69207 -1.3997,-5.23235 1.2832,-0.34327 -0.5599,-2.09294 1.2831,-0.34324 -0.7465,-2.7906 1.2834,-0.34335 -0.5598,-2.09293 1.2829,-0.34322 -1.1197,-4.18589 1.2831,-0.34326 -0.5599,-2.09294 1.2832,-0.34324 -0.4666,-1.74412 1.1902,-0.69217 -0.4667,-1.74412 1.2831,-0.34322 -0.7466,-2.79059 1.2832,-0.34326 -0.3732,-1.39529 1.283,-0.34324 -0.2799,-1.04647 1.2834,-0.34335 -0.2799,-1.04647 1.283,-0.34321 -0.1866,-0.69766 1.2831,-0.34326 -0.2799,-1.04647 1.2831,-0.34325 -0.093,-0.34881 1.2834,-0.34335 -0.093,-0.34881 2.566,-0.68647 0.1866,0.69765 1.2832,-0.34328 0.093,0.34884 1.2834,-0.34332 0.2799,1.04646 1.2831,-0.34323 0.1867,0.69764 1.283,-0.34324 0.28,1.04647 1.2834,-0.34334 0.6532,2.44176 1.3764,0.006 0.3733,1.3953 1.2831,-0.34324 0.3732,1.39529 1.2831,-0.34325 0.4666,1.74412 1.3768,0.005 0.9332,3.48823 1.3764,0.006 0.5598,2.09293 1.2831,-0.34323 0.5599,2.09294 1.2831,-0.34324 0.6531,2.44176 1.2836,-0.34334 1.3063,4.88354 1.2832,-0.34324 0.6532,2.44176 1.3764,0.006 0.6531,2.44176 1.2832,-0.34325 0.6532,2.44177 1.3768,0.005 0.7464,2.79058 1.2831,-0.34324 1.3998,5.23235 1.3763,0.006 0.6532,2.44176 1.2831,-0.34326 0.7465,2.79058 1.2834,-0.34332 0.7465,2.7906 1.3765,0.006 1.3064,4.88353 1.3763,0.006 0.6533,2.44176 1.2831,-0.34327 0.7466,2.7906 1.2833,-0.34332 0.6532,2.44176 1.2832,-0.34327 0.5598,2.09294 1.3763,0.006 1.2131,4.53472 1.2833,-0.34327 0.5599,2.09294 1.3766,0.005 0.5599,2.09295 1.2832,-0.34327 0.4666,1.74412 1.283,-0.34321 0.9331,3.48823 1.2832,-0.34327 0.3732,1.3953 1.2834,-0.34332 0.3733,1.3953 1.2831,-0.34328 0.2799,1.04648 1.2832,-0.34324 0.5599,2.09294 1.3764,0.006 0.1866,0.69765 1.2834,-0.34332 0.093,0.34882 1.2832,-0.34324 0.1866,0.69764 1.2831,-0.34326 0.093,0.34883 1.2829,-0.34322 -0.093,-0.34882 2.5665,-0.68659 -0.1866,-0.69765 1.2831,-0.34326 -0.093,-0.34883 1.283,-0.34321 -0.4667,-1.74412 1.2836,-0.34334 -0.3733,-1.3953 1.283,-0.34324 -0.2799,-1.04647 1.1899,-0.69209 -0.2799,-1.04647 1.1899,-0.69212 -0.3732,-1.39529 1.2831,-0.34327 -0.9331,-3.48823 1.283,-0.34325 -0.4665,-1.74412 1.2831,-0.34326 -0.5598,-2.09295 1.2832,-0.34329 -0.5599,-2.09294 1.2832,-0.34326 -1.3064,-4.88354 1.2831,-0.34324 -0.6532,-2.44176 1.2832,-0.34328 -0.6532,-2.44176 1.2832,-0.3433 -0.7465,-2.79058 1.2831,-0.34325 -1.3998,-5.23235 1.2833,-0.34326 -0.6532,-2.44177 1.1897,-0.69206 -0.6531,-2.44177 1.19,-0.69214 -0.7465,-2.7906 1.283,-0.34324 -0.6532,-2.44176 1.1899,-0.69209 -1.3998,-5.23236 1.1899,-0.69205 -0.6533,-2.44178 1.2835,-0.34332 -0.7466,-2.79058 1.2831,-0.34325 -0.6533,-2.44176 1.1899,-0.69209 -1.3064,-4.88353 1.1898,-0.69207 -0.4665,-1.74412 1.19,-0.69213 -0.6532,-2.44178 1.2831,-0.34324 -0.5599,-2.09294 1.2832,-0.34327 -0.5599,-2.09294 1.1897,-0.69207 -0.9331,-3.48823 1.2834,-0.34332 -0.4666,-1.74412 1.2831,-0.34324 -0.4666,-1.74413 1.2831,-0.34326 -0.3731,-1.39529 1.283,-0.34324 -0.6532,-2.44177 1.2832,-0.34329 -0.3731,-1.3953 1.2831,-0.34326 -0.1866,-0.69766 1.2831,-0.34323 -0.1867,-0.69764 1.2832,-0.34327 -0.1867,-0.69765 1.2834,-0.34328 -0.093,-0.34883 2.5663,-0.68652 0.093,0.34883 1.2832,-0.34326 0.093,0.34882 1.2834,-0.34333 0.2799,1.04647 1.2831,-0.34324 0.1866,0.69765 1.2831,-0.34325 0.3733,1.3953 1.2832,-0.34326 0.2799,1.04647 1.2833,-0.34332 0.6533,2.44177 1.3764,0.006 0.3732,1.39529 1.2831,-0.34323 0.4666,1.74411 1.3768,0.005 0.4665,1.74413 1.2831,-0.34325 0.4666,1.74411 1.2831,-0.34323 1.2131,4.53471 1.283,-0.34325 0.56,2.09294 1.2833,-0.34331 0.6532,2.44176 1.2832,-0.34326 0.6532,2.44177 1.3763,0.006 1.3065,4.88353 1.2831,-0.34327 0.7465,2.7906 1.2834,-0.34333 0.6532,2.44177 1.3765,0.006 0.6531,2.44176 1.3763,0.006 1.3998,5.23236 1.3765,0.006 0.6532,2.44177 1.3767,0.005 0.6532,2.44177 1.3765,0.006 0.6532,2.44177 1.283,-0.34323 0.7465,2.7906 1.2832,-0.34327 1.3997,5.23235 1.2834,-0.34331 0.6532,2.44177 1.2831,-0.34327 0.6532,2.44176 1.3763,0.006 0.5599,2.09294 1.2833,-0.34326 1.2131,4.53471 1.2833,-0.34332 0.5599,2.09294 1.2831,-0.34327 0.56,2.09295 1.2829,-0.34322 0.4666,1.74412 1.2831,-0.34324 0.8398,3.13941 1.2835,-0.34334 0.3733,1.3953 1.283,-0.34326 0.3733,1.3953 1.283,-0.34324 0.28,1.04647 1.3764,0.006 0.1867,0.69765 1.2834,-0.34335 0.3733,1.3953 1.283,-0.34324 0.093,0.34882 1.283,-0.34324 0.093,0.34883 1.283,-0.34324 0.093,0.34882 1.2834,-0.34335 -0.093,-0.34882 1.283,-0.34324 -0.1867,-0.69765 1.2832,-0.34324 -0.093,-0.34883 1.2831,-0.34324 -0.1866,-0.69764 1.2834,-0.34335 -0.1866,-0.69765 1.2831,-0.34323 -0.6532,-2.44177 1.2831,-0.34325 -0.3733,-1.39529 1.2831,-0.34324 -0.3733,-1.39529 1.1902,-0.69217 -0.3733,-1.3953 1.2832,-0.34324 -1.0265,-3.83706 1.283,-0.34325 -0.5598,-2.09293 1.2834,-0.34332 -0.56,-2.09294 1.1898,-0.69207 -0.4665,-1.74412 1.2831,-0.34327 -1.3064,-4.88353 1.2831,-0.34323 -0.7465,-2.7906 1.2833,-0.34332 -0.6532,-2.44176 1.2832,-0.34324 -0.6533,-2.44177 1.1898,-0.69209 -0.6531,-2.44177 1.2831,-0.34323 -1.493,-5.58118 1.2833,-0.34333 -0.7465,-2.79058 1.2831,-0.34325 -0.6532,-2.44175 1.1899,-0.6921 -0.6533,-2.44176 1.1898,-0.69207 -1.3997,-5.23236 1.1901,-0.69214 -0.6533,-2.44177 1.2831,-0.34324 -0.6532,-2.44176 1.1899,-0.69209 -0.6532,-2.44176 1.1898,-0.69206 -0.5599,-2.09296 1.2833,-0.34331 -1.3064,-4.88353 1.1898,-0.69207 -0.4666,-1.74412 1.2831,-0.34324 -0.5599,-2.09295 1.1898,-0.69208 -0.5598,-2.09295 1.2832,-0.34329 -0.9331,-3.48824 1.2832,-0.34326 -0.4666,-1.74412 1.2831,-0.34324 -0.3732,-1.39529 1.2831,-0.34327 -0.3733,-1.3953 1.2834,-0.3433 -0.6533,-2.44176 1.2832,-0.34326 -0.1866,-0.69766 1.283,-0.34324 -0.1865,-0.69765 1.1898,-0.69208 1.2833,-0.34329 -0.1867,-0.69764 1.2833,-0.34328 -0.093,-0.34881"
         inkscape:connector-curvature="0"
         style="fill:none;stroke:#ff7600;stroke-width:6.30100012;stroke-miterlimit:4;stroke-opacity:1;stroke-dasharray:none" />
    </g>
    <path
       sodipodi:type="arc"
       style="fill:#ffc200;fill-opacity:1;fill-rule:evenodd;stroke:#008000;stroke-width:6.28499985;stroke-linecap:round;stroke-miterlimit:4;stroke-opacity:0;stroke-dasharray:none;stroke-dashoffset:0"
       id="path2993"
       sodipodi:cx="331.66666"
       sodipodi:cy="576.66669"
       sodipodi:rx="75"
       sodipodi:ry="76.666664"
       d="m 406.66666,576.66669 a 75,76.666664 0 1 1 -150,0 75,76.666664 0 1 1 150,0 z"
       transform="matrix(1.0000438,0,0,0.99786892,-113.34785,-41.937749)" />
  </g>
</svg>
