<?xml version="1.0" encoding="UTF-8" standalone="no"?>
<!-- Created with Inkscape (http://www.inkscape.org/) -->
<svg xmlns:dc="http://purl.org/dc/elements/1.1/" xmlns:cc="http://web.resource.org/cc/" xmlns:rdf="http://www.w3.org/1999/02/22-rdf-syntax-ns#" xmlns:svg="http://www.w3.org/2000/svg" xmlns="http://www.w3.org/2000/svg" xmlns:xlink="http://www.w3.org/1999/xlink" xmlns:sodipodi="http://sodipodi.sourceforge.net/DTD/sodipodi-0.dtd" xmlns:inkscape="http://www.inkscape.org/namespaces/inkscape" width="250" height="625" id="svg21439" sodipodi:version="0.32" inkscape:version="0.45" version="1.0" sodipodi:docname="Polarisation (Circular) new.svg" inkscape:output_extension="org.inkscape.output.svg.inkscape" sodipodi:docbase="C:\Documents and Settings\JJB\My Documents\My Pictures\Electronics\Illustrations\Materials" sodipodi:modified="true">
  <defs id="defs21441">
    <clipPath id="XMLID_3_">
      <use xlink:href="#XMLID_1_" id="use15516" x="0" y="0" width="744.09448" height="1052.3622"/>
    </clipPath>
  </defs>
  <sodipodi:namedview id="base" pagecolor="#ffffff" bordercolor="#666666" borderopacity="1.0" gridtolerance="10000" guidetolerance="10" objecttolerance="1" inkscape:pageopacity="0.0" inkscape:pageshadow="2" inkscape:zoom="1.0848" inkscape:cx="125" inkscape:cy="312.5" inkscape:document-units="px" inkscape:current-layer="g23604" width="250px" height="625px" inkscape:window-width="1337" inkscape:window-height="874" inkscape:window-x="95" inkscape:window-y="0" showguides="true" inkscape:guide-bbox="true" inkscape:object-points="true" showgrid="true"/>
  <metadata id="metadata21444">
    <rdf:RDF>
      <cc:Work rdf:about="">
        <dc:format>image/svg+xml</dc:format>
        <dc:type rdf:resource="http://purl.org/dc/dcmitype/StillImage"/>
      </cc:Work>
    </rdf:RDF>
  </metadata>
  <g inkscape:label="Layer 1" inkscape:groupmode="layer" id="layer1">
    <g id="g23604" transform="translate(-1.99851,1.8967225)">
      <path style="fill:#6699ff;fill-rule:evenodd;stroke:#000066;stroke-width:1px;stroke-linecap:butt;stroke-linejoin:miter;stroke-opacity:1;fill-opacity:1" d="M 51.08,543.221 L 125,497.62 L 198.92,543.221 L 125,590.74 L 51.08,543.221 z " id="path6612" transform="translate(1.99851,-1.8967225)"/>
      <path style="fill:none;fill-rule:evenodd;stroke:#ff0000;stroke-width:1;stroke-linecap:butt;stroke-linejoin:miter;stroke-opacity:1;stroke-miterlimit:4;stroke-dasharray:none" d="M 60.772056,83.63551 C 79.525026,102.98188 125.12609,98.30932 126.61534,115.35713 C 127.14434,126.79382 129.27742,133.40038 90.040126,179.73618 C 60.676446,215.06687 48.276926,238.95033 78.346516,245.92752 C 86.634116,247.85053 95.936018,248.76761 111.47265,252.79111 C 125.00001,255.97272 135.27825,267.36913 115.67289,294.30628 C 101.29044,314.06733 82.904806,336.02574 81.282746,338.52121 C 78.286806,343.13035 46.249006,380.34798 75.060406,387.49337 C 83.774706,389.64595 94.41829,389.63217 103.77189,391.06115 C 122.0541,393.8542 134.67064,398.56021 123.22597,419.18124 C 97.64521,465.27268 40.262736,512.02469 77.364976,520.58242 C 85.768936,522.52082 96.26248,522.42607 96.26248,522.42607" id="path5287" sodipodi:nodetypes="cccscssssssc"/>
      <path style="fill:none;fill-rule:evenodd;stroke:#000066;stroke-width:1;stroke-linecap:butt;stroke-linejoin:miter;stroke-opacity:1;stroke-miterlimit:4;stroke-dasharray:none" d="M 126.99851,503.22328 C 128.96682,487.95085 159.25196,492.38682 175.86353,488.27566 C 184.86634,485.63869 204.22183,479.93081 166.8282,434.97775 C 158.90219,424.67258 138.77977,399.47527 133.13527,389.15615 C 117.18311,359.99283 138.81438,359.80766 154.52845,356.54522 C 169.07481,353.86361 201.46675,351.72412 188.54998,326.92597 C 175.93201,302.70146 136.71583,257.34072 133.95307,249.95651 C 132.02672,244.80782 115.86694,222.79595 144.67834,215.65056 C 153.39264,213.49798 170.31636,210.9172 179.41926,208.33475 C 195.58302,203.74916 198.04988,187.5072 186.83563,171.0944 C 157.41298,128.0324 125.06405,100.08958 127.26244,78.450598 C 128.46553,66.608478 147.65791,61.972908 147.65791,61.972908" id="path5291" sodipodi:nodetypes="cccscssssssc"/>
      <g style="stroke-width:1;stroke-miterlimit:10;stroke-dasharray:none" id="g15510" transform="translate(32.07851,-18.83672)">
        <defs id="defs15512">
          <rect height="29.698999" width="7.2600002" y="604.08099" x="91.32" id="XMLID_1_"/>
        </defs>
        <clipPath id="clipPath21456">
          <use height="1052.3622" width="744.09448" y="0" x="0" id="use21458" xlink:href="#XMLID_1_"/>
        </clipPath>
        <line style="fill:none;stroke:#000000;stroke-width:1;stroke-linecap:square;stroke-miterlimit:10;stroke-dasharray:none" id="line15518" y2="607.67999" x2="94.919998" y1="639.96002" x1="94.919998" stroke-miterlimit="10" clip-path="url(#XMLID_3_)"/>
      </g>
      <path style="fill:none;stroke:#000000;stroke-width:1;stroke-linecap:square;stroke-miterlimit:10;stroke-dasharray:none" id="path15520" d="M 126.99851,503.22328 L 126.99851,51.84328 M 65.37851,541.32428 L 126.99851,503.22328 M 126.99851,503.22328 L 188.61851,541.32428" stroke-miterlimit="10"/>
      <path style="fill:none;stroke:#000000;stroke-width:1;stroke-linecap:square;stroke-miterlimit:10;stroke-dasharray:none" id="path15710" d="M 58.11851,85.50328 L 65.37851,541.32328 M 188.61851,541.32428 L 195.87851,85.50428 M 126.99851,580.80328 L 188.61851,541.32428 M 65.37851,541.32428 L 126.99851,580.80328" stroke-miterlimit="10" sodipodi:nodetypes="cccccccc"/>
      <line style="fill:none;stroke:#000000;stroke-width:1;stroke-linecap:square;stroke-miterlimit:10;stroke-dasharray:none" id="line16336" y2="120.60329" x2="126.99852" y1="580.80328" x1="126.99852" stroke-miterlimit="10"/>
      <line style="fill:none;stroke:#000000;stroke-width:1;stroke-linecap:square;stroke-miterlimit:10;stroke-dasharray:none" id="line16486" y2="589.20428" x2="203.1385" y1="522.12329" x1="96.458504" stroke-miterlimit="10"/>
      <path style="fill:none;stroke:#000000;stroke-width:1;stroke-linecap:square;stroke-miterlimit:10;stroke-dasharray:none" id="path16502" d="M 50.91851,589.20428 L 157.53851,522.12428" stroke-miterlimit="10" sodipodi:nodetypes="cc"/>
      <path style="fill:none;stroke:#000000;stroke-width:1;stroke-linecap:square;stroke-miterlimit:10;stroke-dasharray:none" id="path17678" d="M 58.11851,85.50328 L 126.99851,51.84328 M 195.87851,85.50328 L 126.99851,51.84328" stroke-miterlimit="10" sodipodi:nodetypes="cccc"/>
      <path style="fill:none;stroke:#000000;stroke-width:1;stroke-linecap:square;stroke-miterlimit:10;stroke-dasharray:none" id="path17844" d="M 126.99851,120.60328 L 195.87851,85.50328 M 126.99851,120.60328 L 58.11851,85.50328" stroke-miterlimit="10" sodipodi:nodetypes="cccc"/>
      <path style="fill:#000000;fill-rule:evenodd;stroke:#000000;stroke-width:1px;stroke-linecap:butt;stroke-linejoin:miter;stroke-opacity:1" d="M 126.99851,5.4525717 L 121.99851,34.452571 C 121.99851,34.452571 121.99853,35.732581 126.99852,35.592576 C 131.99851,35.452571 131.99851,34.452571 131.99851,34.452571 L 126.99851,5.4525717 z " id="path11497"/>
      <use x="0" y="0" xlink:href="#path11497" id="use11499" transform="matrix(-0.5330127,0.8461071,-0.8461071,-0.5330127,294.30379,496.78265)" width="250" height="625" inkscape:transform-center-x="14.160207" inkscape:transform-center-y="-10.371878"/>
      <use x="0" y="0" xlink:href="#path11497" id="use11501" transform="matrix(0.5330127,0.8461071,0.8461071,-0.5330127,-39.806768,497.05523)" width="250" height="625" inkscape:transform-center-x="-14.160207" inkscape:transform-center-y="-10.371878"/>
      <path sodipodi:type="arc" style="opacity:1;fill:none;fill-opacity:1;fill-rule:nonzero;stroke:#000066;stroke-width:1.84324302;stroke-linecap:butt;stroke-miterlimit:4;stroke-dasharray:none;stroke-opacity:1" id="path6262" sodipodi:cx="115.04826" sodipodi:cy="534.06952" sodipodi:rx="39.761719" sodipodi:ry="25.095512" d="M 154.80998 534.06952 A 39.761719 25.095512 0 1 1  75.286545,534.06952 A 39.761719 25.095512 0 1 1  154.80998 534.06952 z" transform="matrix(1.0922132,0,0,1.0779221,1.4859158,-33.960868)"/>
      <line style="fill:none;stroke:#000000;stroke-width:1;stroke-linecap:square;stroke-miterlimit:10;stroke-dasharray:none" id="line17866" y2="36.243282" x2="126.99852" y1="541.32428" x1="126.99852" stroke-miterlimit="10"/>
      <path style="fill:none;fill-rule:evenodd;stroke:#000000;stroke-width:2;stroke-linecap:butt;stroke-linejoin:miter;stroke-opacity:1;stroke-miterlimit:4;stroke-dasharray:none" d="M 96.42557,522.33246 C 79.803866,522.00655 83.236236,525.25813 83.714856,525.91753 C 85.514666,528.39715 94.14416,528.85078 99.0329,528.52486 C 103.92164,528.19894 133.59066,523.46156 156.39407,498.70357 C 179.37113,473.77101 172.09284,441.95695 161.28281,427.8169 C 153.49469,417.62965 137.55603,402.30673 119.19348,396.00624 C 111.09988,393.2292 100.9547,389.80413 89.336906,390.25511 C 76.893356,390.74131 83.520456,393.48628 89.336056,393.58474 C 95.47321,393.68582 102.71146,391.81924 109.13629,390.33659 C 122.50819,387.25078 175.04355,366.17647 173.01578,319.61287 C 170.59895,263.72708 93.49233,248.88916 93.49233,248.88916 C 93.49233,248.88916 82.411196,248.23733 80.455696,248.23733 C 78.500206,248.23733 86.974016,253.12606 115.00277,242.69676 C 143.03153,232.26746 183.14956,200.35193 173.34169,162.19557 C 164.33467,127.15484 131.49907,112.9196 126.08391,109.58815 C 115.15868,102.86686 90.885006,96.3606 82.737106,95.70876 C 74.589216,95.05693 76.544706,95.70876 78.500206,95.05693 C 80.455696,94.4051 80.781616,94.07919 80.781616,94.07919" id="path4313" sodipodi:nodetypes="cssssssssscssssssc"/>
    </g>
  </g>
</svg>