<?xml version="1.0" encoding="UTF-8" standalone="no"?>
<!-- Created with Inkscape (http://www.inkscape.org/) -->
<svg xmlns:dc="http://purl.org/dc/elements/1.1/" xmlns:cc="http://web.resource.org/cc/" xmlns:rdf="http://www.w3.org/1999/02/22-rdf-syntax-ns#" xmlns:svg="http://www.w3.org/2000/svg" xmlns="http://www.w3.org/2000/svg" xmlns:xlink="http://www.w3.org/1999/xlink" xmlns:sodipodi="http://sodipodi.sourceforge.net/DTD/sodipodi-0.dtd" xmlns:inkscape="http://www.inkscape.org/namespaces/inkscape" width="250" height="625" id="svg21439" sodipodi:version="0.32" inkscape:version="0.45.1" version="1.0" sodipodi:docname="Polarisation (Elliptical).svg" inkscape:output_extension="org.inkscape.output.svg.inkscape" sodipodi:docbase="C:\Documents and Settings\JJB\My Documents\My Pictures\Electronics\Illustrations\Materials">
  <defs id="defs21441">
    <clipPath id="XMLID_3_">
      <use xlink:href="#XMLID_1_" id="use15516" x="0" y="0" width="744.09448" height="1052.3622"/>
    </clipPath>
  </defs>
  <sodipodi:namedview id="base" pagecolor="#ffffff" bordercolor="#666666" borderopacity="1.0" gridtolerance="10000" guidetolerance="10" objecttolerance="1" inkscape:pageopacity="0.0" inkscape:pageshadow="2" inkscape:zoom="1" inkscape:cx="-43.399742" inkscape:cy="328.62954" inkscape:document-units="px" inkscape:current-layer="g23604" width="250px" height="625px" inkscape:window-width="1337" inkscape:window-height="874" inkscape:window-x="95" inkscape:window-y="0" showguides="true" inkscape:guide-bbox="true" inkscape:object-points="true" showgrid="false" inkscape:grid-points="true"/>
  <metadata id="metadata21444">
    <rdf:RDF>
      <cc:Work rdf:about="">
        <dc:format>image/svg+xml</dc:format>
        <dc:type rdf:resource="http://purl.org/dc/dcmitype/StillImage"/>
      </cc:Work>
    </rdf:RDF>
  </metadata>
  <g inkscape:label="Layer 1" inkscape:groupmode="layer" id="layer1">
    <g id="g23604" transform="translate(-1.99851,1.8967225)">
      <path style="fill:#6699ff;fill-rule:evenodd;stroke:#000066;stroke-width:1px;stroke-linecap:butt;stroke-linejoin:miter;stroke-opacity:1;fill-opacity:1" d="M 51.08,543.221 L 125,497.62 L 198.92,543.221 L 125,590.74 L 51.08,543.221 z " id="path6612" transform="translate(1.99851,-1.8967225)"/>
      <path style="fill:none;fill-rule:evenodd;stroke:#ff0000;stroke-width:1;stroke-linecap:butt;stroke-linejoin:miter;stroke-opacity:1;stroke-miterlimit:4;stroke-dasharray:none" d="M 77.272056,75.88551 C 73.735148,92.507811 76.888891,99.838307 79.99034,106.85713 C 85.706518,119.79329 110.02086,126.44894 110.24363,153.97188 C 110.40942,174.32983 76.538532,218.82417 76.721516,244.55252 C 76.870033,265.05969 110.88215,274.66611 110.72265,297.54111 C 110.62618,311.37618 108.35894,313.28498 94.42289,342.80628 C 85.821062,361.02788 67.541266,389.72932 89.060406,405.49337 C 95.992128,410.57127 111.85603,422.00897 111.64689,434.31115 C 111.12529,465.17017 69.29812,505.10907 83.231326,529.02971" id="path5287" sodipodi:nodetypes="cssssssss"/>
      <path style="fill:none;fill-rule:evenodd;stroke:#000066;stroke-width:1;stroke-linecap:butt;stroke-linejoin:miter;stroke-opacity:1;stroke-miterlimit:4;stroke-dasharray:none" d="M 126.99851,503.22328 C 128.96682,487.95085 159.25196,492.38682 175.86353,488.27566 C 184.86634,485.63869 204.22183,479.93081 166.8282,434.97775 C 158.90219,424.67258 138.77977,399.47527 133.13527,389.15615 C 117.18311,359.99283 138.81438,359.80766 154.52845,356.54522 C 169.07481,353.86361 201.46675,351.72412 188.54998,326.92597 C 175.93201,302.70146 136.71583,257.34072 133.95307,249.95651 C 132.02672,244.80782 115.86694,222.79595 144.67834,215.65056 C 153.39264,213.49798 170.31636,210.9172 179.41926,208.33475 C 195.58302,203.74916 198.04988,187.5072 186.83563,171.0944 C 157.41298,128.0324 125.06405,100.08958 127.26244,78.450598 C 128.46553,66.608478 147.65791,61.972908 147.65791,61.972908" id="path5291" sodipodi:nodetypes="cccscssssssc"/>
      <g style="stroke-width:1;stroke-miterlimit:10;stroke-dasharray:none" id="g15510" transform="translate(32.07851,-18.83672)">
        <defs id="defs15512">
          <rect height="29.698999" width="7.2600002" y="604.08099" x="91.32" id="XMLID_1_"/>
        </defs>
        <clipPath id="clipPath21456">
          <use height="1052.3622" width="744.09448" y="0" x="0" id="use21458" xlink:href="#XMLID_1_"/>
        </clipPath>
        <line style="fill:none;stroke:#000000;stroke-width:1;stroke-linecap:square;stroke-miterlimit:10;stroke-dasharray:none" id="line15518" y2="607.67999" x2="94.919998" y1="639.96002" x1="94.919998" stroke-miterlimit="10" clip-path="url(#XMLID_3_)"/>
      </g>
      <path style="fill:none;stroke:#000000;stroke-width:1;stroke-linecap:square;stroke-miterlimit:10;stroke-dasharray:none" d="M 65.37851,541.32428 L 126.99851,503.22328" id="path2364"/>
      <path style="fill:none;stroke:#000000;stroke-width:1;stroke-linecap:square;stroke-miterlimit:10;stroke-dasharray:none" d="M 126.99851,503.22328 L 188.61851,541.32428" id="path15520"/>
      <path style="fill:none;stroke:#000000;stroke-width:1;stroke-linecap:square;stroke-miterlimit:10;stroke-dasharray:none" id="path15710" d="M 58.11851,85.50328 L 65.37851,541.32328 M 188.61851,541.32428 L 195.87851,85.50428 M 126.99851,580.80328 L 188.61851,541.32428 M 65.37851,541.32428 L 126.99851,580.80328" stroke-miterlimit="10" sodipodi:nodetypes="cccccccc"/>
      <line style="fill:none;stroke:#000000;stroke-width:1;stroke-linecap:square;stroke-miterlimit:10;stroke-dasharray:none" id="line16486" y2="589.20428" x2="203.1385" y1="522.12329" x1="96.458504" stroke-miterlimit="10"/>
      <path style="fill:none;stroke:#000000;stroke-width:1;stroke-linecap:square;stroke-miterlimit:10;stroke-dasharray:none" id="path16502" d="M 50.91851,589.20428 L 157.53851,522.12428" stroke-miterlimit="10" sodipodi:nodetypes="cc"/>
      <path style="fill:none;stroke:#000000;stroke-width:1;stroke-linecap:square;stroke-miterlimit:10;stroke-dasharray:none" id="path17678" d="M 58.11851,85.50328 L 126.99851,51.84328 M 195.87851,85.50328 L 126.99851,51.84328" stroke-miterlimit="10" sodipodi:nodetypes="cccc"/>
      <path style="fill:none;fill-rule:evenodd;stroke:#000000;stroke-width:2;stroke-linecap:butt;stroke-linejoin:miter;stroke-opacity:1;stroke-miterlimit:4;stroke-dasharray:none" d="M 83.938115,530.23745 C 74.77865,520.08821 116.86716,515.77959 127.6609,513.08998 C 159.1538,505.2425 170.6521,495.18708 171.78281,480.5669 C 172.74469,468.12965 154.80603,451.05673 139.69348,439.75624 C 132.84069,434.63203 102.4547,414.30413 93.836906,408.25511 C 83.644187,401.10062 80.415934,399.11244 81.086056,393.33474 C 81.97321,385.68582 99.96146,382.81924 106.38629,381.33659 C 119.75819,378.25078 174.79357,367.0556 174.26578,343.61287 C 173.69198,318.12669 132.22046,296.3836 108.08044,279.28971 C 84.232956,262.40297 80.602199,259.25804 79.970853,250.84542 C 79.695448,247.17568 83.257622,243.27464 109.50277,235.94676 C 137.83583,228.03592 174.98345,219.81888 175.59169,195.94557 C 175.95589,181.65098 160.45551,165.83331 151.29035,159.00186 C 141.00581,151.33606 107.63501,127.8606 100.98711,122.95876 C 94.408244,118.10783 77.223193,105.14351 77.26863,99.10155 C 77.327012,91.338146 98.344116,83.39169 98.344116,83.39169" id="path4313" sodipodi:nodetypes="cssssssssssssssc"/>
      <path sodipodi:type="arc" style="opacity:1;fill:none;fill-opacity:1;fill-rule:nonzero;stroke:#ffd700;stroke-width:1.86367559;stroke-linecap:butt;stroke-miterlimit:4;stroke-dasharray:none;stroke-opacity:1" id="path6262" sodipodi:cx="115.04826" sodipodi:cy="534.06952" sodipodi:rx="39.761719" sodipodi:ry="7.5477633" d="M 154.80998 534.06952 A 39.761719 7.5477633 0 1 1  75.286545,534.06952 A 39.761719 7.5477633 0 1 1  154.80998 534.06952 z" transform="matrix(1.0890714,0.2606098,-0.2722115,0.9923186,147.44588,-18.625576)"/>
      <g id="g2329" transform="translate(-9.376912,5.9150957)">
        <g id="g2334" transform="matrix(-0.5316489,-0.8469649,0.8469649,-0.5316489,-411.84193,899.66734)">
          <path id="path2299" style="fill:#000000;fill-rule:evenodd;stroke:#000000;stroke-width:1px;stroke-linecap:butt;stroke-linejoin:miter;stroke-opacity:1" d="M 21.99851,568.10328 C 21.99851,568.93128 19.75851,569.60328 16.99851,569.60328 C 14.23851,569.60328 11.99851,568.93128 11.99851,568.10328 L 16.99851,538.10328 L 21.99851,568.10328 z " sodipodi:nodetypes="csccc"/>
        </g>
      </g>
      <g id="g2341" transform="matrix(-1,0,0,1,423.99702,14.999997)">
        <path sodipodi:nodetypes="csccc" d="M 218.24921,569.91899 C 218.9505,569.47878 220.71055,571.01872 222.17791,573.35634 C 223.64526,575.69396 224.26699,577.94843 223.5657,578.38864 L 195.49851,590.10328 L 218.24921,569.91899 z " style="fill:#000000;fill-rule:evenodd;stroke:#000000;stroke-width:1px;stroke-linecap:butt;stroke-linejoin:miter;stroke-opacity:1" id="path2338"/>
      </g>
      <g id="g2348" transform="matrix(-0.5336301,0.845718,-0.845718,-0.5336301,248.6448,-84.17106)">
        <path sodipodi:nodetypes="csccc" d="M 163.24921,34.91899 C 163.9505,34.478785 165.71055,36.018718 167.17791,38.356341 C 168.64526,40.693965 169.26699,42.948434 168.5657,43.388639 L 140.49851,55.103282 L 163.24921,34.91899 z " style="fill:#000000;fill-rule:evenodd;stroke:#000000;stroke-width:1px;stroke-linecap:butt;stroke-linejoin:miter;stroke-opacity:1" id="path2345"/>
      </g>
      <line style="fill:none;stroke:#000000;stroke-width:1;stroke-linecap:square;stroke-miterlimit:10;stroke-dasharray:none" id="line17866" y2="35.743286" x2="126.99852" y1="540.82428" x1="126.99852" stroke-miterlimit="10"/>
    </g>
  </g>
</svg>