<?xml version="1.0" encoding="UTF-8" standalone="no"?>
<!-- Created with Inkscape (http://www.inkscape.org/) -->
<svg xmlns:dc="http://purl.org/dc/elements/1.1/" xmlns:cc="http://web.resource.org/cc/" xmlns:rdf="http://www.w3.org/1999/02/22-rdf-syntax-ns#" xmlns:svg="http://www.w3.org/2000/svg" xmlns="http://www.w3.org/2000/svg" xmlns:xlink="http://www.w3.org/1999/xlink" xmlns:sodipodi="http://sodipodi.sourceforge.net/DTD/sodipodi-0.dtd" xmlns:inkscape="http://www.inkscape.org/namespaces/inkscape" width="250" height="625" id="svg21439" sodipodi:version="0.32" inkscape:version="0.45" version="1.0" sodipodi:docname="Polarisation (Linear) new.svg" inkscape:output_extension="org.inkscape.output.svg.inkscape" sodipodi:docbase="C:\Documents and Settings\JJB\My Documents\My Pictures\Electronics\Illustrations\Materials" sodipodi:modified="true">
  <defs id="defs21441">
    <clipPath id="XMLID_3_">
      <use xlink:href="#XMLID_1_" id="use15516" x="0" y="0" width="744.09448" height="1052.3622"/>
    </clipPath>
  </defs>
  <sodipodi:namedview id="base" pagecolor="#ffffff" bordercolor="#666666" borderopacity="1.0" gridtolerance="10000" guidetolerance="10" objecttolerance="1" inkscape:pageopacity="0.0" inkscape:pageshadow="2" inkscape:zoom="1.0848" inkscape:cx="187.71047" inkscape:cy="355.37943" inkscape:document-units="px" inkscape:current-layer="layer1" width="250px" height="625px" inkscape:window-width="1337" inkscape:window-height="874" inkscape:window-x="95" inkscape:window-y="0" showguides="true" inkscape:guide-bbox="true" inkscape:object-points="true" showgrid="false"/>
  <metadata id="metadata21444">
    <rdf:RDF>
      <cc:Work rdf:about="">
        <dc:format>image/svg+xml</dc:format>
        <dc:type rdf:resource="http://purl.org/dc/dcmitype/StillImage"/>
      </cc:Work>
    </rdf:RDF>
  </metadata>
  <g inkscape:label="Layer 1" inkscape:groupmode="layer" id="layer1">
    <path sodipodi:nodetypes="cssssssssssssssssssc" style="fill:none;fill-opacity:1;fill-rule:nonzero;stroke:#000066;stroke-width:1;stroke-linecap:butt;stroke-miterlimit:4;stroke-dasharray:none;stroke-opacity:1;overflow:visible" title="sin(4*x)" d="M 154.61188,523.83463 C 145.11467,511.20127 128.19349,486.65882 126.17183,480.94648 C 123.15116,472.41135 125.16613,464.64262 134.56021,461.80832 C 143.93118,458.98099 164.30052,459.85432 175.76726,456.51483 C 189.84399,452.41523 190.25121,444.73531 184.20953,431.83315 C 178.4728,419.5822 161.5909,399.24528 156.62782,392.70298 C 150.61297,384.77423 144.29232,377.15369 138.20469,368.26844 C 129.83092,356.04642 128.23378,352.14923 125.58682,345.35318 C 122.28306,336.8708 126.71091,328.28156 142.74699,324.97327 C 154.36145,322.57718 163.78583,322.98357 180.54122,317.79985 C 197.47266,312.56166 187.93389,292.51511 182.83018,285.16276 C 176.6651,276.28141 162.98056,257.50627 156.81565,250.04669 C 149.43899,241.12088 141.86286,231.62045 135.2787,221.21201 C 129.22919,211.64875 127.40697,209.67335 125.58752,202.77683 C 123.19893,193.72305 123.15045,184.73297 148.62573,178.49115 C 159.59417,175.80372 170.38869,175.49453 185.71821,167.97412 C 198.66685,161.62174 189.3158,141.52699 185.64675,135.83964 C 180.56241,127.95847 172.47808,116.18767 166.13592,108.6183 C 162.74585,104.57225 153.66694,92.546579 147.50569,85.49594 C 137.9473,74.557779 131.8556,63.15447 127.66183,55.09065" id="path18720"/>
    <path id="path6612" d="M 51.08,543.221 L 125,497.62 L 198.92,543.221 L 125,590.74 L 51.08,543.221 z " style="fill:#6699ff;fill-opacity:1;fill-rule:evenodd;stroke:#000066;stroke-width:1px;stroke-linecap:butt;stroke-linejoin:miter;stroke-opacity:1"/>
    <g transform="translate(30.08,-16.939997)" id="g15510" style="stroke-width:1;stroke-miterlimit:10;stroke-dasharray:none">
      <defs id="defs15512">
        <rect id="XMLID_1_" x="91.32" y="604.08099" width="7.2600002" height="29.698999"/>
      </defs>
      <clipPath id="clipPath21456">
        <use xlink:href="#XMLID_1_" id="use21458" x="0" y="0" width="744.09448" height="1052.3622"/>
      </clipPath>
      <line clip-path="url(#XMLID_3_)" stroke-miterlimit="10" x1="94.919998" y1="639.96002" x2="94.919998" y2="607.67999" id="line15518" style="fill:none;stroke:#000000;stroke-width:1;stroke-linecap:square;stroke-miterlimit:10;stroke-dasharray:none"/>
    </g>
    <path d="M 63.08347,543.249 L 186.32348,543.25" id="path12061" style="fill:none;fill-opacity:1;fill-rule:evenodd;stroke:#ffad00;stroke-width:1.5;stroke-linecap:butt;stroke-linejoin:miter;stroke-miterlimit:4;stroke-dasharray:none;stroke-opacity:1;overflow:visible"/>
    <path stroke-miterlimit="10" d="M 125,505.12 L 125,53.740003 M 63.38,543.221 L 125,505.12 M 125,505.12 L 186.62,543.221" id="path15520" style="fill:none;stroke:#000000;stroke-width:1;stroke-linecap:square;stroke-miterlimit:10;stroke-dasharray:none"/>
    <path sodipodi:nodetypes="cccccccc" stroke-miterlimit="10" d="M 55.74,87.5 L 63,543.32 M 186.24,543.321 L 193.5,87.501 M 124.62,582.8 L 186.24,543.321 M 63,543.321 L 124.62,582.8" id="path15710" style="fill:none;stroke:#000000;stroke-width:1;stroke-linecap:square;stroke-miterlimit:10;stroke-dasharray:none"/>
    <line stroke-miterlimit="10" x1="125.00001" y1="582.70001" x2="125.00001" y2="122.50001" id="line16336" style="fill:none;stroke:#000000;stroke-width:1;stroke-linecap:square;stroke-miterlimit:10;stroke-dasharray:none"/>
    <line stroke-miterlimit="10" x1="94.459991" y1="524.02002" x2="201.14" y2="591.10101" id="line16486" style="fill:none;stroke:#000000;stroke-width:1;stroke-linecap:square;stroke-miterlimit:10;stroke-dasharray:none"/>
    <path sodipodi:nodetypes="cc" stroke-miterlimit="10" d="M 48.92,591.101 L 155.54,524.021" id="path16502" style="fill:none;stroke:#000000;stroke-width:1;stroke-linecap:square;stroke-miterlimit:10;stroke-dasharray:none"/>
    <path sodipodi:nodetypes="cccc" stroke-miterlimit="10" d="M 56.12,87.400002 L 125,53.740003 M 193.88,87.400002 L 125,53.740003" id="path17678" style="fill:none;stroke:#000000;stroke-width:1;stroke-linecap:square;stroke-miterlimit:10;stroke-dasharray:none"/>
    <path sodipodi:nodetypes="cccc" stroke-miterlimit="10" d="M 125,122.5 L 193.88,87.400002 M 125,122.5 L 56.12,87.400002" id="path17844" style="fill:none;stroke:#000000;stroke-width:1;stroke-linecap:square;stroke-miterlimit:10;stroke-dasharray:none"/>
    <path id="path11497" d="M 125,7.3492942 L 120,36.349294 C 120,36.349294 120.00002,37.629304 125.00001,37.489299 C 130,37.349294 130,36.349294 130,36.349294 L 125,7.3492942 z " style="fill:#000000;fill-rule:evenodd;stroke:#000000;stroke-width:1px;stroke-linecap:butt;stroke-linejoin:miter;stroke-opacity:1"/>
    <use inkscape:transform-center-y="-10.371878" inkscape:transform-center-x="14.160207" height="625" width="250" transform="matrix(-0.5330127,0.8461071,-0.8461071,-0.5330127,292.84488,501.3813)" id="use11499" xlink:href="#path11497" y="0" x="0"/>
    <use inkscape:transform-center-y="-10.371878" inkscape:transform-center-x="-14.160207" height="625" width="250" transform="matrix(0.5330127,0.8461071,0.8461071,-0.5330127,-42.344877,501.65388)" id="use11501" xlink:href="#path11497" y="0" x="0"/>
    <line stroke-miterlimit="10" x1="125.00001" y1="543.22101" x2="125.00001" y2="38.140003" id="line17866" style="fill:none;stroke:#000000;stroke-width:1;stroke-linecap:square;stroke-miterlimit:10;stroke-dasharray:none"/>
    <path sodipodi:nodetypes="cssssssssssssssssssc" style="fill:none;fill-opacity:1;fill-rule:nonzero;stroke:#ff0000;stroke-width:1;stroke-linecap:butt;stroke-miterlimit:4;stroke-dasharray:none;stroke-opacity:1;overflow:visible" title="sin(4*x)" d="M 94.327374,524.03111 C 86.042481,523.36006 74.408988,523.6053 67.137332,519.14296 C 59.420577,514.40748 63.131636,503.5891 68.025715,495.0048 C 72.873627,486.50148 85.193163,469.66269 94.976658,457.24164 C 103.33315,446.6323 117.41556,428.66833 121.27338,419.47848 C 126.5095,407.00536 125.34803,401.03275 117.7333,396.96532 C 108.95507,392.27639 96.38219,393.43685 81.278946,390.82717 C 66.679817,388.3046 63.529865,386.11006 60.882903,379.31401 C 57.579141,370.83163 69.413883,353.49342 74.949467,345.67585 C 80.381301,338.0048 92.752978,323.20875 100.89967,312.1627 C 108.90985,301.30175 117.15414,291.44559 120.51275,283.14953 C 123.89361,274.79851 127.86543,268.0897 121.54505,260.76138 C 113.95881,251.96533 88.826199,251.52753 76.231632,247.74822 C 65.393057,244.49583 60.74437,241.97428 58.408717,235.23506 C 56.373691,229.36326 62.385252,216.10962 68.27707,206.97191 C 73.714503,198.53891 85.797391,183.64597 94.321006,173.20875 C 103.44392,162.03769 111.56876,150.61664 116.34663,143.19559 C 121.12451,135.77454 128.54542,120.6268 122.20326,113.05743 C 118.81319,109.01138 114.32586,104.9731 101.18655,102.04427 C 68.455009,94.748219 65.825856,92.07717 58.715267,85.78112" id="path15631"/>
    <path d="M 124.87448,543.24996 C 98.89763,535.0203 85.436786,531.04065 72.558916,522.81101 C 59.681056,514.58135 59.319826,507.1017 72.540206,498.87206 C 85.760586,490.6424 104.35771,484.41277 130.33134,476.18311 C 156.30497,467.95346 169.02085,462.34882 181.52925,454.11916 C 194.03764,445.88951 187.05583,436.85903 173.08555,429.30523 C 159.25241,421.82558 131.02326,413.64373 105.46109,404.24127 C 82.747596,395.88663 86.658376,397.28198 70.147776,388.42733 C 57.225914,381.49732 56.986106,371.21803 70.928396,362.98838 C 84.870686,354.75874 112.17231,344.6541 138.11876,336.42444 C 164.06523,328.1948 173.27116,322.71514 185.03073,314.4855 C 196.79031,306.25586 185.83674,295.65121 179.16399,291.54656 C 165.11259,282.90303 127.49072,270.01233 101.92527,260.73261 C 79.252726,252.50296 76.311666,249.64832 63.431236,241.29367 C 51.64855,233.65105 61.358596,221.20938 70.632966,216.60472 C 85.682834,209.13257 102.96473,201.55442 137.02734,189.54077 C 162.72794,180.47634 176.94142,173.81858 187.62364,165.18265 C 195.46527,158.84316 192.60814,148.58714 183.42676,142.53789 C 168.44484,132.6669 143.72255,123.49596 118.26956,114.09895 C 91.915546,104.36929 70.49724,95.99258 59.25908,86.262939" sodipodi:nodetypes="cssssssssssssssssssc" id="path11391" style="fill:none;fill-opacity:1;fill-rule:nonzero;stroke:#000000;stroke-width:2;stroke-linecap:butt;stroke-miterlimit:4;stroke-dasharray:none;stroke-opacity:1;overflow:visible" title="sin(4*x)"/>
  </g>
</svg>