<?xml version="1.0" encoding="UTF-8" standalone="no"?>
<!-- Created with Inkscape (http://www.inkscape.org/) -->

<svg
   xmlns:dc="http://purl.org/dc/elements/1.1/"
   xmlns:cc="http://creativecommons.org/ns#"
   xmlns:rdf="http://www.w3.org/1999/02/22-rdf-syntax-ns#"
   xmlns:svg="http://www.w3.org/2000/svg"
   xmlns="http://www.w3.org/2000/svg"
   xmlns:sodipodi="http://sodipodi.sourceforge.net/DTD/sodipodi-0.dtd"
   xmlns:inkscape="http://www.inkscape.org/namespaces/inkscape"
   width="1600px"
   height="1200px"
   id="svg5493"
   version="1.1"
   inkscape:version="0.48.3.1 r9886"
   sodipodi:docname="Ringe.png">
  <defs
     id="defs5495" />
  <sodipodi:namedview
     id="base"
     pagecolor="#ffffff"
     bordercolor="#666666"
     borderopacity="1.0"
     inkscape:pageopacity="0.0"
     inkscape:pageshadow="2"
     inkscape:zoom="0.42426407"
     inkscape:cx="616.1413"
     inkscape:cy="640.16681"
     inkscape:current-layer="layer1"
     inkscape:document-units="px"
     showgrid="false"
     inkscape:window-width="1920"
     inkscape:window-height="1033"
     inkscape:window-x="-2"
     inkscape:window-y="-3"
     inkscape:window-maximized="1">
    <inkscape:grid
       type="xygrid"
       id="grid6088" />
  </sodipodi:namedview>
  <metadata
     id="metadata5498">
    <rdf:RDF>
      <cc:Work
         rdf:about="">
        <dc:format>image/svg+xml</dc:format>
        <dc:type
           rdf:resource="http://purl.org/dc/dcmitype/StillImage" />
        <dc:title></dc:title>
      </cc:Work>
    </rdf:RDF>
  </metadata>
  <g
     id="layer1"
     inkscape:label="Layer 1"
     inkscape:groupmode="layer">
    <path
       sodipodi:type="arc"
       style="fill:none;stroke:#a60063;stroke-width:10;stroke-linecap:round;stroke-linejoin:bevel;stroke-miterlimit:4;stroke-opacity:1;stroke-dasharray:none;stroke-dashoffset:0"
       id="path6096"
       sodipodi:cx="630"
       sodipodi:cy="430"
       sodipodi:rx="10"
       sodipodi:ry="10"
       d="m 640,430 a 10,10 0 1 1 -20,0 10,10 0 1 1 20,0 z"
       transform="matrix(3.1176471,0,0,3.1176471,-1174.1177,-750.58825)" />
    <path
       sodipodi:type="arc"
       style="fill:none;stroke:#a60063;stroke-width:10;stroke-linecap:round;stroke-linejoin:bevel;stroke-miterlimit:4;stroke-opacity:1;stroke-dasharray:none;stroke-dashoffset:0"
       id="path6098"
       sodipodi:cx="630"
       sodipodi:cy="430"
       sodipodi:rx="30"
       sodipodi:ry="30"
       d="m 660,430 a 30,30 0 1 1 -60,0 30,30 0 1 1 60,0 z"
       transform="matrix(3.1176471,0,0,3.1176471,-1174.1177,-750.58825)" />
    <path
       sodipodi:type="arc"
       style="fill:none;stroke:#a60063;stroke-width:10;stroke-linecap:round;stroke-linejoin:bevel;stroke-miterlimit:4;stroke-opacity:1;stroke-dasharray:none;stroke-dashoffset:0"
       id="path6100"
       sodipodi:cx="630"
       sodipodi:cy="430"
       sodipodi:rx="50"
       sodipodi:ry="50"
       d="m 680,430 a 50,50 0 1 1 -100,0 50,50 0 1 1 100,0 z"
       transform="matrix(3.1176471,0,0,3.1176471,-1174.1177,-750.58825)" />
    <path
       sodipodi:type="arc"
       style="fill:none;stroke:#a60063;stroke-width:10;stroke-linecap:round;stroke-linejoin:bevel;stroke-miterlimit:4;stroke-opacity:1;stroke-dasharray:none;stroke-dashoffset:0"
       id="path6102"
       sodipodi:cx="630"
       sodipodi:cy="430"
       sodipodi:rx="70"
       sodipodi:ry="70"
       d="m 700,430 a 70,70 0 1 1 -140,0 70,70 0 1 1 140,0 z"
       transform="matrix(3.1176471,0,0,3.1176471,-1174.1177,-750.58825)" />
    <path
       sodipodi:type="arc"
       style="fill:none;stroke:#a60063;stroke-width:10;stroke-linecap:round;stroke-linejoin:bevel;stroke-miterlimit:4;stroke-opacity:1;stroke-dasharray:none;stroke-dashoffset:0"
       id="path6104"
       sodipodi:cx="630"
       sodipodi:cy="430"
       sodipodi:rx="90"
       sodipodi:ry="90"
       d="m 720,430 a 90,90 0 1 1 -180,0 90,90 0 1 1 180,0 z"
       transform="matrix(3.1176471,0,0,3.1176471,-1174.1177,-750.58825)" />
    <path
       sodipodi:type="arc"
       style="fill:none;stroke:#a60063;stroke-width:10;stroke-linecap:round;stroke-linejoin:bevel;stroke-miterlimit:4;stroke-opacity:1;stroke-dasharray:none;stroke-dashoffset:0"
       id="path6118"
       sodipodi:cx="630"
       sodipodi:cy="450"
       sodipodi:rx="110"
       sodipodi:ry="110"
       d="m 740,450 a 110,110 0 1 1 -220,0 110,110 0 1 1 220,0 z"
       transform="matrix(3.1176471,0,0,3.1176471,-1180.353,-812.94119)" />
    <path
       sodipodi:type="arc"
       style="fill:none;stroke:#a60063;stroke-width:10;stroke-linecap:round;stroke-linejoin:bevel;stroke-miterlimit:4;stroke-opacity:1;stroke-dasharray:none;stroke-dashoffset:0"
       id="path6120"
       sodipodi:cx="630"
       sodipodi:cy="430"
       sodipodi:rx="130"
       sodipodi:ry="130"
       d="m 760,430 a 130,130 0 1 1 -260,0 130,130 0 1 1 260,0 z"
       transform="matrix(3.1176471,0,0,3.1176471,-1174.1177,-750.58825)" />
    <path
       sodipodi:type="arc"
       style="fill:none;stroke:#a60063;stroke-width:10;stroke-linecap:round;stroke-linejoin:bevel;stroke-miterlimit:4;stroke-opacity:1;stroke-dasharray:none;stroke-dashoffset:0"
       id="path6155"
       sodipodi:cx="665"
       sodipodi:cy="440"
       sodipodi:rx="149"
       sodipodi:ry="150"
       d="m 814,440 a 149,150 0 1 1 -298,0 149,150 0 1 1 298,0 z"
       transform="matrix(3.1176471,0,0,3.1176471,-1286.353,-781.76472)" />
    <path
       sodipodi:type="arc"
       style="fill:none;stroke:#a60063;stroke-width:10;stroke-linecap:round;stroke-linejoin:bevel;stroke-miterlimit:4;stroke-opacity:1;stroke-dasharray:none;stroke-dashoffset:0"
       id="path6159"
       sodipodi:cx="630"
       sodipodi:cy="430"
       sodipodi:rx="170"
       sodipodi:ry="170"
       d="m 800,430 a 170,170 0 1 1 -340,0 170,170 0 1 1 340,0 z"
       transform="matrix(3.1176471,0,0,3.1176471,-1174.1177,-750.58825)" />
  </g>
</svg>
