<?xml version="1.0" standalone="no"?>
<svg width="567" height="384" viewBox="0 0 567 384" xmlns="http://www.w3.org/2000/svg">
<title>
/home/eva/Module/Optik2/Bilder/welle.svg
</title>
<desc>
Creator: ROOT Version 5.32/02
CreationDate: Wed May  9 17:21:16 2012</desc>
<defs>
</defs>
<rect x="0" y="0" width="567" height="384" fill="white"/>
<rect x="57" y="38" width="453" height="308" fill="white"/>
<rect x="57" y="38" width="453" height="308" fill="none" stroke="black"/>
<rect x="57" y="38" width="453" height="308" fill="white"/>
<rect x="57" y="38" width="453" height="308" fill="none" stroke="black"/>
<path d="M57,346h 453" fill="none" stroke="black"/>
<path d="M57,336v 10" fill="none" stroke="black"/>
<path d="M70,341v 5" fill="none" stroke="black"/>
<path d="M83,341v 5" fill="none" stroke="black"/>
<path d="M96,341v 5" fill="none" stroke="black"/>
<path d="M109,341v 5" fill="none" stroke="black"/>
<path d="M122,336v 10" fill="none" stroke="black"/>
<path d="M135,341v 5" fill="none" stroke="black"/>
<path d="M149,341v 5" fill="none" stroke="black"/>
<path d="M162,341v 5" fill="none" stroke="black"/>
<path d="M175,341v 5" fill="none" stroke="black"/>
<path d="M188,336v 10" fill="none" stroke="black"/>
<path d="M201,341v 5" fill="none" stroke="black"/>
<path d="M214,341v 5" fill="none" stroke="black"/>
<path d="M227,341v 5" fill="none" stroke="black"/>
<path d="M240,341v 5" fill="none" stroke="black"/>
<path d="M254,336v 10" fill="none" stroke="black"/>
<path d="M267,341v 5" fill="none" stroke="black"/>
<path d="M280,341v 5" fill="none" stroke="black"/>
<path d="M293,341v 5" fill="none" stroke="black"/>
<path d="M306,341v 5" fill="none" stroke="black"/>
<path d="M319,336v 10" fill="none" stroke="black"/>
<path d="M332,341v 5" fill="none" stroke="black"/>
<path d="M345,341v 5" fill="none" stroke="black"/>
<path d="M359,341v 5" fill="none" stroke="black"/>
<path d="M372,341v 5" fill="none" stroke="black"/>
<path d="M385,336v 10" fill="none" stroke="black"/>
<path d="M398,341v 5" fill="none" stroke="black"/>
<path d="M411,341v 5" fill="none" stroke="black"/>
<path d="M424,341v 5" fill="none" stroke="black"/>
<path d="M437,341v 5" fill="none" stroke="black"/>
<path d="M450,336v 10" fill="none" stroke="black"/>
<path d="M450,336v 10" fill="none" stroke="black"/>
<path d="M464,341v 5" fill="none" stroke="black"/>
<path d="M477,341v 5" fill="none" stroke="black"/>
<path d="M490,341v 5" fill="none" stroke="black"/>
<path d="M503,341v 5" fill="none" stroke="black"/>
<text x="53" y="358" fill="black" font-size="12" font-family="Helvetica">
0
</text>
<text x="119" y="358" fill="black" font-size="12" font-family="Helvetica">
5
</text>
<text x="181" y="358" fill="black" font-size="12" font-family="Helvetica">
10
</text>
<text x="246" y="358" fill="black" font-size="12" font-family="Helvetica">
15
</text>
<text x="312" y="358" fill="black" font-size="12" font-family="Helvetica">
20
</text>
<text x="377" y="358" fill="black" font-size="12" font-family="Helvetica">
25
</text>
<text x="443" y="358" fill="black" font-size="12" font-family="Helvetica">
30
</text>
<path d="M57,346v -308" fill="none" stroke="black"/>
<path d="M70,320h -13" fill="none" stroke="black"/>
<path d="M63,307h -6" fill="none" stroke="black"/>
<path d="M63,294h -6" fill="none" stroke="black"/>
<path d="M63,281h -6" fill="none" stroke="black"/>
<path d="M63,269h -6" fill="none" stroke="black"/>
<path d="M70,256h -13" fill="none" stroke="black"/>
<path d="M63,243h -6" fill="none" stroke="black"/>
<path d="M63,230h -6" fill="none" stroke="black"/>
<path d="M63,217h -6" fill="none" stroke="black"/>
<path d="M63,205h -6" fill="none" stroke="black"/>
<path d="M70,192h -13" fill="none" stroke="black"/>
<path d="M63,179h -6" fill="none" stroke="black"/>
<path d="M63,166h -6" fill="none" stroke="black"/>
<path d="M63,153h -6" fill="none" stroke="black"/>
<path d="M63,141h -6" fill="none" stroke="black"/>
<path d="M70,128h -13" fill="none" stroke="black"/>
<path d="M63,115h -6" fill="none" stroke="black"/>
<path d="M63,102h -6" fill="none" stroke="black"/>
<path d="M63,89h -6" fill="none" stroke="black"/>
<path d="M63,76h -6" fill="none" stroke="black"/>
<path d="M70,64h -13" fill="none" stroke="black"/>
<path d="M70,320h -13" fill="none" stroke="black"/>
<path d="M63,333h -6" fill="none" stroke="black"/>
<path d="M70,64h -13" fill="none" stroke="black"/>
<path d="M63,51h -6" fill="none" stroke="black"/>
<text x="45" y="325" fill="black" font-size="12" font-family="Helvetica">
-1
</text>
<text x="33" y="260" fill="black" font-size="12" font-family="Helvetica">
-0.5
</text>
<text x="47" y="197" fill="black" font-size="12" font-family="Helvetica">
0
</text>
<text x="37" y="132" fill="black" font-size="12" font-family="Helvetica">
0.5
</text>
<text x="49" y="68" fill="black" font-size="12" font-family="Helvetica">
1
</text>
<path d="M57,63" fill="none" stroke="#000066" stroke-width="3"/>
<path d="M57,63v 1h 1v 1h 1v 3h 1v 2h 1v 3h 1v 3h 1v 4h 1v 8l 1, 1v 5h 1v 5l 1, 1v 5h 1v 12l 1, 1v 5l 1, 1v 7h 1v 7h 1v 15h 1v 7l 1, 1v 7h 1v 7l 1, 1v 8h 1v 16h 1v 7l 1, 1v 7h 1v 9h 1v 14h 1v 8h 1v 7h 1v 6l 1, 1v 6l 1, 1v 11l 1, 1v 6h 1v 5h 1v 4h 1v
 9h 1v 4h 1v 3h 1v 3h 1v 4h 1v 1h 1v 1h 1v 1h 2v -2l 1, -1v -1h 1v -2h 1v -2h 1v -7h 1v -4h 1v -4h 1v -5h 1v -5h 1v -11h 1v -6l 1, -1v -6h 1v -7h 1v -14h 1v -7l 1, -1v -7h 1v -8h 1v -15l 1, -1v -7l 1, -1v -6l 1, -1v -8h 1v -8l 1, -1v -14h 1v -8h 1v
 -8h 1v -7h 1v -13l 1, -1v -6h 1v -6h 1v -6h 1v -6h 1v -9l 1, -1v -4h 1v -3l 1, -1v -4h 1v -5h 1v -2h 1v -1h 1v -2h 1v -1h 1v 1h 1v 1h 1v 1h 1v 1h 1v 5l 1, 1v 2l 1, 1v 3h 1v 4h 1v 9l 1, 1v 4l 1, 1v 5l 1, 1v 5h 1v 7h 1v 13h 1v 7h 1v 8h 1v 6l 1, 1v 16h
 1v 7l 1, 1v 7h 1v 8h 1v 16h 1v 8l 1, 1v 6l 1, 1v 7h 1v 8h 1v 14h 1v 7l 1, 1v 6h 1v 6l 1, 1v 11h 1v 5l 1, 1v 5h 1v 4h 1v 8h 1v 3h 1v 3h 1v 3h 1v 1h 1v 3h 1v 1h 2v -1h 1v -3h 1v -1h 1v -3h 1v -3h 1v -3h 1v -8h 1v -4l 1, -1v -5h 1v -5l 1, -1v -11h 1v
 -6l 1, -1v -6h 1v -7l 1, -1v -13h 1v -8l 1, -1v -7h 1v -7l 1, -1v -7h 1v -16l 1, -1v -7l 1, -1v -7h 1v -7l 1, -1v -16h 1v -6l 1, -1v -7h 1v -7l 1, -1v -6h 1v -13h 1v -6h 1v -6h 1v -5h 1v -9h 1v -4h 1v -4h 1v -3h 1v -5h 1v -1h 1v -1l 1, -1h 1v -1h 1v
 1h 1v 2h 1v 1h 1v 2l 1, 1v 4l 1, 1v 4h 1v 4h 1v 4h 1v 5h 1v 10h 1v 6h 1v 6h 1v 7h 1v 13l 1, 1v 6l 1, 1v 7h 1v 8l 1, 1v 14h 1v 8h 1v 9h 1v 7h 1v 8h 1v 15l 1, 1v 7l 1, 1v 7h 1v 7h 1v 14l 1, 1v 6h 1v 7h 1v 6h 1v 5h 1v 11l 1, 1v 4h 1v 4l 1, 1v 3h 1v 7h
 1v 2h 1v 2h 1v 2h 1v 2h 2v -1h 1v -1h 1v -1l 1, -1v -3l 1, -1v -2h 1v -3h 1v -4h 1v -9h 1v -4l 1, -1v -4l 1, -1v -6h 1v -6h 1v -13h 1v -6l 1, -1v -6h 1v -8h 1v -14l 1, -1v -8h 1v -8h 1v -7l 1, -1v -15h 1v -9h 1v -7l 1, -1v -7h 1v -7l 1, -1v -15h 1v
 -6h 1v -8h 1v -6h 1v -12h 1v -6h 1v -5l 1, -1v -5h 1v -8h 1v -4h 1v -3h 1v -3h 1v -2h 1v -3h 1v -1h 1v -1h 2v 2h 1v 1h 1v 3h 1v 2h 1v 3h 1v 7l 1, 1v 4h 1v 4h 1v 5l 1, 1v 10l 1, 1v 6h 1v 6h 1v 7h 1v 14h 1v 7l 1, 1v 7h 1v 7l 1, 1v 8h 1v 15l 1, 1v 7h
 1v 8h 1v 8l 1, 1v 14l 1, 1v 7h 1v 8h 1v 7h 1v 6l 1, 1v 13h 1v 6l 1, 1v 6h 1v 5h 1v 10h 1v 4h 1v 4h 1v 3h 1v 6l 1, 1v 2h 1v 1h 1v 2h 1v 1h 1v -1h 2v -2h 1v -1h 1v -5h 1v -4h 1v -3l 1, -1v -3l 1, -1v -4h 1v -10h 1v -5h 1v -6h 1v -6h 1v -14h 1v -7h 1v
 -7h 1v -8h 1v -15h 1v -7l 1, -1v -7l 1, -1v -8h 1v -7l 1, -1v -15l 1, -1v -7h 1v -8h 1v -7l 1, -1v -14l 1, -1v -5l 1, -1v -7h 1v -6h 1v -6l 1, -1v -10h 1v -5h 1v -5h 1v -4h 1v -7h 1v -4h 1v -2h 1v -2h 1v -2h 1v -1h 2v 1h 1v 1h 1v 3h 1v 2h 1v 4h 1v
 3h 1v 7l 1, 1v 4h 1v 5l 1, 1v 5h 1v 5h 1v 13h 1v 6h 1v 7h 1v 7l 1, 1v 14h 1v 8h 1v 7l 1, 1v 7l 1, 1v 15l 1, 1v 7l 1, 1v 7l 1, 1v 7h 1v 8h 1v 15h 1v 7h 1v 7l 1, 1v 6h 1v 13h 1v 6h 1v 6h 1v 5h 1v 9h 1v 4h 1v 4h 1v 3l 1, 1v 2h 1v 4h 1v 1h 1v 1h 1v 1h
 1v -1h 1v -2h 1v -1h 1v -2h 1v -2h 1v -7h 1v -4h 1v -4l 1, -1v -4h 1v -11h 1v -6h 1v -6l 1, -1v -5h 1v -14h 1v -8h 1v -7h 1v -7l 1, -1v -7h 1v -16h 1v -8h 1v -7l 1, -1v -7l 1, -1v -15l 1, -1v -7h 1v -7l 1, -1v -7l 1, -1v -6h 1v -14l 1, -1v -5h 1v
 -6l 1, -1v -6h 1v -10h 1v -5h 1v -4h 1v -4h 1v -7h 1v -2h 1v -2l 1, -1h 1v -2h 1v -1" fill="none" stroke="#000066" stroke-width="3"/>
<text x="257" y="18" fill="black" font-size="16" font-family="Helvetica">
Welle 1
</text></svg>
