<?xml version="1.0" encoding="UTF-8"?>
<svg xmlns="http://www.w3.org/2000/svg" xmlns:xlink="http://www.w3.org/1999/xlink" width="157.864pt" height="191.088pt" viewBox="0 0 157.864 191.088" version="1.1">
<g id="surface1">
<path style="fill:none;stroke-width:1.99255;stroke-linecap:butt;stroke-linejoin:miter;stroke:rgb(100%,0%,0%);stroke-opacity:1;stroke-miterlimit:10;" d="M 13.959906 47.815313 C 12.600531 55.52625 5.248969 60.670781 -2.461969 59.315313 " transform="matrix(1,0,0,-1,15.294,142.745)"/>
<path style="fill:none;stroke-width:1.99255;stroke-linecap:butt;stroke-linejoin:miter;stroke:rgb(100%,0%,0%);stroke-opacity:1;stroke-miterlimit:10;" d="M 137.120062 83.924688 C 129.413031 82.565313 124.264594 75.21375 125.623969 67.506719 " transform="matrix(1,0,0,-1,15.294,142.745)"/>
<path style="fill:none;stroke-width:1.99255;stroke-linecap:butt;stroke-linejoin:miter;stroke:rgb(100%,0%,0%);stroke-opacity:1;stroke-miterlimit:10;" d="M 113.319281 137.295781 C 114.678656 129.58875 122.026313 124.440313 129.73725 125.799688 " transform="matrix(1,0,0,-1,15.294,142.745)"/>
<path style="fill:none;stroke-width:1.99255;stroke-linecap:butt;stroke-linejoin:miter;stroke:rgb(100%,0%,0%);stroke-opacity:1;stroke-miterlimit:10;" d="M -9.844781 101.186406 C -2.133844 102.545781 3.010688 109.897344 1.651313 117.608281 " transform="matrix(1,0,0,-1,15.294,142.745)"/>
<path style="fill-rule:nonzero;fill:rgb(100%,50%,0%);fill-opacity:1;stroke-width:1.99255;stroke-linecap:butt;stroke-linejoin:miter;stroke:rgb(100%,50%,0%);stroke-opacity:1;stroke-miterlimit:10;" d="M 5.17475 52.323125 C 5.17475 52.487188 5.041938 52.62 4.877875 52.62 C 4.713813 52.62 4.577094 52.487188 4.577094 52.323125 C 4.577094 52.155156 4.713813 52.022344 4.877875 52.022344 C 5.041938 52.022344 5.17475 52.155156 5.17475 52.323125 Z " transform="matrix(1,0,0,-1,15.294,142.745)"/>
<path style="fill:none;stroke-width:1.99255;stroke-linecap:butt;stroke-linejoin:miter;stroke:rgb(0%,0%,100%);stroke-opacity:1;stroke-miterlimit:10;" d="M -0.00103125 45.354375 L 139.581 69.967656 " transform="matrix(1,0,0,-1,15.294,142.745)"/>
<path style="fill:none;stroke-width:1.99255;stroke-linecap:butt;stroke-linejoin:miter;stroke:rgb(0%,0%,100%);stroke-opacity:1;stroke-miterlimit:10;" d="M 127.276313 139.756719 L -12.305719 115.147344 " transform="matrix(1,0,0,-1,15.294,142.745)"/>
<path style="fill:none;stroke-width:1.99255;stroke-linecap:butt;stroke-linejoin:miter;stroke:rgb(39.99939%,39.99939%,100%);stroke-opacity:1;stroke-miterlimit:10;" d="M -0.00103125 45.354375 L -12.305719 115.147344 " transform="matrix(1,0,0,-1,15.294,142.745)"/>
<path style="fill:none;stroke-width:1.99255;stroke-linecap:butt;stroke-linejoin:miter;stroke:rgb(39.99939%,39.99939%,100%);stroke-opacity:1;stroke-miterlimit:10;" d="M 139.581 69.967656 L 127.276313 139.756719 " transform="matrix(1,0,0,-1,15.294,142.745)"/>
<path style="fill-rule:nonzero;fill:rgb(0%,0%,0%);fill-opacity:1;stroke-width:1.99255;stroke-linecap:butt;stroke-linejoin:miter;stroke:rgb(0%,0%,0%);stroke-opacity:1;stroke-miterlimit:10;" d="M 1.991156 45.354375 C 1.991156 46.455938 1.100531 47.346563 -0.00103125 47.346563 C -1.098687 47.346563 -1.993219 46.455938 -1.993219 45.354375 C -1.993219 44.252813 -1.098687 43.362188 -0.00103125 43.362188 C 1.100531 43.362188 1.991156 44.252813 1.991156 45.354375 Z " transform="matrix(1,0,0,-1,15.294,142.745)"/>
<path style="fill-rule:nonzero;fill:rgb(0%,0%,0%);fill-opacity:1;stroke-width:1.99255;stroke-linecap:butt;stroke-linejoin:miter;stroke:rgb(0%,0%,0%);stroke-opacity:1;stroke-miterlimit:10;" d="M 141.573187 69.967656 C 141.573187 71.065313 140.682562 71.959844 139.581 71.959844 C 138.483344 71.959844 137.588812 71.065313 137.588812 69.967656 C 137.588812 68.866094 138.483344 67.975469 139.581 67.975469 C 140.682562 67.975469 141.573187 68.866094 141.573187 69.967656 Z " transform="matrix(1,0,0,-1,15.294,142.745)"/>
<path style="fill-rule:nonzero;fill:rgb(0%,0%,0%);fill-opacity:1;stroke-width:1.99255;stroke-linecap:butt;stroke-linejoin:miter;stroke:rgb(0%,0%,0%);stroke-opacity:1;stroke-miterlimit:10;" d="M 129.2685 139.756719 C 129.2685 140.858281 128.377875 141.748906 127.276313 141.748906 C 126.17475 141.748906 125.284125 140.858281 125.284125 139.756719 C 125.284125 138.659063 126.17475 137.764531 127.276313 137.764531 C 128.377875 137.764531 129.2685 138.659063 129.2685 139.756719 Z " transform="matrix(1,0,0,-1,15.294,142.745)"/>
<path style="fill-rule:nonzero;fill:rgb(0%,0%,0%);fill-opacity:1;stroke-width:1.99255;stroke-linecap:butt;stroke-linejoin:miter;stroke:rgb(0%,0%,0%);stroke-opacity:1;stroke-miterlimit:10;" d="M -10.313531 115.147344 C -10.313531 116.245 -11.204156 117.139531 -12.305719 117.139531 C -13.407281 117.139531 -14.297906 116.245 -14.297906 115.147344 C -14.297906 114.045781 -13.407281 113.155156 -12.305719 113.155156 C -11.204156 113.155156 -10.313531 114.045781 -10.313531 115.147344 Z " transform="matrix(1,0,0,-1,15.294,142.745)"/>
<path style="fill:none;stroke-width:1.99255;stroke-linecap:butt;stroke-linejoin:miter;stroke:rgb(39.99939%,39.99939%,39.99939%);stroke-opacity:1;stroke-miterlimit:10;" d="M -0.00103125 -45.356562 L 139.581 -20.743281 L 127.276313 49.045781 L -12.305719 24.436406 Z " transform="matrix(1,0,0,-1,15.294,142.745)"/>
<path style="fill:none;stroke-width:1.99255;stroke-linecap:butt;stroke-linejoin:miter;stroke:rgb(0%,0%,100%);stroke-opacity:1;stroke-miterlimit:10;" d="M -0.00103125 -45.356562 L 63.639594 1.846563 " transform="matrix(1,0,0,-1,15.294,142.745)"/>
<path style="fill:none;stroke-width:1.99255;stroke-linecap:butt;stroke-linejoin:miter;stroke:rgb(19.999695%,19.999695%,100%);stroke-opacity:1;stroke-miterlimit:10;" d="M 63.639594 1.846563 L 127.276313 49.045781 " transform="matrix(1,0,0,-1,15.294,142.745)"/>
<path style="fill:none;stroke-width:1.99255;stroke-linecap:butt;stroke-linejoin:miter;stroke:rgb(39.99939%,39.99939%,100%);stroke-opacity:1;stroke-miterlimit:10;" d="M -12.305719 24.436406 L 63.639594 1.846563 " transform="matrix(1,0,0,-1,15.294,142.745)"/>
<path style="fill:none;stroke-width:1.99255;stroke-linecap:butt;stroke-linejoin:miter;stroke:rgb(69.999695%,69.999695%,100%);stroke-opacity:1;stroke-miterlimit:10;" d="M 63.639594 1.846563 L 139.581 -20.743281 " transform="matrix(1,0,0,-1,15.294,142.745)"/>
<path style="fill-rule:nonzero;fill:rgb(0%,0%,0%);fill-opacity:1;stroke-width:1.99255;stroke-linecap:butt;stroke-linejoin:miter;stroke:rgb(0%,0%,0%);stroke-opacity:1;stroke-miterlimit:10;" d="M 1.991156 -45.356562 C 1.991156 -44.255 1.100531 -43.364375 -0.00103125 -43.364375 C -1.098687 -43.364375 -1.993219 -44.255 -1.993219 -45.356562 C -1.993219 -46.454219 -1.098687 -47.34875 -0.00103125 -47.34875 C 1.100531 -47.34875 1.991156 -46.454219 1.991156 -45.356562 Z " transform="matrix(1,0,0,-1,15.294,142.745)"/>
<path style="fill-rule:nonzero;fill:rgb(0%,0%,0%);fill-opacity:1;stroke-width:1.99255;stroke-linecap:butt;stroke-linejoin:miter;stroke:rgb(0%,0%,0%);stroke-opacity:1;stroke-miterlimit:10;" d="M 141.573187 -20.743281 C 141.573187 -19.641719 140.682562 -18.751094 139.581 -18.751094 C 138.483344 -18.751094 137.588812 -19.641719 137.588812 -20.743281 C 137.588812 -21.844844 138.483344 -22.735469 139.581 -22.735469 C 140.682562 -22.735469 141.573187 -21.844844 141.573187 -20.743281 Z " transform="matrix(1,0,0,-1,15.294,142.745)"/>
<path style="fill-rule:nonzero;fill:rgb(0%,0%,0%);fill-opacity:1;stroke-width:1.99255;stroke-linecap:butt;stroke-linejoin:miter;stroke:rgb(0%,0%,0%);stroke-opacity:1;stroke-miterlimit:10;" d="M 129.2685 49.045781 C 129.2685 50.147344 128.377875 51.041875 127.276313 51.041875 C 126.17475 51.041875 125.284125 50.147344 125.284125 49.045781 C 125.284125 47.948125 126.17475 47.053594 127.276313 47.053594 C 128.377875 47.053594 129.2685 47.948125 129.2685 49.045781 Z " transform="matrix(1,0,0,-1,15.294,142.745)"/>
<path style="fill-rule:nonzero;fill:rgb(0%,0%,0%);fill-opacity:1;stroke-width:1.99255;stroke-linecap:butt;stroke-linejoin:miter;stroke:rgb(0%,0%,0%);stroke-opacity:1;stroke-miterlimit:10;" d="M -10.313531 24.436406 C -10.313531 25.537969 -11.204156 26.428594 -12.305719 26.428594 C -13.407281 26.428594 -14.297906 25.537969 -14.297906 24.436406 C -14.297906 23.334844 -13.407281 22.444219 -12.305719 22.444219 C -11.204156 22.444219 -10.313531 23.334844 -10.313531 24.436406 Z " transform="matrix(1,0,0,-1,15.294,142.745)"/>
</g>
</svg>
