<?xml version="1.0" encoding="UTF-8"?>
<svg xmlns="http://www.w3.org/2000/svg" xmlns:xlink="http://www.w3.org/1999/xlink" width="130.054pt" height="131.867pt" viewBox="0 0 130.054 131.867" version="1.1">
<g id="surface1">
<path style="fill:none;stroke-width:1.99255;stroke-linecap:butt;stroke-linejoin:miter;stroke:rgb(0%,0%,100%);stroke-opacity:1;stroke-miterlimit:10;" d="M -0.00071875 34.015344 L 69.79225 46.320031 L 124.077406 91.874719 L 54.288344 79.570031 Z " transform="matrix(1,0,0,-1,2.989,94.863)"/>
<path style="fill-rule:nonzero;fill:rgb(0%,0%,0%);fill-opacity:1;stroke-width:1.99255;stroke-linecap:butt;stroke-linejoin:miter;stroke:rgb(0%,0%,0%);stroke-opacity:1;stroke-miterlimit:10;" d="M 1.991469 34.015344 C 1.991469 35.116906 1.100844 36.007531 -0.00071875 36.007531 C -1.102281 36.007531 -1.992906 35.116906 -1.992906 34.015344 C -1.992906 32.913781 -1.102281 32.023156 -0.00071875 32.023156 C 1.100844 32.023156 1.991469 32.913781 1.991469 34.015344 Z " transform="matrix(1,0,0,-1,2.989,94.863)"/>
<path style="fill-rule:nonzero;fill:rgb(0%,0%,0%);fill-opacity:1;stroke-width:1.99255;stroke-linecap:butt;stroke-linejoin:miter;stroke:rgb(0%,0%,0%);stroke-opacity:1;stroke-miterlimit:10;" d="M 71.784437 46.320031 C 71.784437 47.421594 70.889906 48.316125 69.79225 48.316125 C 68.690687 48.316125 67.800062 47.421594 67.800062 46.320031 C 67.800062 45.222375 68.690687 44.327844 69.79225 44.327844 C 70.889906 44.327844 71.784437 45.222375 71.784437 46.320031 Z " transform="matrix(1,0,0,-1,2.989,94.863)"/>
<path style="fill-rule:nonzero;fill:rgb(0%,0%,0%);fill-opacity:1;stroke-width:1.99255;stroke-linecap:butt;stroke-linejoin:miter;stroke:rgb(0%,0%,0%);stroke-opacity:1;stroke-miterlimit:10;" d="M 126.069594 91.874719 C 126.069594 92.976281 125.178969 93.866906 124.077406 93.866906 C 122.975844 93.866906 122.085219 92.976281 122.085219 91.874719 C 122.085219 90.773156 122.975844 89.882531 124.077406 89.882531 C 125.178969 89.882531 126.069594 90.773156 126.069594 91.874719 Z " transform="matrix(1,0,0,-1,2.989,94.863)"/>
<path style="fill-rule:nonzero;fill:rgb(0%,0%,0%);fill-opacity:1;stroke-width:1.99255;stroke-linecap:butt;stroke-linejoin:miter;stroke:rgb(0%,0%,0%);stroke-opacity:1;stroke-miterlimit:10;" d="M 56.280531 79.570031 C 56.280531 80.667688 55.386 81.562219 54.288344 81.562219 C 53.186781 81.562219 52.29225 80.667688 52.29225 79.570031 C 52.29225 78.468469 53.186781 77.577844 54.288344 77.577844 C 55.386 77.577844 56.280531 78.468469 56.280531 79.570031 Z " transform="matrix(1,0,0,-1,2.989,94.863)"/>
<path style="fill:none;stroke-width:1.99255;stroke-linecap:butt;stroke-linejoin:miter;stroke:rgb(100%,0%,0%);stroke-opacity:1;stroke-miterlimit:10;" d="M 72.315687 -0.29325 C 69.831312 5.030969 63.682875 7.577844 58.159438 5.566125 " transform="matrix(1,0,0,-1,2.989,94.863)"/>
<path style="fill:none;stroke-width:1.99255;stroke-linecap:butt;stroke-linejoin:miter;stroke:rgb(100%,0%,0%);stroke-opacity:1;stroke-miterlimit:10;" d="M 64.276625 0.241906 C 64.276625 0.405969 64.143812 0.538781 63.97975 0.538781 C 63.811781 0.538781 63.678969 0.405969 63.678969 0.241906 C 63.678969 0.0739375 63.811781 -0.058875 63.97975 -0.058875 C 64.143812 -0.058875 64.276625 0.0739375 64.276625 0.241906 Z " transform="matrix(1,0,0,-1,2.989,94.863)"/>
<path style="fill:none;stroke-width:1.99255;stroke-linecap:butt;stroke-linejoin:miter;stroke:rgb(39.99939%,39.99939%,39.99939%);stroke-opacity:1;stroke-miterlimit:10;" d="M -0.00071875 -34.015906 L 69.79225 -21.711219 L 124.077406 23.843469 L 54.288344 11.534875 Z " transform="matrix(1,0,0,-1,2.989,94.863)"/>
<path style="fill:none;stroke-width:1.99255;stroke-linecap:butt;stroke-linejoin:miter;stroke:rgb(0%,0%,100%);stroke-opacity:1;stroke-miterlimit:10;" d="M -0.00071875 -34.015906 L 62.038344 -5.086219 " transform="matrix(1,0,0,-1,2.989,94.863)"/>
<path style="fill:none;stroke-width:1.99255;stroke-linecap:butt;stroke-linejoin:miter;stroke:rgb(39.99939%,39.99939%,100%);stroke-opacity:1;stroke-miterlimit:10;" d="M 62.038344 -5.086219 L 124.077406 23.843469 " transform="matrix(1,0,0,-1,2.989,94.863)"/>
<path style="fill:none;stroke-width:1.99255;stroke-linecap:butt;stroke-linejoin:miter;stroke:rgb(0%,100%,0%);stroke-opacity:1;stroke-miterlimit:10;" d="M 54.288344 11.534875 L 62.038344 -5.086219 " transform="matrix(1,0,0,-1,2.989,94.863)"/>
<path style="fill:none;stroke-width:1.99255;stroke-linecap:butt;stroke-linejoin:miter;stroke:rgb(39.99939%,100%,39.99939%);stroke-opacity:1;stroke-miterlimit:10;" d="M 62.038344 -5.086219 L 69.79225 -21.711219 " transform="matrix(1,0,0,-1,2.989,94.863)"/>
<path style="fill-rule:nonzero;fill:rgb(0%,0%,0%);fill-opacity:1;stroke-width:1.99255;stroke-linecap:butt;stroke-linejoin:miter;stroke:rgb(0%,0%,0%);stroke-opacity:1;stroke-miterlimit:10;" d="M 1.991469 -34.015906 C 1.991469 -32.914344 1.100844 -32.023719 -0.00071875 -32.023719 C -1.102281 -32.023719 -1.992906 -32.914344 -1.992906 -34.015906 C -1.992906 -35.117469 -1.102281 -36.008094 -0.00071875 -36.008094 C 1.100844 -36.008094 1.991469 -35.117469 1.991469 -34.015906 Z " transform="matrix(1,0,0,-1,2.989,94.863)"/>
<path style="fill-rule:nonzero;fill:rgb(0%,0%,0%);fill-opacity:1;stroke-width:1.99255;stroke-linecap:butt;stroke-linejoin:miter;stroke:rgb(0%,0%,0%);stroke-opacity:1;stroke-miterlimit:10;" d="M 71.784437 -21.711219 C 71.784437 -20.609656 70.889906 -19.719031 69.79225 -19.719031 C 68.690687 -19.719031 67.800062 -20.609656 67.800062 -21.711219 C 67.800062 -22.812781 68.690687 -23.703406 69.79225 -23.703406 C 70.889906 -23.703406 71.784437 -22.812781 71.784437 -21.711219 Z " transform="matrix(1,0,0,-1,2.989,94.863)"/>
<path style="fill-rule:nonzero;fill:rgb(0%,0%,0%);fill-opacity:1;stroke-width:1.99255;stroke-linecap:butt;stroke-linejoin:miter;stroke:rgb(0%,0%,0%);stroke-opacity:1;stroke-miterlimit:10;" d="M 126.069594 23.843469 C 126.069594 24.941125 125.178969 25.835656 124.077406 25.835656 C 122.975844 25.835656 122.085219 24.941125 122.085219 23.843469 C 122.085219 22.741906 122.975844 21.851281 124.077406 21.851281 C 125.178969 21.851281 126.069594 22.741906 126.069594 23.843469 Z " transform="matrix(1,0,0,-1,2.989,94.863)"/>
<path style="fill-rule:nonzero;fill:rgb(0%,0%,0%);fill-opacity:1;stroke-width:1.99255;stroke-linecap:butt;stroke-linejoin:miter;stroke:rgb(0%,0%,0%);stroke-opacity:1;stroke-miterlimit:10;" d="M 56.280531 11.534875 C 56.280531 12.636438 55.386 13.530969 54.288344 13.530969 C 53.186781 13.530969 52.29225 12.636438 52.29225 11.534875 C 52.29225 10.437219 53.186781 9.542688 54.288344 9.542688 C 55.386 9.542688 56.280531 10.437219 56.280531 11.534875 Z " transform="matrix(1,0,0,-1,2.989,94.863)"/>
</g>
</svg>
