<?xml version="1.0" encoding="UTF-8"?>
<svg xmlns="http://www.w3.org/2000/svg" xmlns:xlink="http://www.w3.org/1999/xlink" width="130.054pt" height="165.883pt" viewBox="0 0 130.054 165.883" version="1.1">
<g id="surface1">
<path style="fill:none;stroke-width:1.99255;stroke-linecap:butt;stroke-linejoin:miter;stroke:rgb(0%,0%,100%);stroke-opacity:1;stroke-miterlimit:10;" d="M -0.00071875 51.023344 L 69.79225 63.331938 L 124.077406 108.882719 L 54.288344 96.578031 Z " transform="matrix(1,0,0,-1,2.989,111.871)"/>
<path style="fill-rule:nonzero;fill:rgb(0%,0%,0%);fill-opacity:1;stroke-width:1.99255;stroke-linecap:butt;stroke-linejoin:miter;stroke:rgb(0%,0%,0%);stroke-opacity:1;stroke-miterlimit:10;" d="M 1.991469 51.023344 C 1.991469 52.124906 1.100844 53.015531 -0.00071875 53.015531 C -1.102281 53.015531 -1.992906 52.124906 -1.992906 51.023344 C -1.992906 49.925688 -1.102281 49.031156 -0.00071875 49.031156 C 1.100844 49.031156 1.991469 49.925688 1.991469 51.023344 Z " transform="matrix(1,0,0,-1,2.989,111.871)"/>
<path style="fill-rule:nonzero;fill:rgb(0%,0%,0%);fill-opacity:1;stroke-width:1.99255;stroke-linecap:butt;stroke-linejoin:miter;stroke:rgb(0%,0%,0%);stroke-opacity:1;stroke-miterlimit:10;" d="M 71.784437 63.331938 C 71.784437 64.429594 70.889906 65.324125 69.79225 65.324125 C 68.690687 65.324125 67.800062 64.429594 67.800062 63.331938 C 67.800062 62.230375 68.690687 61.335844 69.79225 61.335844 C 70.889906 61.335844 71.784437 62.230375 71.784437 63.331938 Z " transform="matrix(1,0,0,-1,2.989,111.871)"/>
<path style="fill-rule:nonzero;fill:rgb(0%,0%,0%);fill-opacity:1;stroke-width:1.99255;stroke-linecap:butt;stroke-linejoin:miter;stroke:rgb(0%,0%,0%);stroke-opacity:1;stroke-miterlimit:10;" d="M 126.069594 108.882719 C 126.069594 109.984281 125.178969 110.874906 124.077406 110.874906 C 122.975844 110.874906 122.085219 109.984281 122.085219 108.882719 C 122.085219 107.781156 122.975844 106.890531 124.077406 106.890531 C 125.178969 106.890531 126.069594 107.781156 126.069594 108.882719 Z " transform="matrix(1,0,0,-1,2.989,111.871)"/>
<path style="fill-rule:nonzero;fill:rgb(0%,0%,0%);fill-opacity:1;stroke-width:1.99255;stroke-linecap:butt;stroke-linejoin:miter;stroke:rgb(0%,0%,0%);stroke-opacity:1;stroke-miterlimit:10;" d="M 56.280531 96.578031 C 56.280531 97.675688 55.386 98.570219 54.288344 98.570219 C 53.186781 98.570219 52.29225 97.675688 52.29225 96.578031 C 52.29225 95.476469 53.186781 94.585844 54.288344 94.585844 C 55.386 94.585844 56.280531 95.476469 56.280531 96.578031 Z " transform="matrix(1,0,0,-1,2.989,111.871)"/>
<path style="fill:none;stroke-width:1.99255;stroke-linecap:butt;stroke-linejoin:miter;stroke:rgb(100%,0%,0%);stroke-opacity:1;stroke-miterlimit:10;" d="M 72.315687 33.722563 C 69.831312 39.046781 63.682875 41.593656 58.159438 39.585844 " transform="matrix(1,0,0,-1,2.989,111.871)"/>
<path style="fill-rule:nonzero;fill:rgb(100%,0%,0%);fill-opacity:1;stroke-width:1.99255;stroke-linecap:butt;stroke-linejoin:miter;stroke:rgb(100%,0%,0%);stroke-opacity:1;stroke-miterlimit:10;" d="M 64.276625 34.257719 C 64.276625 34.421781 64.143812 34.554594 63.97975 34.554594 C 63.811781 34.554594 63.678969 34.421781 63.678969 34.257719 C 63.678969 34.08975 63.811781 33.956938 63.97975 33.956938 C 64.143812 33.956938 64.276625 34.08975 64.276625 34.257719 Z " transform="matrix(1,0,0,-1,2.989,111.871)"/>
<path style="fill:none;stroke-width:1.99255;stroke-linecap:butt;stroke-linejoin:miter;stroke:rgb(0%,0%,0%);stroke-opacity:1;stroke-miterlimit:10;" d="M -0.00071875 -0.00009375 L 69.79225 12.304594 " transform="matrix(1,0,0,-1,2.989,111.871)"/>
<path style="fill:none;stroke-width:1.99255;stroke-linecap:butt;stroke-linejoin:miter;stroke:rgb(0%,0%,0%);stroke-opacity:1;stroke-miterlimit:10;" d="M 54.288344 45.554594 L 124.077406 57.859281 " transform="matrix(1,0,0,-1,2.989,111.871)"/>
<path style="fill:none;stroke-width:1.99255;stroke-linecap:butt;stroke-linejoin:miter;stroke:rgb(39.99939%,39.99939%,39.99939%);stroke-opacity:1;stroke-miterlimit:10;" d="M 69.79225 12.304594 L 124.077406 57.859281 " transform="matrix(1,0,0,-1,2.989,111.871)"/>
<path style="fill:none;stroke-width:1.99255;stroke-linecap:butt;stroke-linejoin:miter;stroke:rgb(39.99939%,39.99939%,39.99939%);stroke-opacity:1;stroke-miterlimit:10;" d="M -0.00071875 -0.00009375 L 54.288344 45.554594 " transform="matrix(1,0,0,-1,2.989,111.871)"/>
<path style="fill:none;stroke-width:1.99255;stroke-linecap:butt;stroke-linejoin:miter;stroke:rgb(0%,0%,100%);stroke-opacity:1;stroke-miterlimit:10;" d="M -0.00071875 -0.00009375 L 124.077406 57.859281 " transform="matrix(1,0,0,-1,2.989,111.871)"/>
<path style="fill:none;stroke-width:1.99255;stroke-linecap:butt;stroke-linejoin:miter;stroke:rgb(0%,100%,0%);stroke-opacity:1;stroke-miterlimit:10;" d="M 54.288344 45.554594 L 69.79225 12.304594 " transform="matrix(1,0,0,-1,2.989,111.871)"/>
<path style="fill-rule:nonzero;fill:rgb(0%,0%,0%);fill-opacity:1;stroke-width:1.99255;stroke-linecap:butt;stroke-linejoin:miter;stroke:rgb(0%,0%,0%);stroke-opacity:1;stroke-miterlimit:10;" d="M 1.991469 -0.00009375 C 1.991469 1.101469 1.100844 1.992094 -0.00071875 1.992094 C -1.102281 1.992094 -1.992906 1.101469 -1.992906 -0.00009375 C -1.992906 -1.101656 -1.102281 -1.992281 -0.00071875 -1.992281 C 1.100844 -1.992281 1.991469 -1.101656 1.991469 -0.00009375 Z " transform="matrix(1,0,0,-1,2.989,111.871)"/>
<path style="fill-rule:nonzero;fill:rgb(0%,0%,0%);fill-opacity:1;stroke-width:1.99255;stroke-linecap:butt;stroke-linejoin:miter;stroke:rgb(0%,0%,0%);stroke-opacity:1;stroke-miterlimit:10;" d="M 71.784437 12.304594 C 71.784437 13.406156 70.889906 14.296781 69.79225 14.296781 C 68.690687 14.296781 67.800062 13.406156 67.800062 12.304594 C 67.800062 11.206938 68.690687 10.312406 69.79225 10.312406 C 70.889906 10.312406 71.784437 11.206938 71.784437 12.304594 Z " transform="matrix(1,0,0,-1,2.989,111.871)"/>
<path style="fill-rule:nonzero;fill:rgb(0%,0%,0%);fill-opacity:1;stroke-width:1.99255;stroke-linecap:butt;stroke-linejoin:miter;stroke:rgb(0%,0%,0%);stroke-opacity:1;stroke-miterlimit:10;" d="M 126.069594 57.859281 C 126.069594 58.960844 125.178969 59.851469 124.077406 59.851469 C 122.975844 59.851469 122.085219 58.960844 122.085219 57.859281 C 122.085219 56.757719 122.975844 55.867094 124.077406 55.867094 C 125.178969 55.867094 126.069594 56.757719 126.069594 57.859281 Z " transform="matrix(1,0,0,-1,2.989,111.871)"/>
<path style="fill-rule:nonzero;fill:rgb(0%,0%,0%);fill-opacity:1;stroke-width:1.99255;stroke-linecap:butt;stroke-linejoin:miter;stroke:rgb(0%,0%,0%);stroke-opacity:1;stroke-miterlimit:10;" d="M 56.280531 45.554594 C 56.280531 46.65225 55.386 47.546781 54.288344 47.546781 C 53.186781 47.546781 52.29225 46.65225 52.29225 45.554594 C 52.29225 44.453031 53.186781 43.5585 54.288344 43.5585 C 55.386 43.5585 56.280531 44.453031 56.280531 45.554594 Z " transform="matrix(1,0,0,-1,2.989,111.871)"/>
<path style="fill:none;stroke-width:1.99255;stroke-linecap:butt;stroke-linejoin:miter;stroke:rgb(0%,0%,0%);stroke-opacity:1;stroke-miterlimit:10;" d="M 54.288344 -5.47275 L -0.00071875 -51.023531 L 69.79225 -38.718844 " transform="matrix(1,0,0,-1,2.989,111.871)"/>
<path style="fill:none;stroke-width:1.99255;stroke-linecap:butt;stroke-linejoin:miter;stroke:rgb(39.99939%,39.99939%,39.99939%);stroke-opacity:1;stroke-miterlimit:10;" d="M 69.79225 -38.718844 L 124.077406 6.835844 " transform="matrix(1,0,0,-1,2.989,111.871)"/>
<path style="fill:none;stroke-width:1.99255;stroke-linecap:butt;stroke-linejoin:miter;stroke:rgb(59.999084%,59.999084%,59.999084%);stroke-opacity:1;stroke-miterlimit:10;" d="M 124.077406 6.835844 L 54.288344 -5.47275 " transform="matrix(1,0,0,-1,2.989,111.871)"/>
<path style="fill:none;stroke-width:1.99255;stroke-linecap:butt;stroke-linejoin:miter;stroke:rgb(0%,0%,100%);stroke-opacity:1;stroke-miterlimit:10;" d="M -0.00071875 -51.023531 L 62.038344 -22.093844 " transform="matrix(1,0,0,-1,2.989,111.871)"/>
<path style="fill:none;stroke-width:1.99255;stroke-linecap:butt;stroke-linejoin:miter;stroke:rgb(39.99939%,39.99939%,100%);stroke-opacity:1;stroke-miterlimit:10;" d="M 62.038344 -22.093844 L 124.077406 6.835844 " transform="matrix(1,0,0,-1,2.989,111.871)"/>
<path style="fill:none;stroke-width:1.99255;stroke-linecap:butt;stroke-linejoin:miter;stroke:rgb(0%,50%,0%);stroke-opacity:1;stroke-miterlimit:10;" d="M 54.288344 -5.47275 L 62.038344 -22.093844 " transform="matrix(1,0,0,-1,2.989,111.871)"/>
<path style="fill:none;stroke-width:1.99255;stroke-linecap:butt;stroke-linejoin:miter;stroke:rgb(0%,100%,0%);stroke-opacity:1;stroke-miterlimit:10;" d="M 62.038344 -22.093844 L 69.79225 -38.718844 " transform="matrix(1,0,0,-1,2.989,111.871)"/>
<path style="fill-rule:nonzero;fill:rgb(0%,0%,0%);fill-opacity:1;stroke-width:1.99255;stroke-linecap:butt;stroke-linejoin:miter;stroke:rgb(0%,0%,0%);stroke-opacity:1;stroke-miterlimit:10;" d="M 1.991469 -51.023531 C 1.991469 -49.921969 1.100844 -49.031344 -0.00071875 -49.031344 C -1.102281 -49.031344 -1.992906 -49.921969 -1.992906 -51.023531 C -1.992906 -52.125094 -1.102281 -53.015719 -0.00071875 -53.015719 C 1.100844 -53.015719 1.991469 -52.125094 1.991469 -51.023531 Z " transform="matrix(1,0,0,-1,2.989,111.871)"/>
<path style="fill-rule:nonzero;fill:rgb(0%,0%,0%);fill-opacity:1;stroke-width:1.99255;stroke-linecap:butt;stroke-linejoin:miter;stroke:rgb(0%,0%,0%);stroke-opacity:1;stroke-miterlimit:10;" d="M 71.784437 -38.718844 C 71.784437 -37.617281 70.889906 -36.726656 69.79225 -36.726656 C 68.690687 -36.726656 67.800062 -37.617281 67.800062 -38.718844 C 67.800062 -39.820406 68.690687 -40.711031 69.79225 -40.711031 C 70.889906 -40.711031 71.784437 -39.820406 71.784437 -38.718844 Z " transform="matrix(1,0,0,-1,2.989,111.871)"/>
<path style="fill-rule:nonzero;fill:rgb(0%,0%,0%);fill-opacity:1;stroke-width:1.99255;stroke-linecap:butt;stroke-linejoin:miter;stroke:rgb(0%,0%,0%);stroke-opacity:1;stroke-miterlimit:10;" d="M 126.069594 6.835844 C 126.069594 7.9335 125.178969 8.828031 124.077406 8.828031 C 122.975844 8.828031 122.085219 7.9335 122.085219 6.835844 C 122.085219 5.734281 122.975844 4.83975 124.077406 4.83975 C 125.178969 4.83975 126.069594 5.734281 126.069594 6.835844 Z " transform="matrix(1,0,0,-1,2.989,111.871)"/>
<path style="fill-rule:nonzero;fill:rgb(0%,0%,0%);fill-opacity:1;stroke-width:1.99255;stroke-linecap:butt;stroke-linejoin:miter;stroke:rgb(0%,0%,0%);stroke-opacity:1;stroke-miterlimit:10;" d="M 56.280531 -5.47275 C 56.280531 -4.371187 55.386 -3.480562 54.288344 -3.480562 C 53.186781 -3.480562 52.29225 -4.371187 52.29225 -5.47275 C 52.29225 -6.570406 53.186781 -7.464937 54.288344 -7.464937 C 55.386 -7.464937 56.280531 -6.570406 56.280531 -5.47275 Z " transform="matrix(1,0,0,-1,2.989,111.871)"/>
</g>
</svg>
