<?xml version="1.0" encoding="UTF-8"?>
<svg xmlns="http://www.w3.org/2000/svg" xmlns:xlink="http://www.w3.org/1999/xlink" width="154.277pt" height="169.453pt" viewBox="0 0 154.277 169.453" version="1.1">
<g id="surface1">
<path style="fill:none;stroke-width:1.99255;stroke-linecap:butt;stroke-linejoin:miter;stroke:rgb(0%,0%,100%);stroke-opacity:1;stroke-miterlimit:10;" d="M -0.00071875 51.023031 L 125.624281 73.175375 " transform="matrix(1,0,0,-1,2.989,115.441)"/>
<path style="fill:none;stroke-width:1.99255;stroke-linecap:butt;stroke-linejoin:miter;stroke:rgb(0%,0%,100%);stroke-opacity:1;stroke-miterlimit:10;" d="M 148.300062 112.452719 L 22.678969 90.304281 " transform="matrix(1,0,0,-1,2.989,115.441)"/>
<path style="fill:none;stroke-width:1.99255;stroke-linecap:butt;stroke-linejoin:miter;stroke:rgb(0%,100%,0%);stroke-opacity:1;stroke-miterlimit:10;" d="M 125.624281 73.175375 L 148.300062 112.452719 " transform="matrix(1,0,0,-1,2.989,115.441)"/>
<path style="fill:none;stroke-width:1.99255;stroke-linecap:butt;stroke-linejoin:miter;stroke:rgb(0%,100%,0%);stroke-opacity:1;stroke-miterlimit:10;" d="M 22.678969 90.304281 L -0.00071875 51.023031 " transform="matrix(1,0,0,-1,2.989,115.441)"/>
<path style="fill-rule:nonzero;fill:rgb(0%,0%,0%);fill-opacity:1;stroke-width:1.99255;stroke-linecap:butt;stroke-linejoin:miter;stroke:rgb(0%,0%,0%);stroke-opacity:1;stroke-miterlimit:10;" d="M 1.991469 51.023031 C 1.991469 52.124594 1.100844 53.015219 -0.00071875 53.015219 C -1.102281 53.015219 -1.992906 52.124594 -1.992906 51.023031 C -1.992906 49.925375 -1.102281 49.030844 -0.00071875 49.030844 C 1.100844 49.030844 1.991469 49.925375 1.991469 51.023031 Z " transform="matrix(1,0,0,-1,2.989,115.441)"/>
<path style="fill-rule:nonzero;fill:rgb(0%,0%,0%);fill-opacity:1;stroke-width:1.99255;stroke-linecap:butt;stroke-linejoin:miter;stroke:rgb(0%,0%,0%);stroke-opacity:1;stroke-miterlimit:10;" d="M 127.616469 73.175375 C 127.616469 74.276938 126.725844 75.167563 125.624281 75.167563 C 124.522719 75.167563 123.632094 74.276938 123.632094 73.175375 C 123.632094 72.073813 124.522719 71.183188 125.624281 71.183188 C 126.725844 71.183188 127.616469 72.073813 127.616469 73.175375 Z " transform="matrix(1,0,0,-1,2.989,115.441)"/>
<path style="fill-rule:nonzero;fill:rgb(0%,0%,0%);fill-opacity:1;stroke-width:1.99255;stroke-linecap:butt;stroke-linejoin:miter;stroke:rgb(0%,0%,0%);stroke-opacity:1;stroke-miterlimit:10;" d="M 150.29225 112.452719 C 150.29225 113.554281 149.401625 114.444906 148.300062 114.444906 C 147.202406 114.444906 146.307875 113.554281 146.307875 112.452719 C 146.307875 111.351156 147.202406 110.460531 148.300062 110.460531 C 149.401625 110.460531 150.29225 111.351156 150.29225 112.452719 Z " transform="matrix(1,0,0,-1,2.989,115.441)"/>
<path style="fill-rule:nonzero;fill:rgb(0%,0%,0%);fill-opacity:1;stroke-width:1.99255;stroke-linecap:butt;stroke-linejoin:miter;stroke:rgb(0%,0%,0%);stroke-opacity:1;stroke-miterlimit:10;" d="M 24.671156 90.304281 C 24.671156 91.401938 23.776625 92.296469 22.678969 92.296469 C 21.577406 92.296469 20.686781 91.401938 20.686781 90.304281 C 20.686781 89.202719 21.577406 88.312094 22.678969 88.312094 C 23.776625 88.312094 24.671156 89.202719 24.671156 90.304281 Z " transform="matrix(1,0,0,-1,2.989,115.441)"/>
<path style="fill:none;stroke-width:1.99255;stroke-linecap:butt;stroke-linejoin:miter;stroke:rgb(100%,0%,0%);stroke-opacity:1;stroke-miterlimit:10;" d="M 25.124281 4.429281 C 23.815687 11.855063 19.284437 18.323813 12.757094 22.093344 " transform="matrix(1,0,0,-1,2.989,115.441)"/>
<path style="fill:none;stroke-width:1.99255;stroke-linecap:butt;stroke-linejoin:miter;stroke:rgb(100%,0%,0%);stroke-opacity:1;stroke-miterlimit:10;" d="M 123.178969 56.999594 C 124.487562 49.573813 129.014906 43.105063 135.546156 39.335531 " transform="matrix(1,0,0,-1,2.989,115.441)"/>
<path style="fill:none;stroke-width:1.99255;stroke-linecap:butt;stroke-linejoin:miter;stroke:rgb(100%,50%,0%);stroke-opacity:1;stroke-miterlimit:10;" d="M 130.159437 30.007406 C 125.819594 32.511313 120.272719 31.023031 117.768812 26.687094 C 116.702406 24.839438 116.319594 22.675375 116.690687 20.573813 " transform="matrix(1,0,0,-1,2.989,115.441)"/>
<path style="fill:none;stroke-width:1.99255;stroke-linecap:butt;stroke-linejoin:miter;stroke:rgb(100%,50%,0%);stroke-opacity:1;stroke-miterlimit:10;" d="M 18.143812 31.421469 C 22.47975 28.917563 28.030531 30.405844 30.534437 34.741781 C 31.600844 36.589438 31.97975 38.7535 31.612562 40.855063 " transform="matrix(1,0,0,-1,2.989,115.441)"/>
<path style="fill:none;stroke-width:1.99255;stroke-linecap:butt;stroke-linejoin:miter;stroke:rgb(50%,50%,50%);stroke-opacity:1;stroke-miterlimit:10;" d="M -0.00071875 -0.00040625 L 125.624281 22.151938 L 148.300062 61.429281 L 22.678969 39.276938 Z " transform="matrix(1,0,0,-1,2.989,115.441)"/>
<path style="fill-rule:nonzero;fill:rgb(0%,0%,0%);fill-opacity:1;stroke-width:1.99255;stroke-linecap:butt;stroke-linejoin:miter;stroke:rgb(0%,0%,0%);stroke-opacity:1;stroke-miterlimit:10;" d="M 1.991469 -0.00040625 C 1.991469 1.101156 1.100844 1.991781 -0.00071875 1.991781 C -1.102281 1.991781 -1.992906 1.101156 -1.992906 -0.00040625 C -1.992906 -1.101969 -1.102281 -1.992594 -0.00071875 -1.992594 C 1.100844 -1.992594 1.991469 -1.101969 1.991469 -0.00040625 Z " transform="matrix(1,0,0,-1,2.989,115.441)"/>
<path style="fill-rule:nonzero;fill:rgb(0%,0%,0%);fill-opacity:1;stroke-width:1.99255;stroke-linecap:butt;stroke-linejoin:miter;stroke:rgb(0%,0%,0%);stroke-opacity:1;stroke-miterlimit:10;" d="M 127.616469 22.151938 C 127.616469 23.249594 126.725844 24.144125 125.624281 24.144125 C 124.522719 24.144125 123.632094 23.249594 123.632094 22.151938 C 123.632094 21.050375 124.522719 20.155844 125.624281 20.155844 C 126.725844 20.155844 127.616469 21.050375 127.616469 22.151938 Z " transform="matrix(1,0,0,-1,2.989,115.441)"/>
<path style="fill-rule:nonzero;fill:rgb(0%,0%,0%);fill-opacity:1;stroke-width:1.99255;stroke-linecap:butt;stroke-linejoin:miter;stroke:rgb(0%,0%,0%);stroke-opacity:1;stroke-miterlimit:10;" d="M 150.29225 61.429281 C 150.29225 62.530844 149.401625 63.421469 148.300062 63.421469 C 147.202406 63.421469 146.307875 62.530844 146.307875 61.429281 C 146.307875 60.327719 147.202406 59.437094 148.300062 59.437094 C 149.401625 59.437094 150.29225 60.327719 150.29225 61.429281 Z " transform="matrix(1,0,0,-1,2.989,115.441)"/>
<path style="fill-rule:nonzero;fill:rgb(0%,0%,0%);fill-opacity:1;stroke-width:1.99255;stroke-linecap:butt;stroke-linejoin:miter;stroke:rgb(0%,0%,0%);stroke-opacity:1;stroke-miterlimit:10;" d="M 24.671156 39.276938 C 24.671156 40.3785 23.776625 41.273031 22.678969 41.273031 C 21.577406 41.273031 20.686781 40.3785 20.686781 39.276938 C 20.686781 38.179281 21.577406 37.28475 22.678969 37.28475 C 23.776625 37.28475 24.671156 38.179281 24.671156 39.276938 Z " transform="matrix(1,0,0,-1,2.989,115.441)"/>
<path style="fill:none;stroke-width:1.99255;stroke-linecap:butt;stroke-linejoin:miter;stroke:rgb(39.99939%,39.99939%,39.99939%);stroke-opacity:1;stroke-miterlimit:10;" d="M -0.00071875 -51.023844 L 125.624281 -28.875406 L 148.300062 10.405844 L 22.678969 -11.7465 Z " transform="matrix(1,0,0,-1,2.989,115.441)"/>
<path style="fill:none;stroke-width:1.99255;stroke-linecap:butt;stroke-linejoin:miter;stroke:rgb(0%,0%,100%);stroke-opacity:1;stroke-miterlimit:10;" d="M -0.00071875 -51.023844 L 74.151625 -20.309 " transform="matrix(1,0,0,-1,2.989,115.441)"/>
<path style="fill:none;stroke-width:1.99255;stroke-linecap:butt;stroke-linejoin:miter;stroke:rgb(0%,0%,100%);stroke-opacity:1;stroke-miterlimit:10;" d="M -0.00071875 -51.023844 L 74.151625 -20.309 " transform="matrix(1,0,0,-1,2.989,115.441)"/>
<path style="fill:none;stroke-width:1.99255;stroke-linecap:butt;stroke-linejoin:miter;stroke:rgb(39.99939%,39.99939%,100%);stroke-opacity:1;stroke-miterlimit:10;" d="M 74.151625 -20.309 L 148.300062 10.405844 " transform="matrix(1,0,0,-1,2.989,115.441)"/>
<path style="fill:none;stroke-width:1.99255;stroke-linecap:butt;stroke-linejoin:miter;stroke:rgb(0%,59.999084%,0%);stroke-opacity:1;stroke-miterlimit:10;" d="M 22.678969 -11.7465 L 74.151625 -20.309 " transform="matrix(1,0,0,-1,2.989,115.441)"/>
<path style="fill:none;stroke-width:1.99255;stroke-linecap:butt;stroke-linejoin:miter;stroke:rgb(39.99939%,100%,39.99939%);stroke-opacity:1;stroke-miterlimit:10;" d="M 74.151625 -20.309 L 125.624281 -28.875406 " transform="matrix(1,0,0,-1,2.989,115.441)"/>
<path style="fill-rule:nonzero;fill:rgb(0%,0%,0%);fill-opacity:1;stroke-width:1.99255;stroke-linecap:butt;stroke-linejoin:miter;stroke:rgb(0%,0%,0%);stroke-opacity:1;stroke-miterlimit:10;" d="M 1.991469 -51.023844 C 1.991469 -49.922281 1.100844 -49.031656 -0.00071875 -49.031656 C -1.102281 -49.031656 -1.992906 -49.922281 -1.992906 -51.023844 C -1.992906 -52.125406 -1.102281 -53.016031 -0.00071875 -53.016031 C 1.100844 -53.016031 1.991469 -52.125406 1.991469 -51.023844 Z " transform="matrix(1,0,0,-1,2.989,115.441)"/>
<path style="fill-rule:nonzero;fill:rgb(0%,0%,0%);fill-opacity:1;stroke-width:1.99255;stroke-linecap:butt;stroke-linejoin:miter;stroke:rgb(0%,0%,0%);stroke-opacity:1;stroke-miterlimit:10;" d="M 127.616469 -28.875406 C 127.616469 -27.773844 126.725844 -26.883219 125.624281 -26.883219 C 124.522719 -26.883219 123.632094 -27.773844 123.632094 -28.875406 C 123.632094 -29.973062 124.522719 -30.867594 125.624281 -30.867594 C 126.725844 -30.867594 127.616469 -29.973062 127.616469 -28.875406 Z " transform="matrix(1,0,0,-1,2.989,115.441)"/>
<path style="fill-rule:nonzero;fill:rgb(0%,0%,0%);fill-opacity:1;stroke-width:1.99255;stroke-linecap:butt;stroke-linejoin:miter;stroke:rgb(0%,0%,0%);stroke-opacity:1;stroke-miterlimit:10;" d="M 150.29225 10.405844 C 150.29225 11.5035 149.401625 12.398031 148.300062 12.398031 C 147.202406 12.398031 146.307875 11.5035 146.307875 10.405844 C 146.307875 9.304281 147.202406 8.413656 148.300062 8.413656 C 149.401625 8.413656 150.29225 9.304281 150.29225 10.405844 Z " transform="matrix(1,0,0,-1,2.989,115.441)"/>
<path style="fill-rule:nonzero;fill:rgb(0%,0%,0%);fill-opacity:1;stroke-width:1.99255;stroke-linecap:butt;stroke-linejoin:miter;stroke:rgb(0%,0%,0%);stroke-opacity:1;stroke-miterlimit:10;" d="M 24.671156 -11.7465 C 24.671156 -10.644937 23.776625 -9.754312 22.678969 -9.754312 C 21.577406 -9.754312 20.686781 -10.644937 20.686781 -11.7465 C 20.686781 -12.844156 21.577406 -13.738687 22.678969 -13.738687 C 23.776625 -13.738687 24.671156 -12.844156 24.671156 -11.7465 Z " transform="matrix(1,0,0,-1,2.989,115.441)"/>
</g>
</svg>
