<?xml version="1.0" encoding="UTF-8"?>
<svg xmlns="http://www.w3.org/2000/svg" xmlns:xlink="http://www.w3.org/1999/xlink" width="170.477pt" height="147.691pt" viewBox="0 0 170.477 147.691" version="1.1">
<defs>
<clipPath id="clip1">
  <path d="M 37 0 L 170.476562 0 L 170.476562 147.691406 L 37 147.691406 Z M 37 0 "/>
</clipPath>
<clipPath id="clip2">
  <path d="M 0 0 L 134 0 L 134 147.691406 L 0 147.691406 Z M 0 0 "/>
</clipPath>
</defs>
<g id="surface1">
<g clip-path="url(#clip1)" clip-rule="nonzero">
<path style="fill:none;stroke-width:0.3985;stroke-linecap:butt;stroke-linejoin:miter;stroke:rgb(0%,0%,0%);stroke-opacity:1;stroke-miterlimit:10;" d="M -0.00025 -0.0001875 L 127.56225 73.64825 L -0.00025 147.292781 Z M -0.00025 -0.0001875 " transform="matrix(1,0,0,-1,42.719,147.492)"/>
</g>
<g clip-path="url(#clip2)" clip-rule="nonzero">
<path style="fill:none;stroke-width:0.3985;stroke-linecap:butt;stroke-linejoin:miter;stroke:rgb(0%,0%,0%);stroke-opacity:1;stroke-miterlimit:10;" d="M 85.038813 -0.0001875 L 85.038813 147.292781 L -42.519781 73.64825 Z M 85.038813 -0.0001875 " transform="matrix(1,0,0,-1,42.719,147.492)"/>
</g>
<path style="fill:none;stroke-width:0.3985;stroke-linecap:butt;stroke-linejoin:miter;stroke:rgb(0%,0%,0%);stroke-opacity:1;stroke-miterlimit:10;" d="M 42.523187 24.550594 L 42.523187 122.749812 " transform="matrix(1,0,0,-1,42.719,147.492)"/>
<path style="fill:none;stroke-width:0.3985;stroke-linecap:butt;stroke-linejoin:miter;stroke:rgb(0%,0%,0%);stroke-opacity:1;stroke-miterlimit:10;" d="M 85.046625 49.101375 L -0.00025 98.202937 " transform="matrix(1,0,0,-1,42.719,147.492)"/>
<path style="fill:none;stroke-width:0.3985;stroke-linecap:butt;stroke-linejoin:miter;stroke:rgb(0%,0%,0%);stroke-opacity:1;stroke-miterlimit:10;" d="M 85.046625 98.202937 L -0.00025 49.101375 " transform="matrix(1,0,0,-1,42.719,147.492)"/>
</g>
</svg>
