<?xml version="1.0" encoding="UTF-8"?>
<svg xmlns="http://www.w3.org/2000/svg" xmlns:xlink="http://www.w3.org/1999/xlink" width="358.162pt" height="97.059pt" viewBox="0 0 358.162 97.059" version="1.1">
<g id="surface1">
<path style="fill:none;stroke-width:1;stroke-linecap:butt;stroke-linejoin:miter;stroke:rgb(0%,0%,0%);stroke-opacity:1;stroke-miterlimit:10;" d="M -170.081 -0.00153125 L -127.561469 73.646906 L -85.041938 -0.00153125 L -42.5185 73.646906 L 0.00103125 -0.00153125 L 42.520562 73.646906 L 85.040094 -0.00153125 L 127.559625 73.646906 L 170.079156 -0.00153125 " transform="matrix(1,0,0,-1,179.081,74.643)"/>
<path style="fill:none;stroke-width:1.99255;stroke-linecap:butt;stroke-linejoin:miter;stroke:rgb(0%,0%,0%);stroke-opacity:1;stroke-miterlimit:10;" d="M -170.081 -0.00153125 L 170.079156 -0.00153125 " transform="matrix(1,0,0,-1,179.081,74.643)"/>
<path style="fill:none;stroke-width:1.99255;stroke-linecap:butt;stroke-linejoin:miter;stroke:rgb(0%,0%,0%);stroke-opacity:1;stroke-miterlimit:10;" d="M -127.561469 73.646906 L 127.559625 73.646906 " transform="matrix(1,0,0,-1,179.081,74.643)"/>
<path style="fill:none;stroke-width:1;stroke-linecap:butt;stroke-linejoin:miter;stroke:rgb(0%,0%,0%);stroke-opacity:1;stroke-miterlimit:10;" d="M -178.584906 -14.173406 L -161.577094 -14.173406 " transform="matrix(1,0,0,-1,179.081,74.643)"/>
<path style="fill:none;stroke-width:1;stroke-linecap:butt;stroke-linejoin:miter;stroke:rgb(0%,0%,0%);stroke-opacity:1;stroke-miterlimit:10;" d="M -175.748969 -14.173406 L -170.081 -4.353094 L -164.413031 -14.173406 " transform="matrix(1,0,0,-1,179.081,74.643)"/>
<path style="fill:none;stroke-width:1;stroke-linecap:butt;stroke-linejoin:miter;stroke:rgb(0%,0%,0%);stroke-opacity:1;stroke-miterlimit:10;" d="M -168.096625 -2.087469 C -168.096625 -0.989812 -168.983344 -0.103094 -170.081 -0.103094 C -171.178656 -0.103094 -172.065375 -0.989812 -172.065375 -2.087469 C -172.065375 -3.181219 -171.178656 -4.071844 -170.081 -4.071844 C -168.983344 -4.071844 -168.096625 -3.181219 -168.096625 -2.087469 Z " transform="matrix(1,0,0,-1,179.081,74.643)"/>
<path style="fill:none;stroke-width:1;stroke-linecap:butt;stroke-linejoin:miter;stroke:rgb(0%,0%,0%);stroke-opacity:1;stroke-miterlimit:10;" d="M -175.748969 -14.173406 L -178.584906 -19.083562 " transform="matrix(1,0,0,-1,179.081,74.643)"/>
<path style="fill:none;stroke-width:1;stroke-linecap:butt;stroke-linejoin:miter;stroke:rgb(0%,0%,0%);stroke-opacity:1;stroke-miterlimit:10;" d="M -172.916938 -14.173406 L -175.748969 -19.083562 " transform="matrix(1,0,0,-1,179.081,74.643)"/>
<path style="fill:none;stroke-width:1;stroke-linecap:butt;stroke-linejoin:miter;stroke:rgb(0%,0%,0%);stroke-opacity:1;stroke-miterlimit:10;" d="M -170.081 -14.173406 L -172.916938 -19.083562 " transform="matrix(1,0,0,-1,179.081,74.643)"/>
<path style="fill:none;stroke-width:1;stroke-linecap:butt;stroke-linejoin:miter;stroke:rgb(0%,0%,0%);stroke-opacity:1;stroke-miterlimit:10;" d="M -167.245063 -14.173406 L -170.081 -19.083562 " transform="matrix(1,0,0,-1,179.081,74.643)"/>
<path style="fill:none;stroke-width:1;stroke-linecap:butt;stroke-linejoin:miter;stroke:rgb(0%,0%,0%);stroke-opacity:1;stroke-miterlimit:10;" d="M -164.413031 -14.173406 L -167.245063 -19.083562 " transform="matrix(1,0,0,-1,179.081,74.643)"/>
<path style="fill:none;stroke-width:1;stroke-linecap:butt;stroke-linejoin:miter;stroke:rgb(0%,0%,0%);stroke-opacity:1;stroke-miterlimit:10;" d="M -161.577094 -14.173406 L -164.413031 -19.083562 " transform="matrix(1,0,0,-1,179.081,74.643)"/>
<path style="fill:none;stroke-width:1;stroke-linecap:butt;stroke-linejoin:miter;stroke:rgb(0%,0%,0%);stroke-opacity:1;stroke-miterlimit:10;" d="M 161.57525 -14.173406 L 178.586969 -14.173406 " transform="matrix(1,0,0,-1,179.081,74.643)"/>
<path style="fill:none;stroke-width:1;stroke-linecap:butt;stroke-linejoin:miter;stroke:rgb(0%,0%,0%);stroke-opacity:1;stroke-miterlimit:10;" d="M 164.411187 -14.173406 L 170.079156 -4.353094 L 175.751031 -14.173406 " transform="matrix(1,0,0,-1,179.081,74.643)"/>
<path style="fill:none;stroke-width:1;stroke-linecap:butt;stroke-linejoin:miter;stroke:rgb(0%,0%,0%);stroke-opacity:1;stroke-miterlimit:10;" d="M 172.063531 -2.087469 C 172.063531 -0.989812 171.176812 -0.103094 170.079156 -0.103094 C 168.985406 -0.103094 168.094781 -0.989812 168.094781 -2.087469 C 168.094781 -3.181219 168.985406 -4.071844 170.079156 -4.071844 C 171.176812 -4.071844 172.063531 -3.181219 172.063531 -2.087469 Z " transform="matrix(1,0,0,-1,179.081,74.643)"/>
<path style="fill:none;stroke-width:1;stroke-linecap:butt;stroke-linejoin:miter;stroke:rgb(0%,0%,0%);stroke-opacity:1;stroke-miterlimit:10;" d="M 161.57525 -17.009344 L 178.586969 -17.009344 " transform="matrix(1,0,0,-1,179.081,74.643)"/>
<path style="fill:none;stroke-width:1;stroke-linecap:butt;stroke-linejoin:miter;stroke:rgb(0%,0%,0%);stroke-opacity:1;stroke-miterlimit:10;" d="M 164.411187 -17.009344 L 161.579156 -21.9195 " transform="matrix(1,0,0,-1,179.081,74.643)"/>
<path style="fill:none;stroke-width:1;stroke-linecap:butt;stroke-linejoin:miter;stroke:rgb(0%,0%,0%);stroke-opacity:1;stroke-miterlimit:10;" d="M 167.247125 -17.009344 L 164.411187 -21.9195 " transform="matrix(1,0,0,-1,179.081,74.643)"/>
<path style="fill:none;stroke-width:1;stroke-linecap:butt;stroke-linejoin:miter;stroke:rgb(0%,0%,0%);stroke-opacity:1;stroke-miterlimit:10;" d="M 170.079156 -17.009344 L 167.247125 -21.9195 " transform="matrix(1,0,0,-1,179.081,74.643)"/>
<path style="fill:none;stroke-width:1;stroke-linecap:butt;stroke-linejoin:miter;stroke:rgb(0%,0%,0%);stroke-opacity:1;stroke-miterlimit:10;" d="M 172.915094 -17.009344 L 170.083062 -21.9195 " transform="matrix(1,0,0,-1,179.081,74.643)"/>
<path style="fill:none;stroke-width:1;stroke-linecap:butt;stroke-linejoin:miter;stroke:rgb(0%,0%,0%);stroke-opacity:1;stroke-miterlimit:10;" d="M 175.751031 -17.009344 L 172.915094 -21.9195 " transform="matrix(1,0,0,-1,179.081,74.643)"/>
<path style="fill:none;stroke-width:1;stroke-linecap:butt;stroke-linejoin:miter;stroke:rgb(0%,0%,0%);stroke-opacity:1;stroke-miterlimit:10;" d="M 178.586969 -17.009344 L 175.751031 -21.9195 " transform="matrix(1,0,0,-1,179.081,74.643)"/>
</g>
</svg>
