<?xml version="1.0" encoding="UTF-8"?>
<svg xmlns="http://www.w3.org/2000/svg" xmlns:xlink="http://www.w3.org/1999/xlink" width="356.821pt" height="174.064pt" viewBox="0 0 356.821 174.064" version="1.1">
<defs>
<clipPath id="clip1">
  <path d="M 257 2 L 356.820312 2 L 356.820312 172 L 257 172 Z M 257 2 "/>
</clipPath>
<clipPath id="clip2">
  <path d="M 257 0 L 356.820312 0 L 356.820312 174.0625 L 257 174.0625 Z M 257 0 "/>
</clipPath>
<clipPath id="clip3">
  <path d="M 255 156 L 287 156 L 287 174.0625 L 255 174.0625 Z M 255 156 "/>
</clipPath>
</defs>
<g id="surface1">
<path style="fill:none;stroke-width:0.99628;stroke-linecap:butt;stroke-linejoin:miter;stroke:rgb(50%,50%,50%);stroke-opacity:1;stroke-dasharray:2.98883,2.98883;stroke-miterlimit:10;" d="M -63.781344 -42.518781 L 63.781156 -42.518781 L 63.781156 42.520281 L -63.781344 42.520281 Z M -63.781344 -42.518781 " transform="matrix(1,0,0,-1,207.504,87.032)"/>
<path style="fill:none;stroke-width:0.99628;stroke-linecap:butt;stroke-linejoin:miter;stroke:rgb(50%,50%,50%);stroke-opacity:1;stroke-dasharray:2.98883,2.98883;stroke-miterlimit:10;" d="M -63.781344 -49.608625 L 63.781156 -49.608625 " transform="matrix(1,0,0,-1,207.504,87.032)"/>
<path style="fill:none;stroke-width:0.99628;stroke-linecap:butt;stroke-linejoin:miter;stroke:rgb(50%,50%,50%);stroke-opacity:1;stroke-dasharray:2.98883,2.98883;stroke-miterlimit:10;" d="M -63.781344 -56.694563 L 63.781156 -56.694563 " transform="matrix(1,0,0,-1,207.504,87.032)"/>
<path style="fill:none;stroke-width:0.99628;stroke-linecap:butt;stroke-linejoin:miter;stroke:rgb(50%,50%,50%);stroke-opacity:1;stroke-dasharray:2.98883,2.98883;stroke-miterlimit:10;" d="M -63.781344 -63.7805 L 63.781156 -63.7805 " transform="matrix(1,0,0,-1,207.504,87.032)"/>
<path style="fill:none;stroke-width:0.99628;stroke-linecap:butt;stroke-linejoin:miter;stroke:rgb(50%,50%,50%);stroke-opacity:1;stroke-dasharray:2.98883,2.98883;stroke-miterlimit:10;" d="M -63.781344 -70.866438 L 63.781156 -70.866438 " transform="matrix(1,0,0,-1,207.504,87.032)"/>
<path style="fill:none;stroke-width:0.99628;stroke-linecap:butt;stroke-linejoin:miter;stroke:rgb(50%,50%,50%);stroke-opacity:1;stroke-dasharray:2.98883,2.98883;stroke-miterlimit:10;" d="M -63.781344 49.606219 L 63.781156 49.606219 " transform="matrix(1,0,0,-1,207.504,87.032)"/>
<path style="fill:none;stroke-width:0.99628;stroke-linecap:butt;stroke-linejoin:miter;stroke:rgb(50%,50%,50%);stroke-opacity:1;stroke-dasharray:2.98883,2.98883;stroke-miterlimit:10;" d="M -63.781344 56.692156 L 63.781156 56.692156 " transform="matrix(1,0,0,-1,207.504,87.032)"/>
<path style="fill:none;stroke-width:0.99628;stroke-linecap:butt;stroke-linejoin:miter;stroke:rgb(50%,50%,50%);stroke-opacity:1;stroke-dasharray:2.98883,2.98883;stroke-miterlimit:10;" d="M -63.781344 63.782 L 63.781156 63.782 " transform="matrix(1,0,0,-1,207.504,87.032)"/>
<path style="fill:none;stroke-width:0.99628;stroke-linecap:butt;stroke-linejoin:miter;stroke:rgb(50%,50%,50%);stroke-opacity:1;stroke-dasharray:2.98883,2.98883;stroke-miterlimit:10;" d="M -63.781344 70.867937 L 63.781156 70.867937 " transform="matrix(1,0,0,-1,207.504,87.032)"/>
<path style="fill:none;stroke-width:0.99628;stroke-linecap:butt;stroke-linejoin:miter;stroke:rgb(50%,50%,50%);stroke-opacity:1;stroke-dasharray:2.98883,2.98883;stroke-miterlimit:10;" d="M -205.515719 70.867937 L -134.648531 0.00075 L -134.648531 70.867937 Z M -205.515719 70.867937 " transform="matrix(1,0,0,-1,207.504,87.032)"/>
<path style="fill:none;stroke-width:0.99628;stroke-linecap:butt;stroke-linejoin:miter;stroke:rgb(50%,50%,50%);stroke-opacity:1;stroke-dasharray:2.98883,2.98883;stroke-miterlimit:10;" d="M -191.339937 70.867937 L -134.648531 14.172625 " transform="matrix(1,0,0,-1,207.504,87.032)"/>
<path style="fill:none;stroke-width:0.99628;stroke-linecap:butt;stroke-linejoin:miter;stroke:rgb(50%,50%,50%);stroke-opacity:1;stroke-dasharray:2.98883,2.98883;stroke-miterlimit:10;" d="M -177.168062 70.867937 L -134.648531 28.348406 " transform="matrix(1,0,0,-1,207.504,87.032)"/>
<path style="fill:none;stroke-width:0.99628;stroke-linecap:butt;stroke-linejoin:miter;stroke:rgb(50%,50%,50%);stroke-opacity:1;stroke-dasharray:2.98883,2.98883;stroke-miterlimit:10;" d="M -162.992281 70.867937 L -134.648531 42.520281 " transform="matrix(1,0,0,-1,207.504,87.032)"/>
<path style="fill:none;stroke-width:0.99628;stroke-linecap:butt;stroke-linejoin:miter;stroke:rgb(50%,50%,50%);stroke-opacity:1;stroke-dasharray:2.98883,2.98883;stroke-miterlimit:10;" d="M -148.820406 70.867937 L -134.648531 56.692156 " transform="matrix(1,0,0,-1,207.504,87.032)"/>
<path style="fill:none;stroke-width:0.99628;stroke-linecap:butt;stroke-linejoin:miter;stroke:rgb(50%,50%,50%);stroke-opacity:1;stroke-dasharray:2.98883,2.98883;stroke-miterlimit:10;" d="M -63.781344 49.606219 C -91.175875 49.606219 -113.386812 27.399187 -113.386812 0.00075 C -113.386812 -27.397688 -91.175875 -49.608625 -63.781344 -49.608625 " transform="matrix(1,0,0,-1,207.504,87.032)"/>
<path style="fill:none;stroke-width:0.99628;stroke-linecap:butt;stroke-linejoin:miter;stroke:rgb(50%,50%,50%);stroke-opacity:1;stroke-dasharray:2.98883,2.98883;stroke-miterlimit:10;" d="M -63.781344 56.692156 C -95.089937 56.692156 -120.47275 31.31325 -120.47275 0.00075 C -120.47275 -31.31175 -95.089937 -56.694563 -63.781344 -56.694563 " transform="matrix(1,0,0,-1,207.504,87.032)"/>
<path style="fill:none;stroke-width:0.99628;stroke-linecap:butt;stroke-linejoin:miter;stroke:rgb(50%,50%,50%);stroke-opacity:1;stroke-dasharray:2.98883,2.98883;stroke-miterlimit:10;" d="M -63.781344 63.782 C -99.004 63.782 -127.558687 35.223406 -127.558687 0.00075 C -127.558687 -35.225813 -99.004 -63.7805 -63.781344 -63.7805 " transform="matrix(1,0,0,-1,207.504,87.032)"/>
<path style="fill:none;stroke-width:0.99628;stroke-linecap:butt;stroke-linejoin:miter;stroke:rgb(50%,50%,50%);stroke-opacity:1;stroke-dasharray:2.98883,2.98883;stroke-miterlimit:10;" d="M -63.781344 70.867937 C -102.918062 70.867937 -134.648531 39.137469 -134.648531 0.00075 C -134.648531 -39.139875 -102.918062 -70.866438 -63.781344 -70.866438 " transform="matrix(1,0,0,-1,207.504,87.032)"/>
<path style="fill:none;stroke-width:0.99628;stroke-linecap:butt;stroke-linejoin:miter;stroke:rgb(50%,50%,50%);stroke-opacity:1;stroke-dasharray:2.98883,2.98883;stroke-miterlimit:10;" d="M 63.781156 -49.608625 C 91.179594 -49.608625 113.386625 -27.397688 113.386625 0.00075 C 113.386625 27.399187 91.179594 49.606219 63.781156 49.606219 " transform="matrix(1,0,0,-1,207.504,87.032)"/>
<path style="fill:none;stroke-width:0.99628;stroke-linecap:butt;stroke-linejoin:miter;stroke:rgb(50%,50%,50%);stroke-opacity:1;stroke-dasharray:2.98883,2.98883;stroke-miterlimit:10;" d="M 63.781156 -56.694563 C 95.093656 -56.694563 120.472563 -31.31175 120.472563 0.00075 C 120.472563 31.31325 95.093656 56.692156 63.781156 56.692156 " transform="matrix(1,0,0,-1,207.504,87.032)"/>
<path style="fill:none;stroke-width:0.99628;stroke-linecap:butt;stroke-linejoin:miter;stroke:rgb(50%,50%,50%);stroke-opacity:1;stroke-dasharray:2.98883,2.98883;stroke-miterlimit:10;" d="M 63.781156 -63.7805 C 99.003813 -63.7805 127.562406 -35.225813 127.562406 0.00075 C 127.562406 35.227312 99.003813 63.782 63.781156 63.782 " transform="matrix(1,0,0,-1,207.504,87.032)"/>
<g clip-path="url(#clip1)" clip-rule="nonzero">
<path style="fill:none;stroke-width:0.99628;stroke-linecap:butt;stroke-linejoin:miter;stroke:rgb(50%,50%,50%);stroke-opacity:1;stroke-dasharray:2.98883,2.98883;stroke-miterlimit:10;" d="M 63.781156 -70.866438 C 102.917875 -70.866438 134.648344 -39.139875 134.648344 0.00075 C 134.648344 39.137469 102.917875 70.867937 63.781156 70.867937 " transform="matrix(1,0,0,-1,207.504,87.032)"/>
</g>
<g clip-path="url(#clip2)" clip-rule="nonzero">
<path style="fill:none;stroke-width:0.99628;stroke-linecap:butt;stroke-linejoin:miter;stroke:rgb(50%,50%,50%);stroke-opacity:1;stroke-dasharray:2.98883,2.98883;stroke-miterlimit:10;" d="M 63.781156 -85.042219 C 110.746 -85.042219 148.820219 -46.968 148.820219 0.00075 C 148.820219 46.965594 110.746 85.039812 63.781156 85.039812 " transform="matrix(1,0,0,-1,207.504,87.032)"/>
</g>
<path style="fill-rule:nonzero;fill:rgb(0%,0%,0%);fill-opacity:1;stroke-width:0.99628;stroke-linecap:butt;stroke-linejoin:miter;stroke:rgb(0%,0%,0%);stroke-opacity:1;stroke-miterlimit:10;" d="M 1.496 0.00075 C 1.496 0.824969 0.824125 1.492937 -0.00009375 1.492937 C -0.824312 1.492937 -1.496187 0.824969 -1.496187 0.00075 C -1.496187 -0.823469 -0.824312 -1.495344 -0.00009375 -1.495344 C 0.824125 -1.495344 1.496 -0.823469 1.496 0.00075 Z M 1.496 0.00075 " transform="matrix(1,0,0,-1,207.504,87.032)"/>
<path style="fill-rule:nonzero;fill:rgb(0%,0%,0%);fill-opacity:1;stroke-width:0.99628;stroke-linecap:butt;stroke-linejoin:miter;stroke:rgb(0%,0%,0%);stroke-opacity:1;stroke-miterlimit:10;" d="M -62.28525 0.00075 C -62.28525 0.824969 -62.953219 1.492937 -63.781344 1.492937 C -64.605562 1.492937 -65.273531 0.824969 -65.273531 0.00075 C -65.273531 -0.823469 -64.605562 -1.495344 -63.781344 -1.495344 C -62.953219 -1.495344 -62.28525 -0.823469 -62.28525 0.00075 Z M -62.28525 0.00075 " transform="matrix(1,0,0,-1,207.504,87.032)"/>
<path style="fill-rule:nonzero;fill:rgb(0%,0%,0%);fill-opacity:1;stroke-width:0.99628;stroke-linecap:butt;stroke-linejoin:miter;stroke:rgb(0%,0%,0%);stroke-opacity:1;stroke-miterlimit:10;" d="M 65.273344 0.00075 C 65.273344 0.824969 64.605375 1.492937 63.781156 1.492937 C 62.953031 1.492937 62.285063 0.824969 62.285063 0.00075 C 62.285063 -0.823469 62.953031 -1.495344 63.781156 -1.495344 C 64.605375 -1.495344 65.273344 -0.823469 65.273344 0.00075 Z M 65.273344 0.00075 " transform="matrix(1,0,0,-1,207.504,87.032)"/>
<path style="fill-rule:nonzero;fill:rgb(0%,0%,0%);fill-opacity:1;stroke-width:0.99628;stroke-linecap:butt;stroke-linejoin:miter;stroke:rgb(0%,0%,0%);stroke-opacity:1;stroke-miterlimit:10;" d="M -62.28525 -70.866438 C -62.28525 -70.042219 -62.953219 -69.37425 -63.781344 -69.37425 C -64.605562 -69.37425 -65.273531 -70.042219 -65.273531 -70.866438 C -65.273531 -71.690656 -64.605562 -72.362531 -63.781344 -72.362531 C -62.953219 -72.362531 -62.28525 -71.690656 -62.28525 -70.866438 Z M -62.28525 -70.866438 " transform="matrix(1,0,0,-1,207.504,87.032)"/>
<path style="fill-rule:nonzero;fill:rgb(0%,0%,0%);fill-opacity:1;stroke-width:0.99628;stroke-linecap:butt;stroke-linejoin:miter;stroke:rgb(0%,0%,0%);stroke-opacity:1;stroke-miterlimit:10;" d="M -62.28525 70.867937 C -62.28525 71.692156 -62.953219 72.360125 -63.781344 72.360125 C -64.605562 72.360125 -65.273531 71.692156 -65.273531 70.867937 C -65.273531 70.039812 -64.605562 69.371844 -63.781344 69.371844 C -62.953219 69.371844 -62.28525 70.039812 -62.28525 70.867937 Z M -62.28525 70.867937 " transform="matrix(1,0,0,-1,207.504,87.032)"/>
<path style="fill-rule:nonzero;fill:rgb(0%,0%,0%);fill-opacity:1;stroke-width:0.99628;stroke-linecap:butt;stroke-linejoin:miter;stroke:rgb(0%,0%,0%);stroke-opacity:1;stroke-miterlimit:10;" d="M 65.273344 -70.866438 C 65.273344 -70.042219 64.605375 -69.37425 63.781156 -69.37425 C 62.953031 -69.37425 62.285063 -70.042219 62.285063 -70.866438 C 62.285063 -71.690656 62.953031 -72.362531 63.781156 -72.362531 C 64.605375 -72.362531 65.273344 -71.690656 65.273344 -70.866438 Z M 65.273344 -70.866438 " transform="matrix(1,0,0,-1,207.504,87.032)"/>
<path style="fill-rule:nonzero;fill:rgb(0%,0%,0%);fill-opacity:1;stroke-width:0.99628;stroke-linecap:butt;stroke-linejoin:miter;stroke:rgb(0%,0%,0%);stroke-opacity:1;stroke-miterlimit:10;" d="M 65.273344 70.867937 C 65.273344 71.692156 64.605375 72.360125 63.781156 72.360125 C 62.953031 72.360125 62.285063 71.692156 62.285063 70.867937 C 62.285063 70.039812 62.953031 69.371844 63.781156 69.371844 C 64.605375 69.371844 65.273344 70.039812 65.273344 70.867937 Z M 65.273344 70.867937 " transform="matrix(1,0,0,-1,207.504,87.032)"/>
<path style=" stroke:none;fill-rule:nonzero;fill:rgb(0%,0%,0%);fill-opacity:1;" d="M 272.777344 172.074219 C 272.777344 171.246094 272.109375 170.578125 271.285156 170.578125 C 270.457031 170.578125 269.789062 171.246094 269.789062 172.074219 C 269.789062 172.898438 270.457031 173.566406 271.285156 173.566406 C 272.109375 173.566406 272.777344 172.898438 272.777344 172.074219 Z M 272.777344 172.074219 "/>
<g clip-path="url(#clip3)" clip-rule="nonzero">
<path style="fill:none;stroke-width:0.99628;stroke-linecap:butt;stroke-linejoin:miter;stroke:rgb(0%,0%,0%);stroke-opacity:1;stroke-miterlimit:10;" d="M 65.273344 -85.042219 C 65.273344 -84.214094 64.605375 -83.546125 63.781156 -83.546125 C 62.953031 -83.546125 62.285063 -84.214094 62.285063 -85.042219 C 62.285063 -85.866438 62.953031 -86.534406 63.781156 -86.534406 C 64.605375 -86.534406 65.273344 -85.866438 65.273344 -85.042219 Z M 65.273344 -85.042219 " transform="matrix(1,0,0,-1,207.504,87.032)"/>
</g>
<path style="fill-rule:nonzero;fill:rgb(0%,0%,0%);fill-opacity:1;stroke-width:0.99628;stroke-linecap:butt;stroke-linejoin:miter;stroke:rgb(0%,0%,0%);stroke-opacity:1;stroke-miterlimit:10;" d="M 65.273344 85.039812 C 65.273344 85.864031 64.605375 86.535906 63.781156 86.535906 C 62.953031 86.535906 62.285063 85.864031 62.285063 85.039812 C 62.285063 84.215594 62.953031 83.547625 63.781156 83.547625 C 64.605375 83.547625 65.273344 84.215594 65.273344 85.039812 Z M 65.273344 85.039812 " transform="matrix(1,0,0,-1,207.504,87.032)"/>
<path style="fill-rule:nonzero;fill:rgb(0%,0%,0%);fill-opacity:1;stroke-width:0.99628;stroke-linecap:butt;stroke-linejoin:miter;stroke:rgb(0%,0%,0%);stroke-opacity:1;stroke-miterlimit:10;" d="M -62.28525 -42.518781 C -62.28525 -41.694563 -62.953219 -41.026594 -63.781344 -41.026594 C -64.605562 -41.026594 -65.273531 -41.694563 -65.273531 -42.518781 C -65.273531 -43.346906 -64.605562 -44.014875 -63.781344 -44.014875 C -62.953219 -44.014875 -62.28525 -43.346906 -62.28525 -42.518781 Z M -62.28525 -42.518781 " transform="matrix(1,0,0,-1,207.504,87.032)"/>
<path style="fill-rule:nonzero;fill:rgb(0%,0%,0%);fill-opacity:1;stroke-width:0.99628;stroke-linecap:butt;stroke-linejoin:miter;stroke:rgb(0%,0%,0%);stroke-opacity:1;stroke-miterlimit:10;" d="M -62.28525 42.520281 C -62.28525 43.3445 -62.953219 44.016375 -63.781344 44.016375 C -64.605562 44.016375 -65.273531 43.3445 -65.273531 42.520281 C -65.273531 41.696062 -64.605562 41.024187 -63.781344 41.024187 C -62.953219 41.024187 -62.28525 41.696062 -62.28525 42.520281 Z M -62.28525 42.520281 " transform="matrix(1,0,0,-1,207.504,87.032)"/>
<path style="fill-rule:nonzero;fill:rgb(0%,0%,0%);fill-opacity:1;stroke-width:0.99628;stroke-linecap:butt;stroke-linejoin:miter;stroke:rgb(0%,0%,0%);stroke-opacity:1;stroke-miterlimit:10;" d="M 65.273344 -42.518781 C 65.273344 -41.694563 64.605375 -41.026594 63.781156 -41.026594 C 62.953031 -41.026594 62.285063 -41.694563 62.285063 -42.518781 C 62.285063 -43.346906 62.953031 -44.014875 63.781156 -44.014875 C 64.605375 -44.014875 65.273344 -43.346906 65.273344 -42.518781 Z M 65.273344 -42.518781 " transform="matrix(1,0,0,-1,207.504,87.032)"/>
<path style="fill-rule:nonzero;fill:rgb(0%,0%,0%);fill-opacity:1;stroke-width:0.99628;stroke-linecap:butt;stroke-linejoin:miter;stroke:rgb(0%,0%,0%);stroke-opacity:1;stroke-miterlimit:10;" d="M 65.273344 42.520281 C 65.273344 43.3445 64.605375 44.016375 63.781156 44.016375 C 62.953031 44.016375 62.285063 43.3445 62.285063 42.520281 C 62.285063 41.696062 62.953031 41.024187 63.781156 41.024187 C 64.605375 41.024187 65.273344 41.696062 65.273344 42.520281 Z M 65.273344 42.520281 " transform="matrix(1,0,0,-1,207.504,87.032)"/>
<path style="fill-rule:nonzero;fill:rgb(0%,0%,0%);fill-opacity:1;stroke-width:0.99628;stroke-linecap:butt;stroke-linejoin:miter;stroke:rgb(0%,0%,0%);stroke-opacity:1;stroke-miterlimit:10;" d="M -204.019625 70.867937 C -204.019625 71.692156 -204.687594 72.360125 -205.515719 72.360125 C -206.339937 72.360125 -207.007906 71.692156 -207.007906 70.867937 C -207.007906 70.039812 -206.339937 69.371844 -205.515719 69.371844 C -204.687594 69.371844 -204.019625 70.039812 -204.019625 70.867937 Z M -204.019625 70.867937 " transform="matrix(1,0,0,-1,207.504,87.032)"/>
<path style="fill-rule:nonzero;fill:rgb(0%,0%,0%);fill-opacity:1;stroke-width:0.99628;stroke-linecap:butt;stroke-linejoin:miter;stroke:rgb(0%,0%,0%);stroke-opacity:1;stroke-miterlimit:10;" d="M -133.152437 0.00075 C -133.152437 0.824969 -133.820406 1.492937 -134.648531 1.492937 C -135.47275 1.492937 -136.140719 0.824969 -136.140719 0.00075 C -136.140719 -0.823469 -135.47275 -1.495344 -134.648531 -1.495344 C -133.820406 -1.495344 -133.152437 -0.823469 -133.152437 0.00075 Z M -133.152437 0.00075 " transform="matrix(1,0,0,-1,207.504,87.032)"/>
<path style="fill-rule:nonzero;fill:rgb(0%,0%,0%);fill-opacity:1;stroke-width:0.99628;stroke-linecap:butt;stroke-linejoin:miter;stroke:rgb(0%,0%,0%);stroke-opacity:1;stroke-miterlimit:10;" d="M -133.152437 70.867937 C -133.152437 71.692156 -133.820406 72.360125 -134.648531 72.360125 C -135.47275 72.360125 -136.140719 71.692156 -136.140719 70.867937 C -136.140719 70.039812 -135.47275 69.371844 -134.648531 69.371844 C -133.820406 69.371844 -133.152437 70.039812 -133.152437 70.867937 Z M -133.152437 70.867937 " transform="matrix(1,0,0,-1,207.504,87.032)"/>
</g>
</svg>
