<?xml version="1.0" encoding="UTF-8"?>
<svg xmlns="http://www.w3.org/2000/svg" xmlns:xlink="http://www.w3.org/1999/xlink" width="170.477pt" height="147.691pt" viewBox="0 0 170.477 147.691" version="1.1">
<g id="surface1">
<path style="fill:none;stroke-width:1;stroke-linecap:butt;stroke-linejoin:miter;stroke:rgb(0%,0%,0%);stroke-opacity:1;stroke-miterlimit:10;" d="M -0.00025 -0.0001875 L 127.56225 73.64825 L -0.219 146.992 L -0.219 -0.008 Z " transform="matrix(1,0,0,-1,42.719,147.492)"/>
<path style="fill:none;stroke-width:1;stroke-linecap:butt;stroke-linejoin:miter;stroke:rgb(0%,0%,0%);stroke-opacity:1;stroke-miterlimit:10;" d="M 84.781 -0.008 L 84.781 146.992 L -42.519781 73.64825 L 85.038813 -0.0001875 Z " transform="matrix(1,0,0,-1,42.719,147.492)"/>
<path style="fill:none;stroke-width:1;stroke-linecap:butt;stroke-linejoin:miter;stroke:rgb(0%,0%,0%);stroke-opacity:1;stroke-miterlimit:10;" d="M 42.781 24.992 L 42.781 122.992 " transform="matrix(1,0,0,-1,42.719,147.492)"/>
<path style="fill:none;stroke-width:1;stroke-linecap:butt;stroke-linejoin:miter;stroke:rgb(0%,0%,0%);stroke-opacity:1;stroke-miterlimit:10;" d="M 85.046625 49.101375 L -0.00025 98.202937 " transform="matrix(1,0,0,-1,42.719,147.492)"/>
<path style="fill:none;stroke-width:1;stroke-linecap:butt;stroke-linejoin:miter;stroke:rgb(0%,0%,0%);stroke-opacity:1;stroke-miterlimit:10;" d="M 85.046625 98.202937 L -0.00025 49.101375 " transform="matrix(1,0,0,-1,42.719,147.492)"/>
</g>
</svg>
