<?xml version="1.0" encoding="UTF-8"?>
<svg xmlns="http://www.w3.org/2000/svg" xmlns:xlink="http://www.w3.org/1999/xlink" width="341.154pt" height="91.65pt" viewBox="0 0 341.154 91.65" version="1.1">
<g id="surface1">
<path style="fill:none;stroke-width:1;stroke-linecap:butt;stroke-linejoin:miter;stroke:rgb(0%,0%,0%);stroke-opacity:1;stroke-miterlimit:10;" d="M -170.080906 -0.00053125 L -127.561375 73.647906 L -85.041844 -0.00053125 L -42.518406 73.647906 L 0.001125 -0.00053125 L 42.520656 73.647906 L 85.040188 -0.00053125 L 127.559719 73.647906 L 170.07925 -0.00053125 " transform="matrix(1,0,0,-1,170.577,74.144)"/>
<path style="fill:none;stroke-width:1;stroke-linecap:butt;stroke-linejoin:miter;stroke:rgb(0%,0%,0%);stroke-opacity:1;stroke-miterlimit:10;" d="M -170.077 -0.356 L 169.923 -0.356 " transform="matrix(1,0,0,-1,170.577,74.144)"/>
<path style="fill:none;stroke-width:1;stroke-linecap:butt;stroke-linejoin:miter;stroke:rgb(0%,0%,0%);stroke-opacity:1;stroke-miterlimit:10;" d="M -127.077 73.644 L 127.923 73.644 " transform="matrix(1,0,0,-1,170.577,74.144)"/>
<path style="fill:none;stroke-width:1;stroke-linecap:butt;stroke-linejoin:miter;stroke:rgb(0%,0%,0%);stroke-opacity:1;stroke-miterlimit:10;" d="M -170.077 -5.356 L -159.077 -5.356 " transform="matrix(1,0,0,-1,170.577,74.144)"/>
<path style="fill:none;stroke-width:1;stroke-linecap:butt;stroke-linejoin:miter;stroke:rgb(0%,0%,0%);stroke-opacity:1;stroke-miterlimit:10;" d="M 169.923 -5.356 L 158.923 -5.356 " transform="matrix(1,0,0,-1,170.577,74.144)"/>
<path style="fill:none;stroke-width:1;stroke-linecap:butt;stroke-linejoin:miter;stroke:rgb(0%,0%,0%);stroke-opacity:1;stroke-miterlimit:10;" d="M -170.080906 -5.6685 L -167.244969 -10.578656 " transform="matrix(1,0,0,-1,170.577,74.144)"/>
<path style="fill:none;stroke-width:1;stroke-linecap:butt;stroke-linejoin:miter;stroke:rgb(0%,0%,0%);stroke-opacity:1;stroke-miterlimit:10;" d="M -167.244969 -5.6685 L -164.412937 -10.578656 " transform="matrix(1,0,0,-1,170.577,74.144)"/>
<path style="fill:none;stroke-width:1;stroke-linecap:butt;stroke-linejoin:miter;stroke:rgb(0%,0%,0%);stroke-opacity:1;stroke-miterlimit:10;" d="M -164.412937 -5.6685 L -161.577 -10.578656 " transform="matrix(1,0,0,-1,170.577,74.144)"/>
<path style="fill:none;stroke-width:1;stroke-linecap:butt;stroke-linejoin:miter;stroke:rgb(0%,0%,0%);stroke-opacity:1;stroke-miterlimit:10;" d="M -161.577 -5.6685 L -158.741062 -10.578656 " transform="matrix(1,0,0,-1,170.577,74.144)"/>
<path style="fill:none;stroke-width:1;stroke-linecap:butt;stroke-linejoin:miter;stroke:rgb(0%,0%,0%);stroke-opacity:1;stroke-miterlimit:10;" d="M 170.07925 -11.340375 C 170.07925 -8.207563 167.544094 -5.6685 164.411281 -5.6685 C 161.282375 -5.6685 158.743313 -8.207563 158.743313 -11.340375 C 158.743313 -14.469281 161.282375 -17.008344 164.411281 -17.008344 C 167.544094 -17.008344 170.07925 -14.469281 170.07925 -11.340375 Z " transform="matrix(1,0,0,-1,170.577,74.144)"/>
</g>
</svg>
