<?xml version="1.0" encoding="UTF-8"?>
<svg xmlns="http://www.w3.org/2000/svg" xmlns:xlink="http://www.w3.org/1999/xlink" width="341.154pt" height="91.65pt" viewBox="0 0 341.154 91.65" version="1.1">
<defs>
<clipPath id="clip1">
  <path d="M 0 0 L 341.152344 0 L 341.152344 89 L 0 89 Z M 0 0 "/>
</clipPath>
<clipPath id="clip2">
  <path d="M 0 73 L 341.152344 73 L 341.152344 75 L 0 75 Z M 0 73 "/>
</clipPath>
<clipPath id="clip3">
  <path d="M 328 79 L 341.152344 79 L 341.152344 81 L 328 81 Z M 328 79 "/>
</clipPath>
<clipPath id="clip4">
  <path d="M 0 65 L 18 65 L 18 91.648438 L 0 91.648438 Z M 0 65 "/>
</clipPath>
<clipPath id="clip5">
  <path d="M 0 65 L 21 65 L 21 91.648438 L 0 91.648438 Z M 0 65 "/>
</clipPath>
<clipPath id="clip6">
  <path d="M 0 65 L 24 65 L 24 91.648438 L 0 91.648438 Z M 0 65 "/>
</clipPath>
<clipPath id="clip7">
  <path d="M 0 65 L 26 65 L 26 91.648438 L 0 91.648438 Z M 0 65 "/>
</clipPath>
<clipPath id="clip8">
  <path d="M 315 65 L 341.152344 65 L 341.152344 91.648438 L 315 91.648438 Z M 315 65 "/>
</clipPath>
</defs>
<g id="surface1">
<g clip-path="url(#clip1)" clip-rule="nonzero">
<path style="fill:none;stroke-width:0.99628;stroke-linecap:butt;stroke-linejoin:miter;stroke:rgb(0%,0%,0%);stroke-opacity:1;stroke-miterlimit:10;" d="M -170.080906 -0.00053125 L -127.561375 73.647906 L -85.041844 -0.00053125 L -42.518406 73.647906 L 0.001125 -0.00053125 L 42.520656 73.647906 L 85.040188 -0.00053125 L 127.559719 73.647906 L 170.07925 -0.00053125 " transform="matrix(1,0,0,-1,170.577,74.144)"/>
</g>
<g clip-path="url(#clip2)" clip-rule="nonzero">
<path style="fill:none;stroke-width:0.99628;stroke-linecap:butt;stroke-linejoin:miter;stroke:rgb(0%,0%,0%);stroke-opacity:1;stroke-miterlimit:10;" d="M -170.080906 -0.00053125 L 170.07925 -0.00053125 " transform="matrix(1,0,0,-1,170.577,74.144)"/>
</g>
<path style="fill:none;stroke-width:0.99628;stroke-linecap:butt;stroke-linejoin:miter;stroke:rgb(0%,0%,0%);stroke-opacity:1;stroke-miterlimit:10;" d="M -127.561375 73.647906 L 127.559719 73.647906 " transform="matrix(1,0,0,-1,170.577,74.144)"/>
<path style="fill:none;stroke-width:0.99628;stroke-linecap:butt;stroke-linejoin:miter;stroke:rgb(0%,0%,0%);stroke-opacity:1;stroke-miterlimit:10;" d="M -170.080906 -5.6685 L -158.741062 -5.6685 " transform="matrix(1,0,0,-1,170.577,74.144)"/>
<g clip-path="url(#clip3)" clip-rule="nonzero">
<path style="fill:none;stroke-width:0.99628;stroke-linecap:butt;stroke-linejoin:miter;stroke:rgb(0%,0%,0%);stroke-opacity:1;stroke-miterlimit:10;" d="M 170.07925 -5.6685 L 158.743313 -5.6685 " transform="matrix(1,0,0,-1,170.577,74.144)"/>
</g>
<g clip-path="url(#clip4)" clip-rule="nonzero">
<path style="fill:none;stroke-width:0.99628;stroke-linecap:butt;stroke-linejoin:miter;stroke:rgb(0%,0%,0%);stroke-opacity:1;stroke-miterlimit:10;" d="M -170.080906 -5.6685 L -167.244969 -10.578656 " transform="matrix(1,0,0,-1,170.577,74.144)"/>
</g>
<g clip-path="url(#clip5)" clip-rule="nonzero">
<path style="fill:none;stroke-width:0.99628;stroke-linecap:butt;stroke-linejoin:miter;stroke:rgb(0%,0%,0%);stroke-opacity:1;stroke-miterlimit:10;" d="M -167.244969 -5.6685 L -164.412937 -10.578656 " transform="matrix(1,0,0,-1,170.577,74.144)"/>
</g>
<g clip-path="url(#clip6)" clip-rule="nonzero">
<path style="fill:none;stroke-width:0.99628;stroke-linecap:butt;stroke-linejoin:miter;stroke:rgb(0%,0%,0%);stroke-opacity:1;stroke-miterlimit:10;" d="M -164.412937 -5.6685 L -161.577 -10.578656 " transform="matrix(1,0,0,-1,170.577,74.144)"/>
</g>
<g clip-path="url(#clip7)" clip-rule="nonzero">
<path style="fill:none;stroke-width:0.99628;stroke-linecap:butt;stroke-linejoin:miter;stroke:rgb(0%,0%,0%);stroke-opacity:1;stroke-miterlimit:10;" d="M -161.577 -5.6685 L -158.741062 -10.578656 " transform="matrix(1,0,0,-1,170.577,74.144)"/>
</g>
<g clip-path="url(#clip8)" clip-rule="nonzero">
<path style="fill:none;stroke-width:0.99628;stroke-linecap:butt;stroke-linejoin:miter;stroke:rgb(0%,0%,0%);stroke-opacity:1;stroke-miterlimit:10;" d="M 170.07925 -11.340375 C 170.07925 -8.207563 167.544094 -5.6685 164.411281 -5.6685 C 161.282375 -5.6685 158.743313 -8.207563 158.743313 -11.340375 C 158.743313 -14.469281 161.282375 -17.008344 164.411281 -17.008344 C 167.544094 -17.008344 170.07925 -14.469281 170.07925 -11.340375 Z M 170.07925 -11.340375 " transform="matrix(1,0,0,-1,170.577,74.144)"/>
</g>
</g>
</svg>
