<?xml version="1.0" encoding="UTF-8"?>
<svg xmlns="http://www.w3.org/2000/svg" xmlns:xlink="http://www.w3.org/1999/xlink" width="390.749pt" height="114.88pt" viewBox="0 0 390.749 114.88" version="1.1">
<g id="surface1">
<path style="fill:none;stroke-width:1.49442;stroke-linecap:butt;stroke-linejoin:miter;stroke:rgb(0%,0%,100%);stroke-opacity:1;stroke-dasharray:1.49442,1.99255;stroke-miterlimit:10;" d="M -184.354344 -15.513125 L -161.123875 53.275937 " transform="matrix(1,0,0,-1,191.577,57.44)"/>
<path style="fill:none;stroke-width:1.49442;stroke-linecap:butt;stroke-linejoin:miter;stroke:rgb(0%,0%,0%);stroke-opacity:1;stroke-miterlimit:10;" d="M -161.123875 53.275937 L -190.830906 28.34625 L -184.354344 -15.513125 L -157.244969 -42.618594 L -117.186375 -14.173281 L -115.096531 9.693906 L -112.580906 34.744687 Z " transform="matrix(1,0,0,-1,191.577,57.44)"/>
<path style="fill:none;stroke-width:1.49442;stroke-linecap:butt;stroke-linejoin:miter;stroke:rgb(0%,0%,100%);stroke-opacity:1;stroke-dasharray:1.49442,1.99255;stroke-miterlimit:10;" d="M -34.0145 56.693906 L -17.006687 -17.009219 " transform="matrix(1,0,0,-1,191.577,57.44)"/>
<path style="fill:none;stroke-width:1.49442;stroke-linecap:butt;stroke-linejoin:miter;stroke:rgb(0%,0%,0%);stroke-opacity:1;stroke-miterlimit:10;" d="M -17.006687 -17.009219 L -17.006687 56.693906 L -34.0145 56.693906 L -34.0145 -34.017031 L 34.01675 -34.017031 L 34.01675 -17.009219 Z " transform="matrix(1,0,0,-1,191.577,57.44)"/>
<path style="fill:none;stroke-width:1.49442;stroke-linecap:butt;stroke-linejoin:miter;stroke:rgb(0%,0%,100%);stroke-opacity:1;stroke-dasharray:1.49442,1.99255;stroke-miterlimit:10;" d="M 141.7355 -56.692813 L 141.7355 56.693906 " transform="matrix(1,0,0,-1,191.577,57.44)"/>
<path style="fill:none;stroke-width:1.49442;stroke-linecap:butt;stroke-linejoin:miter;stroke:rgb(0%,0%,0%);stroke-opacity:1;stroke-miterlimit:10;" d="M 198.426906 -0.00140625 L 190.833156 28.34625 L 170.07925 49.100156 L 141.7355 56.693906 L 113.387844 49.100156 L 92.633938 28.34625 L 85.040188 -0.00140625 L 92.633938 -28.345156 L 113.387844 -49.099063 L 141.7355 -56.692813 L 170.07925 -49.099063 L 190.833156 -28.345156 Z " transform="matrix(1,0,0,-1,191.577,57.44)"/>
</g>
</svg>
