<?xml version="1.0" encoding="UTF-8"?>
<svg xmlns="http://www.w3.org/2000/svg" xmlns:xlink="http://www.w3.org/1999/xlink" width="400.337pt" height="188.582pt" viewBox="0 0 400.337 188.582" version="1.1">
<g id="surface1">
<path style="fill:none;stroke-width:1.49442;stroke-linecap:butt;stroke-linejoin:miter;stroke:rgb(96.469116%,52.938843%,7.058716%);stroke-opacity:1;stroke-miterlimit:10;" d="M -28.347781 0.0019375 L -70.867312 73.646469 L -155.906375 73.646469 L -198.425906 0.0019375 L -155.906375 -73.6465 L -70.867312 -73.6465 Z " transform="matrix(1,0,0,-1,199.172,94.291)"/>
<path style="fill:none;stroke-width:1.49442;stroke-linecap:butt;stroke-linejoin:miter;stroke:rgb(96.469116%,52.938843%,7.058716%);stroke-opacity:1;stroke-miterlimit:10;" d="M 198.429563 0.0019375 L 155.906125 73.646469 L 70.867063 73.646469 L 28.347531 0.0019375 L 70.867063 -73.6465 L 155.906125 -73.6465 Z " transform="matrix(1,0,0,-1,199.172,94.291)"/>
<path style="fill:none;stroke-width:1.49442;stroke-linecap:butt;stroke-linejoin:miter;stroke:rgb(50%,50%,50%);stroke-opacity:1;stroke-miterlimit:10;" d="M 198.429563 0.0019375 C 198.429563 46.966781 160.355344 85.041 113.386594 85.041 C 66.42175 85.041 28.347531 46.966781 28.347531 0.0019375 C 28.347531 -46.966812 66.42175 -85.041031 113.386594 -85.041031 C 160.355344 -85.041031 198.429563 -46.966812 198.429563 0.0019375 Z " transform="matrix(1,0,0,-1,199.172,94.291)"/>
<path style="fill:none;stroke-width:1.49442;stroke-linecap:butt;stroke-linejoin:miter;stroke:rgb(100%,50%,50%);stroke-opacity:1;stroke-dasharray:1.49442,1.99255;stroke-miterlimit:10;" d="M 194.398313 46.771469 L 32.374875 -46.7715 " transform="matrix(1,0,0,-1,199.172,94.291)"/>
<path style="fill:none;stroke-width:1.49442;stroke-linecap:butt;stroke-linejoin:miter;stroke:rgb(100%,50%,50%);stroke-opacity:1;stroke-dasharray:1.49442,1.99255;stroke-miterlimit:10;" d="M 113.386594 93.544906 L 113.386594 -93.544937 " transform="matrix(1,0,0,-1,199.172,94.291)"/>
<path style="fill:none;stroke-width:1.49442;stroke-linecap:butt;stroke-linejoin:miter;stroke:rgb(100%,50%,50%);stroke-opacity:1;stroke-dasharray:1.49442,1.99255;stroke-miterlimit:10;" d="M 32.374875 46.771469 L 194.398313 -46.7715 " transform="matrix(1,0,0,-1,199.172,94.291)"/>
<path style="fill:none;stroke-width:1.49442;stroke-linecap:butt;stroke-linejoin:miter;stroke:rgb(50%,50%,50%);stroke-opacity:1;stroke-dasharray:1.49442,1.99255;stroke-miterlimit:10;" d="M 113.386594 0.0019375 L 198.429563 0.0019375 " transform="matrix(1,0,0,-1,199.172,94.291)"/>
<path style="fill:none;stroke-width:1.49442;stroke-linecap:butt;stroke-linejoin:miter;stroke:rgb(50%,50%,50%);stroke-opacity:1;stroke-dasharray:1.49442,1.99255;stroke-miterlimit:10;" d="M 113.386594 0.0019375 L 155.906125 73.646469 " transform="matrix(1,0,0,-1,199.172,94.291)"/>
<path style="fill:none;stroke-width:1.49442;stroke-linecap:butt;stroke-linejoin:miter;stroke:rgb(50%,50%,50%);stroke-opacity:1;stroke-dasharray:1.49442,1.99255;stroke-miterlimit:10;" d="M 113.386594 0.0019375 L 70.867063 73.646469 " transform="matrix(1,0,0,-1,199.172,94.291)"/>
<path style="fill:none;stroke-width:1.49442;stroke-linecap:butt;stroke-linejoin:miter;stroke:rgb(50%,50%,50%);stroke-opacity:1;stroke-dasharray:1.49442,1.99255;stroke-miterlimit:10;" d="M 113.386594 0.0019375 L 28.347531 0.0019375 " transform="matrix(1,0,0,-1,199.172,94.291)"/>
<path style="fill:none;stroke-width:1.49442;stroke-linecap:butt;stroke-linejoin:miter;stroke:rgb(50%,50%,50%);stroke-opacity:1;stroke-dasharray:1.49442,1.99255;stroke-miterlimit:10;" d="M 113.386594 0.0019375 L 70.867063 -73.6465 " transform="matrix(1,0,0,-1,199.172,94.291)"/>
<path style="fill:none;stroke-width:1.49442;stroke-linecap:butt;stroke-linejoin:miter;stroke:rgb(50%,50%,50%);stroke-opacity:1;stroke-dasharray:1.49442,1.99255;stroke-miterlimit:10;" d="M 113.386594 0.0019375 L 155.906125 -73.6465 " transform="matrix(1,0,0,-1,199.172,94.291)"/>
<path style="fill-rule:nonzero;fill:rgb(50%,50%,50%);fill-opacity:1;stroke-width:1.49442;stroke-linecap:butt;stroke-linejoin:miter;stroke:rgb(50%,50%,50%);stroke-opacity:1;stroke-miterlimit:10;" d="M 115.378781 0.0019375 C 115.378781 1.099594 114.488156 1.994125 113.386594 1.994125 C 112.285031 1.994125 111.394406 1.099594 111.394406 0.0019375 C 111.394406 -1.099625 112.285031 -1.994156 113.386594 -1.994156 C 114.488156 -1.994156 115.378781 -1.099625 115.378781 0.0019375 Z " transform="matrix(1,0,0,-1,199.172,94.291)"/>
<path style="fill-rule:nonzero;fill:rgb(50%,50%,50%);fill-opacity:1;stroke-width:1.49442;stroke-linecap:butt;stroke-linejoin:miter;stroke:rgb(50%,50%,50%);stroke-opacity:1;stroke-miterlimit:10;" d="M 200.42175 0.0019375 C 200.42175 1.099594 199.527219 1.994125 198.429563 1.994125 C 197.328 1.994125 196.433469 1.099594 196.433469 0.0019375 C 196.433469 -1.099625 197.328 -1.994156 198.429563 -1.994156 C 199.527219 -1.994156 200.42175 -1.099625 200.42175 0.0019375 Z " transform="matrix(1,0,0,-1,199.172,94.291)"/>
<path style="fill-rule:nonzero;fill:rgb(50%,50%,50%);fill-opacity:1;stroke-width:1.49442;stroke-linecap:butt;stroke-linejoin:miter;stroke:rgb(50%,50%,50%);stroke-opacity:1;stroke-miterlimit:10;" d="M 157.898313 73.646469 C 157.898313 74.748031 157.007688 75.638656 155.906125 75.638656 C 154.808469 75.638656 153.913938 74.748031 153.913938 73.646469 C 153.913938 72.548813 154.808469 71.654281 155.906125 71.654281 C 157.007688 71.654281 157.898313 72.548813 157.898313 73.646469 Z " transform="matrix(1,0,0,-1,199.172,94.291)"/>
<path style="fill-rule:nonzero;fill:rgb(50%,50%,50%);fill-opacity:1;stroke-width:1.49442;stroke-linecap:butt;stroke-linejoin:miter;stroke:rgb(50%,50%,50%);stroke-opacity:1;stroke-miterlimit:10;" d="M 72.85925 73.646469 C 72.85925 74.748031 71.968625 75.638656 70.867063 75.638656 C 69.7655 75.638656 68.874875 74.748031 68.874875 73.646469 C 68.874875 72.548813 69.7655 71.654281 70.867063 71.654281 C 71.968625 71.654281 72.85925 72.548813 72.85925 73.646469 Z " transform="matrix(1,0,0,-1,199.172,94.291)"/>
<path style="fill-rule:nonzero;fill:rgb(50%,50%,50%);fill-opacity:1;stroke-width:1.49442;stroke-linecap:butt;stroke-linejoin:miter;stroke:rgb(50%,50%,50%);stroke-opacity:1;stroke-miterlimit:10;" d="M 30.339719 0.0019375 C 30.339719 1.099594 29.449094 1.994125 28.347531 1.994125 C 27.245969 1.994125 26.355344 1.099594 26.355344 0.0019375 C 26.355344 -1.099625 27.245969 -1.994156 28.347531 -1.994156 C 29.449094 -1.994156 30.339719 -1.099625 30.339719 0.0019375 Z " transform="matrix(1,0,0,-1,199.172,94.291)"/>
<path style="fill-rule:nonzero;fill:rgb(50%,50%,50%);fill-opacity:1;stroke-width:1.49442;stroke-linecap:butt;stroke-linejoin:miter;stroke:rgb(50%,50%,50%);stroke-opacity:1;stroke-miterlimit:10;" d="M 72.85925 -73.6465 C 72.85925 -72.544937 71.968625 -71.654312 70.867063 -71.654312 C 69.7655 -71.654312 68.874875 -72.544937 68.874875 -73.6465 C 68.874875 -74.748062 69.7655 -75.638687 70.867063 -75.638687 C 71.968625 -75.638687 72.85925 -74.748062 72.85925 -73.6465 Z " transform="matrix(1,0,0,-1,199.172,94.291)"/>
<path style="fill-rule:nonzero;fill:rgb(50%,50%,50%);fill-opacity:1;stroke-width:1.49442;stroke-linecap:butt;stroke-linejoin:miter;stroke:rgb(50%,50%,50%);stroke-opacity:1;stroke-miterlimit:10;" d="M 157.898313 -73.6465 C 157.898313 -72.544937 157.007688 -71.654312 155.906125 -71.654312 C 154.808469 -71.654312 153.913938 -72.544937 153.913938 -73.6465 C 153.913938 -74.748062 154.808469 -75.638687 155.906125 -75.638687 C 157.007688 -75.638687 157.898313 -74.748062 157.898313 -73.6465 Z " transform="matrix(1,0,0,-1,199.172,94.291)"/>
</g>
</svg>
