<?xml version="1.0" encoding="UTF-8"?>
<svg xmlns="http://www.w3.org/2000/svg" xmlns:xlink="http://www.w3.org/1999/xlink" width="347.321pt" height="92.203pt" viewBox="0 0 347.321 92.203" version="1.1">
<g id="surface1">
<path style="fill:none;stroke-width:1.49442;stroke-linecap:butt;stroke-linejoin:miter;stroke:rgb(0%,0%,100%);stroke-opacity:1;stroke-dasharray:1.49442,1.99255;stroke-miterlimit:10;" d="M -153.072094 -0.0005625 L -85.040844 -0.0005625 " transform="matrix(1,0,0,-1,170.826,46.101)"/>
<path style="fill:none;stroke-width:1.49442;stroke-linecap:butt;stroke-linejoin:miter;stroke:rgb(0%,0%,0%);stroke-opacity:1;stroke-miterlimit:10;" d="M -85.040844 -0.0005625 L -170.079906 -45.356031 L -153.072094 -0.0005625 L -170.079906 45.354906 Z " transform="matrix(1,0,0,-1,170.826,46.101)"/>
<path style="fill:none;stroke-width:1.49442;stroke-linecap:butt;stroke-linejoin:miter;stroke:rgb(0%,0%,100%);stroke-opacity:1;stroke-dasharray:1.49442,1.99255;stroke-miterlimit:10;" d="M -22.677563 -34.016188 L 45.353687 34.015062 " transform="matrix(1,0,0,-1,170.826,46.101)"/>
<path style="fill:none;stroke-width:1.49442;stroke-linecap:butt;stroke-linejoin:miter;stroke:rgb(0%,0%,0%);stroke-opacity:1;stroke-miterlimit:10;" d="M 45.353687 34.015062 L -45.353344 34.015062 L -22.677563 -34.016188 L 22.677906 -34.016188 Z " transform="matrix(1,0,0,-1,170.826,46.101)"/>
<path style="fill:none;stroke-width:1.49442;stroke-linecap:butt;stroke-linejoin:miter;stroke:rgb(0%,0%,100%);stroke-opacity:1;stroke-dasharray:1.49442,1.99255;stroke-miterlimit:10;" d="M 175.752125 -0.0005625 L 107.716969 -0.0005625 " transform="matrix(1,0,0,-1,170.826,46.101)"/>
<path style="fill:none;stroke-width:1.49442;stroke-linecap:butt;stroke-linejoin:miter;stroke:rgb(0%,0%,0%);stroke-opacity:1;stroke-miterlimit:10;" d="M 175.752125 -0.0005625 L 141.732594 34.015062 L 107.716969 -0.0005625 L 141.732594 -34.016188 Z " transform="matrix(1,0,0,-1,170.826,46.101)"/>
</g>
</svg>
