<?xml version="1.0" encoding="UTF-8"?>
<svg xmlns="http://www.w3.org/2000/svg" xmlns:xlink="http://www.w3.org/1999/xlink" width="88.073pt" height="258.152pt" viewBox="0 0 88.073 258.152" version="1.1">
<g id="surface1">
<path style="fill:none;stroke-width:1.99255;stroke-linecap:butt;stroke-linejoin:miter;stroke:rgb(100%,0%,0%);stroke-opacity:1;stroke-miterlimit:10;" d="M 13.959906 87.502906 C 12.600531 95.209938 5.248969 100.358375 -2.461969 98.999 " transform="matrix(1,0,0,-1,15.294,170.124)"/>
<path style="fill:none;stroke-width:1.99255;stroke-linecap:butt;stroke-linejoin:miter;stroke:rgb(100%,0%,0%);stroke-opacity:1;stroke-miterlimit:10;" d="M 67.331 111.303688 C 59.620063 109.944313 54.475531 102.59275 55.831 94.885719 " transform="matrix(1,0,0,-1,15.294,170.124)"/>
<path style="fill:none;stroke-width:1.99255;stroke-linecap:butt;stroke-linejoin:miter;stroke:rgb(100%,0%,0%);stroke-opacity:1;stroke-miterlimit:10;" d="M 43.526313 164.674781 C 44.885688 156.96775 52.23725 151.819313 59.948188 153.178688 " transform="matrix(1,0,0,-1,15.294,170.124)"/>
<path style="fill:none;stroke-width:1.99255;stroke-linecap:butt;stroke-linejoin:miter;stroke:rgb(100%,0%,0%);stroke-opacity:1;stroke-miterlimit:10;" d="M -9.844781 140.874 C -2.133844 142.233375 3.010688 149.584938 1.651313 157.291969 " transform="matrix(1,0,0,-1,15.294,170.124)"/>
<path style="fill-rule:nonzero;fill:rgb(100%,50%,0%);fill-opacity:1;stroke-width:1.99255;stroke-linecap:butt;stroke-linejoin:miter;stroke:rgb(100%,50%,0%);stroke-opacity:1;stroke-miterlimit:10;" d="M 5.17475 92.006813 C 5.17475 92.170875 5.041938 92.303688 4.877875 92.303688 C 4.713813 92.303688 4.577094 92.170875 4.577094 92.006813 C 4.577094 91.84275 4.713813 91.706031 4.877875 91.706031 C 5.041938 91.706031 5.17475 91.84275 5.17475 92.006813 Z " transform="matrix(1,0,0,-1,15.294,170.124)"/>
<path style="fill:none;stroke-width:1.99255;stroke-linecap:butt;stroke-linejoin:miter;stroke:rgb(0%,0%,100%);stroke-opacity:1;stroke-miterlimit:10;" d="M -0.00103125 85.041969 L 69.791938 97.346656 L 57.48725 167.135719 L -12.305719 154.831031 Z " transform="matrix(1,0,0,-1,15.294,170.124)"/>
<path style="fill-rule:nonzero;fill:rgb(0%,0%,0%);fill-opacity:1;stroke-width:1.99255;stroke-linecap:butt;stroke-linejoin:miter;stroke:rgb(0%,0%,0%);stroke-opacity:1;stroke-miterlimit:10;" d="M 1.991156 85.041969 C 1.991156 86.139625 1.100531 87.034156 -0.00103125 87.034156 C -1.098687 87.034156 -1.993219 86.139625 -1.993219 85.041969 C -1.993219 83.940406 -1.098687 83.049781 -0.00103125 83.049781 C 1.100531 83.049781 1.991156 83.940406 1.991156 85.041969 Z " transform="matrix(1,0,0,-1,15.294,170.124)"/>
<path style="fill-rule:nonzero;fill:rgb(0%,0%,0%);fill-opacity:1;stroke-width:1.99255;stroke-linecap:butt;stroke-linejoin:miter;stroke:rgb(0%,0%,0%);stroke-opacity:1;stroke-miterlimit:10;" d="M 71.784125 97.346656 C 71.784125 98.448219 70.8935 99.338844 69.791938 99.338844 C 68.690375 99.338844 67.79975 98.448219 67.79975 97.346656 C 67.79975 96.245094 68.690375 95.354469 69.791938 95.354469 C 70.8935 95.354469 71.784125 96.245094 71.784125 97.346656 Z " transform="matrix(1,0,0,-1,15.294,170.124)"/>
<path style="fill-rule:nonzero;fill:rgb(0%,0%,0%);fill-opacity:1;stroke-width:1.99255;stroke-linecap:butt;stroke-linejoin:miter;stroke:rgb(0%,0%,0%);stroke-opacity:1;stroke-miterlimit:10;" d="M 59.479438 167.135719 C 59.479438 168.237281 58.584906 169.127906 57.48725 169.127906 C 56.385688 169.127906 55.491156 168.237281 55.491156 167.135719 C 55.491156 166.038063 56.385688 165.143531 57.48725 165.143531 C 58.584906 165.143531 59.479438 166.038063 59.479438 167.135719 Z " transform="matrix(1,0,0,-1,15.294,170.124)"/>
<path style="fill-rule:nonzero;fill:rgb(0%,0%,0%);fill-opacity:1;stroke-width:1.99255;stroke-linecap:butt;stroke-linejoin:miter;stroke:rgb(0%,0%,0%);stroke-opacity:1;stroke-miterlimit:10;" d="M -10.313531 154.831031 C -10.313531 155.932594 -11.204156 156.823219 -12.305719 156.823219 C -13.407281 156.823219 -14.297906 155.932594 -14.297906 154.831031 C -14.297906 153.729469 -13.407281 152.838844 -12.305719 152.838844 C -11.204156 152.838844 -10.313531 153.729469 -10.313531 154.831031 Z " transform="matrix(1,0,0,-1,15.294,170.124)"/>
<path style="fill:none;stroke-width:1.99255;stroke-linecap:butt;stroke-linejoin:miter;stroke:rgb(0%,50%,0%);stroke-opacity:1;stroke-miterlimit:10;" d="M -0.00103125 -0.001 L 69.791938 12.307594 L 57.48725 82.096656 L -12.305719 69.791969 Z " transform="matrix(1,0,0,-1,15.294,170.124)"/>
<path style="fill:none;stroke-width:1.99255;stroke-linecap:butt;stroke-linejoin:miter;stroke:rgb(50%,50%,100%);stroke-opacity:1;stroke-miterlimit:10;" d="M -0.00103125 -0.001 L 57.48725 82.096656 " transform="matrix(1,0,0,-1,15.294,170.124)"/>
<path style="fill:none;stroke-width:1.99255;stroke-linecap:butt;stroke-linejoin:miter;stroke:rgb(50%,50%,100%);stroke-opacity:1;stroke-miterlimit:10;" d="M -12.305719 69.791969 L 69.791938 12.307594 " transform="matrix(1,0,0,-1,15.294,170.124)"/>
<path style="fill-rule:nonzero;fill:rgb(0%,0%,100%);fill-opacity:1;stroke-width:1.99255;stroke-linecap:butt;stroke-linejoin:miter;stroke:rgb(0%,0%,100%);stroke-opacity:1;stroke-miterlimit:10;" d="M 29.041938 41.049781 C 29.041938 41.213844 28.909125 41.346656 28.741156 41.346656 C 28.577094 41.346656 28.444281 41.213844 28.444281 41.049781 C 28.444281 40.881813 28.577094 40.749 28.741156 40.749 C 28.909125 40.749 29.041938 40.881813 29.041938 41.049781 Z " transform="matrix(1,0,0,-1,15.294,170.124)"/>
<path style="fill-rule:nonzero;fill:rgb(0%,0%,0%);fill-opacity:1;stroke-width:1.99255;stroke-linecap:butt;stroke-linejoin:miter;stroke:rgb(0%,0%,0%);stroke-opacity:1;stroke-miterlimit:10;" d="M 1.991156 -0.001 C 1.991156 1.100563 1.100531 1.991188 -0.00103125 1.991188 C -1.098687 1.991188 -1.993219 1.100563 -1.993219 -0.001 C -1.993219 -1.098656 -1.098687 -1.993187 -0.00103125 -1.993187 C 1.100531 -1.993187 1.991156 -1.098656 1.991156 -0.001 Z " transform="matrix(1,0,0,-1,15.294,170.124)"/>
<path style="fill-rule:nonzero;fill:rgb(0%,0%,0%);fill-opacity:1;stroke-width:1.99255;stroke-linecap:butt;stroke-linejoin:miter;stroke:rgb(0%,0%,0%);stroke-opacity:1;stroke-miterlimit:10;" d="M 71.784125 12.307594 C 71.784125 13.40525 70.8935 14.299781 69.791938 14.299781 C 68.690375 14.299781 67.79975 13.40525 67.79975 12.307594 C 67.79975 11.206031 68.690375 10.3115 69.791938 10.3115 C 70.8935 10.3115 71.784125 11.206031 71.784125 12.307594 Z " transform="matrix(1,0,0,-1,15.294,170.124)"/>
<path style="fill-rule:nonzero;fill:rgb(0%,0%,0%);fill-opacity:1;stroke-width:1.99255;stroke-linecap:butt;stroke-linejoin:miter;stroke:rgb(0%,0%,0%);stroke-opacity:1;stroke-miterlimit:10;" d="M 59.479438 82.096656 C 59.479438 83.198219 58.584906 84.088844 57.48725 84.088844 C 56.385688 84.088844 55.491156 83.198219 55.491156 82.096656 C 55.491156 80.995094 56.385688 80.104469 57.48725 80.104469 C 58.584906 80.104469 59.479438 80.995094 59.479438 82.096656 Z " transform="matrix(1,0,0,-1,15.294,170.124)"/>
<path style="fill-rule:nonzero;fill:rgb(0%,0%,0%);fill-opacity:1;stroke-width:1.99255;stroke-linecap:butt;stroke-linejoin:miter;stroke:rgb(0%,0%,0%);stroke-opacity:1;stroke-miterlimit:10;" d="M -10.313531 69.791969 C -10.313531 70.889625 -11.204156 71.784156 -12.305719 71.784156 C -13.407281 71.784156 -14.297906 70.889625 -14.297906 69.791969 C -14.297906 68.690406 -13.407281 67.799781 -12.305719 67.799781 C -11.204156 67.799781 -10.313531 68.690406 -10.313531 69.791969 Z " transform="matrix(1,0,0,-1,15.294,170.124)"/>
<path style="fill:none;stroke-width:1.99255;stroke-linecap:butt;stroke-linejoin:miter;stroke:rgb(100%,0%,0%);stroke-opacity:1;stroke-miterlimit:10;" d="M 36.873969 -32.383812 C 30.459906 -27.891625 21.623969 -29.450219 17.131781 -35.864281 " transform="matrix(1,0,0,-1,15.294,170.124)"/>
<path style="fill-rule:nonzero;fill:rgb(100%,0%,0%);fill-opacity:1;stroke-width:1.99255;stroke-linecap:butt;stroke-linejoin:miter;stroke:rgb(100%,0%,0%);stroke-opacity:1;stroke-miterlimit:10;" d="M 27.811469 -37.012719 C 27.811469 -36.848656 27.678656 -36.715844 27.510688 -36.715844 C 27.346625 -36.715844 27.213813 -36.848656 27.213813 -37.012719 C 27.213813 -37.176781 27.346625 -37.3135 27.510688 -37.3135 C 27.678656 -37.3135 27.811469 -37.176781 27.811469 -37.012719 Z " transform="matrix(1,0,0,-1,15.294,170.124)"/>
<path style="fill:none;stroke-width:1.99255;stroke-linecap:butt;stroke-linejoin:miter;stroke:rgb(100%,19.999695%,0%);stroke-opacity:1;stroke-miterlimit:10;" d="M 13.959906 -82.579125 C 12.600531 -74.872094 5.248969 -69.723656 -2.461969 -71.083031 " transform="matrix(1,0,0,-1,15.294,170.124)"/>
<path style="fill:none;stroke-width:1.99255;stroke-linecap:butt;stroke-linejoin:miter;stroke:rgb(100%,19.999695%,0%);stroke-opacity:1;stroke-miterlimit:10;" d="M 67.331 -58.778344 C 59.620063 -60.137719 54.475531 -67.485375 55.831 -75.196312 " transform="matrix(1,0,0,-1,15.294,170.124)"/>
<path style="fill:none;stroke-width:1.99255;stroke-linecap:butt;stroke-linejoin:miter;stroke:rgb(100%,19.999695%,0%);stroke-opacity:1;stroke-miterlimit:10;" d="M 43.526313 -5.403344 C 44.885688 -13.114281 52.23725 -18.262719 59.948188 -16.903344 " transform="matrix(1,0,0,-1,15.294,170.124)"/>
<path style="fill:none;stroke-width:1.99255;stroke-linecap:butt;stroke-linejoin:miter;stroke:rgb(100%,19.999695%,0%);stroke-opacity:1;stroke-miterlimit:10;" d="M -9.844781 -29.208031 C -2.133844 -27.848656 3.010688 -20.497094 1.651313 -12.786156 " transform="matrix(1,0,0,-1,15.294,170.124)"/>
<path style="fill-rule:nonzero;fill:rgb(100%,50%,0%);fill-opacity:1;stroke-width:1.99255;stroke-linecap:butt;stroke-linejoin:miter;stroke:rgb(100%,50%,0%);stroke-opacity:1;stroke-miterlimit:10;" d="M 2.498969 -76.825219 C 2.498969 -76.661156 2.366156 -76.528344 2.202094 -76.528344 C 2.034125 -76.528344 1.901313 -76.661156 1.901313 -76.825219 C 1.901313 -76.989281 2.034125 -77.126 2.202094 -77.126 C 2.366156 -77.126 2.498969 -76.989281 2.498969 -76.825219 Z " transform="matrix(1,0,0,-1,15.294,170.124)"/>
<path style="fill:none;stroke-width:1.99255;stroke-linecap:butt;stroke-linejoin:miter;stroke:rgb(0%,50%,0%);stroke-opacity:1;stroke-miterlimit:10;" d="M -0.00103125 -85.040062 L 69.791938 -72.735375 " transform="matrix(1,0,0,-1,15.294,170.124)"/>
<path style="fill:none;stroke-width:1.99255;stroke-linecap:butt;stroke-linejoin:miter;stroke:rgb(0%,50%,0%);stroke-opacity:1;stroke-miterlimit:10;" d="M -12.305719 -15.251 L 57.48725 -2.942406 " transform="matrix(1,0,0,-1,15.294,170.124)"/>
<path style="fill:none;stroke-width:1.99255;stroke-linecap:butt;stroke-linejoin:miter;stroke:rgb(0%,100%,0%);stroke-opacity:1;stroke-miterlimit:10;" d="M -0.00103125 -85.040062 L -12.305719 -15.251 " transform="matrix(1,0,0,-1,15.294,170.124)"/>
<path style="fill:none;stroke-width:1.99255;stroke-linecap:butt;stroke-linejoin:miter;stroke:rgb(0%,100%,0%);stroke-opacity:1;stroke-miterlimit:10;" d="M 69.791938 -72.735375 L 57.48725 -2.942406 " transform="matrix(1,0,0,-1,15.294,170.124)"/>
<path style="fill:none;stroke-width:1.99255;stroke-linecap:butt;stroke-linejoin:miter;stroke:rgb(0%,0%,100%);stroke-opacity:1;stroke-miterlimit:10;" d="M -0.00103125 -85.040062 L 57.48725 -2.942406 " transform="matrix(1,0,0,-1,15.294,170.124)"/>
<path style="fill:none;stroke-width:1.99255;stroke-linecap:butt;stroke-linejoin:miter;stroke:rgb(39.99939%,39.99939%,100%);stroke-opacity:1;stroke-miterlimit:10;" d="M -12.305719 -15.251 L 69.791938 -72.735375 " transform="matrix(1,0,0,-1,15.294,170.124)"/>
<path style="fill-rule:nonzero;fill:rgb(0%,0%,0%);fill-opacity:1;stroke-width:1.99255;stroke-linecap:butt;stroke-linejoin:miter;stroke:rgb(0%,0%,0%);stroke-opacity:1;stroke-miterlimit:10;" d="M 1.991156 -85.040062 C 1.991156 -83.9385 1.100531 -83.047875 -0.00103125 -83.047875 C -1.098687 -83.047875 -1.993219 -83.9385 -1.993219 -85.040062 C -1.993219 -86.141625 -1.098687 -87.03225 -0.00103125 -87.03225 C 1.100531 -87.03225 1.991156 -86.141625 1.991156 -85.040062 Z " transform="matrix(1,0,0,-1,15.294,170.124)"/>
<path style="fill-rule:nonzero;fill:rgb(0%,0%,0%);fill-opacity:1;stroke-width:1.99255;stroke-linecap:butt;stroke-linejoin:miter;stroke:rgb(0%,0%,0%);stroke-opacity:1;stroke-miterlimit:10;" d="M 71.784125 -72.735375 C 71.784125 -71.633812 70.8935 -70.743187 69.791938 -70.743187 C 68.690375 -70.743187 67.79975 -71.633812 67.79975 -72.735375 C 67.79975 -73.836937 68.690375 -74.727562 69.791938 -74.727562 C 70.8935 -74.727562 71.784125 -73.836937 71.784125 -72.735375 Z " transform="matrix(1,0,0,-1,15.294,170.124)"/>
<path style="fill-rule:nonzero;fill:rgb(0%,0%,0%);fill-opacity:1;stroke-width:1.99255;stroke-linecap:butt;stroke-linejoin:miter;stroke:rgb(0%,0%,0%);stroke-opacity:1;stroke-miterlimit:10;" d="M 59.479438 -2.942406 C 59.479438 -1.84475 58.584906 -0.950219 57.48725 -0.950219 C 56.385688 -0.950219 55.491156 -1.84475 55.491156 -2.942406 C 55.491156 -4.043969 56.385688 -4.934594 57.48725 -4.934594 C 58.584906 -4.934594 59.479438 -4.043969 59.479438 -2.942406 Z " transform="matrix(1,0,0,-1,15.294,170.124)"/>
<path style="fill-rule:nonzero;fill:rgb(0%,0%,0%);fill-opacity:1;stroke-width:1.99255;stroke-linecap:butt;stroke-linejoin:miter;stroke:rgb(0%,0%,0%);stroke-opacity:1;stroke-miterlimit:10;" d="M -10.313531 -15.251 C -10.313531 -14.149437 -11.204156 -13.254906 -12.305719 -13.254906 C -13.407281 -13.254906 -14.297906 -14.149437 -14.297906 -15.251 C -14.297906 -16.348656 -13.407281 -17.243187 -12.305719 -17.243187 C -11.204156 -17.243187 -10.313531 -16.348656 -10.313531 -15.251 Z " transform="matrix(1,0,0,-1,15.294,170.124)"/>
</g>
</svg>
