<?xml version="1.0" encoding="UTF-8" standalone="no"?>
<!-- Created with Inkscape (http://www.inkscape.org/) -->

<svg
   xmlns:dc="http://purl.org/dc/elements/1.1/"
   xmlns:cc="http://creativecommons.org/ns#"
   xmlns:rdf="http://www.w3.org/1999/02/22-rdf-syntax-ns#"
   xmlns:svg="http://www.w3.org/2000/svg"
   xmlns="http://www.w3.org/2000/svg"
   xmlns:sodipodi="http://sodipodi.sourceforge.net/DTD/sodipodi-0.dtd"
   xmlns:inkscape="http://www.inkscape.org/namespaces/inkscape"
   width="210mm"
   height="297mm"
   id="svg2"
   version="1.1"
   inkscape:version="0.48.1 r9760"
   sodipodi:docname="dünner Stab.svg">
  <defs
     id="defs4">
    <marker
       inkscape:stockid="Arrow1Lend"
       orient="auto"
       refY="0.0"
       refX="0.0"
       id="Arrow1Lend"
       style="overflow:visible;">
      <path
         id="path4043"
         d="M 0.0,0.0 L 5.0,-5.0 L -12.5,0.0 L 5.0,5.0 L 0.0,0.0 z "
         style="fill-rule:evenodd;stroke:#000000;stroke-width:1.0pt;marker-start:none;"
         transform="scale(0.8) rotate(180) translate(12.5,0)" />
    </marker>
    <marker
       inkscape:stockid="Arrow1Lstart"
       orient="auto"
       refY="0.0"
       refX="0.0"
       id="Arrow1Lstart"
       style="overflow:visible">
      <path
         id="path4040"
         d="M 0.0,0.0 L 5.0,-5.0 L -12.5,0.0 L 5.0,5.0 L 0.0,0.0 z "
         style="fill-rule:evenodd;stroke:#000000;stroke-width:1.0pt;marker-start:none"
         transform="scale(0.8) translate(12.5,0)" />
    </marker>
    <marker
       inkscape:stockid="Arrow1Mend"
       orient="auto"
       refY="0"
       refX="0"
       id="Arrow1Mend"
       style="overflow:visible">
      <path
         inkscape:connector-curvature="0"
         id="path3789"
         d="M 0,0 5,-5 -12.5,0 5,5 0,0 z"
         style="fill-rule:evenodd;stroke:#000000;stroke-width:1pt;marker-start:none"
         transform="matrix(-0.4,0,0,-0.4,-4,0)" />
    </marker>
  </defs>
  <sodipodi:namedview
     id="base"
     pagecolor="#ffffff"
     bordercolor="#666666"
     borderopacity="1.0"
     inkscape:pageopacity="0.0"
     inkscape:pageshadow="2"
     inkscape:zoom="1"
     inkscape:cx="715.01491"
     inkscape:cy="717.34665"
     inkscape:document-units="px"
     inkscape:current-layer="layer1"
     showgrid="true"
     inkscape:window-width="1680"
     inkscape:window-height="988"
     inkscape:window-x="-8"
     inkscape:window-y="-8"
     inkscape:window-maximized="1" />
  <metadata
     id="metadata7">
    <rdf:RDF>
      <cc:Work
         rdf:about="">
        <dc:format>image/svg+xml</dc:format>
        <dc:type
           rdf:resource="http://purl.org/dc/dcmitype/StillImage" />
        <dc:title></dc:title>
      </cc:Work>
    </rdf:RDF>
  </metadata>
  <g
     inkscape:label="Ebene 1"
     inkscape:groupmode="layer"
     id="layer1">
    <path
       style="opacity:0.87000001999999999;fill:#ffffff;stroke:#000000;stroke-width:1.02600001999999990;stroke-miterlimit:4;stroke-opacity:1;stroke-dasharray:none;stroke-dashoffset:0"
       d=""
       id="path2999"
       inkscape:connector-curvature="0" />
    <g
       id="g3239"
       inkscape:export-filename="C:\Users\zc 4279\Documents\MINT\Skripte\Skript_Phys\Modul7\Bilder geändert\duenner_Stab_1.png"
       inkscape:export-xdpi="300"
       inkscape:export-ydpi="300">
      <path
         inkscape:connector-curvature="0"
         id="path2985"
         d="M 99,158.36218 C 300,57.362183 300,57.362183 300,57.362183"
         style="fill:none;stroke:#000000;stroke-width:1px;stroke-linecap:butt;stroke-linejoin:miter;stroke-opacity:1" />
      <path
         style="fill:none;stroke:#000000;stroke-width:1px;stroke-linecap:butt;stroke-linejoin:miter;stroke-opacity:1"
         d="M 105,166.36218 C 306,65.362183 306,65.362183 306,65.362183"
         id="path2987"
         inkscape:connector-curvature="0" />
      <path
         transform="translate(-201,25)"
         d="m 309,136.36218 a 5,5 0 1 1 -10,0 5,5 0 1 1 10,0 z"
         sodipodi:ry="5"
         sodipodi:rx="5"
         sodipodi:cy="136.36218"
         sodipodi:cx="304"
         id="path2989"
         style="opacity:0.87000002;fill:none;stroke:#000000;stroke-width:1.02600002;stroke-miterlimit:4;stroke-opacity:1;stroke-dasharray:none;stroke-dashoffset:0"
         sodipodi:type="arc" />
      <path
         sodipodi:open="true"
         sodipodi:end="2.9688051"
         sodipodi:start="0.83252205"
         sodipodi:type="arc"
         style="opacity:0.87000002;fill:none;stroke:#000000;stroke-width:1.02600002;stroke-miterlimit:4;stroke-opacity:1;stroke-dasharray:none;stroke-dashoffset:0"
         id="path2991"
         sodipodi:cx="304"
         sodipodi:cy="136.36218"
         sodipodi:rx="5"
         sodipodi:ry="5"
         d="m 307.36506,140.06034 a 5,5 0 0 1 -8.29061,-2.83851"
         transform="matrix(0,1,1,0,163.56363,-242.14942)" />
      <path
         inkscape:connector-curvature="0"
         id="path3779"
         d="m 204,36.362183 c 0,73.999997 0,73.999997 0,73.999997"
         style="fill:none;stroke:#000000;stroke-width:1.39999998;stroke-linecap:butt;stroke-linejoin:miter;stroke-miterlimit:4;stroke-opacity:1;stroke-dasharray:none" />
      <path
         style="fill:none;stroke:#000000;stroke-width:1.39999998;stroke-linecap:butt;stroke-linejoin:miter;stroke-miterlimit:4;stroke-opacity:1;stroke-dasharray:none"
         d="m 204,117.36218 c 0,74 0,74 0,74"
         id="path3781"
         inkscape:connector-curvature="0" />
      <g
         id="g3968"
         transform="matrix(1.3814166,0,0,1.3924813,-75.301722,-165.94047)">
        <path
           sodipodi:open="true"
           sodipodi:end="9.7284652"
           sodipodi:start="6.0353486"
           d="m 209.70209,225.38095 c 1.32093,2.14164 -1.8401,4.3171 -7.06034,4.85901 -5.22025,0.54192 -10.52292,-0.75491 -11.84384,-2.89655 -0.44251,-0.71745 -0.39119,-1.47119 0.14825,-2.17739"
           sodipodi:ry="4"
           sodipodi:rx="9.75"
           sodipodi:cy="226.36218"
           sodipodi:cx="200.25"
           id="path3970"
           style="opacity:0.87000002;fill:none;stroke:#000000;stroke-width:0.5;stroke-miterlimit:4;stroke-opacity:1;stroke-dasharray:none;stroke-dashoffset:0;marker-start:none;marker-end:none"
           sodipodi:type="arc" />
        <path
           inkscape:transform-center-y="35.335303"
           inkscape:transform-center-x="-72.475175"
           inkscape:connector-curvature="0"
           id="path3972"
           d="m 210.12927,226.06645 c -1.27341,-2.52553 -1.27341,-2.52553 -1.27341,-2.52553"
           style="fill:none;stroke:#000000;stroke-width:0.5;stroke-linecap:butt;stroke-linejoin:miter;stroke-miterlimit:4;stroke-opacity:1;stroke-dasharray:none;marker-end:url(#Arrow1Mend)" />
      </g>
      <text
         sodipodi:linespacing="125%"
         id="text5621"
         y="170.38757"
         x="174.95801"
         style="font-size:12px;font-style:normal;font-variant:normal;font-weight:normal;font-stretch:normal;text-align:start;line-height:125%;letter-spacing:0px;word-spacing:0px;writing-mode:lr-tb;text-anchor:start;fill:#000000;fill-opacity:1;stroke:none;font-family:Calibri;-inkscape-font-specification:Calibri"
         xml:space="preserve"><tspan
           y="170.38757"
           x="174.95801"
           id="tspan5623"
           sodipodi:role="line">Drehachse</tspan></text>
      <path
         inkscape:connector-curvature="0"
         id="path4025"
         d="m 108.58757,160.51553 c 0,-1.265 -0.49644,-2.79644 -1.1032,-3.4032 -0.80426,-0.80426 11.71521,-7.56498 46.20234,-24.95 26.01804,-13.11574 47.66448,-23.9968 48.1032,-24.18014 0.43871,-0.18333 0.79766,0.37917 0.79766,1.25 0,0.87084 0.45,1.58334 1,1.58334 0.55,0 1,-1.01466 1,-2.2548 0,-1.97544 5.99839,-5.25324 48.41425,-26.455785 40.91771,-20.453658 48.59967,-23.977575 49.61167,-22.758185 2.20625,2.65837 0.25258,6.290065 -4.7929,8.909552 -2.60316,1.351495 -6.05495,3.354581 -7.67064,4.451303 -1.61569,1.096722 -3.30319,1.768104 -3.75,1.491959 -0.44681,-0.276144 -0.81238,0.146994 -0.81238,0.940306 0,0.793312 -0.90062,1.677903 -2.00138,1.965758 -1.30421,0.341057 -1.80089,0.120425 -1.42584,-0.633369 0.31654,-0.636207 -0.0648,-0.376236 -0.8475,0.577715 -0.78267,0.953952 -1.71604,1.441452 -2.07416,1.083334 -0.35811,-0.358118 -0.65112,-0.126123 -0.65112,0.515543 0,0.641667 -0.92331,1.166667 -2.0518,1.166667 -2.34756,0 -33.06101,15.582224 -34.18011,17.341002 -0.40561,0.637449 -0.75125,0.708998 -0.76809,0.158998 -0.0204,-0.666667 -0.27552,-0.666667 -0.76531,0 -0.40408,0.55 -1.79428,1.595721 -3.08933,2.323825 -1.95375,1.098437 -2.23907,1.098437 -1.67585,0 0.40479,-0.789432 0.13622,-0.718314 -0.66532,0.176175 -0.73927,0.825002 -2.39473,2.095722 -3.6788,2.823822 -1.93718,1.09844 -2.2191,1.09844 -1.65588,0 0.37334,-0.7281 0.0384,-0.54332 -0.74423,0.41063 -0.78267,0.95396 -1.60427,1.55322 -1.82578,1.33171 -0.57604,-0.57603 -76.43081,37.58805 -78.88289,39.68759 -1.12171,0.96043 -2.59683,1.75036 -3.27804,1.75539 -0.68122,0.005 -9.05331,3.83003 -18.60464,8.5 -9.55134,4.66997 -17.53884,8.49086 -17.75,8.49086 -0.21116,0 -0.38393,-1.035 -0.38393,-2.3 z"
         style="opacity:0.87000002;fill:#ffccaa;fill-opacity:1;stroke:#ffffff;stroke-width:0.48100001;stroke-miterlimit:4;stroke-opacity:1;stroke-dasharray:none;stroke-dashoffset:0" />
      <path
         inkscape:connector-curvature="0"
         id="path4031"
         d="M 128,163.36218 C 329,63.362183 329,63.362183 329,63.362183"
         style="fill:none;stroke:#000000;stroke-width:0.60000002;stroke-linecap:butt;stroke-linejoin:miter;stroke-miterlimit:4;stroke-opacity:1;stroke-dasharray:none;marker-start:url(#Arrow1Lstart);marker-end:url(#Arrow1Lend)" />
      <path
         inkscape:connector-curvature="0"
         id="path4033"
         d="m 102.00253,162.36218 c 43.61482,0 43.61482,0 43.61482,0"
         style="fill:none;stroke:#000000;stroke-width:0.60898238;stroke-linecap:butt;stroke-linejoin:miter;stroke-miterlimit:4;stroke-opacity:1;stroke-dasharray:none" />
      <path
         style="fill:none;stroke:#000000;stroke-width:0.63700002;stroke-linecap:butt;stroke-linejoin:miter;stroke-miterlimit:4;stroke-opacity:1;stroke-dasharray:none"
         d="m 305.15306,63.36218 c 28.69388,0 28.69388,0 28.69388,0"
         id="path4035"
         inkscape:connector-curvature="0" />
      <text
         sodipodi:linespacing="125%"
         id="text4671"
         y="121.36218"
         x="244"
         style="font-size:16px;font-style:normal;font-variant:normal;font-weight:normal;font-stretch:normal;text-align:start;line-height:125%;letter-spacing:0px;word-spacing:0px;writing-mode:lr-tb;text-anchor:start;fill:#000000;fill-opacity:1;stroke:none;font-family:Calibri;-inkscape-font-specification:Calibri"
         xml:space="preserve"><tspan
           y="121.36218"
           x="244"
           id="tspan4673"
           sodipodi:role="line">l</tspan></text>
      <path
         style="fill:none;stroke:#000000;stroke-width:0.60000002;stroke-linecap:butt;stroke-linejoin:miter;stroke-miterlimit:4;stroke-opacity:1;stroke-dasharray:none;marker-start:none;marker-end:url(#Arrow1Lend)"
         d="M 204,183.36218 C 405,83.362183 405,83.362183 405,83.362183"
         id="path4675"
         inkscape:connector-curvature="0" />
      <text
         sodipodi:linespacing="125%"
         id="text4863"
         y="194.36218"
         x="209"
         style="font-size:16px;font-style:normal;font-variant:normal;font-weight:normal;font-stretch:normal;text-align:start;line-height:125%;letter-spacing:0px;word-spacing:0px;writing-mode:lr-tb;text-anchor:start;fill:#000000;fill-opacity:1;stroke:none;font-family:Calibri;-inkscape-font-specification:Calibri"
         xml:space="preserve"><tspan
           y="194.36218"
           x="209"
           id="tspan4865"
           sodipodi:role="line">0</tspan></text>
      <text
         sodipodi:linespacing="125%"
         id="text4867"
         y="103.36218"
         x="398"
         style="font-size:16px;font-style:normal;font-variant:normal;font-weight:normal;font-stretch:normal;text-align:start;line-height:125%;letter-spacing:0px;word-spacing:0px;writing-mode:lr-tb;text-anchor:start;fill:#000000;fill-opacity:1;stroke:none;font-family:Calibri;-inkscape-font-specification:Calibri"
         xml:space="preserve"><tspan
           y="103.36218"
           x="398"
           id="tspan4869"
           sodipodi:role="line">x</tspan></text>
      <path
         transform="matrix(-0.61935786,-0.3307605,0.29415114,-0.6964417,462.8063,333.02083)"
         sodipodi:open="true"
         sodipodi:end="2.9688051"
         sodipodi:start="0.83252205"
         d="m 414.89362,168.75849 a 9.5,10 0 0 1 -15.75216,-5.67702"
         sodipodi:ry="10"
         sodipodi:rx="9.5"
         sodipodi:cy="161.36218"
         sodipodi:cx="408.5"
         id="path4871"
         style="opacity:0.87000002;fill:#ff0000;fill-opacity:1;stroke:#ffffff;stroke-width:0.60900003;stroke-miterlimit:4;stroke-opacity:1;stroke-dasharray:none;stroke-dashoffset:0"
         sodipodi:type="arc" />
      <text
         sodipodi:linespacing="125%"
         id="text4873"
         y="71.362183"
         x="236"
         style="font-size:16px;font-style:normal;font-variant:normal;font-weight:normal;font-stretch:normal;text-align:start;line-height:125%;letter-spacing:0px;word-spacing:0px;writing-mode:lr-tb;text-anchor:start;fill:#ff0000;fill-opacity:1;stroke:none;font-family:Calibri;-inkscape-font-specification:Calibri"
         xml:space="preserve"><tspan
           y="71.362183"
           x="236"
           id="tspan4875"
           sodipodi:role="line">dm</tspan></text>
      <path
         inkscape:connector-curvature="0"
         id="path4877"
         d="m 204,35.362183 c 0,-19 0,-19 0,-19"
         style="fill:none;stroke:#000000;stroke-width:0.60000002;stroke-linecap:butt;stroke-linejoin:miter;stroke-miterlimit:4;stroke-opacity:1;stroke-dasharray:none;marker-end:url(#Arrow1Lend)" />
      <text
         sodipodi:linespacing="125%"
         id="text5065"
         y="30.362183"
         x="190"
         style="font-size:16px;font-style:normal;font-variant:normal;font-weight:normal;font-stretch:normal;text-align:start;line-height:125%;letter-spacing:0px;word-spacing:0px;writing-mode:lr-tb;text-anchor:start;fill:#000000;fill-opacity:1;stroke:none;font-family:Calibri;-inkscape-font-specification:Calibri"
         xml:space="preserve"><tspan
           y="30.362183"
           x="190"
           id="tspan5067"
           sodipodi:role="line">z</tspan></text>
    </g>
    <g
       id="g3298"
       inkscape:export-filename="C:\Users\zc 4279\Documents\MINT\Skripte\Skript_Phys\Modul7\Bilder geändert\duenner_Stab_2.png"
       inkscape:export-xdpi="300"
       inkscape:export-ydpi="300">
      <path
         style="fill:none;stroke:#000000;stroke-width:1px;stroke-linecap:butt;stroke-linejoin:miter;stroke-opacity:1"
         d="m 100,394.36218 c 201,-101 201,-101 201,-101"
         id="path3097"
         inkscape:connector-curvature="0" />
      <path
         inkscape:connector-curvature="0"
         id="path3099"
         d="m 106,402.36218 c 201,-101 201,-101 201,-101"
         style="fill:none;stroke:#000000;stroke-width:1px;stroke-linecap:butt;stroke-linejoin:miter;stroke-opacity:1" />
      <path
         sodipodi:type="arc"
         style="opacity:0.87000002;fill:none;stroke:#000000;stroke-width:1.02600002;stroke-miterlimit:4;stroke-opacity:1;stroke-dasharray:none;stroke-dashoffset:0"
         id="path3101"
         sodipodi:cx="304"
         sodipodi:cy="136.36218"
         sodipodi:rx="5"
         sodipodi:ry="5"
         d="m 309,136.36218 a 5,5 0 1 1 -10,0 5,5 0 1 1 10,0 z"
         transform="translate(-200,261)" />
      <text
         xml:space="preserve"
         style="font-size:12px;font-style:normal;font-variant:normal;font-weight:normal;font-stretch:normal;text-align:start;line-height:125%;letter-spacing:0px;word-spacing:0px;writing-mode:lr-tb;text-anchor:start;fill:#000000;fill-opacity:1;stroke:none;font-family:Calibri;-inkscape-font-specification:Calibri"
         x="78.958008"
         y="491.38757"
         id="text3115"
         sodipodi:linespacing="125%"><tspan
           sodipodi:role="line"
           id="tspan3117"
           x="78.958008"
           y="491.38757">Drehachse</tspan></text>
      <path
         style="opacity:0.87000002;fill:#ffccaa;fill-opacity:1;stroke:#ffffff;stroke-width:0.48100001;stroke-miterlimit:4;stroke-opacity:1;stroke-dasharray:none;stroke-dashoffset:0"
         d="m 109.58757,396.51553 c 0,-1.265 -0.49644,-2.79644 -1.1032,-3.4032 -0.80426,-0.80426 11.71521,-7.56498 46.20234,-24.95 26.01804,-13.11574 47.66448,-23.9968 48.1032,-24.18014 0.43871,-0.18333 0.79766,0.37917 0.79766,1.25 0,0.87084 0.45,1.58334 1,1.58334 0.55,0 1,-1.01466 1,-2.2548 0,-1.97544 5.99839,-5.25324 48.41425,-26.45578 40.91771,-20.45366 48.59967,-23.97758 49.61167,-22.75819 2.20625,2.65837 0.25258,6.29007 -4.7929,8.90955 -2.60316,1.3515 -6.05495,3.35458 -7.67064,4.45131 -1.61569,1.09672 -3.30319,1.7681 -3.75,1.49195 -0.44681,-0.27614 -0.81238,0.147 -0.81238,0.94031 0,0.79331 -0.90062,1.6779 -2.00138,1.96576 -1.30421,0.34106 -1.80089,0.12042 -1.42584,-0.63337 0.31654,-0.63621 -0.0648,-0.37624 -0.8475,0.57771 -0.78267,0.95396 -1.71604,1.44146 -2.07416,1.08334 -0.35811,-0.35812 -0.65112,-0.12612 -0.65112,0.51554 0,0.64167 -0.92331,1.16667 -2.0518,1.16667 -2.34756,0 -33.06101,15.58222 -34.18011,17.341 -0.40561,0.63745 -0.75125,0.709 -0.76809,0.159 -0.0204,-0.66667 -0.27552,-0.66667 -0.76531,0 -0.40408,0.55 -1.79428,1.59572 -3.08933,2.32382 -1.95375,1.09844 -2.23907,1.09844 -1.67585,0 0.40479,-0.78943 0.13622,-0.71831 -0.66532,0.17618 -0.73927,0.825 -2.39473,2.09572 -3.6788,2.82382 -1.93718,1.09844 -2.2191,1.09844 -1.65588,0 0.37334,-0.7281 0.0384,-0.54332 -0.74423,0.41063 -0.78267,0.95396 -1.60427,1.55322 -1.82578,1.33171 -0.57604,-0.57603 -76.43081,37.58805 -78.88289,39.68759 -1.12171,0.96043 -2.59683,1.75036 -3.27804,1.75539 -0.68122,0.005 -9.05331,3.83003 -18.60464,8.5 -9.55134,4.66997 -17.53884,8.49086 -17.75,8.49086 -0.21116,0 -0.38393,-1.035 -0.38393,-2.3 z"
         id="path3119"
         inkscape:connector-curvature="0" />
      <path
         style="fill:none;stroke:#000000;stroke-width:0.60000002;stroke-linecap:butt;stroke-linejoin:miter;stroke-miterlimit:4;stroke-opacity:1;stroke-dasharray:none;marker-start:url(#Arrow1Lstart);marker-end:url(#Arrow1Lend)"
         d="m 129,399.36218 c 201,-100 201,-100 201,-100"
         id="path3121"
         inkscape:connector-curvature="0" />
      <path
         style="fill:none;stroke:#000000;stroke-width:0.60898238;stroke-linecap:butt;stroke-linejoin:miter;stroke-miterlimit:4;stroke-opacity:1;stroke-dasharray:none"
         d="m 103.00253,398.36218 c 43.61482,0 43.61482,0 43.61482,0"
         id="path3123"
         inkscape:connector-curvature="0" />
      <text
         xml:space="preserve"
         style="font-size:16px;font-style:normal;font-variant:normal;font-weight:normal;font-stretch:normal;text-align:start;line-height:125%;letter-spacing:0px;word-spacing:0px;writing-mode:lr-tb;text-anchor:start;fill:#ff0000;fill-opacity:1;stroke:none;font-family:Calibri;-inkscape-font-specification:Calibri"
         x="219"
         y="317.36218"
         id="text3143"
         sodipodi:linespacing="125%"><tspan
           sodipodi:role="line"
           id="tspan3145"
           x="219"
           y="317.36218">dm</tspan></text>
      <path
         transform="matrix(0,1,1,0,164.56363,-5.14942)"
         d="m 307.36506,140.06034 a 5,5 0 0 1 -8.29061,-2.83851"
         sodipodi:ry="5"
         sodipodi:rx="5"
         sodipodi:cy="136.36218"
         sodipodi:cx="304"
         id="path3103"
         style="opacity:0.87000002;fill:none;stroke:#000000;stroke-width:1.02600002;stroke-miterlimit:4;stroke-opacity:1;stroke-dasharray:none;stroke-dashoffset:0"
         sodipodi:type="arc"
         sodipodi:start="0.83252205"
         sodipodi:end="2.9688051"
         sodipodi:open="true" />
      <path
         style="fill:none;stroke:#000000;stroke-width:1.48199999;stroke-linecap:butt;stroke-linejoin:miter;stroke-miterlimit:4;stroke-opacity:1;stroke-dasharray:none"
         d="m 103.5,320.16059 c 0,158.40318 0,158.40318 0,158.40318"
         id="path3105"
         inkscape:connector-curvature="0" />
      <g
         transform="matrix(1.3814166,0,0,1.3924813,-175.30172,118.05953)"
         id="g3109">
        <path
           sodipodi:type="arc"
           style="opacity:0.87000002;fill:none;stroke:#000000;stroke-width:0.5;stroke-miterlimit:4;stroke-opacity:1;stroke-dasharray:none;stroke-dashoffset:0;marker-start:none;marker-end:none"
           id="path3111"
           sodipodi:cx="200.25"
           sodipodi:cy="226.36218"
           sodipodi:rx="9.75"
           sodipodi:ry="4"
           d="m 209.70209,225.38095 c 1.32093,2.14164 -1.8401,4.3171 -7.06034,4.85901 -5.22025,0.54192 -10.52292,-0.75491 -11.84384,-2.89655 -0.44251,-0.71745 -0.39119,-1.47119 0.14825,-2.17739"
           sodipodi:start="6.0353486"
           sodipodi:end="9.7284652"
           sodipodi:open="true" />
        <path
           style="fill:none;stroke:#000000;stroke-width:0.5;stroke-linecap:butt;stroke-linejoin:miter;stroke-miterlimit:4;stroke-opacity:1;stroke-dasharray:none;marker-end:url(#Arrow1Mend)"
           d="m 210.12927,226.06645 c -1.27341,-2.52553 -1.27341,-2.52553 -1.27341,-2.52553"
           id="path3113"
           inkscape:connector-curvature="0"
           inkscape:transform-center-x="-72.475175"
           inkscape:transform-center-y="35.335303" />
      </g>
      <path
         inkscape:connector-curvature="0"
         id="path3125"
         d="m 305.15306,298.36218 c 28.69388,0 28.69388,0 28.69388,0"
         style="fill:none;stroke:#000000;stroke-width:0.63700002;stroke-linecap:butt;stroke-linejoin:miter;stroke-miterlimit:4;stroke-opacity:1;stroke-dasharray:none" />
      <text
         xml:space="preserve"
         style="font-size:16px;font-style:normal;font-variant:normal;font-weight:normal;font-stretch:normal;text-align:start;line-height:125%;letter-spacing:0px;word-spacing:0px;writing-mode:lr-tb;text-anchor:start;fill:#000000;fill-opacity:1;stroke:none;font-family:Calibri;-inkscape-font-specification:Calibri"
         x="217"
         y="370.36218"
         id="text3127"
         sodipodi:linespacing="125%"><tspan
           sodipodi:role="line"
           id="tspan3129"
           x="217"
           y="370.36218">l</tspan></text>
      <path
         inkscape:connector-curvature="0"
         id="path3131"
         d="m 104,467.36218 c 201,-100 201,-100 201,-100"
         style="fill:none;stroke:#000000;stroke-width:0.60000002;stroke-linecap:butt;stroke-linejoin:miter;stroke-miterlimit:4;stroke-opacity:1;stroke-dasharray:none;marker-start:none;marker-end:url(#Arrow1Lend)" />
      <text
         xml:space="preserve"
         style="font-size:16px;font-style:normal;font-variant:normal;font-weight:normal;font-stretch:normal;text-align:start;line-height:125%;letter-spacing:0px;word-spacing:0px;writing-mode:lr-tb;text-anchor:start;fill:#000000;fill-opacity:1;stroke:none;font-family:Calibri;-inkscape-font-specification:Calibri"
         x="109"
         y="478.36218"
         id="text3133"
         sodipodi:linespacing="125%"><tspan
           sodipodi:role="line"
           id="tspan3135"
           x="109"
           y="478.36218">0</tspan></text>
      <text
         xml:space="preserve"
         style="font-size:16px;font-style:normal;font-variant:normal;font-weight:normal;font-stretch:normal;text-align:start;line-height:125%;letter-spacing:0px;word-spacing:0px;writing-mode:lr-tb;text-anchor:start;fill:#000000;fill-opacity:1;stroke:none;font-family:Calibri;-inkscape-font-specification:Calibri"
         x="298"
         y="387.36218"
         id="text3137"
         sodipodi:linespacing="125%"><tspan
           sodipodi:role="line"
           id="tspan3139"
           x="298"
           y="387.36218">x</tspan></text>
      <path
         sodipodi:type="arc"
         style="opacity:0.87000002;fill:#ff0000;fill-opacity:1;stroke:#ffffff;stroke-width:0.60900003;stroke-miterlimit:4;stroke-opacity:1;stroke-dasharray:none;stroke-dashoffset:0"
         id="path3141"
         sodipodi:cx="408.5"
         sodipodi:cy="161.36218"
         sodipodi:rx="9.5"
         sodipodi:ry="10"
         d="m 414.89362,168.75849 a 9.5,10 0 0 1 -15.75216,-5.67702"
         sodipodi:start="0.83252205"
         sodipodi:end="2.9688051"
         sodipodi:open="true"
         transform="matrix(-0.61935786,-0.3307605,0.29415114,-0.6964417,453.8063,574.02083)" />
      <path
         style="fill:none;stroke:#000000;stroke-width:0.60000002;stroke-linecap:butt;stroke-linejoin:miter;stroke-miterlimit:4;stroke-opacity:1;stroke-dasharray:none;marker-end:url(#Arrow1Lend)"
         d="m 103,319.36218 c 0,-19 0,-19 0,-19"
         id="path3147"
         inkscape:connector-curvature="0" />
      <text
         transform="scale(-0.05598925,17.860571)"
         xml:space="preserve"
         style="font-size:0.89582801px;font-style:normal;font-variant:normal;font-weight:normal;font-stretch:normal;text-align:start;line-height:125%;letter-spacing:0px;word-spacing:0px;writing-mode:lr-tb;text-anchor:start;fill:#000000;fill-opacity:1;stroke:none;font-family:Calibri;-inkscape-font-specification:Calibri"
         x="-1637.7695"
         y="17.600903"
         id="text3149"
         sodipodi:linespacing="125%"><tspan
           sodipodi:role="line"
           id="tspan3151"
           x="-1637.7695"
           y="17.600903">z</tspan></text>
      <text
         xml:space="preserve"
         style="font-size:16px;font-style:normal;font-variant:normal;font-weight:normal;font-stretch:normal;text-align:start;line-height:125%;letter-spacing:0px;word-spacing:0px;writing-mode:lr-tb;text-anchor:start;fill:#000000;fill-opacity:1;stroke:none;font-family:Calibri;-inkscape-font-specification:Calibri"
         x="90"
         y="315.36218"
         id="text4033"
         sodipodi:linespacing="125%"><tspan
           sodipodi:role="line"
           id="tspan4035"
           x="90"
           y="315.36218">z</tspan></text>
    </g>
    <g
       id="g3224"
       inkscape:export-filename="C:\Users\zc 4279\Documents\MINT\Skripte\Skript_Phys\Modul7\Bilder geändert\duenner_Stab_Tab.png"
       inkscape:export-xdpi="300"
       inkscape:export-ydpi="300">
      <path
         style="fill:none;stroke:#000000;stroke-width:1px;stroke-linecap:butt;stroke-linejoin:miter;stroke-opacity:1"
         d="m 420,248.36218 c 201,-101 201,-101 201,-101"
         id="path3157"
         inkscape:connector-curvature="0" />
      <path
         inkscape:connector-curvature="0"
         id="path3159"
         d="m 426,256.36218 c 201,-101 201,-101 201,-101"
         style="fill:none;stroke:#000000;stroke-width:1px;stroke-linecap:butt;stroke-linejoin:miter;stroke-opacity:1" />
      <path
         sodipodi:type="arc"
         style="opacity:0.87000002;fill:none;stroke:#000000;stroke-width:1.02600002;stroke-miterlimit:4;stroke-opacity:1;stroke-dasharray:none;stroke-dashoffset:0"
         id="path3161"
         sodipodi:cx="304"
         sodipodi:cy="136.36218"
         sodipodi:rx="5"
         sodipodi:ry="5"
         d="m 309,136.36218 a 5,5 0 1 1 -10,0 5,5 0 1 1 10,0 z"
         transform="translate(120,115)" />
      <path
         transform="matrix(0,1,1,0,484.56363,-152.14942)"
         d="m 307.36506,140.06034 a 5,5 0 0 1 -8.29061,-2.83851"
         sodipodi:ry="5"
         sodipodi:rx="5"
         sodipodi:cy="136.36218"
         sodipodi:cx="304"
         id="path3163"
         style="opacity:0.87000002;fill:none;stroke:#000000;stroke-width:1.02600002;stroke-miterlimit:4;stroke-opacity:1;stroke-dasharray:none;stroke-dashoffset:0"
         sodipodi:type="arc"
         sodipodi:start="0.83252205"
         sodipodi:end="2.9688051"
         sodipodi:open="true" />
      <path
         style="fill:none;stroke:#000000;stroke-width:1.39999998;stroke-linecap:butt;stroke-linejoin:miter;stroke-miterlimit:4;stroke-opacity:1;stroke-dasharray:none"
         d="m 525,126.36218 c 0,74 0,74 0,74"
         id="path3165"
         inkscape:connector-curvature="0" />
      <path
         inkscape:connector-curvature="0"
         id="path3167"
         d="m 525,207.36218 c 0,74 0,74 0,74"
         style="fill:none;stroke:#000000;stroke-width:1.39999998;stroke-linecap:butt;stroke-linejoin:miter;stroke-miterlimit:4;stroke-opacity:1;stroke-dasharray:none" />
      <g
         transform="matrix(1.3814166,0,0,1.3924813,245.69828,-75.94047)"
         id="g3169">
        <path
           sodipodi:type="arc"
           style="opacity:0.87000002;fill:none;stroke:#000000;stroke-width:0.5;stroke-miterlimit:4;stroke-opacity:1;stroke-dasharray:none;stroke-dashoffset:0;marker-start:none;marker-end:none"
           id="path3171"
           sodipodi:cx="200.25"
           sodipodi:cy="226.36218"
           sodipodi:rx="9.75"
           sodipodi:ry="4"
           d="m 209.70209,225.38095 c 1.32093,2.14164 -1.8401,4.3171 -7.06034,4.85901 -5.22025,0.54192 -10.52292,-0.75491 -11.84384,-2.89655 -0.44251,-0.71745 -0.39119,-1.47119 0.14825,-2.17739"
           sodipodi:start="6.0353486"
           sodipodi:end="9.7284652"
           sodipodi:open="true" />
        <path
           style="fill:none;stroke:#000000;stroke-width:0.5;stroke-linecap:butt;stroke-linejoin:miter;stroke-miterlimit:4;stroke-opacity:1;stroke-dasharray:none;marker-end:url(#Arrow1Mend)"
           d="m 210.12927,226.06645 c -1.27341,-2.52553 -1.27341,-2.52553 -1.27341,-2.52553"
           id="path3173"
           inkscape:connector-curvature="0"
           inkscape:transform-center-x="-72.475175"
           inkscape:transform-center-y="35.335303" />
      </g>
      <text
         xml:space="preserve"
         style="font-size:18px;font-style:normal;font-variant:normal;font-weight:normal;font-stretch:normal;text-align:start;line-height:125%;letter-spacing:0px;word-spacing:0px;writing-mode:lr-tb;text-anchor:start;fill:#000000;fill-opacity:1;stroke:none;font-family:Calibri;-inkscape-font-specification:Calibri"
         x="535.95801"
         y="255.38757"
         id="text3175"
         sodipodi:linespacing="125%"><tspan
           sodipodi:role="line"
           id="tspan3177"
           x="535.95801"
           y="255.38757">Drehachse</tspan></text>
      <path
         style="opacity:0.87000002;fill:#ffccaa;fill-opacity:1;stroke:#ffffff;stroke-width:0.48100001;stroke-miterlimit:4;stroke-opacity:1;stroke-dasharray:none;stroke-dashoffset:0"
         d="m 429.58757,250.51553 c 0,-1.265 -0.49644,-2.79644 -1.1032,-3.4032 -0.80426,-0.80426 11.71521,-7.56498 46.20234,-24.95 26.01804,-13.11574 47.66448,-23.9968 48.1032,-24.18014 0.43871,-0.18333 0.79766,0.37917 0.79766,1.25 0,0.87084 0.45,1.58334 1,1.58334 0.55,0 1,-1.01466 1,-2.2548 0,-1.97544 5.99839,-5.25324 48.41425,-26.45578 40.91771,-20.45366 48.59967,-23.97758 49.61167,-22.75819 2.20625,2.65837 0.25258,6.29007 -4.7929,8.90955 -2.60316,1.3515 -6.05495,3.35458 -7.67064,4.45131 -1.61569,1.09672 -3.30319,1.7681 -3.75,1.49195 -0.44681,-0.27614 -0.81238,0.147 -0.81238,0.94031 0,0.79331 -0.90062,1.6779 -2.00138,1.96576 -1.30421,0.34106 -1.80089,0.12042 -1.42584,-0.63337 0.31654,-0.63621 -0.0648,-0.37624 -0.8475,0.57771 -0.78267,0.95396 -1.71604,1.44146 -2.07416,1.08334 -0.35811,-0.35812 -0.65112,-0.12612 -0.65112,0.51554 0,0.64167 -0.92331,1.16667 -2.0518,1.16667 -2.34756,0 -33.06101,15.58222 -34.18011,17.341 -0.40561,0.63745 -0.75125,0.709 -0.76809,0.159 -0.0204,-0.66667 -0.27552,-0.66667 -0.76531,0 -0.40408,0.55 -1.79428,1.59572 -3.08933,2.32382 -1.95375,1.09844 -2.23907,1.09844 -1.67585,0 0.40479,-0.78943 0.13622,-0.71831 -0.66532,0.17618 -0.73927,0.825 -2.39473,2.09572 -3.6788,2.82382 -1.93718,1.09844 -2.2191,1.09844 -1.65588,0 0.37334,-0.7281 0.0384,-0.54332 -0.74423,0.41063 -0.78267,0.95396 -1.60427,1.55322 -1.82578,1.33171 -0.57604,-0.57603 -76.43081,37.58805 -78.88289,39.68759 -1.12171,0.96043 -2.59683,1.75036 -3.27804,1.75539 -0.68122,0.005 -9.05331,3.83003 -18.60464,8.5 -9.55134,4.66997 -17.53884,8.49086 -17.75,8.49086 -0.21116,0 -0.38393,-1.035 -0.38393,-2.3 z"
         id="path3179"
         inkscape:connector-curvature="0" />
      <path
         style="fill:none;stroke:#000000;stroke-width:0.60000002;stroke-linecap:butt;stroke-linejoin:miter;stroke-miterlimit:4;stroke-opacity:1;stroke-dasharray:none;marker-start:url(#Arrow1Lstart);marker-end:url(#Arrow1Lend)"
         d="m 449,253.36218 c 201,-100 201,-100 201,-100"
         id="path3181"
         inkscape:connector-curvature="0" />
      <path
         style="fill:none;stroke:#000000;stroke-width:0.60898238;stroke-linecap:butt;stroke-linejoin:miter;stroke-miterlimit:4;stroke-opacity:1;stroke-dasharray:none"
         d="m 423.00253,252.36218 c 43.61482,0 43.61482,0 43.61482,0"
         id="path3183"
         inkscape:connector-curvature="0" />
      <path
         inkscape:connector-curvature="0"
         id="path3185"
         d="m 626.15306,153.36218 c 28.69388,0 28.69388,0 28.69388,0"
         style="fill:none;stroke:#000000;stroke-width:0.63700002;stroke-linecap:butt;stroke-linejoin:miter;stroke-miterlimit:4;stroke-opacity:1;stroke-dasharray:none" />
      <text
         xml:space="preserve"
         style="font-size:18px;font-style:normal;font-variant:normal;font-weight:normal;font-stretch:normal;text-align:start;line-height:125%;letter-spacing:0px;word-spacing:0px;writing-mode:lr-tb;text-anchor:start;fill:#000000;fill-opacity:1;stroke:none;font-family:French Script MT;-inkscape-font-specification:French Script MT"
         x="551.79395"
         y="216.44226"
         id="text5176"
         sodipodi:linespacing="125%"><tspan
           sodipodi:role="line"
           id="tspan5178"
           x="551.79395"
           y="216.44226">l</tspan></text>
      <text
         sodipodi:linespacing="125%"
         id="text3218"
         y="155.36218"
         x="450"
         style="font-size:18px;font-style:normal;font-variant:normal;font-weight:normal;font-stretch:normal;text-align:start;line-height:125%;letter-spacing:0px;word-spacing:0px;writing-mode:lr-tb;text-anchor:start;fill:#000000;fill-opacity:1;stroke:none;font-family:Calibri;-inkscape-font-specification:Calibri"
         xml:space="preserve"><tspan
           y="155.36218"
           x="450"
           id="tspan3220"
           sodipodi:role="line">dünner</tspan><tspan
           id="tspan3222"
           y="177.86218"
           x="450"
           sodipodi:role="line">Stab</tspan></text>
    </g>
    <g
       id="g3268"
       inkscape:export-filename="C:\Users\zc 4279\Documents\MINT\Skripte\Skript_Phys\Modul7\Bilder geändert\duenner_Stab_Tab2.png"
       inkscape:export-xdpi="300"
       inkscape:export-ydpi="300">
      <text
         sodipodi:linespacing="125%"
         id="text3837"
         y="416.44226"
         x="550.79395"
         style="font-size:18px;font-style:normal;font-variant:normal;font-weight:normal;font-stretch:normal;text-align:start;line-height:125%;letter-spacing:0px;word-spacing:0px;writing-mode:lr-tb;text-anchor:start;fill:#000000;fill-opacity:1;stroke:none;font-family:French Script MT;-inkscape-font-specification:French Script MT"
         xml:space="preserve"><tspan
           y="416.44226"
           x="550.79395"
           id="tspan3839"
           sodipodi:role="line">l</tspan></text>
      <path
         inkscape:connector-curvature="0"
         id="path3862"
         d="m 420,447.36218 c 201,-101 201,-101 201,-101"
         style="fill:none;stroke:#000000;stroke-width:1px;stroke-linecap:butt;stroke-linejoin:miter;stroke-opacity:1" />
      <path
         style="fill:none;stroke:#000000;stroke-width:1px;stroke-linecap:butt;stroke-linejoin:miter;stroke-opacity:1"
         d="m 426,455.36218 c 201,-101 201,-101 201,-101"
         id="path3864"
         inkscape:connector-curvature="0" />
      <path
         transform="translate(120,314)"
         d="m 309,136.36218 a 5,5 0 1 1 -10,0 5,5 0 1 1 10,0 z"
         sodipodi:ry="5"
         sodipodi:rx="5"
         sodipodi:cy="136.36218"
         sodipodi:cx="304"
         id="path3866"
         style="opacity:0.87000002;fill:none;stroke:#000000;stroke-width:1.02600002;stroke-miterlimit:4;stroke-opacity:1;stroke-dasharray:none;stroke-dashoffset:0"
         sodipodi:type="arc" />
      <text
         sodipodi:linespacing="125%"
         id="text3868"
         y="497.38757"
         x="433.95801"
         style="font-size:18px;font-style:normal;font-variant:normal;font-weight:normal;font-stretch:normal;text-align:start;line-height:125%;letter-spacing:0px;word-spacing:0px;writing-mode:lr-tb;text-anchor:start;fill:#000000;fill-opacity:1;stroke:none;font-family:Calibri;-inkscape-font-specification:Calibri"
         xml:space="preserve"><tspan
           y="497.38757"
           x="433.95801"
           id="tspan3870"
           sodipodi:role="line">Drehachse</tspan></text>
      <path
         inkscape:connector-curvature="0"
         id="path3872"
         d="m 429.58757,449.51553 c 0,-1.265 -0.49644,-2.79644 -1.1032,-3.4032 -0.80426,-0.80426 11.71521,-7.56498 46.20234,-24.95 26.01804,-13.11574 47.66448,-23.9968 48.1032,-24.18014 0.43871,-0.18333 0.79766,0.37917 0.79766,1.25 0,0.87084 0.45,1.58334 1,1.58334 0.55,0 1,-1.01466 1,-2.2548 0,-1.97544 5.99839,-5.25324 48.41425,-26.45578 40.91771,-20.45366 48.59967,-23.97758 49.61167,-22.75819 2.20625,2.65837 0.25258,6.29007 -4.7929,8.90955 -2.60316,1.3515 -6.05495,3.35458 -7.67064,4.45131 -1.61569,1.09672 -3.30319,1.7681 -3.75,1.49195 -0.44681,-0.27614 -0.81238,0.147 -0.81238,0.94031 0,0.79331 -0.90062,1.6779 -2.00138,1.96576 -1.30421,0.34106 -1.80089,0.12042 -1.42584,-0.63337 0.31654,-0.63621 -0.0648,-0.37624 -0.8475,0.57771 -0.78267,0.95396 -1.71604,1.44146 -2.07416,1.08334 -0.35811,-0.35812 -0.65112,-0.12612 -0.65112,0.51554 0,0.64167 -0.92331,1.16667 -2.0518,1.16667 -2.34756,0 -33.06101,15.58222 -34.18011,17.341 -0.40561,0.63745 -0.75125,0.709 -0.76809,0.159 -0.0204,-0.66667 -0.27552,-0.66667 -0.76531,0 -0.40408,0.55 -1.79428,1.59572 -3.08933,2.32382 -1.95375,1.09844 -2.23907,1.09844 -1.67585,0 0.40479,-0.78943 0.13622,-0.71831 -0.66532,0.17618 -0.73927,0.825 -2.39473,2.09572 -3.6788,2.82382 -1.93718,1.09844 -2.2191,1.09844 -1.65588,0 0.37334,-0.7281 0.0384,-0.54332 -0.74423,0.41063 -0.78267,0.95396 -1.60427,1.55322 -1.82578,1.33171 -0.57604,-0.57603 -76.43081,37.58805 -78.88289,39.68759 -1.12171,0.96043 -2.59683,1.75036 -3.27804,1.75539 -0.68122,0.005 -9.05331,3.83003 -18.60464,8.5 -9.55134,4.66997 -17.53884,8.49086 -17.75,8.49086 -0.21116,0 -0.38393,-1.035 -0.38393,-2.3 z"
         style="opacity:0.87000002;fill:#ffccaa;fill-opacity:1;stroke:#ffffff;stroke-width:0.48100001;stroke-miterlimit:4;stroke-opacity:1;stroke-dasharray:none;stroke-dashoffset:0" />
      <path
         inkscape:connector-curvature="0"
         id="path3874"
         d="m 449,452.36218 c 201,-100 201,-100 201,-100"
         style="fill:none;stroke:#000000;stroke-width:0.60000002;stroke-linecap:butt;stroke-linejoin:miter;stroke-miterlimit:4;stroke-opacity:1;stroke-dasharray:none;marker-start:url(#Arrow1Lstart);marker-end:url(#Arrow1Lend)" />
      <path
         inkscape:connector-curvature="0"
         id="path3876"
         d="m 423.00253,451.36218 c 43.61482,0 43.61482,0 43.61482,0"
         style="fill:none;stroke:#000000;stroke-width:0.60898238;stroke-linecap:butt;stroke-linejoin:miter;stroke-miterlimit:4;stroke-opacity:1;stroke-dasharray:none" />
      <path
         sodipodi:open="true"
         sodipodi:end="2.9688051"
         sodipodi:start="0.83252205"
         sodipodi:type="arc"
         style="opacity:0.87000002;fill:none;stroke:#000000;stroke-width:1.02600002;stroke-miterlimit:4;stroke-opacity:1;stroke-dasharray:none;stroke-dashoffset:0"
         id="path3882"
         sodipodi:cx="304"
         sodipodi:cy="136.36218"
         sodipodi:rx="5"
         sodipodi:ry="5"
         d="m 307.36506,140.06034 a 5,5 0 0 1 -8.29061,-2.83851"
         transform="matrix(0,1,1,0,484.56363,47.85058)" />
      <path
         inkscape:connector-curvature="0"
         id="path3884"
         d="m 423.5,373.16059 c 0,132.52368 0,132.52368 0,132.52368"
         style="fill:none;stroke:#000000;stroke-width:1.35554206;stroke-linecap:butt;stroke-linejoin:miter;stroke-miterlimit:4;stroke-opacity:1;stroke-dasharray:none" />
      <g
         id="g3886"
         transform="matrix(1.3814166,0,0,1.3924813,145.69828,163.05953)">
        <path
           sodipodi:open="true"
           sodipodi:end="9.7284652"
           sodipodi:start="6.0353486"
           d="m 209.70209,225.38095 c 1.32093,2.14164 -1.8401,4.3171 -7.06034,4.85901 -5.22025,0.54192 -10.52292,-0.75491 -11.84384,-2.89655 -0.44251,-0.71745 -0.39119,-1.47119 0.14825,-2.17739"
           sodipodi:ry="4"
           sodipodi:rx="9.75"
           sodipodi:cy="226.36218"
           sodipodi:cx="200.25"
           id="path3888"
           style="opacity:0.87000002;fill:none;stroke:#000000;stroke-width:0.5;stroke-miterlimit:4;stroke-opacity:1;stroke-dasharray:none;stroke-dashoffset:0;marker-start:none;marker-end:none"
           sodipodi:type="arc" />
        <path
           inkscape:transform-center-y="35.335303"
           inkscape:transform-center-x="-72.475175"
           inkscape:connector-curvature="0"
           id="path3890"
           d="m 210.12927,226.06645 c -1.27341,-2.52553 -1.27341,-2.52553 -1.27341,-2.52553"
           style="fill:none;stroke:#000000;stroke-width:0.5;stroke-linecap:butt;stroke-linejoin:miter;stroke-miterlimit:4;stroke-opacity:1;stroke-dasharray:none;marker-end:url(#Arrow1Mend)" />
      </g>
      <path
         style="fill:none;stroke:#000000;stroke-width:0.63700002;stroke-linecap:butt;stroke-linejoin:miter;stroke-miterlimit:4;stroke-opacity:1;stroke-dasharray:none"
         d="m 625.15306,351.36218 c 28.69388,0 28.69388,0 28.69388,0"
         id="path3892"
         inkscape:connector-curvature="0" />
      <text
         sodipodi:linespacing="125%"
         id="text3912"
         y="20.568333"
         x="-7353.1523"
         style="font-size:0.89582801px;font-style:normal;font-variant:normal;font-weight:normal;font-stretch:normal;text-align:start;line-height:125%;letter-spacing:0px;word-spacing:0px;writing-mode:lr-tb;text-anchor:start;fill:#000000;fill-opacity:1;stroke:none;font-family:Calibri;-inkscape-font-specification:Calibri"
         xml:space="preserve"
         transform="scale(-0.05598925,17.860571)"><tspan
           y="20.568333"
           x="-7353.1523"
           id="tspan3914"
           sodipodi:role="line">z</tspan></text>
      <text
         sodipodi:linespacing="125%"
         id="text3264"
         y="380.36218"
         x="445"
         style="font-size:18px;font-style:normal;font-variant:normal;font-weight:normal;font-stretch:normal;text-align:start;line-height:125%;letter-spacing:0px;word-spacing:0px;writing-mode:lr-tb;text-anchor:start;fill:#000000;fill-opacity:1;stroke:none;font-family:Calibri;-inkscape-font-specification:Calibri"
         xml:space="preserve"><tspan
           y="380.36218"
           x="445"
           id="tspan3266"
           sodipodi:role="line">dünner Stab</tspan></text>
    </g>
  </g>
</svg>
