<?xml version="1.0" encoding="UTF-8" standalone="no"?>
<!-- Created with Inkscape (http://www.inkscape.org/) -->

<svg
   xmlns:dc="http://purl.org/dc/elements/1.1/"
   xmlns:cc="http://creativecommons.org/ns#"
   xmlns:rdf="http://www.w3.org/1999/02/22-rdf-syntax-ns#"
   xmlns:svg="http://www.w3.org/2000/svg"
   xmlns="http://www.w3.org/2000/svg"
   xmlns:sodipodi="http://sodipodi.sourceforge.net/DTD/sodipodi-0.dtd"
   xmlns:inkscape="http://www.inkscape.org/namespaces/inkscape"
   width="210mm"
   height="297mm"
   id="svg2"
   version="1.1"
   inkscape:version="0.48.1 r9760"
   sodipodi:docname="Neues Dokument 1">
  <defs
     id="defs4">
    <marker
       inkscape:stockid="Arrow1Mend"
       orient="auto"
       refY="0"
       refX="0"
       id="Arrow1Mend"
       style="overflow:visible">
      <path
         inkscape:connector-curvature="0"
         id="path3789"
         d="M 0,0 5,-5 -12.5,0 5,5 0,0 z"
         style="fill-rule:evenodd;stroke:#000000;stroke-width:1pt;marker-start:none"
         transform="matrix(-0.4,0,0,-0.4,-4,0)" />
    </marker>
  </defs>
  <sodipodi:namedview
     id="base"
     pagecolor="#ffffff"
     bordercolor="#666666"
     borderopacity="1.0"
     inkscape:pageopacity="0.0"
     inkscape:pageshadow="2"
     inkscape:zoom="1"
     inkscape:cx="571.08537"
     inkscape:cy="681.36686"
     inkscape:document-units="px"
     inkscape:current-layer="layer1"
     showgrid="false"
     inkscape:window-width="1680"
     inkscape:window-height="988"
     inkscape:window-x="-8"
     inkscape:window-y="-8"
     inkscape:window-maximized="1" />
  <metadata
     id="metadata7">
    <rdf:RDF>
      <cc:Work
         rdf:about="">
        <dc:format>image/svg+xml</dc:format>
        <dc:type
           rdf:resource="http://purl.org/dc/dcmitype/StillImage" />
        <dc:title></dc:title>
      </cc:Work>
    </rdf:RDF>
  </metadata>
  <g
     inkscape:label="Ebene 1"
     inkscape:groupmode="layer"
     id="layer1">
    <g
       id="g4226">
      <g
         id="g4188">
        <path
           sodipodi:type="arc"
           style="opacity:0.87000002;fill:none;stroke:#000000;stroke-width:1.39999998;stroke-miterlimit:4;stroke-opacity:1;stroke-dasharray:none;stroke-dashoffset:0"
           id="path2985"
           sodipodi:cx="113"
           sodipodi:cy="60.362183"
           sodipodi:rx="15"
           sodipodi:ry="10"
           d="m 128,60.362183 a 15,10 0 1 1 -30,0 15,10 0 1 1 30,0 z" />
        <path
           d="m 128,60.362183 a 15,10 0 1 1 -30,-1e-6"
           sodipodi:ry="10"
           sodipodi:rx="15"
           sodipodi:cy="60.362183"
           sodipodi:cx="113"
           id="path2987"
           style="opacity:0.87000002;fill:none;stroke:#000000;stroke-width:1.39999998;stroke-miterlimit:4;stroke-opacity:1;stroke-dasharray:none;stroke-dashoffset:0"
           sodipodi:type="arc"
           transform="translate(1,169)"
           sodipodi:start="0"
           sodipodi:end="3.1415927"
           sodipodi:open="true" />
        <path
           style="fill:none;stroke:#000000;stroke-width:1px;stroke-linecap:butt;stroke-linejoin:miter;stroke-opacity:1"
           d="M 98,60.362183 C 99,231.36218 99,231.36218 99,231.36218"
           id="path2989"
           inkscape:connector-curvature="0" />
        <path
           inkscape:connector-curvature="0"
           id="path2991"
           d="m 128,62.362183 c 1,170.999997 1,170.999997 1,170.999997"
           style="fill:none;stroke:#000000;stroke-width:1px;stroke-linecap:butt;stroke-linejoin:miter;stroke-opacity:1" />
      </g>
      <path
         style="fill:none;stroke:#000000;stroke-width:0.65700001;stroke-linecap:butt;stroke-linejoin:miter;stroke-miterlimit:4;stroke-opacity:1;stroke-dasharray:none"
         d="m 113,33.386757 c 1,228.792003 1,228.792003 1,228.792003"
         id="path2993"
         inkscape:connector-curvature="0" />
      <g
         id="g3886"
         transform="matrix(1.3814166,0,0,1.3924813,-164.30138,-49.440114)">
        <path
           sodipodi:open="true"
           sodipodi:end="9.7284652"
           sodipodi:start="6.0353486"
           d="m 209.70209,225.38095 a 9.75,4 0 1 1 -18.75593,-0.21493"
           sodipodi:ry="4"
           sodipodi:rx="9.75"
           sodipodi:cy="226.36218"
           sodipodi:cx="200.25"
           id="path3888"
           style="opacity:0.87000002;fill:none;stroke:#000000;stroke-width:0.5;stroke-miterlimit:4;stroke-opacity:1;stroke-dasharray:none;stroke-dashoffset:0;marker-start:none;marker-end:none"
           sodipodi:type="arc" />
        <path
           inkscape:transform-center-y="35.335303"
           inkscape:transform-center-x="-72.475175"
           inkscape:connector-curvature="0"
           id="path3890"
           d="m 210.12927,226.06645 c -1.27341,-2.52553 -1.27341,-2.52553 -1.27341,-2.52553"
           style="fill:none;stroke:#000000;stroke-width:0.5;stroke-linecap:butt;stroke-linejoin:miter;stroke-miterlimit:4;stroke-opacity:1;stroke-dasharray:none;marker-end:url(#Arrow1Mend)" />
      </g>
      <g
         transform="matrix(0,-1,1,0,-20.16672,473.44758)"
         id="g4208">
        <path
           d="m 128,60.362183 a 15,10 0 1 1 -30,0 15,10 0 1 1 30,0 z"
           sodipodi:ry="10"
           sodipodi:rx="15"
           sodipodi:cy="60.362183"
           sodipodi:cx="113"
           id="path4196"
           style="opacity:0.87000002;fill:none;stroke:#000000;stroke-width:3.34253907;stroke-miterlimit:4;stroke-opacity:1;stroke-dasharray:none;stroke-dashoffset:0"
           sodipodi:type="arc"
           transform="matrix(0.15760653,0,0,0.38357075,345.25209,26.742254)" />
        <path
           sodipodi:open="true"
           sodipodi:end="3.1415927"
           sodipodi:start="0"
           transform="matrix(0.15760653,0,0,0.38357075,345.4097,91.565711)"
           sodipodi:type="arc"
           style="opacity:0.87000002;fill:none;stroke:#000000;stroke-width:3.34253907;stroke-miterlimit:4;stroke-opacity:1;stroke-dasharray:none;stroke-dashoffset:0"
           id="path4198"
           sodipodi:cx="113"
           sodipodi:cy="60.362183"
           sodipodi:rx="15"
           sodipodi:ry="10"
           d="m 128,60.362183 a 15,10 0 1 1 -30,-1e-6" />
        <path
           inkscape:connector-curvature="0"
           id="path4200"
           d="m 360.69753,49.895422 c 0.15761,65.590598 0.15761,65.590598 0.15761,65.590598"
           style="fill:none;stroke:#000000;stroke-width:0.8218382;stroke-linecap:butt;stroke-linejoin:miter;stroke-miterlimit:4;stroke-opacity:1;stroke-dasharray:none" />
        <path
           style="fill:none;stroke:#000000;stroke-width:0.8218382;stroke-linecap:butt;stroke-linejoin:miter;stroke-miterlimit:4;stroke-opacity:1;stroke-dasharray:none"
           d="m 365.42573,50.662563 c 0.1576,65.590597 0.1576,65.590597 0.1576,65.590597"
           id="path4202"
           inkscape:connector-curvature="0" />
      </g>
      <g
         transform="matrix(0,1,-1,0,246.44758,-252.83328)"
         id="g4214">
        <path
           transform="matrix(0.15760653,0,0,0.38357075,345.25209,26.742254)"
           sodipodi:type="arc"
           style="opacity:0.87000002;fill:none;stroke:#000000;stroke-width:3.34253907;stroke-miterlimit:4;stroke-opacity:1;stroke-dasharray:none;stroke-dashoffset:0"
           id="path4216"
           sodipodi:cx="113"
           sodipodi:cy="60.362183"
           sodipodi:rx="15"
           sodipodi:ry="10"
           d="m 128,60.362183 a 15,10 0 1 1 -30,0 15,10 0 1 1 30,0 z" />
        <path
           d="m 128,60.362183 a 15,10 0 1 1 -30,-1e-6"
           sodipodi:ry="10"
           sodipodi:rx="15"
           sodipodi:cy="60.362183"
           sodipodi:cx="113"
           id="path4218"
           style="opacity:0.87000002;fill:none;stroke:#000000;stroke-width:3.34253907;stroke-miterlimit:4;stroke-opacity:1;stroke-dasharray:none;stroke-dashoffset:0"
           sodipodi:type="arc"
           transform="matrix(0.15760653,0,0,0.38357075,345.4097,91.565711)"
           sodipodi:start="0"
           sodipodi:end="3.1415927"
           sodipodi:open="true" />
        <path
           style="fill:none;stroke:#000000;stroke-width:0.8218382;stroke-linecap:butt;stroke-linejoin:miter;stroke-miterlimit:4;stroke-opacity:1;stroke-dasharray:none"
           d="m 360.69753,49.895422 c 0.15761,65.590598 0.15761,65.590598 0.15761,65.590598"
           id="path4220"
           inkscape:connector-curvature="0" />
        <path
           inkscape:connector-curvature="0"
           id="path4222"
           d="m 365.42573,50.662563 c 0.1576,65.590597 0.1576,65.590597 0.1576,65.590597"
           style="fill:none;stroke:#000000;stroke-width:0.8218382;stroke-linecap:butt;stroke-linejoin:miter;stroke-miterlimit:4;stroke-opacity:1;stroke-dasharray:none" />
      </g>
    </g>
    <g
       id="g4306">
      <g
         transform="translate(246,-1)"
         id="g4249">
        <path
           d="m 128,60.362183 c 0,5.522847 -6.71573,10 -15,10 -8.28427,0 -15,-4.477153 -15,-10 0,-5.522848 6.71573,-10 15,-10 8.28427,0 15,4.477152 15,10 z"
           sodipodi:ry="10"
           sodipodi:rx="15"
           sodipodi:cy="60.362183"
           sodipodi:cx="113"
           id="path4251"
           style="opacity:0.87000002;fill:none;stroke:#000000;stroke-width:1.39999998;stroke-miterlimit:4;stroke-opacity:1;stroke-dasharray:none;stroke-dashoffset:0"
           sodipodi:type="arc" />
        <path
           sodipodi:open="true"
           sodipodi:end="3.1415927"
           sodipodi:start="0"
           transform="translate(1,169)"
           sodipodi:type="arc"
           style="opacity:0.87000002;fill:none;stroke:#000000;stroke-width:1.39999998;stroke-miterlimit:4;stroke-opacity:1;stroke-dasharray:none;stroke-dashoffset:0"
           id="path4253"
           sodipodi:cx="113"
           sodipodi:cy="60.362183"
           sodipodi:rx="15"
           sodipodi:ry="10"
           d="m 128,60.362183 c 0,5.522847 -6.71573,10 -15,10 -8.28427,0 -15,-4.477153 -15,-10 0,-1e-6 0,-1e-6 0,-1e-6" />
        <path
           inkscape:connector-curvature="0"
           id="path4255"
           d="M 98,60.362183 C 99,231.36218 99,231.36218 99,231.36218"
           style="fill:none;stroke:#000000;stroke-width:1px;stroke-linecap:butt;stroke-linejoin:miter;stroke-opacity:1" />
        <path
           style="fill:none;stroke:#000000;stroke-width:1px;stroke-linecap:butt;stroke-linejoin:miter;stroke-opacity:1"
           d="m 128,62.362183 c 1,170.999997 1,170.999997 1,170.999997"
           id="path4257"
           inkscape:connector-curvature="0" />
      </g>
      <path
         inkscape:connector-curvature="0"
         id="path4259"
         d="m 359,32.386757 c 1,228.792003 1,228.792003 1,228.792003"
         style="fill:none;stroke:#000000;stroke-width:0.65700001;stroke-linecap:butt;stroke-linejoin:miter;stroke-miterlimit:4;stroke-opacity:1;stroke-dasharray:none" />
      <g
         transform="matrix(1.3814166,0,0,1.3924813,81.69862,-50.440114)"
         id="g4261">
        <path
           sodipodi:type="arc"
           style="opacity:0.87000002;fill:none;stroke:#000000;stroke-width:0.5;stroke-miterlimit:4;stroke-opacity:1;stroke-dasharray:none;stroke-dashoffset:0;marker-start:none;marker-end:none"
           id="path4263"
           sodipodi:cx="200.25"
           sodipodi:cy="226.36218"
           sodipodi:rx="9.75"
           sodipodi:ry="4"
           d="m 209.70209,225.38095 c 1.32093,2.14164 -1.8401,4.3171 -7.06034,4.85901 -5.22025,0.54192 -10.52292,-0.75491 -11.84384,-2.89655 -0.44251,-0.71745 -0.39119,-1.47119 0.14825,-2.17739"
           sodipodi:start="6.0353486"
           sodipodi:end="9.7284652"
           sodipodi:open="true" />
        <path
           style="fill:none;stroke:#000000;stroke-width:0.5;stroke-linecap:butt;stroke-linejoin:miter;stroke-miterlimit:4;stroke-opacity:1;stroke-dasharray:none;marker-end:url(#Arrow1Mend)"
           d="m 210.12927,226.06645 c -1.27341,-2.52553 -1.27341,-2.52553 -1.27341,-2.52553"
           id="path4265"
           inkscape:connector-curvature="0"
           inkscape:transform-center-x="-72.475175"
           inkscape:transform-center-y="35.335303" />
      </g>
      <g
         id="g4267"
         transform="matrix(-1,0,0,-1,705.28086,221.6143)">
        <path
           transform="matrix(0.15760653,0,0,0.38357075,345.25209,26.742254)"
           sodipodi:type="arc"
           style="opacity:0.87000002;fill:none;stroke:#000000;stroke-width:3.34253907;stroke-miterlimit:4;stroke-opacity:1;stroke-dasharray:none;stroke-dashoffset:0"
           id="path4269"
           sodipodi:cx="113"
           sodipodi:cy="60.362183"
           sodipodi:rx="15"
           sodipodi:ry="10"
           d="m 128,60.362183 c 0,5.522847 -6.71573,10 -15,10 -8.28427,0 -15,-4.477153 -15,-10 0,-5.522848 6.71573,-10 15,-10 8.28427,0 15,4.477152 15,10 z" />
        <path
           d="m 128,60.362183 c 0,5.522847 -6.71573,10 -15,10 -8.28427,0 -15,-4.477153 -15,-10 0,-1e-6 0,-1e-6 0,-1e-6"
           sodipodi:ry="10"
           sodipodi:rx="15"
           sodipodi:cy="60.362183"
           sodipodi:cx="113"
           id="path4271"
           style="opacity:0.87000002;fill:none;stroke:#000000;stroke-width:3.34253907;stroke-miterlimit:4;stroke-opacity:1;stroke-dasharray:none;stroke-dashoffset:0"
           sodipodi:type="arc"
           transform="matrix(0.15760653,0,0,0.38357075,345.4097,91.565711)"
           sodipodi:start="0"
           sodipodi:end="3.1415927"
           sodipodi:open="true" />
        <path
           style="fill:none;stroke:#000000;stroke-width:0.8218382;stroke-linecap:butt;stroke-linejoin:miter;stroke-miterlimit:4;stroke-opacity:1;stroke-dasharray:none"
           d="m 360.69753,49.895422 c 0.15761,65.590598 0.15761,65.590598 0.15761,65.590598"
           id="path4273"
           inkscape:connector-curvature="0" />
        <path
           inkscape:connector-curvature="0"
           id="path4275"
           d="m 365.42573,50.662563 c 0.1576,65.590597 0.1576,65.590597 0.1576,65.590597"
           style="fill:none;stroke:#000000;stroke-width:0.8218382;stroke-linecap:butt;stroke-linejoin:miter;stroke-miterlimit:4;stroke-opacity:1;stroke-dasharray:none" />
      </g>
      <g
         id="g4277"
         transform="matrix(-1,0,0,-1,740.28086,222.61431)">
        <path
           d="m 128,60.362183 c 0,5.522847 -6.71573,10 -15,10 -8.28427,0 -15,-4.477153 -15,-10 0,-5.522848 6.71573,-10 15,-10 8.28427,0 15,4.477152 15,10 z"
           sodipodi:ry="10"
           sodipodi:rx="15"
           sodipodi:cy="60.362183"
           sodipodi:cx="113"
           id="path4279"
           style="opacity:0.87000002;fill:none;stroke:#000000;stroke-width:3.34253907;stroke-miterlimit:4;stroke-opacity:1;stroke-dasharray:none;stroke-dashoffset:0"
           sodipodi:type="arc"
           transform="matrix(0.15760653,0,0,0.38357075,345.25209,26.742254)" />
        <path
           sodipodi:open="true"
           sodipodi:end="3.1415927"
           sodipodi:start="0"
           transform="matrix(0.15760653,0,0,0.38357075,345.4097,91.565711)"
           sodipodi:type="arc"
           style="opacity:0.87000002;fill:none;stroke:#000000;stroke-width:3.34253907;stroke-miterlimit:4;stroke-opacity:1;stroke-dasharray:none;stroke-dashoffset:0"
           id="path4281"
           sodipodi:cx="113"
           sodipodi:cy="60.362183"
           sodipodi:rx="15"
           sodipodi:ry="10"
           d="m 128,60.362183 c 0,5.522847 -6.71573,10 -15,10 -8.28427,0 -15,-4.477153 -15,-10 0,-1e-6 0,-1e-6 0,-1e-6" />
        <path
           inkscape:connector-curvature="0"
           id="path4283"
           d="m 360.69753,49.895422 c 0.15761,65.590598 0.15761,65.590598 0.15761,65.590598"
           style="fill:none;stroke:#000000;stroke-width:0.8218382;stroke-linecap:butt;stroke-linejoin:miter;stroke-miterlimit:4;stroke-opacity:1;stroke-dasharray:none" />
        <path
           style="fill:none;stroke:#000000;stroke-width:0.8218382;stroke-linecap:butt;stroke-linejoin:miter;stroke-miterlimit:4;stroke-opacity:1;stroke-dasharray:none"
           d="m 365.42573,50.662563 c 0.1576,65.590597 0.1576,65.590597 0.1576,65.590597"
           id="path4285"
           inkscape:connector-curvature="0" />
      </g>
    </g>
  </g>
</svg>
