<?xml version="1.0" encoding="UTF-8" standalone="no"?>
<!-- Created with Inkscape (http://www.inkscape.org/) -->

<svg
   xmlns:dc="http://purl.org/dc/elements/1.1/"
   xmlns:cc="http://creativecommons.org/ns#"
   xmlns:rdf="http://www.w3.org/1999/02/22-rdf-syntax-ns#"
   xmlns:svg="http://www.w3.org/2000/svg"
   xmlns="http://www.w3.org/2000/svg"
   xmlns:sodipodi="http://sodipodi.sourceforge.net/DTD/sodipodi-0.dtd"
   xmlns:inkscape="http://www.inkscape.org/namespaces/inkscape"
   width="210mm"
   height="297mm"
   id="svg4566"
   version="1.1"
   inkscape:version="0.48.1 r9760"
   sodipodi:docname="Neues Dokument 3">
  <defs
     id="defs4568">
    <marker
       inkscape:stockid="Arrow1Lend"
       orient="auto"
       refY="0"
       refX="0"
       id="Arrow1Lend"
       style="overflow:visible">
      <path
         inkscape:connector-curvature="0"
         id="path3841"
         d="M 0,0 5,-5 -12.5,0 5,5 0,0 z"
         style="fill-rule:evenodd;stroke:#000000;stroke-width:1pt;marker-start:none"
         transform="matrix(-0.8,0,0,-0.8,-10,0)" />
    </marker>
    <marker
       inkscape:stockid="Arrow1Mend"
       orient="auto"
       refY="0"
       refX="0"
       id="Arrow1Mend"
       style="overflow:visible">
      <path
         inkscape:connector-curvature="0"
         id="path3847"
         d="M 0,0 5,-5 -12.5,0 5,5 0,0 z"
         style="fill-rule:evenodd;stroke:#000000;stroke-width:1pt;marker-start:none"
         transform="matrix(-0.4,0,0,-0.4,-4,0)" />
    </marker>
  </defs>
  <sodipodi:namedview
     id="base"
     pagecolor="#ffffff"
     bordercolor="#666666"
     borderopacity="1.0"
     inkscape:pageopacity="0.0"
     inkscape:pageshadow="2"
     inkscape:zoom="1"
     inkscape:cx="350"
     inkscape:cy="520"
     inkscape:document-units="px"
     inkscape:current-layer="layer1"
     showgrid="false"
     inkscape:window-width="1680"
     inkscape:window-height="988"
     inkscape:window-x="-8"
     inkscape:window-y="-8"
     inkscape:window-maximized="1" />
  <metadata
     id="metadata4571">
    <rdf:RDF>
      <cc:Work
         rdf:about="">
        <dc:format>image/svg+xml</dc:format>
        <dc:type
           rdf:resource="http://purl.org/dc/dcmitype/StillImage" />
        <dc:title></dc:title>
      </cc:Work>
    </rdf:RDF>
  </metadata>
  <g
     inkscape:label="Ebene 1"
     inkscape:groupmode="layer"
     id="layer1">
    <g
       transform="translate(-455.03841,241.13723)"
       id="g4728"
       inkscape:export-filename="C:\Users\zc 4279\Documents\MINT\Skripte\Skript_Phys\Modul2\Bilder geändert Modul2\Doppelfeder.png"
       inkscape:export-xdpi="300"
       inkscape:export-ydpi="300">
      <g
         style="fill:#000000;fill-opacity:1"
         transform="matrix(0.60337078,0,0,0.38959905,402.7789,9.63778)"
         id="g3558">
        <path
           inkscape:connector-curvature="0"
           id="path3247"
           d="m 395.04412,482.69548 c -115.51851,0 -115.51851,0 -115.51851,0"
           style="fill:#000000;fill-opacity:1;stroke:#000000;stroke-width:1.46261108px;stroke-linecap:butt;stroke-linejoin:miter;stroke-opacity:1" />
        <path
           style="opacity:0.87000002;fill:#000000;fill-opacity:1;stroke:#000000;stroke-width:0.13494979;stroke-miterlimit:4;stroke-opacity:1;stroke-dasharray:none;stroke-dashoffset:0"
           d="m 282.96769,481.58142 c -0.13306,-0.30188 -0.16276,-2.37224 -0.066,-4.60082 l 0.17593,-4.05195 54.58652,0 54.58651,0 0,4 0,4 -52.24409,0.009 c -28.73424,0.005 -53.26847,0.27515 -54.5205,0.60082 -1.25204,0.32567 -2.3853,0.34514 -2.51837,0.0433 z m 3.00585,-3.37662 c -1.14283,-0.63993 -2.12555,-2.82376 -1.71784,-3.81743 0.17588,-0.42865 0.0637,-0.45567 -0.24933,-0.06 -0.31301,0.39564 -0.56911,1.59279 -0.56911,2.66033 0,1.59687 0.3027,1.92041 1.70733,1.82498 0.93991,-0.0639 1.31251,-0.33708 0.82895,-0.60785 z m 72.9274,-0.0259 c -11.70654,-0.14851 -30.86271,-0.14851 -42.56925,0 -11.70655,0.14851 -2.12846,0.27002 21.28462,0.27002 23.41309,0 32.99117,-0.12151 21.28463,-0.27002 z m 32.81227,-1.50024 -0.14549,-2.25 -50.40015,-0.2355 c -30.87122,-0.14424 -50.50202,0.12653 -50.66305,0.69882 -0.16228,0.57673 17.73335,0.94385 46.75786,0.95921 25.86142,0.0137 48.40369,0.0367 50.09394,0.0512 1.69025,0.0145 3.07318,0.45573 3.07318,0.9806 0,0.52487 -1.38293,1.11174 -3.07318,1.30414 l -3.07318,0.34983 3.78778,0.19586 c 3.68952,0.19078 3.784,0.1375 3.64229,-2.05414 l 0,0 z m -103.15398,-1.45573 c -0.56341,-0.23836 -1.48537,-0.23836 -2.04878,0 -0.56342,0.23835 -0.10244,0.43337 1.02439,0.43337 1.12683,0 1.58781,-0.19502 1.02439,-0.43337 z"
           id="path3267"
           inkscape:connector-curvature="0" />
      </g>
      <path
         inkscape:connector-curvature="0"
         id="path3379"
         d="m 655.04412,29.69548 c -97.63104,0 -97.63104,0 -97.63104,0"
         style="fill:none;stroke:#000000;stroke-width:1.34461212px;stroke-linecap:butt;stroke-linejoin:miter;stroke-opacity:1" />
      <path
         transform="matrix(0,0.61860188,-1,0,973.64401,-138.28894)"
         d="m 320,372.36218 c 0,11.0457 -5.59644,20 -12.5,20 -6.90356,0 -12.5,-8.9543 -12.5,-20 0,-11.04569 5.59644,-20 12.5,-20 6.90356,0 12.5,8.95431 12.5,20 z"
         sodipodi:ry="20"
         sodipodi:rx="12.5"
         sodipodi:cy="372.36218"
         sodipodi:cx="307.5"
         id="path3339"
         style="opacity:0.87000002;fill:none;stroke:#000000;stroke-width:1;stroke-miterlimit:4;stroke-opacity:1;stroke-dasharray:none;stroke-dashoffset:0"
         sodipodi:type="arc" />
      <path
         transform="matrix(0,0.61860188,-1,0,972.64401,-25.084795)"
         sodipodi:type="arc"
         style="opacity:0.87000002;fill:none;stroke:#000000;stroke-width:1;stroke-miterlimit:4;stroke-opacity:1;stroke-dasharray:none;stroke-dashoffset:0"
         id="path3341"
         sodipodi:cx="307.5"
         sodipodi:cy="372.36218"
         sodipodi:rx="12.5"
         sodipodi:ry="20"
         d="m 320,372.36218 c 0,11.0457 -5.59644,20 -12.5,20 -6.90356,0 -12.5,-8.9543 -12.5,-20 0,-11.04569 5.59644,-20 12.5,-20 6.90356,0 12.5,8.95431 12.5,20 z" />
      <path
         transform="matrix(0,0.61860188,-1,0,972.64401,-44.261453)"
         d="m 320,372.36218 c 0,11.0457 -5.59644,20 -12.5,20 -6.90356,0 -12.5,-8.9543 -12.5,-20 0,-11.04569 5.59644,-20 12.5,-20 6.90356,0 12.5,8.95431 12.5,20 z"
         sodipodi:ry="20"
         sodipodi:rx="12.5"
         sodipodi:cy="372.36218"
         sodipodi:cx="307.5"
         id="path3343"
         style="opacity:0.87000002;fill:none;stroke:#000000;stroke-width:1;stroke-miterlimit:4;stroke-opacity:1;stroke-dasharray:none;stroke-dashoffset:0"
         sodipodi:type="arc" />
      <path
         transform="matrix(0,0.61860188,-1,0,973.64401,-63.438111)"
         sodipodi:type="arc"
         style="opacity:0.87000002;fill:none;stroke:#000000;stroke-width:1;stroke-miterlimit:4;stroke-opacity:1;stroke-dasharray:none;stroke-dashoffset:0"
         id="path3345"
         sodipodi:cx="307.5"
         sodipodi:cy="372.36218"
         sodipodi:rx="12.5"
         sodipodi:ry="20"
         d="m 320,372.36218 c 0,11.0457 -5.59644,20 -12.5,20 -6.90356,0 -12.5,-8.9543 -12.5,-20 0,-11.04569 5.59644,-20 12.5,-20 6.90356,0 12.5,8.95431 12.5,20 z" />
      <path
         transform="matrix(0,0.61860188,-1,0,973.64401,-81.996168)"
         d="m 320,372.36218 c 0,11.0457 -5.59644,20 -12.5,20 -6.90356,0 -12.5,-8.9543 -12.5,-20 0,-11.04569 5.59644,-20 12.5,-20 6.90356,0 12.5,8.95431 12.5,20 z"
         sodipodi:ry="20"
         sodipodi:rx="12.5"
         sodipodi:cy="372.36218"
         sodipodi:cx="307.5"
         id="path3347"
         style="opacity:0.87000002;fill:none;stroke:#000000;stroke-width:1;stroke-miterlimit:4;stroke-opacity:1;stroke-dasharray:none;stroke-dashoffset:0"
         sodipodi:type="arc" />
      <path
         transform="matrix(0,0.61860188,-1,0,973.64401,-101.17283)"
         sodipodi:type="arc"
         style="opacity:0.87000002;fill:none;stroke:#000000;stroke-width:1;stroke-miterlimit:4;stroke-opacity:1;stroke-dasharray:none;stroke-dashoffset:0"
         id="path3349"
         sodipodi:cx="307.5"
         sodipodi:cy="372.36218"
         sodipodi:rx="12.5"
         sodipodi:ry="20"
         d="m 320,372.36218 c 0,11.0457 -5.59644,20 -12.5,20 -6.90356,0 -12.5,-8.9543 -12.5,-20 0,-11.04569 5.59644,-20 12.5,-20 6.90356,0 12.5,8.95431 12.5,20 z" />
      <path
         transform="matrix(0,0.61860188,-1,0,973.64401,-119.73088)"
         d="m 320,372.36218 c 0,11.0457 -5.59644,20 -12.5,20 -6.90356,0 -12.5,-8.9543 -12.5,-20 0,-11.04569 5.59644,-20 12.5,-20 6.90356,0 12.5,8.95431 12.5,20 z"
         sodipodi:ry="20"
         sodipodi:rx="12.5"
         sodipodi:cy="372.36218"
         sodipodi:cx="307.5"
         id="path3351"
         style="opacity:0.87000002;fill:none;stroke:#000000;stroke-width:1;stroke-miterlimit:4;stroke-opacity:1;stroke-dasharray:none;stroke-dashoffset:0"
         sodipodi:type="arc" />
      <path
         sodipodi:open="true"
         sodipodi:end="4.4558256"
         sodipodi:start="2.0158553"
         d="m 302.11861,390.41389 c -6.23105,-4.7553 -8.87298,-16.69225 -5.90093,-26.66193 1.58414,-5.31392 4.55113,-9.24115 8.11035,-10.73513"
         sodipodi:ry="20"
         sodipodi:rx="12.5"
         sodipodi:cy="372.36218"
         sodipodi:cx="307.5"
         id="path3353"
         style="opacity:0.87000002;fill:none;stroke:#000000;stroke-width:0.96207708;stroke-miterlimit:4;stroke-opacity:1;stroke-dasharray:none;stroke-dashoffset:0"
         sodipodi:type="arc"
         transform="matrix(-1,0,0,-0.75377289,919.95878,342.03538)" />
      <path
         transform="matrix(-1,0,0,-0.75377289,918.95878,436.06286)"
         sodipodi:type="arc"
         style="opacity:0.87000002;fill:none;stroke:#000000;stroke-width:0.96207708;stroke-miterlimit:4;stroke-opacity:1;stroke-dasharray:none;stroke-dashoffset:0"
         id="path3355"
         sodipodi:cx="307.5"
         sodipodi:cy="372.36218"
         sodipodi:rx="12.5"
         sodipodi:ry="20"
         d="m 302.11861,390.41389 c -6.23105,-4.7553 -8.87298,-16.69225 -5.90093,-26.66193 1.58414,-5.31392 4.55113,-9.24115 8.11035,-10.73513"
         sodipodi:start="2.0158553"
         sodipodi:end="4.4558256"
         sodipodi:open="true" />
      <path
         sodipodi:open="true"
         sodipodi:end="4.4558256"
         sodipodi:start="2.0158553"
         d="m 302.11861,390.41389 c -6.23105,-4.7553 -8.87298,-16.69225 -5.90093,-26.66193 1.58414,-5.31392 4.55113,-9.24115 8.11035,-10.73513"
         sodipodi:ry="20"
         sodipodi:rx="12.5"
         sodipodi:cy="372.36218"
         sodipodi:cx="307.5"
         id="path3357"
         style="opacity:0.87000002;fill:none;stroke:#000000;stroke-width:0.60000002;stroke-miterlimit:4;stroke-opacity:1;stroke-dasharray:none;stroke-dashoffset:0"
         sodipodi:type="arc"
         transform="matrix(-1,0,0,-0.75377289,918.95878,416.88621)" />
      <path
         transform="matrix(-1,0,0,-0.75377289,919.95878,397.70955)"
         sodipodi:type="arc"
         style="opacity:0.87000002;fill:none;stroke:#000000;stroke-width:0.96207708;stroke-miterlimit:4;stroke-opacity:1;stroke-dasharray:none;stroke-dashoffset:0"
         id="path3359"
         sodipodi:cx="307.5"
         sodipodi:cy="372.36218"
         sodipodi:rx="12.5"
         sodipodi:ry="20"
         d="m 302.11861,390.41389 c -6.23105,-4.7553 -8.87298,-16.69225 -5.90093,-26.66193 1.58414,-5.31392 4.55113,-9.24115 8.11035,-10.73513"
         sodipodi:start="2.0158553"
         sodipodi:end="4.4558256"
         sodipodi:open="true" />
      <path
         sodipodi:open="true"
         sodipodi:end="4.4558256"
         sodipodi:start="2.0158553"
         d="m 302.11861,390.41389 c -6.23105,-4.7553 -8.87298,-16.69225 -5.90093,-26.66193 1.58414,-5.31392 4.55113,-9.24115 8.11035,-10.73513"
         sodipodi:ry="20"
         sodipodi:rx="12.5"
         sodipodi:cy="372.36218"
         sodipodi:cx="307.5"
         id="path3361"
         style="opacity:0.87000002;fill:none;stroke:#000000;stroke-width:0.96207708;stroke-miterlimit:4;stroke-opacity:1;stroke-dasharray:none;stroke-dashoffset:0"
         sodipodi:type="arc"
         transform="matrix(-1,0,0,-0.75377289,920.95878,379.77009)" />
      <path
         transform="matrix(-1,0,0,-0.75377289,919.95878,359.97483)"
         sodipodi:type="arc"
         style="opacity:0.87000002;fill:none;stroke:#000000;stroke-width:0.60000002;stroke-miterlimit:4;stroke-opacity:1;stroke-dasharray:none;stroke-dashoffset:0"
         id="path3363"
         sodipodi:cx="307.5"
         sodipodi:cy="372.36218"
         sodipodi:rx="12.5"
         sodipodi:ry="20"
         d="m 302.11861,390.41389 c -6.23105,-4.7553 -8.87298,-16.69225 -5.90093,-26.66193 1.58414,-5.31392 4.55113,-9.24115 8.11035,-10.73513"
         sodipodi:start="2.0158553"
         sodipodi:end="4.4558256"
         sodipodi:open="true" />
      <path
         transform="matrix(-1,0,0,-0.51236788,916.95878,359.75445)"
         sodipodi:type="arc"
         style="opacity:0.87000002;fill:none;stroke:#000000;stroke-width:1.18229795;stroke-miterlimit:4;stroke-opacity:1;stroke-dasharray:none;stroke-dashoffset:0"
         id="path3365"
         sodipodi:cx="307.5"
         sodipodi:cy="372.36218"
         sodipodi:rx="12.5"
         sodipodi:ry="20"
         d="m 302.11861,390.41389 c -6.23105,-4.7553 -8.87298,-16.69225 -5.90093,-26.66193 2.10497,-7.06106 6.5898,-11.51019 11.47866,-11.38731"
         sodipodi:start="2.0158553"
         sodipodi:end="4.7280969"
         sodipodi:open="true" />
      <path
         inkscape:connector-curvature="0"
         id="path3367"
         d="m 610.49337,179.05383 c -13.84616,0 -14.42308,0 -14.42308,0"
         style="fill:none;stroke:#000000;stroke-width:0.59739912px;stroke-linecap:butt;stroke-linejoin:miter;stroke-opacity:1" />
      <path
         inkscape:connector-curvature="0"
         id="path3369"
         d="m 604.20404,179.03352 c 0.55757,9.39345 0.44675,8.7278 0.44675,8.7278"
         style="fill:none;stroke:#000000;stroke-width:0.81840366px;stroke-linecap:butt;stroke-linejoin:miter;stroke-opacity:1" />
      <g
         transform="matrix(0,-0.61860188,-1,0,1033.644,239.50472)"
         id="g3371">
        <path
           transform="matrix(0,1,-0.82826757,0,617.11134,115.68523)"
           sodipodi:type="arc"
           style="opacity:0.87000002;fill:none;stroke:#000000;stroke-width:1.18229795;stroke-miterlimit:4;stroke-opacity:1;stroke-dasharray:none;stroke-dashoffset:0"
           id="path3373"
           sodipodi:cx="307.5"
           sodipodi:cy="372.36218"
           sodipodi:rx="12.5"
           sodipodi:ry="20"
           d="m 302.11861,390.41389 c -6.23105,-4.7553 -8.87298,-16.69225 -5.90093,-26.66193 2.10497,-7.06106 6.5898,-11.51019 11.47866,-11.38731"
           sodipodi:start="2.0158553"
           sodipodi:end="4.7280969"
           sodipodi:open="true" />
        <path
           inkscape:connector-curvature="0"
           id="path3375"
           d="m 325,422.15064 c 0,13.84616 0,14.42308 0,14.42308"
           style="fill:none;stroke:#000000;stroke-width:0.75955451px;stroke-linecap:butt;stroke-linejoin:miter;stroke-opacity:1" />
        <path
           inkscape:connector-curvature="0"
           id="path3377"
           d="m 325,434.36218 c 14,1 13,1 13,1"
           style="fill:none;stroke:#000000;stroke-width:1px;stroke-linecap:butt;stroke-linejoin:miter;stroke-opacity:1" />
      </g>
      <path
         transform="matrix(0,0.61860188,-1,0,1021.644,-121.58669)"
         d="m 510,417.36218 c 0,2.76143 -2.23858,5 -5,5 -2.76142,0 -5,-2.23857 -5,-5 0,-2.76142 2.23858,-5 5,-5 2.76142,0 5,2.23858 5,5 z"
         sodipodi:ry="5"
         sodipodi:rx="5"
         sodipodi:cy="417.36218"
         sodipodi:cx="505"
         id="path3381"
         style="opacity:0.87000002;fill:none;stroke:#000000;stroke-width:1.07599998;stroke-miterlimit:4;stroke-opacity:1;stroke-dasharray:none;stroke-dashoffset:0"
         sodipodi:type="arc" />
      <path
         style="opacity:0.87000002;fill:#cccccc;fill-opacity:1;stroke:#000000;stroke-width:0.12605086;stroke-miterlimit:4;stroke-opacity:1;stroke-dasharray:none;stroke-dashoffset:0"
         d="m 556.90527,28.58142 c -0.11609,-0.30188 -0.142,-2.37224 -0.0576,-4.60082 l 0.15349,-4.05195 47.62474,0 47.62473,0 0,4 0,4 -45.58106,0.009 c -25.06957,0.005 -46.47479,0.27515 -47.56714,0.60082 -1.09235,0.32567 -2.08108,0.34514 -2.19718,0.0433 z m 2.62249,-3.37662 c -0.99707,-0.63993 -1.85446,-2.82376 -1.49875,-3.81743 0.15345,-0.42865 0.0556,-0.45567 -0.21753,-0.06 -0.27309,0.39564 -0.49653,1.59279 -0.49653,2.66033 0,1.59687 0.2641,1.92041 1.48958,1.82498 0.82004,-0.0639 1.14512,-0.33708 0.72323,-0.60785 z m 63.62649,-0.0259 c -10.21353,-0.14851 -26.92659,-0.14851 -37.14011,0 -10.21354,0.14851 -1.85701,0.27002 18.57005,0.27002 20.42706,0 28.78359,-0.12151 18.57006,-0.27002 z m 28.6275,-1.50024 -0.12693,-2.25 -43.97229,-0.2355 c -26.93401,-0.14424 -44.06116,0.12653 -44.20165,0.69882 -0.14159,0.57673 15.4717,0.94385 40.79452,0.95921 22.56314,0.0137 42.23045,0.0367 43.70513,0.0512 1.47468,0.0145 2.68123,0.45573 2.68123,0.9806 0,0.52487 -1.20655,1.11174 -2.68123,1.30414 l -2.68124,0.34983 3.3047,0.19586 c 3.21897,0.19078 3.3014,0.1375 3.17776,-2.05414 l 0,0 z m -89.99807,-1.45573 c -0.49155,-0.23836 -1.29593,-0.23836 -1.78748,0 -0.49157,0.23835 -0.0894,0.43337 0.89374,0.43337 0.98312,0 1.38531,-0.19502 0.89374,-0.43337 z"
         id="path3399"
         inkscape:connector-curvature="0" />
      <path
         sodipodi:type="arc"
         style="opacity:0.87000002;fill:none;stroke:#000000;stroke-width:1;stroke-miterlimit:4;stroke-opacity:1;stroke-dasharray:none;stroke-dashoffset:0"
         id="path3469"
         sodipodi:cx="307.5"
         sodipodi:cy="372.36218"
         sodipodi:rx="12.5"
         sodipodi:ry="20"
         d="m 320,372.36218 c 0,11.0457 -5.59644,20 -12.5,20 -6.90356,0 -12.5,-8.9543 -12.5,-20 0,-11.04569 5.59644,-20 12.5,-20 6.90356,0 12.5,8.95431 12.5,20 z"
         transform="matrix(0,0.87921352,-1.4761378,0,1151.9386,-12.36341)" />
      <path
         d="m 320,372.36218 c 0,11.0457 -5.59644,20 -12.5,20 -6.90356,0 -12.5,-8.9543 -12.5,-20 0,-11.04569 5.59644,-20 12.5,-20 6.90356,0 12.5,8.95431 12.5,20 z"
         sodipodi:ry="20"
         sodipodi:rx="12.5"
         sodipodi:cy="372.36218"
         sodipodi:cx="307.5"
         id="path3479"
         style="opacity:0.87000002;fill:none;stroke:#000000;stroke-width:1;stroke-miterlimit:4;stroke-opacity:1;stroke-dasharray:none;stroke-dashoffset:0"
         sodipodi:type="arc"
         transform="matrix(0,0.87921352,-1.4761378,0,1151.9386,40.389401)" />
      <path
         sodipodi:type="arc"
         style="opacity:0.87000002;fill:none;stroke:#000000;stroke-width:1;stroke-miterlimit:4;stroke-opacity:1;stroke-dasharray:none;stroke-dashoffset:0"
         id="path3481"
         sodipodi:cx="307.5"
         sodipodi:cy="372.36218"
         sodipodi:rx="12.5"
         sodipodi:ry="20"
         d="m 320,372.36218 c 0,11.0457 -5.59644,20 -12.5,20 -6.90356,0 -12.5,-8.9543 -12.5,-20 0,-11.04569 5.59644,-20 12.5,-20 6.90356,0 12.5,8.95431 12.5,20 z"
         transform="matrix(0,0.87921352,-1.4761378,0,1151.9386,14.012996)" />
      <path
         transform="matrix(-1.4761378,0,0,-1.0713309,1072.6918,670.3174)"
         sodipodi:type="arc"
         style="opacity:0.87000002;fill:none;stroke:#000000;stroke-width:0.96207708;stroke-miterlimit:4;stroke-opacity:1;stroke-dasharray:none;stroke-dashoffset:0"
         id="path3483"
         sodipodi:cx="307.5"
         sodipodi:cy="372.36218"
         sodipodi:rx="12.5"
         sodipodi:ry="20"
         d="m 302.11861,390.41389 c -6.23105,-4.7553 -8.87298,-16.69225 -5.90093,-26.66193 1.58414,-5.31392 4.55113,-9.24115 8.11035,-10.73513"
         sodipodi:start="2.0158553"
         sodipodi:end="4.4558256"
         sodipodi:open="true" />
      <path
         transform="matrix(-1.4761378,0,0,-1.0713309,1074.168,723.94943)"
         sodipodi:type="arc"
         style="opacity:0.87000002;fill:none;stroke:#000000;stroke-width:0.96207708;stroke-miterlimit:4;stroke-opacity:1;stroke-dasharray:none;stroke-dashoffset:0"
         id="path3491"
         sodipodi:cx="307.5"
         sodipodi:cy="372.36218"
         sodipodi:rx="12.5"
         sodipodi:ry="20"
         d="m 302.11861,390.41389 c -6.23105,-4.7553 -8.87298,-16.69225 -5.90093,-26.66193 1.58414,-5.31392 4.55113,-9.24115 8.11035,-10.73513"
         sodipodi:start="2.0158553"
         sodipodi:end="4.4558256"
         sodipodi:open="true" />
      <path
         sodipodi:open="true"
         sodipodi:end="4.4558256"
         sodipodi:start="2.0158553"
         d="m 302.11861,390.41389 c -6.23105,-4.7553 -8.87298,-16.69225 -5.90093,-26.66193 1.58414,-5.31392 4.55113,-9.24115 8.11035,-10.73513"
         sodipodi:ry="20"
         sodipodi:rx="12.5"
         sodipodi:cy="372.36218"
         sodipodi:cx="307.5"
         id="path3493"
         style="opacity:0.87000002;fill:none;stroke:#000000;stroke-width:0.60000002;stroke-miterlimit:4;stroke-opacity:1;stroke-dasharray:none;stroke-dashoffset:0"
         sodipodi:type="arc"
         transform="matrix(-1.4761378,0,0,-1.0713309,1072.6918,695.81459)" />
      <path
         transform="matrix(-1.4761378,0,0,0.72822405,1069.7396,-17.981183)"
         sodipodi:type="arc"
         style="opacity:0.87000002;fill:none;stroke:#000000;stroke-width:1.18229795;stroke-miterlimit:4;stroke-opacity:1;stroke-dasharray:none;stroke-dashoffset:0"
         id="path3503"
         sodipodi:cx="307.5"
         sodipodi:cy="372.36218"
         sodipodi:rx="12.5"
         sodipodi:ry="20"
         d="m 302.11861,390.41389 c -6.23105,-4.7553 -8.87298,-16.69225 -5.90093,-26.66193 2.10497,-7.06106 6.5898,-11.51019 11.47866,-11.38731"
         sodipodi:start="2.0158553"
         sodipodi:end="4.7280969"
         sodipodi:open="true" />
      <path
         inkscape:connector-curvature="0"
         id="path3505"
         d="m 617.35438,238.84706 c -20.43884,0 -21.29045,0 -21.29045,0"
         style="fill:none;stroke:#000000;stroke-width:0.86530572px;stroke-linecap:butt;stroke-linejoin:miter;stroke-opacity:1" />
      <path
         d="m 320,372.36218 c 0,11.0457 -5.59644,20 -12.5,20 -6.90356,0 -12.5,-8.9543 -12.5,-20 0,-11.04569 5.59644,-20 12.5,-20 6.90356,0 12.5,8.95431 12.5,20 z"
         sodipodi:ry="20"
         sodipodi:rx="12.5"
         sodipodi:cy="372.36218"
         sodipodi:cx="307.5"
         id="path3471"
         style="opacity:0.87000002;fill:none;stroke:#000000;stroke-width:1;stroke-miterlimit:4;stroke-opacity:1;stroke-dasharray:none;stroke-dashoffset:0"
         sodipodi:type="arc"
         transform="matrix(0,0.87921352,-1.4761378,0,1152.4625,122.53266)" />
      <path
         sodipodi:type="arc"
         style="opacity:0.87000002;fill:none;stroke:#000000;stroke-width:1;stroke-miterlimit:4;stroke-opacity:1;stroke-dasharray:none;stroke-dashoffset:0"
         id="path3473"
         sodipodi:cx="307.5"
         sodipodi:cy="372.36218"
         sodipodi:rx="12.5"
         sodipodi:ry="20"
         d="m 320,372.36218 c 0,11.0457 -5.59644,20 -12.5,20 -6.90356,0 -12.5,-8.9543 -12.5,-20 0,-11.04569 5.59644,-20 12.5,-20 6.90356,0 12.5,8.95431 12.5,20 z"
         transform="matrix(0,0.87921352,-1.4761378,0,1152.4625,95.27705)" />
      <path
         d="m 320,372.36218 c 0,11.0457 -5.59644,20 -12.5,20 -6.90356,0 -12.5,-8.9543 -12.5,-20 0,-11.04569 5.59644,-20 12.5,-20 6.90356,0 12.5,8.95431 12.5,20 z"
         sodipodi:ry="20"
         sodipodi:rx="12.5"
         sodipodi:cy="372.36218"
         sodipodi:cx="307.5"
         id="path3475"
         style="opacity:0.87000002;fill:none;stroke:#000000;stroke-width:1;stroke-miterlimit:4;stroke-opacity:1;stroke-dasharray:none;stroke-dashoffset:0"
         sodipodi:type="arc"
         transform="matrix(0,0.87921352,-1.4761378,0,1153.9386,68.021426)" />
      <path
         sodipodi:open="true"
         sodipodi:end="4.4558256"
         sodipodi:start="2.0158553"
         d="m 302.11861,390.41389 c -6.23105,-4.7553 -8.87298,-16.69225 -5.90093,-26.66193 1.58414,-5.31392 4.55113,-9.24115 8.11035,-10.73513"
         sodipodi:ry="20"
         sodipodi:rx="12.5"
         sodipodi:cy="372.36218"
         sodipodi:cx="307.5"
         id="path3485"
         style="opacity:0.87000002;fill:none;stroke:#000000;stroke-width:0.96207708;stroke-miterlimit:4;stroke-opacity:1;stroke-dasharray:none;stroke-dashoffset:0"
         sodipodi:type="arc"
         transform="matrix(-1.4761378,0,0,-1.0713309,1073.2157,777.95786)" />
      <path
         transform="matrix(-1.4761378,0,0,-1.0713309,1073.2157,750.70224)"
         sodipodi:type="arc"
         style="opacity:0.87000002;fill:none;stroke:#000000;stroke-width:0.60000002;stroke-miterlimit:4;stroke-opacity:1;stroke-dasharray:none;stroke-dashoffset:0"
         id="path3487"
         sodipodi:cx="307.5"
         sodipodi:cy="372.36218"
         sodipodi:rx="12.5"
         sodipodi:ry="20"
         d="m 302.11861,390.41389 c -6.23105,-4.7553 -8.87298,-16.69225 -5.90093,-26.66193 1.58414,-5.31392 4.55113,-9.24115 8.11035,-10.73513"
         sodipodi:start="2.0158553"
         sodipodi:end="4.4558256"
         sodipodi:open="true" />
      <path
         sodipodi:open="true"
         sodipodi:end="4.7280969"
         sodipodi:start="2.0158553"
         d="m 302.11861,390.41389 c -6.23105,-4.7553 -8.87298,-16.69225 -5.90093,-26.66193 2.10497,-7.06106 6.5898,-11.51019 11.47866,-11.38731"
         sodipodi:ry="20"
         sodipodi:rx="12.5"
         sodipodi:cy="372.36218"
         sodipodi:cx="307.5"
         id="path3495"
         style="opacity:0.87000002;fill:none;stroke:#000000;stroke-width:1.18229795;stroke-miterlimit:4;stroke-opacity:1;stroke-dasharray:none;stroke-dashoffset:0"
         sodipodi:type="arc"
         transform="matrix(-1.4761378,0,0,-0.72822405,1070.2634,669.50137)" />
      <path
         style="fill:none;stroke:#000000;stroke-width:0.86530572px;stroke-linecap:butt;stroke-linejoin:miter;stroke-opacity:1"
         d="m 617.87824,412.67313 c -20.43884,0 -21.29045,0 -21.29045,0"
         id="path3497"
         inkscape:connector-curvature="0" />
      <path
         inkscape:connector-curvature="0"
         id="path4359"
         d="m 569,29.362183 c 1,387.192857 1,387.192857 1,387.192857"
         style="fill:none;stroke:#000000;stroke-width:0.98881733px;stroke-linecap:butt;stroke-linejoin:miter;stroke-opacity:1" />
      <path
         inkscape:connector-curvature="0"
         id="path4380"
         d="m 570,416.36218 c 72.03032,1 71.01581,1 71.01581,1"
         style="fill:none;stroke:#000000;stroke-width:1.00722969px;stroke-linecap:butt;stroke-linejoin:miter;stroke-opacity:1" />
      <path
         inkscape:connector-curvature="0"
         id="path4382"
         d="m 642,30.362183 c 0,387.999997 0,387.999997 0,387.999997"
         style="fill:none;stroke:#000000;stroke-width:1px;stroke-linecap:butt;stroke-linejoin:miter;stroke-opacity:1" />
      <text
         sodipodi:linespacing="125%"
         id="text4408"
         y="90.362183"
         x="653"
         style="font-size:12px;font-style:normal;font-variant:normal;font-weight:normal;font-stretch:normal;text-align:start;line-height:125%;letter-spacing:0px;word-spacing:0px;writing-mode:lr-tb;text-anchor:start;fill:#000000;fill-opacity:1;stroke:none;font-family:Calibri;-inkscape-font-specification:Calibri"
         xml:space="preserve"><tspan
           y="90.362183"
           x="653"
           id="tspan4410"
           sodipodi:role="line">Zug-</tspan><tspan
           id="tspan4412"
           y="105.36218"
           x="653"
           sodipodi:role="line">feder</tspan></text>
      <text
         sodipodi:linespacing="125%"
         id="text4414"
         y="307.36218"
         x="651"
         style="font-size:12px;font-style:normal;font-variant:normal;font-weight:normal;font-stretch:normal;text-align:start;line-height:125%;letter-spacing:0px;word-spacing:0px;writing-mode:lr-tb;text-anchor:start;fill:#000000;fill-opacity:1;stroke:none;font-family:Calibri;-inkscape-font-specification:Calibri"
         xml:space="preserve"><tspan
           y="307.36218"
           x="651"
           id="tspan4416"
           sodipodi:role="line">Druck-</tspan><tspan
           id="tspan4418"
           y="322.36218"
           x="651"
           sodipodi:role="line">feder</tspan></text>
      <text
         sodipodi:linespacing="125%"
         id="text4420"
         y="199.36218"
         x="662"
         style="font-size:12px;font-style:normal;font-variant:normal;font-weight:normal;font-stretch:normal;text-align:start;line-height:125%;letter-spacing:0px;word-spacing:0px;writing-mode:lr-tb;text-anchor:start;fill:#000000;fill-opacity:1;stroke:none;font-family:Calibri;-inkscape-font-specification:Calibri"
         xml:space="preserve"><tspan
           y="199.36218"
           x="662"
           id="tspan4422"
           sodipodi:role="line">Scheibe</tspan></text>
      <path
         inkscape:connector-curvature="0"
         id="path4424"
         d="m 634,196.36218 c 23,-1 23,-1 23,-1"
         style="fill:none;stroke:#000000;stroke-width:0.5;stroke-linecap:butt;stroke-linejoin:miter;stroke-miterlimit:4;stroke-opacity:1;stroke-dasharray:none" />
      <path
         inkscape:connector-curvature="0"
         id="path4426"
         d="m 605,193.36218 c 1,266.6 1,266.6 1,266.6"
         style="fill:none;stroke:#000000;stroke-width:1.24418652;stroke-linecap:butt;stroke-linejoin:miter;stroke-miterlimit:4;stroke-opacity:1;stroke-dasharray:none;marker-end:url(#Arrow1Lend)" />
      <g
         id="g4666"
         transform="matrix(1.4408472,0,0,1.4408472,79.15915,-151.77182)">
        <text
           xml:space="preserve"
           style="font-size:12px;font-style:normal;font-variant:normal;font-weight:normal;font-stretch:normal;text-align:start;line-height:125%;letter-spacing:0px;word-spacing:0px;writing-mode:lr-tb;text-anchor:start;fill:#000000;fill-opacity:1;stroke:none;font-family:Calibri;-inkscape-font-specification:Calibri"
           x="375"
           y="421.36218"
           id="text4668"
           sodipodi:linespacing="125%"><tspan
             sodipodi:role="line"
             id="tspan4670"
             x="375"
             y="421.36218">F</tspan></text>
        <path
           style="fill:none;stroke:#000000;stroke-width:0.69999999;stroke-linecap:butt;stroke-linejoin:miter;stroke-miterlimit:4;stroke-opacity:1;stroke-dasharray:none;marker-end:url(#Arrow1Mend)"
           d="m 372,409.36218 c 9,0 10,0 10,0"
           id="path4672"
           inkscape:connector-curvature="0" />
      </g>
    </g>
  </g>
</svg>
