<?xml version="1.0" encoding="UTF-8" standalone="no"?>
<!-- Created with Inkscape (http://www.inkscape.org/) -->

<svg
   xmlns:dc="http://purl.org/dc/elements/1.1/"
   xmlns:cc="http://creativecommons.org/ns#"
   xmlns:rdf="http://www.w3.org/1999/02/22-rdf-syntax-ns#"
   xmlns:svg="http://www.w3.org/2000/svg"
   xmlns="http://www.w3.org/2000/svg"
   xmlns:sodipodi="http://sodipodi.sourceforge.net/DTD/sodipodi-0.dtd"
   xmlns:inkscape="http://www.inkscape.org/namespaces/inkscape"
   width="210mm"
   height="297mm"
   id="svg3177"
   version="1.1"
   inkscape:version="0.48.1 r9760"
   sodipodi:docname="Faden_Kugel.svg">
  <defs
     id="defs3179">
    <marker
       inkscape:stockid="Arrow2Lend"
       orient="auto"
       refY="0.0"
       refX="0.0"
       id="Arrow2Lend"
       style="overflow:visible;">
      <path
         id="path4014"
         style="font-size:12.0;fill-rule:evenodd;stroke-width:0.62500000;stroke-linejoin:round;"
         d="M 8.7185878,4.0337352 L -2.2072895,0.016013256 L 8.7185884,-4.0017078 C 6.9730900,-1.6296469 6.9831476,1.6157441 8.7185878,4.0337352 z "
         transform="scale(1.1) rotate(180) translate(1,0)" />
    </marker>
    <marker
       inkscape:stockid="Arrow1Lend"
       orient="auto"
       refY="0.0"
       refX="0.0"
       id="Arrow1Lend"
       style="overflow:visible;">
      <path
         id="path3996"
         d="M 0.0,0.0 L 5.0,-5.0 L -12.5,0.0 L 5.0,5.0 L 0.0,0.0 z "
         style="fill-rule:evenodd;stroke:#000000;stroke-width:1.0pt;marker-start:none;"
         transform="scale(0.8) rotate(180) translate(12.5,0)" />
    </marker>
    <marker
       inkscape:stockid="Arrow1Mstart"
       orient="auto"
       refY="0.0"
       refX="0.0"
       id="Arrow1Mstart"
       style="overflow:visible">
      <path
         id="path3999"
         d="M 0.0,0.0 L 5.0,-5.0 L -12.5,0.0 L 5.0,5.0 L 0.0,0.0 z "
         style="fill-rule:evenodd;stroke:#000000;stroke-width:1.0pt;marker-start:none"
         transform="scale(0.4) translate(10,0)" />
    </marker>
    <marker
       inkscape:stockid="Arrow1Mend"
       orient="auto"
       refY="0"
       refX="0"
       id="Arrow1Mend"
       style="overflow:visible">
      <path
         inkscape:connector-curvature="0"
         id="path3817"
         d="M 0,0 5,-5 -12.5,0 5,5 0,0 z"
         style="fill-rule:evenodd;stroke:#000000;stroke-width:1pt;marker-start:none"
         transform="matrix(-0.4,0,0,-0.4,-4,0)" />
    </marker>
    <marker
       inkscape:stockid="Arrow1Lend"
       orient="auto"
       refY="0"
       refX="0"
       id="Arrow1Lend-1"
       style="overflow:visible">
      <path
         inkscape:connector-curvature="0"
         id="path3841"
         d="M 0,0 5,-5 -12.5,0 5,5 0,0 z"
         style="fill-rule:evenodd;stroke:#000000;stroke-width:1pt;marker-start:none"
         transform="matrix(-0.8,0,0,-0.8,-10,0)" />
    </marker>
    <marker
       inkscape:stockid="Arrow1Mend"
       orient="auto"
       refY="0"
       refX="0"
       id="Arrow1Mend-7"
       style="overflow:visible">
      <path
         inkscape:connector-curvature="0"
         id="path3847"
         d="M 0,0 5,-5 -12.5,0 5,5 0,0 z"
         style="fill-rule:evenodd;stroke:#000000;stroke-width:1pt;marker-start:none"
         transform="matrix(-0.4,0,0,-0.4,-4,0)" />
    </marker>
  </defs>
  <sodipodi:namedview
     id="base"
     pagecolor="#ffffff"
     bordercolor="#666666"
     borderopacity="1.0"
     inkscape:pageopacity="0.0"
     inkscape:pageshadow="2"
     inkscape:zoom="2"
     inkscape:cx="299.35532"
     inkscape:cy="900.23223"
     inkscape:document-units="px"
     inkscape:current-layer="layer1"
     showgrid="false"
     showguides="true"
     inkscape:guide-bbox="true"
     inkscape:window-width="1680"
     inkscape:window-height="988"
     inkscape:window-x="-8"
     inkscape:window-y="-8"
     inkscape:window-maximized="1" />
  <metadata
     id="metadata3182">
    <rdf:RDF>
      <cc:Work
         rdf:about="">
        <dc:format>image/svg+xml</dc:format>
        <dc:type
           rdf:resource="http://purl.org/dc/dcmitype/StillImage" />
        <dc:title />
      </cc:Work>
    </rdf:RDF>
  </metadata>
  <g
     inkscape:label="Ebene 1"
     inkscape:groupmode="layer"
     id="layer1">
    <g
       id="g6021"
       transform="translate(-54,-34.5)">
      <path
         inkscape:connector-curvature="0"
         id="path4097"
         d="m 68.472741,49.50999 c -0.120413,-0.30187 -0.14729,-2.37224 -0.05973,-4.60081 l 0.159208,-4.05196 49.397941,0 49.39793,0 0,4 0,4 -47.27815,0.009 c -26.002992,0.005 -48.205189,0.27515 -49.338217,0.60082 -1.133028,0.32567 -2.15857,0.34514 -2.278985,0.0433 z m 2.720133,-3.37662 c -1.034201,-0.63993 -1.923513,-2.82376 -1.554555,-3.81742 0.159162,-0.42866 0.05764,-0.45567 -0.225625,-0.06 -0.283258,0.39563 -0.515013,1.59278 -0.515013,2.66032 0,1.59687 0.273917,1.92042 1.545038,1.82498 0.850568,-0.0639 1.187751,-0.33708 0.750155,-0.60785 z m 65.995486,-0.0259 c -10.59381,-0.14851 -27.92914,-0.14851 -38.52295,0 -10.593804,0.14851 -1.926144,0.27001 19.26147,0.27001 21.18763,0 29.85529,-0.1215 19.26148,-0.27001 z m 29.69339,-1.50025 -0.13166,-2.25 -45.60951,-0.23549 c -27.936831,-0.14425 -45.701677,0.12653 -45.847404,0.69882 -0.146855,0.57673 16.047758,0.94384 42.313414,0.9592 23.40324,0.0137 43.80281,0.0367 45.33241,0.0512 1.52958,0.0145 2.78106,0.45574 2.78106,0.98061 0,0.52487 -1.25148,1.11173 -2.78106,1.30414 l -2.78107,0.34982 3.42774,0.19587 c 3.33882,0.19078 3.42432,0.13749 3.29608,-2.05414 l 0,0 z M 73.532795,43.15149 c -0.509862,-0.23835 -1.344183,-0.23835 -1.854046,0 -0.509862,0.23835 -0.0927,0.43337 0.927023,0.43337 1.019726,0 1.436885,-0.19502 0.927023,-0.43337 z"
         style="opacity:0.87000002;fill:#cccccc;fill-opacity:1;stroke:#000000;stroke-width:0.12837604;stroke-miterlimit:4;stroke-opacity:1;stroke-dasharray:none;stroke-dashoffset:0" />
      <path
         inkscape:connector-curvature="0"
         id="path3192"
         d="m 69.387772,50.362183 c 98.217878,0 98.217878,0 98.217878,0"
         style="fill:none;stroke:#000000;stroke-width:0.76689702px;stroke-linecap:butt;stroke-linejoin:miter;stroke-opacity:1" />
      <g
         id="g3966">
        <path
           style="fill:none;stroke:#000000;stroke-width:0.69999999;stroke-linecap:butt;stroke-linejoin:miter;stroke-miterlimit:4;stroke-opacity:1;stroke-dasharray:2.1, 2.1;stroke-dashoffset:0"
           d="m 118,49.362183 c 0,111.999997 0,111.999997 0,111.999997"
           id="path3194"
           inkscape:connector-curvature="0" />
        <path
           sodipodi:type="arc"
           style="opacity:0.87000002;fill:none;stroke:#000000;stroke-width:0.69999999;stroke-miterlimit:4;stroke-opacity:1;stroke-dasharray:none;stroke-dashoffset:0"
           id="path3964"
           sodipodi:cx="304"
           sodipodi:cy="96.362183"
           sodipodi:rx="5"
           sodipodi:ry="5"
           d="m 309,96.362183 c 0,2.761423 -2.23858,4.999997 -5,4.999997 -2.76142,0 -5,-2.238574 -5,-4.999997 0,-2.761424 2.23858,-5 5,-5 2.76142,0 5,2.238576 5,5 z"
           transform="translate(-186,70)" />
      </g>
      <path
         style="fill:none;stroke:#000000;stroke-width:1.03693461;stroke-linecap:butt;stroke-linejoin:miter;stroke-miterlimit:4;stroke-opacity:1;stroke-dasharray:none;stroke-dashoffset:0"
         d="M 117.33712,51.088837 C 173.84685,152.55005 173.84685,152.55005 173.84685,152.55005"
         id="path3972"
         inkscape:connector-curvature="0" />
      <path
         sodipodi:type="arc"
         style="opacity:0.87000002;fill:none;stroke:#000000;stroke-width:1;stroke-miterlimit:4;stroke-opacity:1;stroke-dasharray:none;stroke-dashoffset:0"
         id="path3974"
         sodipodi:cx="304"
         sodipodi:cy="96.362183"
         sodipodi:rx="5"
         sodipodi:ry="5"
         d="m 309,96.362183 c 0,2.761423 -2.23858,4.999997 -5,4.999997 -2.76142,0 -5,-2.238574 -5,-4.999997 0,-2.761424 2.23858,-5 5,-5 2.76142,0 5,2.238576 5,5 z"
         transform="matrix(0.87363627,-0.48657956,0.48657956,0.87363627,-138.22484,217.0205)" />
      <path
         sodipodi:open="true"
         transform="translate(-296,-216)"
         sodipodi:end="1.5707963"
         sodipodi:start="1.0698868"
         d="M 469.22571,368.11114 C 452.29456,377.46127 433.30254,382.36218 414,382.36218"
         sodipodi:ry="116"
         sodipodi:rx="115"
         sodipodi:cy="266.36218"
         sodipodi:cx="414"
         id="path3978"
         style="opacity:0.87000002;fill:none;stroke:#000000;stroke-width:1;stroke-miterlimit:4;stroke-opacity:1;stroke-dasharray:3, 3;stroke-dashoffset:0"
         sodipodi:type="arc" />
      <path
         sodipodi:open="true"
         sodipodi:type="arc"
         style="opacity:0.87000002;fill:none;stroke:#000000;stroke-width:1;stroke-miterlimit:4;stroke-opacity:1;stroke-dasharray:none;stroke-dashoffset:0"
         id="path3982"
         sodipodi:cx="414"
         sodipodi:cy="266.36218"
         sodipodi:rx="115"
         sodipodi:ry="116"
         d="M 469.22571,368.11114 C 452.29456,377.46127 433.30254,382.36218 414,382.36218"
         sodipodi:start="1.0698868"
         sodipodi:end="1.5707963"
         transform="matrix(0.47910034,0,0,0.47910034,-81.34754,-82.252029)" />
      <text
         sodipodi:linespacing="125%"
         id="text3984"
         y="89.362183"
         x="124"
         style="font-size:12px;font-style:normal;font-variant:normal;font-weight:normal;font-stretch:normal;text-align:start;line-height:125%;letter-spacing:0px;word-spacing:0px;writing-mode:lr-tb;text-anchor:start;fill:#000000;fill-opacity:1;stroke:none;font-family:ESSTIXEleven;-inkscape-font-specification:ESSTIXEleven"
         xml:space="preserve"><tspan
           y="89.362183"
           x="124"
           id="tspan3986"
           sodipodi:role="line">b</tspan></text>
      <path
         inkscape:connector-curvature="0"
         id="path3988"
         d="m 174,152.36218 c 0,57 0,57 0,57"
         style="fill:none;stroke:#000000;stroke-width:1px;stroke-linecap:butt;stroke-linejoin:miter;stroke-opacity:1;marker-end:url(#Arrow2Lend)" />
      <g
         transform="translate(-197.5,-18)"
         id="g4864">
        <g
           id="g4848">
          <path
             inkscape:connector-curvature="0"
             id="path3170"
             d="m 373.55926,200.25406 c 7.07079,-0.0622 7.07079,-0.0622 7.07079,-0.0622"
             style="fill:none;stroke:#000000;stroke-width:0.60000002;stroke-linecap:butt;stroke-linejoin:miter;stroke-miterlimit:4;stroke-opacity:1;stroke-dasharray:none;marker-end:url(#Arrow1Mend)" />
          <text
             sodipodi:linespacing="125%"
             id="text4837"
             y="210.36218"
             x="374"
             style="font-size:12px;font-style:normal;font-variant:normal;font-weight:normal;font-stretch:normal;text-align:start;line-height:125%;letter-spacing:0px;word-spacing:0px;writing-mode:lr-tb;text-anchor:start;fill:#000000;fill-opacity:1;stroke:none;font-family:Calibri;-inkscape-font-specification:Calibri"
             xml:space="preserve"><tspan
               y="210.36218"
               x="374"
               id="tspan4839"
               sodipodi:role="line">F</tspan></text>
        </g>
        <text
           xml:space="preserve"
           style="font-size:8px;font-style:normal;font-variant:normal;font-weight:normal;font-stretch:normal;text-align:start;line-height:125%;letter-spacing:0px;word-spacing:0px;writing-mode:lr-tb;text-anchor:start;fill:#000000;fill-opacity:1;stroke:none;font-family:Calibri;-inkscape-font-specification:Calibri"
           x="378"
           y="213.36218"
           id="text4841"
           sodipodi:linespacing="125%"><tspan
             sodipodi:role="line"
             id="tspan4843"
             x="378"
             y="213.36218">g</tspan></text>
      </g>
      <g
         transform="translate(-82,-53.5)"
         id="g4853">
        <path
           inkscape:connector-curvature="0"
           id="path4855"
           d="m 373.55926,200.25406 c 7.07079,-0.0622 7.07079,-0.0622 7.07079,-0.0622"
           style="fill:none;stroke:#000000;stroke-width:0.60000002;stroke-linecap:butt;stroke-linejoin:miter;stroke-miterlimit:4;stroke-opacity:1;stroke-dasharray:none;marker-end:url(#Arrow1Mend)" />
        <text
           sodipodi:linespacing="125%"
           id="text4857"
           y="210.36218"
           x="374"
           style="font-size:12px;font-style:normal;font-variant:normal;font-weight:normal;font-stretch:normal;text-align:start;line-height:125%;letter-spacing:0px;word-spacing:0px;writing-mode:lr-tb;text-anchor:start;fill:#000000;fill-opacity:1;stroke:none;font-family:Calibri;-inkscape-font-specification:Calibri"
           xml:space="preserve"><tspan
             y="210.36218"
             x="374"
             id="tspan4859"
             sodipodi:role="line">F</tspan></text>
      </g>
      <path
         style="fill:none;stroke:#000000;stroke-width:1;stroke-linecap:butt;stroke-linejoin:miter;stroke-miterlimit:4;stroke-opacity:1;stroke-dasharray:none;marker-end:none"
         d="m 174,151.36218 c 31.66837,0 31.66837,0 31.66837,0"
         id="path4874"
         inkscape:connector-curvature="0" />
      <path
         sodipodi:type="arc"
         style="opacity:0.87000002;fill:none;stroke:#000000;stroke-width:1;stroke-miterlimit:4;stroke-opacity:1;stroke-dasharray:none;stroke-dashoffset:0"
         id="path4130"
         sodipodi:cx="103.5"
         sodipodi:cy="257.36218"
         sodipodi:rx="4.5"
         sodipodi:ry="5"
         d="m 108,257.36218 c 0,2.76143 -2.01472,5 -4.5,5 -2.48528,0 -4.5,-2.23857 -4.5,-5 0,-2.76142 2.01472,-5 4.5,-5 2.48528,0 4.5,2.23858 4.5,5 z"
         transform="matrix(0.46816287,0,0,0.46816287,158.88596,30.971471)" />
      <path
         transform="matrix(0.46816287,0,0,0.46816287,160.29044,30.035145)"
         d="m 108,257.36218 c 0,2.76143 -2.01472,5 -4.5,5 -2.48528,0 -4.5,-2.23857 -4.5,-5 0,-0.0145 5.7e-5,-0.0291 1.71e-4,-0.0436"
         sodipodi:ry="5"
         sodipodi:rx="4.5"
         sodipodi:cy="257.36218"
         sodipodi:cx="103.5"
         id="path4132"
         style="opacity:0.87000002;fill:none;stroke:#000000;stroke-width:1;stroke-miterlimit:4;stroke-opacity:1;stroke-dasharray:none;stroke-dashoffset:0"
         sodipodi:type="arc"
         sodipodi:start="0"
         sodipodi:end="3.1503193"
         sodipodi:open="true" />
      <path
         style="fill:none;stroke:#000000;stroke-width:0.46816286px;stroke-linecap:butt;stroke-linejoin:miter;stroke-opacity:1"
         d="m 209.91571,151.45889 c 11.70407,0 11.70407,0 11.70407,0"
         id="path4134"
         inkscape:connector-curvature="0" />
      <rect
         style="opacity:0.87000002;fill:none;stroke:#000000;stroke-width:0.46816286;stroke-miterlimit:4;stroke-opacity:1;stroke-dasharray:none;stroke-dashoffset:0"
         id="rect4138"
         width="18.726515"
         height="3.7453029"
         x="222.08794"
         y="149.58624" />
      <rect
         style="opacity:0.87000002;fill:none;stroke:#000000;stroke-width:0.46816286;stroke-miterlimit:4;stroke-opacity:1;stroke-dasharray:none;stroke-dashoffset:0"
         id="rect4140"
         width="36.048542"
         height="6.5542803"
         x="240.81445"
         y="147.71359" />
      <path
         inkscape:connector-curvature="0"
         id="path4142"
         d="m 277.33116,150.99073 c 5.61796,0 6.08612,0 6.08612,0"
         style="fill:none;stroke:#000000;stroke-width:0.46816286px;stroke-linecap:butt;stroke-linejoin:miter;stroke-opacity:1" />
      <path
         transform="matrix(0.46816287,0,0,0.46816287,236.13283,30.503308)"
         d="m 108,257.36218 c 0,2.76143 -2.01472,5 -4.5,5 -2.48528,0 -4.5,-2.23857 -4.5,-5 0,-2.76142 2.01472,-5 4.5,-5 2.48528,0 4.5,2.23858 4.5,5 z"
         sodipodi:ry="5"
         sodipodi:rx="4.5"
         sodipodi:cy="257.36218"
         sodipodi:cx="103.5"
         id="path4144"
         style="opacity:0.87000002;fill:none;stroke:#000000;stroke-width:1;stroke-miterlimit:4;stroke-opacity:1;stroke-dasharray:none;stroke-dashoffset:0"
         sodipodi:type="arc" />
      <g
         transform="matrix(0.46816287,0,0,0.46816287,105.51539,113.36814)"
         id="g4148">
        <g
           id="g4150">
          <path
             style="fill:none;stroke:#000000;stroke-width:0.60000002;stroke-linecap:butt;stroke-linejoin:miter;stroke-miterlimit:4;stroke-opacity:1;stroke-dasharray:none"
             d="m 257,76.362183 c 0,9 1,9 1,9"
             id="path4153"
             inkscape:connector-curvature="0" />
        </g>
      </g>
      <g
         transform="matrix(0.46816287,0,0,0.46816287,108.32437,113.36814)"
         id="g4157">
        <g
           id="g4159">
          <path
             inkscape:connector-curvature="0"
             id="path4161"
             d="m 257,76.362183 c 0,9 1,9 1,9"
             style="fill:none;stroke:#000000;stroke-width:0.60000002;stroke-linecap:butt;stroke-linejoin:miter;stroke-miterlimit:4;stroke-opacity:1;stroke-dasharray:none" />
        </g>
      </g>
      <g
         transform="matrix(0.46816287,0,0,0.46816287,112.06967,113.36814)"
         id="g4165">
        <g
           id="g4167">
          <path
             style="fill:none;stroke:#000000;stroke-width:0.60000002;stroke-linecap:butt;stroke-linejoin:miter;stroke-miterlimit:4;stroke-opacity:1;stroke-dasharray:none"
             d="m 257,76.362183 c 0,9 1,9 1,9"
             id="path4169"
             inkscape:connector-curvature="0" />
        </g>
      </g>
      <g
         transform="matrix(0.46816287,0,0,0.46816287,115.34681,113.36814)"
         id="g4173">
        <g
           id="g4175">
          <path
             inkscape:connector-curvature="0"
             id="path4177"
             d="m 257,76.362183 c 0,9 1,9 1,9"
             style="fill:none;stroke:#000000;stroke-width:0.60000002;stroke-linecap:butt;stroke-linejoin:miter;stroke-miterlimit:4;stroke-opacity:1;stroke-dasharray:none" />
        </g>
      </g>
      <g
         transform="matrix(0.46816287,0,0,0.46816287,118.62395,113.36814)"
         id="g4181">
        <g
           id="g4183">
          <path
             style="fill:none;stroke:#000000;stroke-width:0.60000002;stroke-linecap:butt;stroke-linejoin:miter;stroke-miterlimit:4;stroke-opacity:1;stroke-dasharray:none"
             d="m 257,76.362183 c 0,9 1,9 1,9"
             id="path4185"
             inkscape:connector-curvature="0" />
        </g>
      </g>
    </g>
    <g
       id="g3408">
      <path
         style="opacity:0.87000002;fill:#cccccc;fill-opacity:1;stroke:#000000;stroke-width:0.12837604;stroke-miterlimit:4;stroke-opacity:1;stroke-dasharray:none;stroke-dashoffset:0"
         d="m 281.47274,13.50999 c -0.12041,-0.30187 -0.14729,-2.37224 -0.0597,-4.60081 l 0.15921,-4.05196 49.39794,0 49.39793,0 0,4 0,4 -47.27815,0.009 c -26.00299,0.005 -48.20519,0.27515 -49.33822,0.60082 -1.13303,0.32567 -2.15857,0.34514 -2.27898,0.0433 z m 2.72013,-3.37662 c -1.0342,-0.63993 -1.92351,-2.82376 -1.55455,-3.81742 0.15916,-0.42866 0.0576,-0.45567 -0.22563,-0.06 -0.28325,0.39563 -0.51501,1.59278 -0.51501,2.66032 0,1.59687 0.27392,1.92042 1.54504,1.82498 0.85057,-0.0639 1.18775,-0.33708 0.75015,-0.60785 z m 65.99549,-0.0259 c -10.59381,-0.14851 -27.92914,-0.14851 -38.52295,0 -10.5938,0.14851 -1.92614,0.27001 19.26147,0.27001 21.18763,0 29.85529,-0.1215 19.26148,-0.27001 z m 29.69339,-1.50025 -0.13166,-2.25 -45.60951,-0.23549 c -27.93683,-0.14425 -45.70168,0.12653 -45.8474,0.69882 -0.14686,0.57673 16.04775,0.94384 42.31341,0.9592 23.40324,0.0137 43.80281,0.0367 45.33241,0.0512 1.52958,0.0145 2.78106,0.45574 2.78106,0.98061 0,0.52487 -1.25148,1.11173 -2.78106,1.30414 l -2.78107,0.34982 3.42774,0.19587 c 3.33882,0.19078 3.42432,0.13749 3.29608,-2.05414 l 0,0 z M 286.53279,7.15149 c -0.50986,-0.23835 -1.34418,-0.23835 -1.85404,0 -0.50986,0.23835 -0.0927,0.43337 0.92702,0.43337 1.01973,0 1.43689,-0.19502 0.92703,-0.43337 z"
         id="path3051"
         inkscape:connector-curvature="0" />
      <path
         style="fill:none;stroke:#000000;stroke-width:0.76689702px;stroke-linecap:butt;stroke-linejoin:miter;stroke-opacity:1"
         d="m 282.38777,14.362183 c 98.21788,0 98.21788,0 98.21788,0"
         id="path3053"
         inkscape:connector-curvature="0" />
      <g
         transform="translate(213,-36)"
         id="g3055">
        <path
           inkscape:connector-curvature="0"
           id="path3057"
           d="m 118,49.362183 c 0,111.999997 0,111.999997 0,111.999997"
           style="fill:none;stroke:#000000;stroke-width:0.69999999;stroke-linecap:butt;stroke-linejoin:miter;stroke-miterlimit:4;stroke-opacity:1;stroke-dasharray:2.1, 2.1;stroke-dashoffset:0" />
        <path
           transform="translate(-186,70)"
           d="m 309,96.362183 c 0,2.761423 -2.23858,4.999997 -5,4.999997 -2.76142,0 -5,-2.238574 -5,-4.999997 0,-2.761424 2.23858,-5 5,-5 2.76142,0 5,2.238576 5,5 z"
           sodipodi:ry="5"
           sodipodi:rx="5"
           sodipodi:cy="96.362183"
           sodipodi:cx="304"
           id="path3059"
           style="opacity:0.87000002;fill:none;stroke:#000000;stroke-width:0.69999999;stroke-miterlimit:4;stroke-opacity:1;stroke-dasharray:none;stroke-dashoffset:0"
           sodipodi:type="arc" />
      </g>
      <path
         inkscape:connector-curvature="0"
         id="path3061"
         d="M 330.33712,15.088837 C 386.84685,116.55005 386.84685,116.55005 386.84685,116.55005"
         style="fill:none;stroke:#000000;stroke-width:1.03693461;stroke-linecap:butt;stroke-linejoin:miter;stroke-miterlimit:4;stroke-opacity:1;stroke-dasharray:none;stroke-dashoffset:0" />
      <path
         transform="matrix(0.87363627,-0.48657956,0.48657956,0.87363627,74.77516,181.0205)"
         d="m 309,96.362183 a 5,5 0 1 1 -10,0 5,5 0 1 1 10,0 z"
         sodipodi:ry="5"
         sodipodi:rx="5"
         sodipodi:cy="96.362183"
         sodipodi:cx="304"
         id="path3063"
         style="opacity:0.87000002;fill:none;stroke:#000000;stroke-width:1;stroke-miterlimit:4;stroke-opacity:1;stroke-dasharray:none;stroke-dashoffset:0"
         sodipodi:type="arc" />
      <path
         sodipodi:type="arc"
         style="opacity:0.87000002;fill:none;stroke:#000000;stroke-width:1;stroke-miterlimit:4;stroke-opacity:1;stroke-dasharray:3, 3;stroke-dashoffset:0"
         id="path3065"
         sodipodi:cx="414"
         sodipodi:cy="266.36218"
         sodipodi:rx="115"
         sodipodi:ry="116"
         d="M 469.22571,368.11114 A 115,116 0 0 1 414,382.36218"
         sodipodi:start="1.0698868"
         sodipodi:end="1.5707963"
         transform="translate(-83,-252)"
         sodipodi:open="true" />
      <path
         transform="matrix(0.47910034,0,0,0.47910034,131.65246,-118.25203)"
         sodipodi:end="1.5707963"
         sodipodi:start="1.0698868"
         d="M 469.22571,368.11114 A 115,116 0 0 1 414,382.36218"
         sodipodi:ry="116"
         sodipodi:rx="115"
         sodipodi:cy="266.36218"
         sodipodi:cx="414"
         id="path3067"
         style="opacity:0.87000002;fill:none;stroke:#000000;stroke-width:1;stroke-miterlimit:4;stroke-opacity:1;stroke-dasharray:none;stroke-dashoffset:0"
         sodipodi:type="arc"
         sodipodi:open="true" />
      <text
         xml:space="preserve"
         style="font-size:12px;font-style:normal;font-variant:normal;font-weight:normal;font-stretch:normal;text-align:start;line-height:125%;letter-spacing:0px;word-spacing:0px;writing-mode:lr-tb;text-anchor:start;fill:#000000;fill-opacity:1;stroke:none;font-family:ESSTIXEleven;-inkscape-font-specification:ESSTIXEleven"
         x="337"
         y="53.362183"
         id="text3069"
         sodipodi:linespacing="125%"><tspan
           sodipodi:role="line"
           id="tspan3071"
           x="337"
           y="53.362183">b</tspan></text>
      <path
         style="fill:none;stroke:#000000;stroke-width:1px;stroke-linecap:butt;stroke-linejoin:miter;stroke-opacity:1;marker-end:url(#Arrow2Lend)"
         d="m 387,116.36218 c 0,57 0,57 0,57"
         id="path3073"
         inkscape:connector-curvature="0" />
      <g
         id="g3075"
         transform="translate(15.5,-54)">
        <g
           id="g3077">
          <path
             style="fill:none;stroke:#000000;stroke-width:0.60000002;stroke-linecap:butt;stroke-linejoin:miter;stroke-miterlimit:4;stroke-opacity:1;stroke-dasharray:none;marker-end:url(#Arrow1Mend)"
             d="m 373.55926,200.25406 c 7.07079,-0.0622 7.07079,-0.0622 7.07079,-0.0622"
             id="path3079"
             inkscape:connector-curvature="0" />
          <text
             xml:space="preserve"
             style="font-size:12px;font-style:normal;font-variant:normal;font-weight:normal;font-stretch:normal;text-align:start;line-height:125%;letter-spacing:0px;word-spacing:0px;writing-mode:lr-tb;text-anchor:start;fill:#000000;fill-opacity:1;stroke:none;font-family:Calibri;-inkscape-font-specification:Calibri"
             x="374"
             y="210.36218"
             id="text3081"
             sodipodi:linespacing="125%"><tspan
               sodipodi:role="line"
               id="tspan3083"
               x="374"
               y="210.36218">F</tspan></text>
        </g>
        <text
           sodipodi:linespacing="125%"
           id="text3085"
           y="213.36218"
           x="378"
           style="font-size:8px;font-style:normal;font-variant:normal;font-weight:normal;font-stretch:normal;text-align:start;line-height:125%;letter-spacing:0px;word-spacing:0px;writing-mode:lr-tb;text-anchor:start;fill:#000000;fill-opacity:1;stroke:none;font-family:Calibri;-inkscape-font-specification:Calibri"
           xml:space="preserve"><tspan
             y="213.36218"
             x="378"
             id="tspan3087"
             sodipodi:role="line">g</tspan></text>
      </g>
      <g
         id="g3089"
         transform="translate(131,-89.5)">
        <path
           style="fill:none;stroke:#000000;stroke-width:0.60000002;stroke-linecap:butt;stroke-linejoin:miter;stroke-miterlimit:4;stroke-opacity:1;stroke-dasharray:none;marker-end:url(#Arrow1Mend)"
           d="m 373.55926,200.25406 c 7.07079,-0.0622 7.07079,-0.0622 7.07079,-0.0622"
           id="path3091"
           inkscape:connector-curvature="0" />
        <text
           xml:space="preserve"
           style="font-size:12px;font-style:normal;font-variant:normal;font-weight:normal;font-stretch:normal;text-align:start;line-height:125%;letter-spacing:0px;word-spacing:0px;writing-mode:lr-tb;text-anchor:start;fill:#000000;fill-opacity:1;stroke:none;font-family:Calibri;-inkscape-font-specification:Calibri"
           x="374"
           y="210.36218"
           id="text3093"
           sodipodi:linespacing="125%"><tspan
             sodipodi:role="line"
             id="tspan3095"
             x="374"
             y="210.36218">F</tspan></text>
      </g>
      <path
         inkscape:connector-curvature="0"
         id="path3097"
         d="m 387,115.36218 c 31.66837,0 31.66837,0 31.66837,0"
         style="fill:none;stroke:#000000;stroke-width:1;stroke-linecap:butt;stroke-linejoin:miter;stroke-miterlimit:4;stroke-opacity:1;stroke-dasharray:none;marker-end:none" />
      <path
         transform="matrix(0.46816287,0,0,0.46816287,371.88596,-5.028529)"
         d="m 108,257.36218 a 4.5,5 0 1 1 -9,0 4.5,5 0 1 1 9,0 z"
         sodipodi:ry="5"
         sodipodi:rx="4.5"
         sodipodi:cy="257.36218"
         sodipodi:cx="103.5"
         id="path3099"
         style="opacity:0.87000002;fill:none;stroke:#000000;stroke-width:1;stroke-miterlimit:4;stroke-opacity:1;stroke-dasharray:none;stroke-dashoffset:0"
         sodipodi:type="arc" />
      <path
         sodipodi:open="true"
         sodipodi:end="3.1503193"
         sodipodi:start="0"
         sodipodi:type="arc"
         style="opacity:0.87000002;fill:none;stroke:#000000;stroke-width:1;stroke-miterlimit:4;stroke-opacity:1;stroke-dasharray:none;stroke-dashoffset:0"
         id="path3101"
         sodipodi:cx="103.5"
         sodipodi:cy="257.36218"
         sodipodi:rx="4.5"
         sodipodi:ry="5"
         d="m 108,257.36218 a 4.5,5 0 1 1 -8.999829,-0.0436"
         transform="matrix(0.46816287,0,0,0.46816287,373.29044,-5.964855)" />
      <path
         inkscape:connector-curvature="0"
         id="path3103"
         d="m 422.91571,115.45889 c 11.70407,0 11.70407,0 11.70407,0"
         style="fill:none;stroke:#000000;stroke-width:0.46816286px;stroke-linecap:butt;stroke-linejoin:miter;stroke-opacity:1" />
      <rect
         y="113.58624"
         x="435.08795"
         height="3.7453029"
         width="18.726515"
         id="rect3105"
         style="opacity:0.87000002;fill:none;stroke:#000000;stroke-width:0.46816286;stroke-miterlimit:4;stroke-opacity:1;stroke-dasharray:none;stroke-dashoffset:0" />
      <rect
         y="111.71359"
         x="453.81445"
         height="6.5542803"
         width="36.048542"
         id="rect3107"
         style="opacity:0.87000002;fill:none;stroke:#000000;stroke-width:0.46816286;stroke-miterlimit:4;stroke-opacity:1;stroke-dasharray:none;stroke-dashoffset:0" />
      <path
         style="fill:none;stroke:#000000;stroke-width:0.46816286px;stroke-linecap:butt;stroke-linejoin:miter;stroke-opacity:1"
         d="m 490.33116,114.99073 c 5.61796,0 6.08612,0 6.08612,0"
         id="path3109"
         inkscape:connector-curvature="0" />
      <path
         sodipodi:type="arc"
         style="opacity:0.87000002;fill:none;stroke:#000000;stroke-width:1;stroke-miterlimit:4;stroke-opacity:1;stroke-dasharray:none;stroke-dashoffset:0"
         id="path3111"
         sodipodi:cx="103.5"
         sodipodi:cy="257.36218"
         sodipodi:rx="4.5"
         sodipodi:ry="5"
         d="m 108,257.36218 a 4.5,5 0 1 1 -9,0 4.5,5 0 1 1 9,0 z"
         transform="matrix(0.46816287,0,0,0.46816287,449.13283,-5.496692)" />
      <g
         id="g3113"
         transform="matrix(0.46816287,0,0,0.46816287,318.51539,77.36814)">
        <g
           id="g3115">
          <path
             inkscape:connector-curvature="0"
             id="path3117"
             d="m 257,76.362183 c 0,9 1,9 1,9"
             style="fill:none;stroke:#000000;stroke-width:0.60000002;stroke-linecap:butt;stroke-linejoin:miter;stroke-miterlimit:4;stroke-opacity:1;stroke-dasharray:none" />
        </g>
      </g>
      <g
         id="g3119"
         transform="matrix(0.46816287,0,0,0.46816287,321.32437,77.36814)">
        <g
           id="g3121">
          <path
             style="fill:none;stroke:#000000;stroke-width:0.60000002;stroke-linecap:butt;stroke-linejoin:miter;stroke-miterlimit:4;stroke-opacity:1;stroke-dasharray:none"
             d="m 257,76.362183 c 0,9 1,9 1,9"
             id="path3123"
             inkscape:connector-curvature="0" />
        </g>
      </g>
      <g
         id="g3125"
         transform="matrix(0.46816287,0,0,0.46816287,325.06967,77.36814)">
        <g
           id="g3127">
          <path
             inkscape:connector-curvature="0"
             id="path3129"
             d="m 257,76.362183 c 0,9 1,9 1,9"
             style="fill:none;stroke:#000000;stroke-width:0.60000002;stroke-linecap:butt;stroke-linejoin:miter;stroke-miterlimit:4;stroke-opacity:1;stroke-dasharray:none" />
        </g>
      </g>
      <g
         id="g3131"
         transform="matrix(0.46816287,0,0,0.46816287,328.34681,77.36814)">
        <g
           id="g3133">
          <path
             style="fill:none;stroke:#000000;stroke-width:0.60000002;stroke-linecap:butt;stroke-linejoin:miter;stroke-miterlimit:4;stroke-opacity:1;stroke-dasharray:none"
             d="m 257,76.362183 c 0,9 1,9 1,9"
             id="path3135"
             inkscape:connector-curvature="0" />
        </g>
      </g>
      <g
         id="g3137"
         transform="matrix(0.46816287,0,0,0.46816287,331.62395,77.36814)">
        <g
           id="g3139">
          <path
             inkscape:connector-curvature="0"
             id="path3141"
             d="m 257,76.362183 c 0,9 1,9 1,9"
             style="fill:none;stroke:#000000;stroke-width:0.60000002;stroke-linecap:butt;stroke-linejoin:miter;stroke-miterlimit:4;stroke-opacity:1;stroke-dasharray:none" />
        </g>
      </g>
      <path
         style="fill:none;stroke:#ff0000;stroke-width:0.95904511;stroke-linecap:butt;stroke-linejoin:miter;stroke-miterlimit:4;stroke-opacity:1;stroke-dasharray:none;stroke-dashoffset:0;marker-end:url(#Arrow2Lend)"
         d="m 387.10166,115.85338 c 31.72372,56.95882 31.72372,56.95882 31.72372,56.95882"
         id="path3189"
         inkscape:connector-curvature="0" />
      <path
         style="fill:none;stroke:#000000;stroke-width:0.82099998;stroke-linecap:butt;stroke-linejoin:miter;stroke-miterlimit:4;stroke-opacity:1;stroke-dasharray:1.64199996, 1.64199996;stroke-dashoffset:0;marker-end:none"
         d="m 387.5,173.36218 c 55.30104,0 55.30104,0 55.30104,0"
         id="path4187"
         inkscape:connector-curvature="0" />
      <path
         style="fill:none;stroke:#008080;stroke-width:1;stroke-linecap:butt;stroke-linejoin:miter;stroke-miterlimit:4;stroke-opacity:1;stroke-dasharray:none;marker-end:url(#Arrow1Mend-7)"
         d="m 387.5,173.36218 c 31.66837,0 31.66837,0 31.66837,0"
         id="path4189"
         inkscape:connector-curvature="0" />
      <g
         transform="translate(28,-23)"
         id="g5027">
        <path
           inkscape:connector-curvature="0"
           id="path5029"
           d="m 373.55926,200.25406 c 7.07079,-0.0622 7.07079,-0.0622 7.07079,-0.0622"
           style="fill:none;stroke:#000000;stroke-width:0.60000002;stroke-linecap:butt;stroke-linejoin:miter;stroke-miterlimit:4;stroke-opacity:1;stroke-dasharray:none;marker-end:url(#Arrow1Mend)" />
        <text
           sodipodi:linespacing="125%"
           id="text5031"
           y="210.36218"
           x="374"
           style="font-size:12px;font-style:normal;font-variant:normal;font-weight:normal;font-stretch:normal;text-align:start;line-height:125%;letter-spacing:0px;word-spacing:0px;writing-mode:lr-tb;text-anchor:start;fill:#000000;fill-opacity:1;stroke:none;font-family:Calibri;-inkscape-font-specification:Calibri"
           xml:space="preserve"><tspan
             y="210.36218"
             x="374"
             id="tspan5033"
             sodipodi:role="line">F</tspan></text>
      </g>
      <g
         id="g3306">
        <path
           inkscape:connector-curvature="0"
           id="path5037"
           d="m 414.05926,142.75406 c 7.07079,-0.0622 7.07079,-0.0622 7.07079,-0.0622"
           style="fill:none;stroke:#000000;stroke-width:0.60000002;stroke-linecap:butt;stroke-linejoin:miter;stroke-miterlimit:4;stroke-opacity:1;stroke-dasharray:none;marker-end:url(#Arrow1Mend)" />
        <text
           sodipodi:linespacing="125%"
           id="text5039"
           y="152.86218"
           x="412.5"
           style="font-size:12px;font-style:normal;font-variant:normal;font-weight:normal;font-stretch:normal;text-align:start;line-height:125%;letter-spacing:0px;word-spacing:0px;writing-mode:lr-tb;text-anchor:start;fill:#000000;fill-opacity:1;stroke:none;font-family:Calibri;-inkscape-font-specification:Calibri"
           xml:space="preserve"><tspan
             y="152.86218"
             x="412.5"
             id="tspan5041"
             sodipodi:role="line">-F</tspan></text>
        <text
           xml:space="preserve"
           style="font-size:8px;font-style:normal;font-variant:normal;font-weight:normal;font-stretch:normal;text-align:start;line-height:125%;letter-spacing:0px;word-spacing:0px;writing-mode:lr-tb;text-anchor:start;fill:#000000;fill-opacity:1;stroke:none;font-family:Calibri;-inkscape-font-specification:Calibri"
           x="420"
           y="155.86218"
           id="text5043"
           sodipodi:linespacing="125%"><tspan
             sodipodi:role="line"
             id="tspan5045"
             x="420"
             y="155.86218">Z</tspan></text>
      </g>
      <text
         sodipodi:linespacing="125%"
         id="text5047"
         y="136.36218"
         x="387.5"
         style="font-size:10px;font-style:normal;font-variant:normal;font-weight:normal;font-stretch:normal;text-align:start;line-height:125%;letter-spacing:0px;word-spacing:0px;writing-mode:lr-tb;text-anchor:start;fill:#000000;fill-opacity:1;stroke:none;font-family:ESSTIXEleven;-inkscape-font-specification:ESSTIXEleven"
         xml:space="preserve"><tspan
           y="136.36218"
           x="387.5"
           id="tspan5049"
           sodipodi:role="line">b</tspan></text>
      <path
         sodipodi:open="true"
         sodipodi:type="arc"
         style="opacity:0.87000002;fill:none;stroke:#000000;stroke-width:1;stroke-miterlimit:4;stroke-opacity:1;stroke-dasharray:none;stroke-dashoffset:0"
         id="path5051"
         sodipodi:cx="414"
         sodipodi:cy="266.36218"
         sodipodi:rx="115"
         sodipodi:ry="116"
         d="M 469.22571,368.11114 A 115,116 0 0 1 414,382.36218"
         sodipodi:start="1.0698868"
         sodipodi:end="1.5707963"
         transform="matrix(0.24483277,0,0,0.31517717,284.94209,21.507954)" />
      <path
         inkscape:connector-curvature="0"
         id="path3301"
         d="M 387.48034,115.93714 C 355.75662,58.97832 355.75662,58.97832 355.75662,58.97832"
         style="fill:none;stroke:#ff0000;stroke-width:0.95904511;stroke-linecap:butt;stroke-linejoin:miter;stroke-miterlimit:4;stroke-opacity:1;stroke-dasharray:none;stroke-dashoffset:0;marker-end:url(#Arrow2Lend)" />
      <g
         id="g3330">
        <path
           style="fill:none;stroke:#000000;stroke-width:0.60000002;stroke-linecap:butt;stroke-linejoin:miter;stroke-miterlimit:4;stroke-opacity:1;stroke-dasharray:none;marker-end:url(#Arrow1Mend)"
           d="m 375.05926,76.25406 c 7.07079,-0.0622 7.07079,-0.0622 7.07079,-0.0622"
           id="path3315"
           inkscape:connector-curvature="0" />
        <text
           xml:space="preserve"
           style="font-size:12px;font-style:normal;font-variant:normal;font-weight:normal;font-stretch:normal;text-align:start;line-height:125%;letter-spacing:0px;word-spacing:0px;writing-mode:lr-tb;text-anchor:start;fill:#000000;fill-opacity:1;stroke:none;font-family:Calibri;-inkscape-font-specification:Calibri"
           x="375.5"
           y="86.862183"
           id="text3317"
           sodipodi:linespacing="125%"><tspan
             sodipodi:role="line"
             id="tspan3319"
             x="375.5"
             y="86.862183">F</tspan></text>
        <text
           sodipodi:linespacing="125%"
           id="text3321"
           y="89.862183"
           x="380"
           style="font-size:8px;font-style:normal;font-variant:normal;font-weight:normal;font-stretch:normal;text-align:start;line-height:125%;letter-spacing:0px;word-spacing:0px;writing-mode:lr-tb;text-anchor:start;fill:#000000;fill-opacity:1;stroke:none;font-family:Calibri;-inkscape-font-specification:Calibri"
           xml:space="preserve"><tspan
             y="89.862183"
             x="380"
             id="tspan3323"
             sodipodi:role="line">Z</tspan></text>
      </g>
    </g>
  </g>
</svg>
