<?xml version="1.0" encoding="UTF-8" standalone="no"?>
<!-- Created with Inkscape (http://www.inkscape.org/) -->

<svg
   xmlns:dc="http://purl.org/dc/elements/1.1/"
   xmlns:cc="http://creativecommons.org/ns#"
   xmlns:rdf="http://www.w3.org/1999/02/22-rdf-syntax-ns#"
   xmlns:svg="http://www.w3.org/2000/svg"
   xmlns="http://www.w3.org/2000/svg"
   xmlns:sodipodi="http://sodipodi.sourceforge.net/DTD/sodipodi-0.dtd"
   xmlns:inkscape="http://www.inkscape.org/namespaces/inkscape"
   width="210mm"
   height="297mm"
   id="svg2"
   version="1.1"
   inkscape:version="0.48.1 r9760"
   sodipodi:docname="Neues Dokument 1">
  <defs
     id="defs4" />
  <sodipodi:namedview
     id="base"
     pagecolor="#ffffff"
     bordercolor="#666666"
     borderopacity="1.0"
     inkscape:pageopacity="0.0"
     inkscape:pageshadow="2"
     inkscape:zoom="1"
     inkscape:cx="532.7221"
     inkscape:cy="681.36686"
     inkscape:document-units="px"
     inkscape:current-layer="layer1"
     showgrid="false"
     inkscape:window-width="1680"
     inkscape:window-height="988"
     inkscape:window-x="-8"
     inkscape:window-y="-8"
     inkscape:window-maximized="1" />
  <metadata
     id="metadata7">
    <rdf:RDF>
      <cc:Work
         rdf:about="">
        <dc:format>image/svg+xml</dc:format>
        <dc:type
           rdf:resource="http://purl.org/dc/dcmitype/StillImage" />
        <dc:title></dc:title>
      </cc:Work>
    </rdf:RDF>
  </metadata>
  <g
     inkscape:label="Ebene 1"
     inkscape:groupmode="layer"
     id="layer1">
    <g
       id="g4135">
      <path
         inkscape:connector-curvature="0"
         id="path2985"
         d="m 58,50.362183 c 241,0 241,0 241,0"
         style="fill:none;stroke:#000000;stroke-width:1px;stroke-linecap:butt;stroke-linejoin:miter;stroke-opacity:1" />
      <path
         inkscape:connector-curvature="0"
         id="path2987"
         d="M 98,50.362183 C 200,103.36218 200,103.36218 200,103.36218 L 256,50.362183"
         style="fill:none;stroke:#000000;stroke-width:1px;stroke-linecap:butt;stroke-linejoin:miter;stroke-opacity:1" />
      <path
         style="fill:none;stroke:#000000;stroke-width:0.2;stroke-linecap:butt;stroke-linejoin:miter;stroke-opacity:1;stroke-miterlimit:4;stroke-dasharray:none"
         d="m 57,50.362183 c 0,0 0,0 1,-9 241,0 241,0 241,0 0,7 0,8 0,8"
         id="path4085"
         inkscape:connector-curvature="0" />
      <path
         inkscape:connector-curvature="0"
         id="path4087"
         d="m 67.318904,50.050465 c 5.333244,-0.179454 14.333244,-0.180178 20,-0.0016 5.666757,0.178572 1.303194,0.325399 -9.696806,0.326283 -11,8.84e-4 -15.636437,-0.145219 -10.303194,-0.324673 z"
         style="opacity:0.87000002;fill:none;stroke:#000000;stroke-width:0.2;stroke-miterlimit:4;stroke-opacity:1;stroke-dasharray:none;stroke-dashoffset:0" />
      <path
         inkscape:connector-curvature="0"
         id="path4089"
         d="m 58.122098,45.795325 0,-4 120.000002,0 120,0 0,4 0,4 -120,0 -120.000002,0 0,-4 z"
         style="opacity:0.87000002;fill:none;stroke:#000000;stroke-width:0.2;stroke-miterlimit:4;stroke-opacity:1;stroke-dasharray:none;stroke-dashoffset:0" />
      <path
         inkscape:connector-curvature="0"
         id="path4091"
         d="m 59.122098,45.795325 0,-3 119.000002,0 119,0 0,3 0,3 -119,0 -119.000002,0 0,-3 z"
         style="opacity:0.87000002;fill:none;stroke:#000000;stroke-width:0.2;stroke-miterlimit:4;stroke-opacity:1;stroke-dasharray:none;stroke-dashoffset:0" />
      <path
         inkscape:connector-curvature="0"
         id="path4093"
         d="m 118.8721,48.045478 c 32.5875,-0.146307 85.9125,-0.146307 118.5,0 32.5875,0.146307 5.925,0.266012 -59.25,0.266012 -65.175,0 -91.837502,-0.119705 -59.25,-0.266012 z"
         style="opacity:0.87000001999999999;fill:#808080;stroke:#000000;stroke-width:0.20000000000000001;stroke-miterlimit:4;stroke-opacity:1;stroke-dasharray:none;stroke-dashoffset:0;fill-opacity:1" />
      <path
         inkscape:connector-curvature="0"
         id="path4095"
         d="m 60.122098,45.795325 c 0,-1.9887 0.666667,-2 118.000002,-2 117.33333,0 118,0.0113 118,2 0,1.988701 -0.66667,2 -118,2 -117.333335,0 -118.000002,-0.0113 -118.000002,-2 z"
         style="opacity:0.87000002;fill:#808080;fill-opacity:1;stroke:#000000;stroke-width:0.2;stroke-miterlimit:4;stroke-opacity:1;stroke-dasharray:none;stroke-dashoffset:0" />
      <path
         inkscape:connector-curvature="0"
         id="path4097"
         d="M 58.090717,50.448096 C 57.798458,50.14622 57.733224,48.075852 57.945753,45.847278 l 0.386416,-4.051953 119.894971,0 119.89496,0 0,4 0,4 -114.75,0.0087 c -63.1125,0.0048 -117.000002,0.275151 -119.750002,0.60082 -2.75,0.325669 -5.239121,0.345136 -5.531381,0.04326 z m 6.602102,-3.376622 c -2.510135,-0.639932 -4.668607,-2.82376 -3.773102,-3.817427 0.386309,-0.428655 0.139881,-0.455668 -0.547619,-0.06003 -0.6875,0.395638 -1.25,1.592784 -1.25,2.660325 0,1.59687 0.664831,1.920417 3.75,1.824982 2.064435,-0.06386 2.88282,-0.33708 1.820721,-0.60785 z M 224.8721,47.045567 c -25.7125,-0.14851 -67.7875,-0.14851 -93.5,0 -25.7125,0.14851 -4.675,0.270019 46.75,0.270019 51.425,0 72.4625,-0.121509 46.75,-0.270019 z m 72.06955,-1.500242 -0.31955,-2.25 -110.69995,-0.235497 C 118.11596,42.915581 74.99846,43.186359 74.644764,43.75865 c -0.356437,0.576728 38.949906,0.943842 102.699946,0.959201 56.80257,0.01368 106.31489,0.03671 110.02739,0.05118 3.7125,0.01446 6.75,0.455736 6.75,0.980606 0,0.524871 -3.0375,1.111734 -6.75,1.30414 l -6.75,0.349829 8.31955,0.195861 c 8.10374,0.19078 8.31126,0.137494 8,-2.05414 l 0,0 z M 70.372098,44.089592 c -1.2375,-0.238353 -3.2625,-0.238353 -4.5,0 -1.2375,0.238353 -0.225,0.433369 2.25,0.433369 2.475,0 3.4875,-0.195016 2.25,-0.433369 z"
         style="opacity:0.87000001999999999;fill:#cccccc;fill-opacity:1;stroke:#000000;stroke-width:0.20000000000000001;stroke-miterlimit:4;stroke-opacity:1;stroke-dasharray:none;stroke-dashoffset:0" />
      <path
         transform="translate(-39,-142)"
         sodipodi:open="true"
         sodipodi:end="0.49218285"
         sodipodi:start="0"
         d="m 178,191.36218 a 40,40 0 0 1 -4.74786,18.90203"
         sodipodi:ry="40"
         sodipodi:rx="40"
         sodipodi:cy="191.36218"
         sodipodi:cx="138"
         id="path4103"
         style="opacity:0.87000002;fill:none;stroke:#000000;stroke-width:0.69999999;stroke-miterlimit:4;stroke-opacity:1;stroke-dasharray:none;stroke-dashoffset:0"
         sodipodi:type="arc" />
      <path
         transform="matrix(-1,0,0,1,373.79307,-124)"
         sodipodi:open="true"
         sodipodi:end="0.82554074"
         sodipodi:start="0"
         d="m 149,176.36218 a 25.5,25 0 0 1 -8.20693,18.37287"
         sodipodi:ry="25"
         sodipodi:rx="25.5"
         sodipodi:cy="176.36218"
         sodipodi:cx="123.5"
         id="path4107"
         style="opacity:0.87000002;fill:none;stroke:#000000;stroke-width:0.69999999;stroke-miterlimit:4;stroke-opacity:1;stroke-dasharray:none;stroke-dashoffset:0"
         sodipodi:type="arc" />
      <text
         sodipodi:linespacing="125%"
         id="text4109"
         y="64.362183"
         x="141"
         style="font-size:12px;font-style:normal;font-variant:normal;font-weight:normal;font-stretch:normal;text-align:start;line-height:125%;letter-spacing:0px;word-spacing:0px;writing-mode:lr-tb;text-anchor:start;fill:#000000;fill-opacity:1;stroke:none;font-family:Calibri;-inkscape-font-specification:Calibri"
         xml:space="preserve"><tspan
           y="64.362183"
           x="141"
           id="tspan4111"
           sodipodi:role="line">28°</tspan></text>
      <text
         sodipodi:linespacing="125%"
         id="text4113"
         y="64.362183"
         x="207"
         style="font-size:12px;font-style:normal;font-variant:normal;font-weight:normal;font-stretch:normal;text-align:start;line-height:125%;letter-spacing:0px;word-spacing:0px;writing-mode:lr-tb;text-anchor:start;fill:#000000;fill-opacity:1;stroke:none;font-family:Calibri;-inkscape-font-specification:Calibri"
         xml:space="preserve"><tspan
           y="64.362183"
           x="207"
           id="tspan4115"
           sodipodi:role="line">47°</tspan></text>
      <path
         inkscape:connector-curvature="0"
         id="path4117"
         d="m 200,104.36218 c 0,18 0,18 0,18"
         style="fill:none;stroke:#000000;stroke-width:1px;stroke-linecap:butt;stroke-linejoin:miter;stroke-opacity:1" />
      <path
         transform="translate(53,-29)"
         d="m 197,201.86218 a 49.5,50.5 0 1 1 -99,0 49.5,50.5 0 1 1 99,0 z"
         sodipodi:ry="50.5"
         sodipodi:rx="49.5"
         sodipodi:cy="201.86218"
         sodipodi:cx="147.5"
         id="path4121"
         style="opacity:0.87000002;fill:none;stroke:#000000;stroke-width:0.69999999;stroke-miterlimit:4;stroke-opacity:1;stroke-dasharray:none;stroke-dashoffset:0"
         sodipodi:type="arc" />
      <text
         sodipodi:linespacing="125%"
         id="text4123"
         y="165.36218"
         x="174"
         style="font-size:28px;font-style:normal;font-variant:normal;font-weight:normal;font-stretch:normal;text-align:start;line-height:125%;letter-spacing:0px;word-spacing:0px;writing-mode:lr-tb;text-anchor:start;fill:#000000;fill-opacity:1;stroke:none;font-family:Edwardian Script ITC;-inkscape-font-specification:Edwardian Script ITC"
         xml:space="preserve"><tspan
           y="165.36218"
           x="174"
           id="tspan4125"
           sodipodi:role="line">Hotel</tspan></text>
      <text
         sodipodi:linespacing="125%"
         id="text4127"
         y="191.36218"
         x="167"
         style="font-size:28px;font-style:normal;font-variant:normal;font-weight:normal;font-stretch:normal;text-align:start;line-height:125%;letter-spacing:0px;word-spacing:0px;writing-mode:lr-tb;text-anchor:start;fill:#000000;fill-opacity:1;stroke:none;font-family:Edwardian Script ITC;-inkscape-font-specification:Edwardian Script ITC"
         xml:space="preserve"><tspan
           y="191.36218"
           x="167"
           id="tspan4129"
           sodipodi:role="line">Sonne</tspan></text>
      <text
         sodipodi:linespacing="125%"
         id="text4131"
         y="105.36218"
         x="195"
         style="font-size:40px;font-style:normal;font-variant:normal;font-weight:normal;font-stretch:normal;text-align:start;line-height:125%;letter-spacing:0px;word-spacing:0px;writing-mode:lr-tb;text-anchor:start;fill:#000000;fill-opacity:1;stroke:none;font-family:Calibri;-inkscape-font-specification:Calibri"
         xml:space="preserve"><tspan
           y="105.36218"
           x="195"
           id="tspan4133"
           sodipodi:role="line">.</tspan></text>
    </g>
  </g>
</svg>
