<?xml version="1.0" encoding="UTF-8" standalone="no"?>
<!-- Created with Inkscape (http://www.inkscape.org/) -->

<svg
   xmlns:dc="http://purl.org/dc/elements/1.1/"
   xmlns:cc="http://creativecommons.org/ns#"
   xmlns:rdf="http://www.w3.org/1999/02/22-rdf-syntax-ns#"
   xmlns:svg="http://www.w3.org/2000/svg"
   xmlns="http://www.w3.org/2000/svg"
   xmlns:sodipodi="http://sodipodi.sourceforge.net/DTD/sodipodi-0.dtd"
   xmlns:inkscape="http://www.inkscape.org/namespaces/inkscape"
   width="210mm"
   height="297mm"
   id="svg3056"
   version="1.1"
   inkscape:version="0.48.1 r9760"
   sodipodi:docname="Kind_Lok.svg">
  <defs
     id="defs3058">
    <marker
       refX="0"
       refY="0"
       orient="auto"
       id="Arrow1Mend"
       style="overflow:visible">
      <path
         inkscape:connector-curvature="0"
         d="M 0,0 5,-5 -12.5,0 5,5 0,0 z"
         transform="matrix(-0.4,0,0,-0.4,-4,0)"
         id="path3815"
         style="fill-rule:evenodd;stroke:#000000;stroke-width:1pt;marker-start:none" />
    </marker>
    <marker
       refX="0"
       refY="0"
       orient="auto"
       id="marker3076"
       style="overflow:visible">
      <path
         inkscape:connector-curvature="0"
         d="M 0,0 5,-5 -12.5,0 5,5 0,0 z"
         transform="matrix(-0.4,0,0,-0.4,-4,0)"
         id="path3078"
         style="fill-rule:evenodd;stroke:#000000;stroke-width:1pt;marker-start:none" />
    </marker>
    <marker
       inkscape:stockid="Arrow1Send"
       orient="auto"
       refY="0"
       refX="0"
       id="Arrow1Send"
       style="overflow:visible">
      <path
         inkscape:connector-curvature="0"
         id="path4610"
         d="M 0,0 5,-5 -12.5,0 5,5 0,0 z"
         style="fill-rule:evenodd;stroke:#000000;stroke-width:1pt;marker-start:none"
         transform="matrix(-0.2,0,0,-0.2,-1.2,0)" />
    </marker>
    <marker
       inkscape:stockid="Arrow1Send"
       orient="auto"
       refY="0"
       refX="0"
       id="marker3082"
       style="overflow:visible">
      <path
         inkscape:connector-curvature="0"
         id="path3084"
         d="M 0,0 5,-5 -12.5,0 5,5 0,0 z"
         style="fill-rule:evenodd;stroke:#000000;stroke-width:1pt;marker-start:none"
         transform="matrix(-0.2,0,0,-0.2,-1.2,0)" />
    </marker>
    <marker
       refX="0"
       refY="0"
       orient="auto"
       id="marker3086"
       style="overflow:visible">
      <path
         inkscape:connector-curvature="0"
         d="M 0,0 5,-5 -12.5,0 5,5 0,0 z"
         transform="matrix(-0.4,0,0,-0.4,-4,0)"
         id="path3088"
         style="fill-rule:evenodd;stroke:#000000;stroke-width:1pt;marker-start:none" />
    </marker>
    <marker
       refX="0"
       refY="0"
       orient="auto"
       id="marker3090"
       style="overflow:visible">
      <path
         inkscape:connector-curvature="0"
         d="M 0,0 5,-5 -12.5,0 5,5 0,0 z"
         transform="matrix(-0.4,0,0,-0.4,-4,0)"
         id="path3092"
         style="fill-rule:evenodd;stroke:#000000;stroke-width:1pt;marker-start:none" />
    </marker>
    <marker
       inkscape:stockid="Arrow1Send"
       orient="auto"
       refY="0"
       refX="0"
       id="marker3094"
       style="overflow:visible">
      <path
         inkscape:connector-curvature="0"
         id="path3096"
         d="M 0,0 5,-5 -12.5,0 5,5 0,0 z"
         style="fill-rule:evenodd;stroke:#000000;stroke-width:1pt;marker-start:none"
         transform="matrix(-0.2,0,0,-0.2,-1.2,0)" />
    </marker>
    <marker
       inkscape:stockid="Arrow1Send"
       orient="auto"
       refY="0"
       refX="0"
       id="marker3098"
       style="overflow:visible">
      <path
         inkscape:connector-curvature="0"
         id="path3100"
         d="M 0,0 5,-5 -12.5,0 5,5 0,0 z"
         style="fill-rule:evenodd;stroke:#000000;stroke-width:1pt;marker-start:none"
         transform="matrix(-0.2,0,0,-0.2,-1.2,0)" />
    </marker>
  </defs>
  <sodipodi:namedview
     id="base"
     pagecolor="#ffffff"
     bordercolor="#666666"
     borderopacity="1.0"
     inkscape:pageopacity="0.0"
     inkscape:pageshadow="2"
     inkscape:zoom="1.4142136"
     inkscape:cx="174.8618"
     inkscape:cy="792.41024"
     inkscape:document-units="px"
     inkscape:current-layer="layer1"
     showgrid="false"
     inkscape:window-width="1680"
     inkscape:window-height="988"
     inkscape:window-x="-8"
     inkscape:window-y="-8"
     inkscape:window-maximized="1" />
  <metadata
     id="metadata3061">
    <rdf:RDF>
      <cc:Work
         rdf:about="">
        <dc:format>image/svg+xml</dc:format>
        <dc:type
           rdf:resource="http://purl.org/dc/dcmitype/StillImage" />
        <dc:title />
      </cc:Work>
    </rdf:RDF>
  </metadata>
  <g
     inkscape:label="Ebene 1"
     inkscape:groupmode="layer"
     id="layer1">
    <g
       id="g4696">
      <g
         transform="translate(200.67858,240.26929)"
         id="g5117">
        <path
           style="fill:none;stroke:#000000;stroke-width:1px;stroke-linecap:butt;stroke-linejoin:miter;stroke-opacity:1"
           d="m 75.25,-153 c 62.5,0 62.5,0 62.5,0 l 0,25 -62.5,0 c 0,0 0,0 0,-25 z"
           id="path3244"
           inkscape:connector-curvature="0" />
        <path
           style="fill:none;stroke:#000000;stroke-width:1px;stroke-linecap:butt;stroke-linejoin:miter;stroke-opacity:1"
           d="m 100.25,-153 c 0,24.75 0,24.75 0,24.75"
           id="path3246"
           inkscape:connector-curvature="0" />
        <path
           sodipodi:type="arc"
           style="opacity:0.87000002;fill:none;stroke:#000000;stroke-width:1;stroke-miterlimit:4;stroke-opacity:1;stroke-dasharray:none;stroke-dashoffset:0"
           id="path3248"
           sodipodi:cx="80.25"
           sodipodi:cy="-107.875"
           sodipodi:rx="5"
           sodipodi:ry="5.125"
           d="m 85.25,-107.875 c 0,2.83046 -2.238576,5.125 -5,5.125 -2.761424,0 -5,-2.29454 -5,-5.125 0,-2.83046 2.238576,-5.125 5,-5.125 2.761424,0 5,2.29454 5,5.125 z"
           transform="translate(48.75,-32.5)" />
        <path
           style="fill:none;stroke:#000000;stroke-width:1px;stroke-linecap:butt;stroke-linejoin:miter;stroke-opacity:1;marker-end:url(#Arrow1Mend)"
           d="m 75.25,-128 c 0,22.75 0,22.75 0,22.75"
           id="path3250"
           inkscape:connector-curvature="0" />
        <path
           inkscape:connector-curvature="0"
           id="path4400"
           d="m 137.75,-153.25 c 0,-22.75 0,-22.75 0,-22.75"
           style="fill:none;stroke:#000000;stroke-width:1px;stroke-linecap:butt;stroke-linejoin:miter;stroke-opacity:1;marker-end:url(#Arrow1Mend)" />
        <g
           id="g5093"
           transform="translate(143.75,-21.75)">
          <g
             transform="translate(23.75,1.25)"
             id="g5053"
             inkscape:transform-center-x="33"
             inkscape:transform-center-y="-5.3550781">
            <text
               xml:space="preserve"
               style="font-size:12px;font-style:normal;font-variant:normal;font-weight:normal;font-stretch:normal;text-align:start;line-height:125%;letter-spacing:0px;word-spacing:0px;writing-mode:lr-tb;text-anchor:start;fill:#000000;fill-opacity:1;stroke:none;font-family:Calibri;-inkscape-font-specification:Calibri"
               x="-102"
               y="-93.25"
               id="text5055"
               sodipodi:linespacing="125%"><tspan
                 sodipodi:role="line"
                 id="tspan5057"
                 x="-102"
                 y="-93.25">F</tspan></text>
            <path
               style="fill:none;stroke:#000000;stroke-width:0.60000002;stroke-linecap:butt;stroke-linejoin:miter;stroke-miterlimit:4;stroke-opacity:1;stroke-dasharray:none;marker-end:url(#Arrow1Send)"
               d="m -103.25,-103.25 c 8,0 8,0 8,0"
               id="path5059"
               inkscape:connector-curvature="0" />
          </g>
          <text
             xml:space="preserve"
             style="font-size:8px;font-style:normal;font-variant:normal;font-weight:normal;font-stretch:normal;text-align:start;line-height:125%;letter-spacing:0px;word-spacing:0px;writing-mode:lr-tb;text-anchor:start;fill:#000000;fill-opacity:1;stroke:none;font-family:Calibri;-inkscape-font-specification:Calibri"
             x="-75.5"
             y="-89.25"
             id="text5073"
             sodipodi:linespacing="125%"><tspan
               sodipodi:role="line"
               id="tspan5075"
               x="-75.5"
               y="-89.25">1</tspan></text>
        </g>
        <g
           id="g5109"
           transform="translate(161.25,-65.25)">
          <g
             id="g5061"
             inkscape:transform-center-x="33"
             inkscape:transform-center-y="-5.3550781"
             transform="translate(69.25,1.5)">
            <text
               xml:space="preserve"
               style="font-size:12px;font-style:normal;font-variant:normal;font-weight:normal;font-stretch:normal;text-align:start;line-height:125%;letter-spacing:0px;word-spacing:0px;writing-mode:lr-tb;text-anchor:start;fill:#000000;fill-opacity:1;stroke:none;font-family:Calibri;-inkscape-font-specification:Calibri"
               x="-102"
               y="-93.25"
               id="text5063"
               sodipodi:linespacing="125%"><tspan
                 sodipodi:role="line"
                 id="tspan5065"
                 x="-102"
                 y="-93.25">F</tspan></text>
            <path
               style="fill:none;stroke:#000000;stroke-width:0.60000002;stroke-linecap:butt;stroke-linejoin:miter;stroke-miterlimit:4;stroke-opacity:1;stroke-dasharray:none;marker-end:url(#Arrow1Send)"
               d="m -103.25,-103.25 c 8,0 8,0 8,0"
               id="path5067"
               inkscape:connector-curvature="0" />
          </g>
          <text
             sodipodi:linespacing="125%"
             id="text5077"
             y="-88.5"
             x="-30.25"
             style="font-size:8px;font-style:normal;font-variant:normal;font-weight:normal;font-stretch:normal;text-align:start;line-height:125%;letter-spacing:0px;word-spacing:0px;writing-mode:lr-tb;text-anchor:start;fill:#000000;fill-opacity:1;stroke:none;font-family:Calibri;-inkscape-font-specification:Calibri"
             xml:space="preserve"><tspan
               y="-88.5"
               x="-30.25"
               id="tspan5079"
               sodipodi:role="line">2</tspan></text>
        </g>
      </g>
      <g
         id="g4658">
        <path
           inkscape:connector-curvature="0"
           d="m 68.02346,126.60263 c 140.01499,0 140.01499,0 140.01499,0"
           id="path3799"
           style="fill:none;stroke:#000000;stroke-width:0.97155595px;stroke-linecap:butt;stroke-linejoin:miter;stroke-opacity:1" />
        <g
           id="g3162"
           transform="translate(187.01191,240.93596)">
          <path
             inkscape:connector-curvature="0"
             d="m 26.00002,-189.16668 a 4.6666665,5.8333335 0 1 1 -9.33333,0 4.6666665,5.8333335 0 1 1 9.33333,0 z"
             id="path3779"
             style="opacity:0.87000002;fill:none;stroke:#000000;stroke-width:1;stroke-miterlimit:4;stroke-opacity:1;stroke-dasharray:none;stroke-dashoffset:0" />
          <path
             inkscape:connector-curvature="0"
             d="m 21.00001,-183.00001 c 0,23 0,23 0,23"
             id="path3781"
             style="fill:none;stroke:#000000;stroke-width:1px;stroke-linecap:butt;stroke-linejoin:miter;stroke-opacity:1" />
          <path
             inkscape:connector-curvature="0"
             d="m 20.66668,-177.33334 c -14,7 -14,7 -14,7"
             id="path3783"
             style="fill:none;stroke:#000000;stroke-width:1px;stroke-linecap:butt;stroke-linejoin:miter;stroke-opacity:1" />
          <path
             inkscape:connector-curvature="0"
             d="m 21.33335,-177.33334 c 14,7 14,7 14,7"
             id="path3785"
             style="fill:none;stroke:#000000;stroke-width:1px;stroke-linecap:butt;stroke-linejoin:miter;stroke-opacity:1" />
          <path
             inkscape:connector-curvature="0"
             d="m 20.66668,-160.00001 c -10.33334,16 -10.33334,16 -10.33334,16"
             id="path3787"
             style="fill:none;stroke:#000000;stroke-width:1px;stroke-linecap:butt;stroke-linejoin:miter;stroke-opacity:1" />
          <path
             inkscape:connector-curvature="0"
             d="m 31.66668,-144.33334 c -10.33334,-16 -10.33334,-16 -10.33334,-16"
             id="path3789"
             style="fill:none;stroke:#000000;stroke-width:1px;stroke-linecap:butt;stroke-linejoin:miter;stroke-opacity:1" />
        </g>
        <path
           inkscape:connector-curvature="0"
           d="M 163.65409,100.08664 C 192.25457,71.64741 192.25457,71.64741 192.25457,71.64741"
           id="path3801"
           style="fill:none;stroke:#000000;stroke-width:1px;stroke-linecap:butt;stroke-linejoin:miter;stroke-opacity:1;marker-end:url(#Arrow1Mend)" />
        <g
           id="g3307">
          <path
             inkscape:connector-curvature="0"
             d="m 100.67857,70.93595 c 25.00001,0 25.00001,0 25.00001,0 0,25.33334 0,25.33334 0,25.33334 37.66667,0 37.66667,0 37.66667,0"
             id="path3765"
             style="fill:none;stroke:#000000;stroke-width:1px;stroke-linecap:butt;stroke-linejoin:miter;stroke-opacity:1" />
          <path
             inkscape:connector-curvature="0"
             d="m 101.01191,121.26929 c 62,0 62,0 62,0 l 0,-25"
             id="path3767"
             style="fill:none;stroke:#000000;stroke-width:1px;stroke-linecap:butt;stroke-linejoin:miter;stroke-opacity:1" />
          <path
             inkscape:connector-curvature="0"
             d="m 148.34525,95.93595 c 0,-15 0.33333,-15 0.33333,-15 l 9.66667,0.33334 0,0 0,15"
             id="path3769"
             style="fill:none;stroke:#000000;stroke-width:1px;stroke-linecap:butt;stroke-linejoin:miter;stroke-opacity:1" />
          <path
             inkscape:connector-curvature="0"
             d="m 116.01191,121.26929 a 5,5 0 0 1 -10,0"
             id="path3771"
             style="opacity:0.87000002;fill:none;stroke:#000000;stroke-width:1;stroke-miterlimit:4;stroke-opacity:1;stroke-dasharray:none;stroke-dashoffset:0" />
          <path
             inkscape:connector-curvature="0"
             d="m 158.01191,121.60262 a 5,5 0 0 1 -10,0"
             id="path3775"
             style="opacity:0.87000002;fill:none;stroke:#000000;stroke-width:1;stroke-miterlimit:4;stroke-opacity:1;stroke-dasharray:none;stroke-dashoffset:0" />
          <path
             inkscape:connector-curvature="0"
             d="m 100.67857,70.93595 c 0,50.33334 0,50.33334 0,50.33334"
             id="path2995"
             style="fill:none;stroke:#000000;stroke-width:1;stroke-linecap:butt;stroke-linejoin:miter;stroke-miterlimit:4;stroke-opacity:1;stroke-dasharray:none" />
        </g>
        <g
           id="g3140"
           transform="translate(212.01191,279.26929)">
          <path
             style="opacity:0.87000002;fill:none;stroke:#000000;stroke-width:1;stroke-miterlimit:4;stroke-opacity:1;stroke-dasharray:none;stroke-dashoffset:0"
             id="path4447"
             d="m -160.00001,-168.50001 a 4.6666665,5.8333335 0 1 0 9.33333,0 4.6666665,5.8333335 0 1 0 -9.33333,0 z"
             inkscape:connector-curvature="0" />
          <path
             style="fill:none;stroke:#000000;stroke-width:1px;stroke-linecap:butt;stroke-linejoin:miter;stroke-opacity:1"
             id="path4449"
             d="m -155,-162.33334 c 0,23 0,23 0,23"
             inkscape:connector-curvature="0" />
          <path
             style="fill:none;stroke:#000000;stroke-width:1px;stroke-linecap:butt;stroke-linejoin:miter;stroke-opacity:1"
             id="path4451"
             d="m -154.66667,-156.66667 c 14,7 14,7 14,7"
             inkscape:connector-curvature="0" />
          <path
             style="fill:none;stroke:#000000;stroke-width:1px;stroke-linecap:butt;stroke-linejoin:miter;stroke-opacity:1"
             id="path4453"
             d="m -155.33334,-156.66667 c -14,7 -14,7 -14,7"
             inkscape:connector-curvature="0" />
          <path
             style="fill:none;stroke:#000000;stroke-width:1px;stroke-linecap:butt;stroke-linejoin:miter;stroke-opacity:1"
             id="path4455"
             d="m -154.66667,-139.33334 c 10.33334,16 10.33334,16 10.33334,16"
             inkscape:connector-curvature="0" />
          <path
             style="fill:none;stroke:#000000;stroke-width:1px;stroke-linecap:butt;stroke-linejoin:miter;stroke-opacity:1"
             id="path4457"
             d="m -165.66667,-123.66667 c 10.33334,-16 10.33334,-16 10.33334,-16"
             inkscape:connector-curvature="0" />
        </g>
        <path
           style="fill:none;stroke:#000000;stroke-width:1px;stroke-linecap:butt;stroke-linejoin:miter;stroke-opacity:1;marker-end:url(#Arrow1Mend)"
           id="path4459"
           d="m 100.95592,99.37142 c -28.44245,28.5973 -28.44245,28.5973 -28.44245,28.5973"
           inkscape:connector-curvature="0"
           inkscape:transform-center-x="8.6666667"
           inkscape:transform-center-y="-10.666667" />
        <g
           id="g5040"
           transform="translate(181.17858,205.26929)">
          <text
             sodipodi:linespacing="125%"
             id="text4402"
             y="-93.25"
             x="-102"
             style="font-size:12px;font-style:normal;font-variant:normal;font-weight:normal;font-stretch:normal;text-align:start;line-height:125%;letter-spacing:0px;word-spacing:0px;writing-mode:lr-tb;text-anchor:start;fill:#000000;fill-opacity:1;stroke:none;font-family:Calibri;-inkscape-font-specification:Calibri"
             xml:space="preserve"><tspan
               y="-93.25"
               x="-102"
               id="tspan4404"
               sodipodi:role="line">F</tspan></text>
          <path
             inkscape:connector-curvature="0"
             id="path4406"
             d="m -103.25,-103.25 c 8,0 8,0 8,0"
             style="fill:none;stroke:#000000;stroke-width:0.60000002;stroke-linecap:butt;stroke-linejoin:miter;stroke-miterlimit:4;stroke-opacity:1;stroke-dasharray:none;marker-end:url(#Arrow1Send)" />
        </g>
        <text
           xml:space="preserve"
           style="font-size:8px;font-style:normal;font-variant:normal;font-weight:normal;font-stretch:normal;text-align:start;line-height:125%;letter-spacing:0px;word-spacing:0px;writing-mode:lr-tb;text-anchor:start;fill:#000000;fill-opacity:1;stroke:none;font-family:Calibri;-inkscape-font-specification:Calibri"
           x="81.428581"
           y="114.76929"
           id="text5069"
           sodipodi:linespacing="125%"><tspan
             sodipodi:role="line"
             id="tspan5071"
             x="81.428581"
             y="114.76929">1</tspan></text>
        <g
           id="g5045"
           inkscape:transform-center-x="33"
           inkscape:transform-center-y="-5.3550781"
           transform="translate(270.17858,178.76929)">
          <text
             xml:space="preserve"
             style="font-size:12px;font-style:normal;font-variant:normal;font-weight:normal;font-stretch:normal;text-align:start;line-height:125%;letter-spacing:0px;word-spacing:0px;writing-mode:lr-tb;text-anchor:start;fill:#000000;fill-opacity:1;stroke:none;font-family:Calibri;-inkscape-font-specification:Calibri"
             x="-102"
             y="-93.25"
             id="text5047"
             sodipodi:linespacing="125%"><tspan
               sodipodi:role="line"
               id="tspan5049"
               x="-102"
               y="-93.25">F</tspan></text>
          <path
             style="fill:none;stroke:#000000;stroke-width:0.60000002;stroke-linecap:butt;stroke-linejoin:miter;stroke-miterlimit:4;stroke-opacity:1;stroke-dasharray:none;marker-end:url(#Arrow1Send)"
             d="m -103.25,-103.25 c 8,0 8,0 8,0"
             id="path5051"
             inkscape:connector-curvature="0" />
        </g>
        <text
           sodipodi:linespacing="125%"
           id="text5081"
           y="88.519287"
           x="170.67857"
           style="font-size:8px;font-style:normal;font-variant:normal;font-weight:normal;font-stretch:normal;text-align:start;line-height:125%;letter-spacing:0px;word-spacing:0px;writing-mode:lr-tb;text-anchor:start;fill:#000000;fill-opacity:1;stroke:none;font-family:Calibri;-inkscape-font-specification:Calibri"
           xml:space="preserve"><tspan
             y="88.519287"
             x="170.67857"
             id="tspan5083"
             sodipodi:role="line">2</tspan></text>
      </g>
    </g>
    <g
       id="g4755">
      <g
         transform="translate(-1,120)"
         id="g3315">
        <path
           inkscape:connector-curvature="0"
           d="m 100.67857,70.93595 c 25.00001,0 25.00001,0 25.00001,0 0,25.33334 0,25.33334 0,25.33334 37.66667,0 37.66667,0 37.66667,0"
           id="path3317"
           style="fill:none;stroke:#000000;stroke-width:1px;stroke-linecap:butt;stroke-linejoin:miter;stroke-opacity:1" />
        <path
           inkscape:connector-curvature="0"
           d="m 101.01191,121.26929 c 62,0 62,0 62,0 l 0,-25"
           id="path3319"
           style="fill:none;stroke:#000000;stroke-width:1px;stroke-linecap:butt;stroke-linejoin:miter;stroke-opacity:1" />
        <path
           inkscape:connector-curvature="0"
           d="m 148.34525,95.93595 c 0,-15 0.33333,-15 0.33333,-15 l 9.66667,0.33334 0,0 0,15"
           id="path3321"
           style="fill:none;stroke:#000000;stroke-width:1px;stroke-linecap:butt;stroke-linejoin:miter;stroke-opacity:1" />
        <path
           inkscape:connector-curvature="0"
           d="m 116.01191,121.26929 a 5,5 0 0 1 -10,0"
           id="path3323"
           style="opacity:0.87000002;fill:none;stroke:#000000;stroke-width:1;stroke-miterlimit:4;stroke-opacity:1;stroke-dasharray:none;stroke-dashoffset:0" />
        <path
           inkscape:connector-curvature="0"
           d="m 158.01191,121.60262 a 5,5 0 0 1 -10,0"
           id="path3325"
           style="opacity:0.87000002;fill:none;stroke:#000000;stroke-width:1;stroke-miterlimit:4;stroke-opacity:1;stroke-dasharray:none;stroke-dashoffset:0" />
        <path
           inkscape:connector-curvature="0"
           d="m 100.67857,70.93595 c 0,50.33334 0,50.33334 0,50.33334"
           id="path3327"
           style="fill:none;stroke:#000000;stroke-width:1;stroke-linecap:butt;stroke-linejoin:miter;stroke-miterlimit:4;stroke-opacity:1;stroke-dasharray:none" />
      </g>
      <g
         id="g3329"
         transform="translate(187.01191,391.52175)">
        <path
           inkscape:connector-curvature="0"
           d="m 26.00002,-189.16668 a 4.6666665,5.8333335 0 1 1 -9.33333,0 4.6666665,5.8333335 0 1 1 9.33333,0 z"
           id="path3331"
           style="opacity:0.87000002;fill:none;stroke:#000000;stroke-width:1;stroke-miterlimit:4;stroke-opacity:1;stroke-dasharray:none;stroke-dashoffset:0" />
        <path
           inkscape:connector-curvature="0"
           d="m 21.00001,-183.00001 c 0,23 0,23 0,23"
           id="path3333"
           style="fill:none;stroke:#000000;stroke-width:1px;stroke-linecap:butt;stroke-linejoin:miter;stroke-opacity:1" />
        <path
           inkscape:connector-curvature="0"
           d="m 20.66668,-177.33334 c -14,7 -14,7 -14,7"
           id="path3335"
           style="fill:none;stroke:#000000;stroke-width:1px;stroke-linecap:butt;stroke-linejoin:miter;stroke-opacity:1" />
        <path
           inkscape:connector-curvature="0"
           d="m 21.33335,-177.33334 c 14,7 14,7 14,7"
           id="path3337"
           style="fill:none;stroke:#000000;stroke-width:1px;stroke-linecap:butt;stroke-linejoin:miter;stroke-opacity:1" />
        <path
           inkscape:connector-curvature="0"
           d="m 20.66668,-160.00001 c -10.33334,16 -10.33334,16 -10.33334,16"
           id="path3339"
           style="fill:none;stroke:#000000;stroke-width:1px;stroke-linecap:butt;stroke-linejoin:miter;stroke-opacity:1" />
        <path
           inkscape:connector-curvature="0"
           d="m 31.66668,-144.33334 c -10.33334,-16 -10.33334,-16 -10.33334,-16"
           id="path3341"
           style="fill:none;stroke:#000000;stroke-width:1px;stroke-linecap:butt;stroke-linejoin:miter;stroke-opacity:1" />
      </g>
      <path
         inkscape:connector-curvature="0"
         id="path3343"
         d="m 161.92745,222.21882 c 31.1127,0 31.81981,0 31.81981,0"
         style="fill:none;stroke:#000000;stroke-width:1px;stroke-linecap:butt;stroke-linejoin:miter;stroke-opacity:1;marker-end:url(#Arrow1Mend)" />
    </g>
    <g
       id="g4173">
      <g
         id="g4357"
         transform="translate(55.568543,215.45941)">
        <path
           style="fill:none;stroke:#000000;stroke-width:1px;stroke-linecap:butt;stroke-linejoin:miter;stroke-opacity:1"
           id="path4359"
           d="m 100.67857,70.93595 c 25.00001,0 25.00001,0 25.00001,0 0,25.33334 0,25.33334 0,25.33334 37.66667,0 37.66667,0 37.66667,0"
           inkscape:connector-curvature="0" />
        <path
           style="fill:none;stroke:#000000;stroke-width:1px;stroke-linecap:butt;stroke-linejoin:miter;stroke-opacity:1"
           id="path4361"
           d="m 101.01191,121.26929 c 62,0 62,0 62,0 l 0,-25"
           inkscape:connector-curvature="0" />
        <path
           style="fill:none;stroke:#000000;stroke-width:1px;stroke-linecap:butt;stroke-linejoin:miter;stroke-opacity:1"
           id="path4363"
           d="m 148.34525,95.93595 c 0,-15 0.33333,-15 0.33333,-15 l 9.66667,0.33334 0,0 0,15"
           inkscape:connector-curvature="0" />
        <path
           style="opacity:0.87000002;fill:none;stroke:#000000;stroke-width:1;stroke-miterlimit:4;stroke-opacity:1;stroke-dasharray:none;stroke-dashoffset:0"
           id="path4365"
           d="m 116.01191,121.26929 a 5,5 0 0 1 -10,0"
           inkscape:connector-curvature="0" />
        <path
           style="opacity:0.87000002;fill:none;stroke:#000000;stroke-width:1;stroke-miterlimit:4;stroke-opacity:1;stroke-dasharray:none;stroke-dashoffset:0"
           id="path4367"
           d="m 158.01191,121.60262 a 5,5 0 0 1 -10,0"
           inkscape:connector-curvature="0" />
        <path
           style="fill:none;stroke:#000000;stroke-width:1;stroke-linecap:butt;stroke-linejoin:miter;stroke-miterlimit:4;stroke-opacity:1;stroke-dasharray:none"
           id="path4369"
           d="m 100.67857,70.93595 c 0,50.33334 0,50.33334 0,50.33334"
           inkscape:connector-curvature="0" />
      </g>
      <path
         style="fill:none;stroke:#000000;stroke-width:1px;stroke-linecap:butt;stroke-linejoin:miter;stroke-opacity:1;marker-end:url(#Arrow1Mend)"
         d="m 238.29499,314.14271 c 31.1127,0 31.81981,0 31.81981,0"
         id="path4371"
         inkscape:connector-curvature="0" />
      <text
         sodipodi:linespacing="125%"
         id="text4373"
         y="304.95035"
         x="223.44576"
         style="font-size:12px;font-style:normal;font-variant:normal;font-weight:normal;font-stretch:normal;text-align:start;line-height:125%;letter-spacing:0px;word-spacing:0px;writing-mode:lr-tb;text-anchor:start;fill:#000000;fill-opacity:1;stroke:none;font-family:Calibri;-inkscape-font-specification:Calibri"
         xml:space="preserve"><tspan
           y="304.95035"
           x="223.44576"
           id="tspan4375"
           sodipodi:role="line">Fahrtrichtung</tspan></text>
      <path
         style="fill:none;stroke:#000000;stroke-width:1px;stroke-linecap:butt;stroke-linejoin:miter;stroke-opacity:1;marker-end:url(#Arrow1Mend)"
         d="m 155.60639,315.55691 c -31.1127,0 -31.81981,0 -31.81981,0"
         id="path4377"
         inkscape:connector-curvature="0" />
      <g
         transform="translate(87.309854,485.56695)"
         id="g4379">
        <path
           style="opacity:0.87000002;fill:none;stroke:#000000;stroke-width:1;stroke-miterlimit:4;stroke-opacity:1;stroke-dasharray:none;stroke-dashoffset:0"
           id="path4381"
           d="m 26.00002,-189.16668 a 4.6666665,5.8333335 0 1 1 -9.33333,0 4.6666665,5.8333335 0 1 1 9.33333,0 z"
           inkscape:connector-curvature="0" />
        <path
           style="fill:none;stroke:#000000;stroke-width:1px;stroke-linecap:butt;stroke-linejoin:miter;stroke-opacity:1"
           id="path4383"
           d="m 21.00001,-183.00001 c 0,23 0,23 0,23"
           inkscape:connector-curvature="0" />
        <path
           style="fill:none;stroke:#000000;stroke-width:1px;stroke-linecap:butt;stroke-linejoin:miter;stroke-opacity:1"
           id="path4385"
           d="m 20.66668,-177.33334 c -14,7 -14,7 -14,7"
           inkscape:connector-curvature="0" />
        <path
           style="fill:none;stroke:#000000;stroke-width:1px;stroke-linecap:butt;stroke-linejoin:miter;stroke-opacity:1"
           id="path4387"
           d="m 21.33335,-177.33334 c 14,7 14,7 14,7"
           inkscape:connector-curvature="0" />
        <path
           style="fill:none;stroke:#000000;stroke-width:1px;stroke-linecap:butt;stroke-linejoin:miter;stroke-opacity:1"
           id="path4389"
           d="m 20.66668,-160.00001 c -10.33334,16 -10.33334,16 -10.33334,16"
           inkscape:connector-curvature="0" />
        <path
           style="fill:none;stroke:#000000;stroke-width:1px;stroke-linecap:butt;stroke-linejoin:miter;stroke-opacity:1"
           id="path4391"
           d="m 31.66668,-144.33334 c -10.33334,-16 -10.33334,-16 -10.33334,-16"
           inkscape:connector-curvature="0" />
      </g>
    </g>
    <path
       style="fill:none;stroke:#000000;stroke-width:1px;stroke-linecap:butt;stroke-linejoin:miter;stroke-opacity:1"
       d="m 435.57777,304.95031 c 93.33809,0 93.33809,0.70711 93.33809,0.70711"
       id="path4393"
       inkscape:connector-curvature="0" />
    <g
       id="g4102">
      <g
         transform="translate(-13.020815,320.81832)"
         id="g4423">
        <path
           inkscape:connector-curvature="0"
           d="m 100.67857,70.93595 c 25.00001,0 25.00001,0 25.00001,0 0,25.33334 0,25.33334 0,25.33334 37.66667,0 37.66667,0 37.66667,0"
           id="path4425"
           style="fill:none;stroke:#000000;stroke-width:1px;stroke-linecap:butt;stroke-linejoin:miter;stroke-opacity:1" />
        <path
           inkscape:connector-curvature="0"
           d="m 101.01191,121.26929 c 62,0 62,0 62,0 l 0,-25"
           id="path4427"
           style="fill:none;stroke:#000000;stroke-width:1px;stroke-linecap:butt;stroke-linejoin:miter;stroke-opacity:1" />
        <path
           inkscape:connector-curvature="0"
           d="m 148.34525,95.93595 c 0,-15 0.33333,-15 0.33333,-15 l 9.66667,0.33334 0,0 0,15"
           id="path4429"
           style="fill:none;stroke:#000000;stroke-width:1px;stroke-linecap:butt;stroke-linejoin:miter;stroke-opacity:1" />
        <path
           inkscape:connector-curvature="0"
           d="m 116.01191,121.26929 a 5,5 0 0 1 -10,0"
           id="path4431"
           style="opacity:0.87000002;fill:none;stroke:#000000;stroke-width:1;stroke-miterlimit:4;stroke-opacity:1;stroke-dasharray:none;stroke-dashoffset:0" />
        <path
           inkscape:connector-curvature="0"
           d="m 158.01191,121.60262 a 5,5 0 0 1 -10,0"
           id="path4433"
           style="opacity:0.87000002;fill:none;stroke:#000000;stroke-width:1;stroke-miterlimit:4;stroke-opacity:1;stroke-dasharray:none;stroke-dashoffset:0" />
        <path
           inkscape:connector-curvature="0"
           d="m 100.67857,70.93595 c 0,50.33334 0,50.33334 0,50.33334"
           id="path4435"
           style="fill:none;stroke:#000000;stroke-width:1;stroke-linecap:butt;stroke-linejoin:miter;stroke-miterlimit:4;stroke-opacity:1;stroke-dasharray:none" />
      </g>
      <path
         inkscape:connector-curvature="0"
         id="path4437"
         d="m 171.11984,413.13765 c 31.1127,0 31.81981,0 31.81981,0"
         style="fill:none;stroke:#000000;stroke-width:1px;stroke-linecap:butt;stroke-linejoin:miter;stroke-opacity:1;marker-end:url(#Arrow1Mend)" />
      <text
         xml:space="preserve"
         style="font-size:12px;font-style:normal;font-variant:normal;font-weight:normal;font-stretch:normal;text-align:start;line-height:125%;letter-spacing:0px;word-spacing:0px;writing-mode:lr-tb;text-anchor:start;fill:#000000;fill-opacity:1;stroke:none;font-family:Calibri;-inkscape-font-specification:Calibri"
         x="157.68481"
         y="408.89502"
         id="text4439"
         sodipodi:linespacing="125%"><tspan
           sodipodi:role="line"
           id="tspan4441"
           x="157.68481"
           y="408.89502">Fahrtrichtung</tspan></text>
      <g
         transform="matrix(0.85698966,0,0,0.85698966,170.21615,587.0083)"
         id="g4443">
        <path
           style="opacity:0.87000002;fill:none;stroke:#000000;stroke-width:1;stroke-miterlimit:4;stroke-opacity:1;stroke-dasharray:none;stroke-dashoffset:0"
           id="path4445"
           d="m 26.00002,-189.16668 a 4.6666665,5.8333335 0 1 1 -9.33333,0 4.6666665,5.8333335 0 1 1 9.33333,0 z"
           inkscape:connector-curvature="0" />
        <path
           style="fill:none;stroke:#000000;stroke-width:1px;stroke-linecap:butt;stroke-linejoin:miter;stroke-opacity:1"
           id="path4448"
           d="m 21.00001,-183.00001 c 0,23 0,23 0,23"
           inkscape:connector-curvature="0" />
        <path
           style="fill:none;stroke:#000000;stroke-width:1px;stroke-linecap:butt;stroke-linejoin:miter;stroke-opacity:1"
           id="path4450"
           d="m 20.66668,-177.33334 c -14,7 -14,7 -14,7"
           inkscape:connector-curvature="0" />
        <path
           style="fill:none;stroke:#000000;stroke-width:1px;stroke-linecap:butt;stroke-linejoin:miter;stroke-opacity:1"
           id="path4452"
           d="m 21.33335,-177.33334 c 14,7 14,7 14,7"
           inkscape:connector-curvature="0" />
        <path
           style="fill:none;stroke:#000000;stroke-width:1px;stroke-linecap:butt;stroke-linejoin:miter;stroke-opacity:1"
           id="path4454"
           d="m 20.66668,-160.00001 c -10.33334,16 -10.33334,16 -10.33334,16"
           inkscape:connector-curvature="0" />
        <path
           style="fill:none;stroke:#000000;stroke-width:1px;stroke-linecap:butt;stroke-linejoin:miter;stroke-opacity:1"
           id="path4456"
           d="m 31.66668,-144.33334 c -10.33334,-16 -10.33334,-16 -10.33334,-16"
           inkscape:connector-curvature="0" />
      </g>
      <path
         inkscape:connector-curvature="0"
         id="path4460"
         d="m 151.02918,422.03837 c 21.76746,8.11668 23.9811,24.35004 23.9811,24.35004"
         style="fill:none;stroke:#000000;stroke-width:1;stroke-linecap:butt;stroke-linejoin:miter;stroke-miterlimit:4;stroke-opacity:1;stroke-dasharray:none;marker-end:url(#Arrow1Mend)" />
    </g>
  </g>
</svg>
