<?xml version="1.0" encoding="UTF-8" standalone="no"?>
<!-- Created with Inkscape (http://www.inkscape.org/) -->

<svg
   xmlns:dc="http://purl.org/dc/elements/1.1/"
   xmlns:cc="http://creativecommons.org/ns#"
   xmlns:rdf="http://www.w3.org/1999/02/22-rdf-syntax-ns#"
   xmlns:svg="http://www.w3.org/2000/svg"
   xmlns="http://www.w3.org/2000/svg"
   xmlns:sodipodi="http://sodipodi.sourceforge.net/DTD/sodipodi-0.dtd"
   xmlns:inkscape="http://www.inkscape.org/namespaces/inkscape"
   width="210mm"
   height="297mm"
   id="svg2"
   version="1.1"
   inkscape:version="0.48.1 r9760"
   sodipodi:docname="Neues Dokument 1">
  <defs
     id="defs4">
    <marker
       inkscape:stockid="Arrow1Mend"
       orient="auto"
       refY="0.0"
       refX="0.0"
       id="Arrow1Mend"
       style="overflow:visible;">
      <path
         id="path3809"
         d="M 0.0,0.0 L 5.0,-5.0 L -12.5,0.0 L 5.0,5.0 L 0.0,0.0 z "
         style="fill-rule:evenodd;stroke:#000000;stroke-width:1.0pt;marker-start:none;"
         transform="scale(0.4) rotate(180) translate(10,0)" />
    </marker>
    <marker
       inkscape:stockid="Arrow1Send"
       orient="auto"
       refY="0.0"
       refX="0.0"
       id="Arrow1Send"
       style="overflow:visible;">
      <path
         id="path3815"
         d="M 0.0,0.0 L 5.0,-5.0 L -12.5,0.0 L 5.0,5.0 L 0.0,0.0 z "
         style="fill-rule:evenodd;stroke:#000000;stroke-width:1.0pt;marker-start:none;"
         transform="scale(0.2) rotate(180) translate(6,0)" />
    </marker>
    <marker
       inkscape:stockid="Arrow1Lend"
       orient="auto"
       refY="0.0"
       refX="0.0"
       id="Arrow1Lend"
       style="overflow:visible;">
      <path
         id="path3803"
         d="M 0.0,0.0 L 5.0,-5.0 L -12.5,0.0 L 5.0,5.0 L 0.0,0.0 z "
         style="fill-rule:evenodd;stroke:#000000;stroke-width:1.0pt;marker-start:none;"
         transform="scale(0.8) rotate(180) translate(12.5,0)" />
    </marker>
  </defs>
  <sodipodi:namedview
     id="base"
     pagecolor="#ffffff"
     bordercolor="#666666"
     borderopacity="1.0"
     inkscape:pageopacity="0.0"
     inkscape:pageshadow="2"
     inkscape:zoom="1"
     inkscape:cx="520.44585"
     inkscape:cy="707.59544"
     inkscape:document-units="px"
     inkscape:current-layer="layer1"
     showgrid="false"
     inkscape:window-width="1680"
     inkscape:window-height="988"
     inkscape:window-x="-8"
     inkscape:window-y="-8"
     inkscape:window-maximized="1" />
  <metadata
     id="metadata7">
    <rdf:RDF>
      <cc:Work
         rdf:about="">
        <dc:format>image/svg+xml</dc:format>
        <dc:type
           rdf:resource="http://purl.org/dc/dcmitype/StillImage" />
        <dc:title></dc:title>
      </cc:Work>
    </rdf:RDF>
  </metadata>
  <g
     inkscape:label="Ebene 1"
     inkscape:groupmode="layer"
     id="layer1">
    <flowRoot
       xml:space="preserve"
       id="flowRoot4833"
       style="fill:black;stroke:none;stroke-opacity:1;stroke-width:1px;stroke-linejoin:miter;stroke-linecap:butt;fill-opacity:1;font-family:Calibri;font-style:normal;font-weight:normal;font-size:12px;line-height:125%;letter-spacing:0px;word-spacing:0px;-inkscape-font-specification:Calibri;font-stretch:normal;font-variant:normal;text-anchor:start;text-align:start;writing-mode:lr"><flowRegion
         id="flowRegion4835"><rect
           id="rect4837"
           width="10"
           height="13"
           x="258"
           y="283.36218" /></flowRegion><flowPara
         id="flowPara4839"></flowPara></flowRoot>    <g
       id="g4851">
      <path
         inkscape:connector-curvature="0"
         id="path3003"
         d="m 131,244.75247 c 17,-66.71833 15,-121.39029 15,-121.39029"
         style="fill:none;stroke:#000000;stroke-width:0.96262324px;stroke-linecap:butt;stroke-linejoin:miter;stroke-opacity:1" />
      <path
         style="fill:none;stroke:#000000;stroke-width:0.8688215px;stroke-linecap:butt;stroke-linejoin:miter;stroke-opacity:1"
         d="M 171.13815,244.42777 C 157.37383,177.30224 158.99316,122.29659 158.99316,122.29659"
         id="path3005"
         inkscape:connector-curvature="0" />
      <path
         inkscape:connector-curvature="0"
         id="path3007"
         d="M 144.80338,120.62388 C 103.10452,90.871477 81.65187,103.19153 67.493709,108.24588 53.335548,113.30023 46.988723,127.5732 46.988723,127.5732"
         style="fill:none;stroke:#000000;stroke-width:1px;stroke-linecap:butt;stroke-linejoin:miter;stroke-opacity:1" />
      <path
         style="fill:none;stroke:#000000;stroke-width:1px;stroke-linecap:butt;stroke-linejoin:miter;stroke-opacity:1"
         d="m 230.20219,39.579725 c -51.05082,4.220735 -59.47023,27.482585 -67.014,40.486095 -7.54377,13.00352 -3.16985,27.99915 -3.16985,27.99915"
         id="path3009"
         inkscape:connector-curvature="0" />
      <path
         sodipodi:nodetypes="csc"
         inkscape:connector-curvature="0"
         id="path3011"
         d="M 147.08896,104.34543 C 117.62129,62.444869 113.26278,64.431553 98.22965,64.502939 83.196524,64.574325 52.507944,78.45273 52.507944,78.45273"
         style="fill:none;stroke:#000000;stroke-width:1px;stroke-linecap:butt;stroke-linejoin:miter;stroke-opacity:1" />
      <path
         style="fill:none;stroke:#000000;stroke-width:1px;stroke-linecap:butt;stroke-linejoin:miter;stroke-opacity:1"
         d="m 249.72005,93.91475 c -49.61063,-18.724945 -65.707,-1.57949 -77.37992,6.7539 -11.6729,8.3334 -12.80862,23.7078 -12.80862,23.7078"
         id="path3013"
         inkscape:connector-curvature="0" />
      <path
         inkscape:connector-curvature="0"
         id="path3023"
         d="m 88.07913,121.70477 c -0.79773,-0.19496 -1.62973,-0.28634 -2.39321,-0.58489 -0.26187,-0.1024 -0.34604,-0.46159 -0.5983,-0.5849 -0.17839,-0.0872 -0.41993,0.0872 -0.59832,0 -0.25226,-0.1233 -0.34603,-0.46158 -0.5983,-0.58489 -0.37745,-0.18449 -2.61407,0.1845 -2.99153,0 -0.25227,-0.1233 -0.34604,-0.46159 -0.5983,-0.58489 -0.15732,-0.0769 -2.08036,0 -2.39323,0 -1.99434,0 -3.98869,0 -5.98305,0 -1.19661,0 -2.39322,0 -3.58983,0 -0.19944,0 -0.45729,-0.13786 -0.5983,0 -0.14102,0.13786 0.14101,0.44703 0,0.58489 -0.28204,0.27572 -0.91457,-0.27572 -1.19662,0 -0.14102,0.13786 0.14102,0.44703 0,0.58489 -0.14102,0.13786 -0.45728,-0.13786 -0.5983,0 -0.14102,0.13786 0.14102,0.44704 0,0.5849 -0.14102,0.13786 -0.45728,-0.13786 -0.59831,0 -0.28204,0.27572 0.28205,0.89407 0,1.16979 -1.23792,1.21017 0.0484,-1.8493 -1.1966,0.58489 -0.0892,0.17439 0.0892,0.41052 0,0.5849 -0.12615,0.24661 -0.47218,0.33828 -0.59832,0.58489 -0.17837,0.34876 0.28205,0.89406 0,1.16978 -0.14101,0.13786 -0.45728,-0.13786 -0.5983,0 -0.14397,0.14074 0.14397,2.19884 0,2.33958 -0.14102,0.13786 -0.45728,-0.13786 -0.5983,0 -0.14103,0.13786 0,0.38993 0,0.5849 0,1.16978 0,2.33957 0,3.50936 0,0.19497 0.14102,0.44703 0,0.58489 -0.14103,0.13786 -0.45729,-0.13786 -0.59831,0 -0.14102,0.13786 0,0.38993 0,0.5849 0,0.19496 0,0.38993 0,0.58489 0,1.16978 0,2.33957 0,3.50936 0,0.26341 -0.0911,1.57668 0,1.75468 0.12614,0.24662 0.47217,0.33829 0.59831,0.58489 0.16228,0.31731 -0.16371,2.17954 0,2.33958 0.14102,0.13786 0.45728,-0.13786 0.5983,0 0.14102,0.13786 -0.14102,0.44704 0,0.5849 0.14102,0.13786 0.45729,-0.13786 0.5983,0 0.14103,0.13786 -0.0892,0.4105 0,0.58489 0.0573,0.11196 2.2787,2.28359 2.39323,2.33957 0.17837,0.0872 0.45728,-0.13786 0.5983,0 0.14102,0.13786 -0.14102,0.44704 0,0.5849 0.14102,0.13786 0.41993,-0.0872 0.59831,0 0.25227,0.12331 0.34603,0.46158 0.59831,0.58489 0.35675,0.17439 0.91456,-0.27572 1.19661,0 0.14102,0.13786 -0.14103,0.44704 0,0.5849 0.28204,0.27572 0.83985,-0.17439 1.1966,0 0.25227,0.1233 0.34604,0.46158 0.59831,0.58489 0.18208,0.089 1.52547,0 1.79492,0 1.39605,0 2.79209,0 4.18813,0 0.14512,0 1.77568,0.0189 1.79493,0 0.14102,-0.13786 -0.0892,-0.41051 0,-0.58489 1.59548,-3.11944 0,1.55971 0,0 0,-0.43596 0.28296,-0.86153 0.5983,-1.16979 0.79773,-0.77987 0.5983,0.97482 0.5983,-0.5849 0.59831,0.77986 1.19661,1.55972 1.79492,2.33958 0.19943,0 0.45729,-0.13786 0.59831,0 0.14102,0.13786 -0.14102,0.44703 0,0.58489 0.28203,0.27572 0.91456,-0.27572 1.19661,0 0.14102,0.13786 -0.14103,0.44703 0,0.58489 0.14102,0.13786 0.39887,0 0.5983,0 0.19944,0 0.39887,0 0.5983,0 2.39323,0 4.78645,0 7.17967,0 0.99717,0 1.99435,0 2.99153,0 0.19943,0 0.39887,0 0.5983,0 0.19944,0 0.41993,0.0872 0.59831,0 0.25227,-0.1233 0.34604,-0.46158 0.59831,-0.58489 0.17837,-0.0872 0.45728,0.13786 0.5983,0 0.14102,-0.13786 -0.0892,-0.4105 0,-0.58489 0.25227,-0.49323 0.94434,-0.67656 1.19661,-1.16979 0.17838,-0.34877 -0.28204,-0.89406 0,-1.16979 0.14102,-0.13786 0.45729,0.13786 0.5983,0 0.14102,-0.13786 -0.0892,-0.41051 0,-0.58489 0.12614,-0.24661 0.50912,-0.32332 0.59831,-0.5849 9.3e-4,-0.003 -5.7e-4,-1.75412 0,-1.75467 0.14103,-0.13786 0.50912,0.17438 0.59831,0 0.184,-0.35977 -0.19088,-2.55129 0,-2.92448 0.12613,-0.2466 0.47217,-0.33827 0.5983,-0.58489 0.0892,-0.17438 0,-0.38993 0,-0.58489 0,-0.19497 0,-0.38993 0,-0.58489 0,-0.58902 -0.11029,-3.18591 0,-3.50937 0.0892,-0.26157 0.50912,-0.32331 0.59831,-0.58489 0.12613,-0.36992 0,-0.77986 0,-1.16979 0,-0.97482 0,-1.94964 0,-2.92447 0,-1.55972 0,-3.11943 0,-4.67915 0,-0.26341 0.0911,-1.57667 0,-1.75468 -0.12614,-0.24661 -0.47217,-0.33828 -0.59831,-0.58489 -0.17837,-0.34876 0.28205,-0.89407 0,-1.16979 -0.14102,-0.13786 -0.45728,0.13786 -0.5983,0 -0.14102,-0.13786 0.0892,-0.41051 0,-0.5849 -0.12614,-0.2466 -0.47217,-0.33827 -0.59831,-0.58489 -0.0892,-0.17438 0.0892,-0.4105 0,-0.58489 -1.245,-2.43419 0.0412,0.62528 -1.19661,-0.58489 -0.14102,-0.13786 0.14102,-0.44704 0,-0.5849 -0.14102,-0.13786 -0.45728,0.13786 -0.59831,0 -0.14102,-0.13786 0.14103,-0.44703 0,-0.58489 -0.28204,-0.27572 -0.91456,0.27572 -1.1966,0 -1.23793,-1.21017 1.89169,0.0473 -0.59831,-1.16979 -1.59548,0 0.19943,0.19497 -0.59831,-0.5849 -0.29915,-0.29244 -1.49576,0.29245 -1.79491,0 -0.14102,-0.13786 0.14102,-0.44703 0,-0.58489 -0.29915,-0.29245 -1.49577,0.29245 -1.79492,0 -0.14102,-0.13786 0.14102,-0.44703 0,-0.58489 -0.14102,-0.13786 -0.39887,0 -0.59831,0 -0.19943,0 -0.39887,0 -0.5983,0 -1.59548,0 -3.19096,0 -4.78644,0 -0.21972,0 -2.36915,-0.0235 -2.39322,0 -0.14103,0.13786 0.14102,0.44703 0,0.58489 -0.28205,0.27572 -0.91458,-0.27571 -1.19661,0 -0.14102,0.13786 0.14102,0.44703 0,0.58489 -0.14102,0.13786 -0.45729,-0.13786 -0.59831,0 -0.28204,0.27573 0.28204,0.89407 0,1.16979 -0.14102,0.13786 -0.45729,-0.13786 -0.59831,0 -0.0193,0.0189 0,1.61284 0,1.75469 -0.39886,-0.97483 -0.85698,-1.92844 -1.19661,-2.92448 -0.12613,-0.36991 0,-0.77985 0,-1.16978 0,-0.97482 0,-1.94965 0,-2.92447 0,-0.19496 0,-0.38993 0,-0.5849 0,-0.19495 0.14102,-0.44703 0,-0.58489 -0.14102,-0.13786 -0.45728,0.13786 -0.5983,0 -0.14102,-0.13786 0,-0.38993 0,-0.58489 0,-1.36475 0,-2.7295 0,-4.09426 0,-0.19496 0,-0.38993 0,-0.58489 0,-0.19496 -0.14102,-0.44703 0,-0.58489 0.29915,-0.29246 1.49576,0.29244 1.79491,0 0.14102,-0.13786 -0.19943,-0.5849 0,-0.5849 0.19944,0 0,0.38993 0,0.5849 0,1.37167 0.14102,-0.27572 -0.5983,1.16978 -0.10819,0.21152 0,2.51766 0,2.92447 0,0.40682 0.10818,2.71295 0,2.92447 -0.12614,0.24661 -0.47217,0.33829 -0.59831,0.58489 -0.0892,0.17439 0,0.38993 0,0.5849 0,0.19497 0,0.38993 0,0.58489 0,0.47087 -0.12517,1.97247 0,2.33957 0.33963,0.99604 0.79775,1.94965 1.19661,2.92448"
         style="fill:none;stroke:#000000;stroke-width:1.092;stroke-linecap:butt;stroke-linejoin:miter;stroke-opacity:1;stroke-miterlimit:4;stroke-dasharray:none" />
      <path
         style="fill:none;stroke:#000000;stroke-width:1;stroke-linecap:butt;stroke-linejoin:miter;stroke-opacity:1;stroke-miterlimit:4;stroke-dasharray:2,4;stroke-dashoffset:0"
         d="M 144.34698,117.82358 C 107.53253,82.204817 84.48724,91.20007 69.735176,94.094304 54.983112,96.988539 46.585704,110.15985 46.585704,110.15985"
         id="path3793"
         inkscape:connector-curvature="0" />
      <path
         inkscape:connector-curvature="0"
         id="path3795"
         d="M 81,105.36218 C 81,58.362183 81,58.362183 81,58.362183"
         style="fill:none;stroke:#000000;stroke-width:1px;stroke-linecap:butt;stroke-linejoin:miter;stroke-opacity:1;marker-end:url(#Arrow1Lend)" />
      <path
         style="fill:none;stroke:#000000;stroke-width:1px;stroke-linecap:butt;stroke-linejoin:miter;stroke-opacity:1;marker-end:url(#Arrow1Lend)"
         d="m 79,148.36218 c 0,47 0,47 0,47"
         id="path4241"
         inkscape:connector-curvature="0" />
      <g
         transform="translate(9,-155)"
         id="g4623">
        <text
           xml:space="preserve"
           style="font-size:12px;font-style:normal;font-variant:normal;font-weight:normal;font-stretch:normal;text-align:start;line-height:125%;letter-spacing:0px;word-spacing:0px;writing-mode:lr-tb;text-anchor:start;fill:#000000;fill-opacity:1;stroke:none;font-family:Calibri;-inkscape-font-specification:Calibri"
           x="72"
           y="329.36218"
           id="text4243"
           sodipodi:linespacing="125%"><tspan
             sodipodi:role="line"
             id="tspan4245"
             x="72"
             y="329.36218">m g</tspan></text>
        <path
           style="fill:none;stroke:#000000;stroke-width:0.60000002;stroke-linecap:butt;stroke-linejoin:miter;stroke-miterlimit:4;stroke-opacity:1;stroke-dasharray:none;marker-end:url(#Arrow1Mend)"
           d="m 83,319.36218 c 7,0 8,0 8,0"
           id="path4247"
           inkscape:connector-curvature="0" />
      </g>
      <g
         transform="translate(-43,-241)"
         id="g4820">
        <text
           xml:space="preserve"
           style="font-size:12px;font-style:normal;font-variant:normal;font-weight:normal;font-stretch:normal;text-align:start;line-height:125%;letter-spacing:0px;word-spacing:0px;writing-mode:lr-tb;text-anchor:start;fill:#000000;fill-opacity:1;stroke:none;font-family:Calibri;-inkscape-font-specification:Calibri"
           x="130"
           y="329.36218"
           id="text4628"
           sodipodi:linespacing="125%"><tspan
             sodipodi:role="line"
             id="tspan4630"
             x="130"
             y="329.36218">F</tspan></text>
        <path
           style="fill:none;stroke:#000000;stroke-width:1px;stroke-linecap:butt;stroke-linejoin:miter;stroke-opacity:1;marker-end:url(#Arrow1Mend)"
           d="m 129,317.36218 c 10,0 10,0 10,0"
           id="path4632"
           inkscape:connector-curvature="0" />
      </g>
      <path
         inkscape:connector-curvature="0"
         id="path4825"
         d="m 81,90.362183 c -53.057766,-1 -53.057766,-1 -53.057766,-1"
         style="fill:none;stroke:#000000;stroke-width:0.67437446;stroke-linecap:butt;stroke-linejoin:miter;stroke-miterlimit:4;stroke-opacity:1;stroke-dasharray:none" />
      <path
         style="fill:none;stroke:#000000;stroke-width:0.68022883;stroke-linecap:butt;stroke-linejoin:miter;stroke-miterlimit:4;stroke-opacity:1;stroke-dasharray:none"
         d="m 81,104.36218 c -53.982975,-1 -53.982975,-1 -53.982975,-1"
         id="path4827"
         inkscape:connector-curvature="0" />
      <g
         transform="translate(-126,-257)"
         id="g4845">
        <text
           xml:space="preserve"
           style="font-size:12px;font-style:normal;font-variant:normal;font-weight:normal;font-stretch:normal;text-align:start;line-height:125%;letter-spacing:0px;word-spacing:0px;writing-mode:lr-tb;text-anchor:start;fill:#000000;fill-opacity:1;stroke:none;font-family:ESSTIXEleven;-inkscape-font-specification:ESSTIXEleven"
           x="145"
           y="357.36218"
           id="text4829"
           sodipodi:linespacing="125%"><tspan
             sodipodi:role="line"
             id="tspan4831"
             x="145"
             y="357.36218">D</tspan></text>
        <text
           xml:space="preserve"
           style="font-size:12px;font-style:normal;font-variant:normal;font-weight:normal;font-stretch:normal;text-align:start;line-height:125%;letter-spacing:0px;word-spacing:0px;writing-mode:lr-tb;text-anchor:start;fill:#000000;fill-opacity:1;stroke:none;font-family:Calibri;-inkscape-font-specification:Calibri"
           x="157"
           y="356.36218"
           id="text4841"
           sodipodi:linespacing="125%"><tspan
             sodipodi:role="line"
             id="tspan4843"
             x="157"
             y="356.36218">s</tspan></text>
      </g>
    </g>
  </g>
</svg>
