<?xml version="1.0" encoding="UTF-8" standalone="no"?>
<!-- Created with Inkscape (http://www.inkscape.org/) -->

<svg
   xmlns:dc="http://purl.org/dc/elements/1.1/"
   xmlns:cc="http://creativecommons.org/ns#"
   xmlns:rdf="http://www.w3.org/1999/02/22-rdf-syntax-ns#"
   xmlns:svg="http://www.w3.org/2000/svg"
   xmlns="http://www.w3.org/2000/svg"
   xmlns:sodipodi="http://sodipodi.sourceforge.net/DTD/sodipodi-0.dtd"
   xmlns:inkscape="http://www.inkscape.org/namespaces/inkscape"
   width="210mm"
   height="297mm"
   id="svg2"
   version="1.1"
   inkscape:version="0.48.1 r9760"
   sodipodi:docname="Reibung.svg">
  <defs
     id="defs4">
    <marker
       inkscape:stockid="Arrow1Lend"
       orient="auto"
       refY="0"
       refX="0"
       id="Arrow1Lend"
       style="overflow:visible">
      <path
         inkscape:connector-curvature="0"
         id="path3841"
         d="M 0,0 5,-5 -12.5,0 5,5 0,0 z"
         style="fill-rule:evenodd;stroke:#000000;stroke-width:1pt;marker-start:none"
         transform="matrix(-0.8,0,0,-0.8,-10,0)" />
    </marker>
    <marker
       inkscape:stockid="Arrow1Mend"
       orient="auto"
       refY="0"
       refX="0"
       id="Arrow1Mend"
       style="overflow:visible">
      <path
         inkscape:connector-curvature="0"
         id="path3847"
         d="M 0,0 5,-5 -12.5,0 5,5 0,0 z"
         style="fill-rule:evenodd;stroke:#000000;stroke-width:1pt;marker-start:none"
         transform="matrix(-0.4,0,0,-0.4,-4,0)" />
    </marker>
  </defs>
  <sodipodi:namedview
     id="base"
     pagecolor="#ffffff"
     bordercolor="#666666"
     borderopacity="1.0"
     inkscape:pageopacity="0.0"
     inkscape:pageshadow="2"
     inkscape:zoom="1"
     inkscape:cx="373.44725"
     inkscape:cy="703.22401"
     inkscape:document-units="px"
     inkscape:current-layer="layer1"
     showgrid="false"
     inkscape:window-width="1680"
     inkscape:window-height="988"
     inkscape:window-x="-8"
     inkscape:window-y="-8"
     inkscape:window-maximized="1" />
  <metadata
     id="metadata7">
    <rdf:RDF>
      <cc:Work
         rdf:about="">
        <dc:format>image/svg+xml</dc:format>
        <dc:type
           rdf:resource="http://purl.org/dc/dcmitype/StillImage" />
        <dc:title />
      </cc:Work>
    </rdf:RDF>
  </metadata>
  <g
     inkscape:label="Ebene 1"
     inkscape:groupmode="layer"
     id="layer1">
    <g
       id="g3895">
      <rect
         y="50.362183"
         x="98"
         height="61"
         width="101"
         id="rect2985"
         style="opacity:0.87000002;fill:#ffe6d5;fill-opacity:1;stroke:#000000;stroke-width:1;stroke-miterlimit:4;stroke-opacity:1;stroke-dasharray:none;stroke-dashoffset:0" />
      <g
         transform="matrix(1.5439361,0,0,-1,-420.38855,598.60813)"
         id="g4301">
        <path
           style="fill:none;stroke:#000000;stroke-width:1.20044446px;stroke-linecap:butt;stroke-linejoin:miter;stroke-opacity:1"
           d="m 451.61852,486.0315 c -124.41526,0 -124.41526,0 -124.41526,0"
           id="path4152"
           inkscape:connector-curvature="0" />
        <path
           inkscape:connector-curvature="0"
           id="path4160"
           d="m 329.51903,485.33469 c -0.14927,-0.18882 -0.18248,-1.48376 -0.074,-2.87766 l 0.19726,-2.53436 61.2049,0 61.20488,0 0,2.50187 0,2.50186 -58.57846,0.006 c -32.21814,0.003 -59.72703,0.1721 -61.13087,0.3758 -1.40385,0.20369 -2.6745,0.21587 -2.82372,0.0271 z m 3.37031,-2.11196 c -1.28139,-0.40026 -2.38327,-1.76617 -1.92613,-2.38768 0.19721,-0.26811 0.0714,-0.28501 -0.27956,-0.0375 -0.35097,0.24746 -0.63811,0.99624 -0.63811,1.66395 0,0.99879 0.33941,1.20115 1.91434,1.14146 1.05387,-0.04 1.47164,-0.21083 0.92946,-0.38019 z m 81.76953,-0.0162 c -13.12592,-0.0929 -34.60469,-0.0929 -47.73059,0 -13.12593,0.0929 -2.38652,0.16888 23.86529,0.16888 26.25182,0 36.99121,-0.076 23.8653,-0.16888 z m 36.79061,-0.93835 -0.16312,-1.4073 -56.51095,-0.1473 c -34.61423,-0.0902 -56.62518,0.0791 -56.80574,0.43709 -0.18196,0.36072 19.88345,0.59034 52.42705,0.59995 28.99701,0.009 54.27243,0.023 56.16762,0.032 1.89518,0.009 3.44578,0.28505 3.44578,0.61334 0,0.32829 -1.5506,0.69535 -3.44578,0.81569 l -3.44579,0.21881 4.24703,0.1225 c 4.13687,0.11933 4.24279,0.086 4.0839,-1.28479 l 0,0 z m -115.66095,-0.91051 c -0.63173,-0.14909 -1.66547,-0.14909 -2.29719,0 -0.63172,0.14908 -0.11482,0.27105 1.14859,0.27105 1.26346,0 1.78033,-0.12197 1.1486,-0.27105 z"
           style="opacity:0.87000002;fill:#cccccc;fill-opacity:1;stroke:#000000;stroke-width:0.11301205;stroke-miterlimit:4;stroke-opacity:1;stroke-dasharray:none;stroke-dashoffset:0" />
      </g>
      <path
         inkscape:connector-curvature="0"
         id="path4329"
         d="m 199,81.362183 c 12,0 13,0 13,0"
         style="fill:none;stroke:#000000;stroke-width:1px;stroke-linecap:butt;stroke-linejoin:miter;stroke-opacity:1" />
      <path
         transform="translate(114,-176)"
         d="m 108,257.36218 a 4.5,5 0 1 1 -9,0 4.5,5 0 1 1 9,0 z"
         sodipodi:ry="5"
         sodipodi:rx="4.5"
         sodipodi:cy="257.36218"
         sodipodi:cx="103.5"
         id="path4331"
         style="opacity:0.87000002;fill:none;stroke:#000000;stroke-width:1;stroke-miterlimit:4;stroke-opacity:1;stroke-dasharray:none;stroke-dashoffset:0"
         sodipodi:type="arc" />
      <path
         sodipodi:open="true"
         sodipodi:end="3.1503193"
         sodipodi:start="0"
         sodipodi:type="arc"
         style="opacity:0.87000002;fill:none;stroke:#000000;stroke-width:1;stroke-miterlimit:4;stroke-opacity:1;stroke-dasharray:none;stroke-dashoffset:0"
         id="path4333"
         sodipodi:cx="103.5"
         sodipodi:cy="257.36218"
         sodipodi:rx="4.5"
         sodipodi:ry="5"
         d="m 108,257.36218 a 4.5,5 0 1 1 -8.999829,-0.0436"
         transform="translate(117,-178)" />
      <path
         inkscape:connector-curvature="0"
         id="path4335"
         d="m 223,81.362183 c 25,0 25,0 25,0"
         style="fill:none;stroke:#000000;stroke-width:1px;stroke-linecap:butt;stroke-linejoin:miter;stroke-opacity:1" />
      <g
         transform="translate(-50,-74)"
         id="g4355">
        <rect
           style="opacity:0.87000002;fill:none;stroke:#000000;stroke-width:1;stroke-miterlimit:4;stroke-opacity:1;stroke-dasharray:none;stroke-dashoffset:0"
           id="rect4337"
           width="40"
           height="8"
           x="299"
           y="151.36218" />
        <rect
           style="opacity:0.87000002;fill:none;stroke:#000000;stroke-width:1;stroke-miterlimit:4;stroke-opacity:1;stroke-dasharray:none;stroke-dashoffset:0"
           id="rect4339"
           width="77"
           height="14"
           x="339"
           y="147.36218" />
        <path
           inkscape:connector-curvature="0"
           id="path4341"
           d="m 417,154.36218 c 12,0 13,0 13,0"
           style="fill:none;stroke:#000000;stroke-width:1px;stroke-linecap:butt;stroke-linejoin:miter;stroke-opacity:1" />
        <path
           transform="translate(329,-103)"
           d="m 108,257.36218 c 0,2.76143 -2.01472,5 -4.5,5 -2.48528,0 -4.5,-2.23857 -4.5,-5 0,-2.76142 2.01472,-5 4.5,-5 2.48528,0 4.5,2.23858 4.5,5 z"
           sodipodi:ry="5"
           sodipodi:rx="4.5"
           sodipodi:cy="257.36218"
           sodipodi:cx="103.5"
           id="path4345"
           style="opacity:0.87000002;fill:none;stroke:#000000;stroke-width:1;stroke-miterlimit:4;stroke-opacity:1;stroke-dasharray:none;stroke-dashoffset:0"
           sodipodi:type="arc" />
      </g>
      <g
         id="g4376">
        <g
           id="g4372">
          <g
             id="g4369">
            <path
               style="fill:none;stroke:#000000;stroke-width:0.60000002;stroke-linecap:butt;stroke-linejoin:miter;stroke-miterlimit:4;stroke-opacity:1;stroke-dasharray:none"
               d="m 257,76.362183 c 0,9 1,9 1,9"
               id="path4367"
               inkscape:connector-curvature="0" />
          </g>
        </g>
      </g>
      <g
         transform="translate(6,0)"
         id="g4381">
        <g
           id="g4383">
          <g
             id="g4385">
            <path
               inkscape:connector-curvature="0"
               id="path4387"
               d="m 257,76.362183 c 0,9 1,9 1,9"
               style="fill:none;stroke:#000000;stroke-width:0.60000002;stroke-linecap:butt;stroke-linejoin:miter;stroke-miterlimit:4;stroke-opacity:1;stroke-dasharray:none" />
          </g>
        </g>
      </g>
      <g
         id="g4389"
         transform="translate(14,0)">
        <g
           id="g4391">
          <g
             id="g4393">
            <path
               style="fill:none;stroke:#000000;stroke-width:0.60000002;stroke-linecap:butt;stroke-linejoin:miter;stroke-miterlimit:4;stroke-opacity:1;stroke-dasharray:none"
               d="m 257,76.362183 c 0,9 1,9 1,9"
               id="path4395"
               inkscape:connector-curvature="0" />
          </g>
        </g>
      </g>
      <g
         transform="translate(21,0)"
         id="g4397">
        <g
           id="g4399">
          <g
             id="g4401">
            <path
               inkscape:connector-curvature="0"
               id="path4403"
               d="m 257,76.362183 c 0,9 1,9 1,9"
               style="fill:none;stroke:#000000;stroke-width:0.60000002;stroke-linecap:butt;stroke-linejoin:miter;stroke-miterlimit:4;stroke-opacity:1;stroke-dasharray:none" />
          </g>
        </g>
      </g>
      <g
         id="g4405"
         transform="translate(28,0)">
        <g
           id="g4407">
          <g
             id="g4409">
            <path
               style="fill:none;stroke:#000000;stroke-width:0.60000002;stroke-linecap:butt;stroke-linejoin:miter;stroke-miterlimit:4;stroke-opacity:1;stroke-dasharray:none"
               d="m 257,76.362183 c 0,9 1,9 1,9"
               id="path4411"
               inkscape:connector-curvature="0" />
          </g>
        </g>
      </g>
      <text
         sodipodi:linespacing="125%"
         id="text4413"
         y="87.362183"
         x="131"
         style="font-size:12px;font-style:normal;font-variant:normal;font-weight:normal;font-stretch:normal;text-align:start;line-height:125%;letter-spacing:0px;word-spacing:0px;writing-mode:lr-tb;text-anchor:start;fill:#000000;fill-opacity:1;stroke:none;font-family:Calibri;-inkscape-font-specification:Calibri"
         xml:space="preserve"><tspan
           y="87.362183"
           x="131"
           id="tspan4415"
           sodipodi:role="line">Klotz</tspan></text>
      <text
         sodipodi:linespacing="125%"
         id="text4417"
         y="65.362183"
         x="298"
         style="font-size:12px;font-style:normal;font-variant:normal;font-weight:normal;font-stretch:normal;text-align:start;line-height:125%;letter-spacing:0px;word-spacing:0px;writing-mode:lr-tb;text-anchor:start;fill:#000000;fill-opacity:1;stroke:none;font-family:Calibri;-inkscape-font-specification:Calibri"
         xml:space="preserve"><tspan
           y="65.362183"
           x="298"
           id="tspan4419"
           sodipodi:role="line">Federmesser</tspan></text>
      <path
         style="fill:none;stroke:#000000;stroke-width:0.64445519px;stroke-linecap:butt;stroke-linejoin:miter;stroke-opacity:1;marker-end:url(#Arrow1Lend)"
         d="m 319.71141,96.81449 c 41.28081,0 41.28081,0 41.28081,0"
         id="path4214"
         inkscape:connector-curvature="0" />
      <g
         id="g4220"
         transform="matrix(0.95675134,0,0,0.90120215,-20.332207,-266.13243)">
        <text
           xml:space="preserve"
           style="font-size:12px;font-style:normal;font-variant:normal;font-weight:normal;font-stretch:normal;text-align:start;line-height:125%;letter-spacing:0px;word-spacing:0px;writing-mode:lr-tb;text-anchor:start;fill:#000000;fill-opacity:1;stroke:none;font-family:Calibri;-inkscape-font-specification:Calibri"
           x="375"
           y="421.36218"
           id="text4222"
           sodipodi:linespacing="125%"><tspan
             sodipodi:role="line"
             id="tspan4224"
             x="375"
             y="421.36218">F</tspan></text>
        <path
           style="fill:none;stroke:#000000;stroke-width:0.69999999;stroke-linecap:butt;stroke-linejoin:miter;stroke-miterlimit:4;stroke-opacity:1;stroke-dasharray:none;marker-end:url(#Arrow1Mend)"
           d="m 372,409.36218 c 9,0 10,0 10,0"
           id="path4226"
           inkscape:connector-curvature="0" />
      </g>
      <path
         transform="translate(-23,-49)"
         d="m 218,161.36218 a 10,10 0 1 1 -20,0 10,10 0 1 1 20,0 z"
         sodipodi:ry="10"
         sodipodi:rx="10"
         sodipodi:cy="161.36218"
         sodipodi:cx="208"
         id="path4497"
         style="opacity:0.87000002;fill:none;stroke:#000000;stroke-width:0.80000001;stroke-miterlimit:4;stroke-opacity:1;stroke-dasharray:none;stroke-dashoffset:0"
         sodipodi:type="arc" />
      <path
         d="m 600,100.86218 a 50.5,50.5 0 1 1 -101,0 50.5,50.5 0 1 1 101,0 z"
         sodipodi:ry="50.5"
         sodipodi:rx="50.5"
         sodipodi:cy="100.86218"
         sodipodi:cx="549.5"
         id="path4499"
         style="opacity:0.87000002;fill:none;stroke:#000000;stroke-width:1;stroke-miterlimit:4;stroke-opacity:1;stroke-dasharray:none;stroke-dashoffset:0"
         sodipodi:type="arc" />
      <path
         inkscape:connector-curvature="0"
         id="path4501"
         d="m 499,102.36218 c 2.33333,0 4.66667,0 7,0 0.33333,0 1,-0.33333 1,0 0,0.33334 -1.33333,0 -1,0 0.66667,0 1.33333,0 2,0 0.33333,0 0.66667,0 1,0 0.33333,0 1,-0.33333 1,0 0,0.33334 -1,-0.33333 -1,0 0,0.32244 1.72218,1.44437 2,2 0.14907,0.29815 -0.2357,0.7643 0,1 0.2357,0.2357 1,-0.33333 1,0 0,0.33334 -1.33333,0 -1,0 0.66667,0 1.33333,0 2,0 0.33333,0 0.66667,0 1,0 0.33333,0 0.70186,0.14907 1,0 0.42164,-0.21082 0.57836,-0.78918 1,-1 0.29814,-0.14907 0.7643,0.2357 1,0 0.2357,-0.2357 -0.2357,-0.7643 0,-1 0.24063,-0.24063 3.75937,0.24063 4,0 0.1,-0.1 -0.46667,-3.466664 1,-2 0.2357,0.2357 -0.14907,0.70186 0,1 1.10553,2.21106 0.62064,0.31032 2,1 0.42164,0.21082 0.78918,0.57837 1,1 0.14907,0.29815 -0.29814,0.85093 0,1 0.59628,0.29815 1.40372,-0.29814 2,0 0.29814,0.14907 -0.29814,0.85093 0,1 0.59628,0.29815 1.40372,-0.29814 2,0 0.29814,0.14907 -0.2357,0.7643 0,1 0.2357,0.2357 0.7643,0.2357 1,0 0.4714,-0.4714 -0.4714,-1.52859 0,-2 0.2357,-0.2357 0.7643,0.2357 1,0 0.2357,-0.2357 -0.2357,-0.7643 0,-1 0.2357,-0.2357 0.7643,0.2357 1,0 0.2357,-0.2357 -0.33333,-1 0,-1 1.41667,0 -2.83333,4.66667 0,-1 0.14907,-0.29814 0.66667,0 1,0 0.33333,0 0.66667,0 1,0 0.33333,0 0.66667,0 1,0 0.33333,0 0.7643,-0.2357 1,0 0.2357,0.2357 0,0.66667 0,1 0,0.69554 -0.18082,4.63837 0,5 0.21082,0.42164 0.57836,0.78918 1,1 1.86928,0.93464 0.0744,-1.03717 2,-2 0.29814,-0.14907 0.7643,0.2357 1,0 0.4714,-0.4714 -0.4714,-1.52859 0,-2 0.2357,-0.2357 0.66667,0 1,0 2,0 4,0 6,0 0.33333,0 0.7643,0.2357 1,0 0.20444,-0.20443 -0.19825,-2.60351 0,-3 0.21082,-0.42163 0.78918,-0.57836 1,-1 0.66667,-1.33333 -1,-1 1,-1 0.33333,0 0.7643,-0.2357 1,0 0.2357,0.2357 -0.2357,0.7643 0,1 0.2357,0.2357 0.70186,-0.14907 1,0 0.42164,0.21082 1.33333,0.66667 1,1 -0.33333,0.33334 -1.4714,-1 -1,-1 5.05181,0 0.76852,0.76853 2,2 0.2357,0.2357 0.7643,-0.2357 1,0 0.2357,0.2357 -0.2357,0.7643 0,1 0.2357,0.2357 0.7643,-0.2357 1,0 0.2357,0.2357 -0.2357,0.7643 0,1 0.14103,0.14103 2.79487,0.10257 3,0 0.42164,-0.21082 0.66667,-1.33333 1,-1 0.33333,0.33334 -1.33333,1.33334 -1,1 0.66667,-0.66666 1.47702,-1.21553 2,-2 0.1849,-0.27735 -0.2357,-0.7643 0,-1 0.2357,-0.2357 0.66667,0 1,0 0.33333,0 0.7643,-0.2357 1,0 0.2357,0.2357 -0.2357,0.7643 0,1 0.2357,0.2357 0.7643,-0.2357 1,0 0.2357,0.2357 -0.2357,0.7643 0,1 0.2357,0.2357 0.66667,0 1,0 0.33333,0 0.7643,0.2357 1,0 0.2357,-0.2357 -0.2357,-0.7643 0,-1 0.2357,-0.2357 0.66667,0 1,0 0.33333,0 0.7643,-0.2357 1,0 0.2357,0.2357 -0.2357,0.7643 0,1 0.2357,0.2357 0.7643,-0.2357 1,0 0.2357,0.2357 -0.2357,0.7643 0,1 0.2357,0.2357 0.7643,-0.2357 1,0 0.2357,0.2357 -0.2357,0.7643 0,1 0.1,0.1 2.9,0.1 3,0 0.4714,-0.4714 -0.4714,-1.52859 0,-2 0.2357,-0.2357 0.7643,0.2357 1,0 0.2357,-0.2357 -0.2357,-0.7643 0,-1 0.2357,-0.2357 1,-0.33333 1,0 0,0.33334 -1.33333,0 -1,0 0.66667,0 1.33333,0 2,0 0.33333,0 1,-0.33333 1,0 0,0.33334 -1.33333,0 -1,0 1,0 2,0 3,0 0.36724,0 3.95976,-0.0402 4,0 0.2357,0.2357 -0.2357,0.7643 0,1 0.2357,0.2357 0.70186,-0.14907 1,0 0.42164,0.21082 0.57836,0.78918 1,1 0.0523,0.0262 2.94768,0.0262 3,0 2.02248,-1.01124 0.32067,-2.32067 1,-3 0.2357,-0.2357 0.66667,0 1,0 0.33333,0 0.7643,-0.2357 1,0 0.2357,0.2357 -0.2357,0.7643 0,1 0.2357,0.2357 0.7643,-0.2357 1,0 0.2357,0.2357 -0.2357,0.7643 0,1 0.4714,0.47141 1.5286,-0.4714 2,0 0.2357,0.2357 -0.2357,0.7643 0,1 0.4714,0.47141 2,-0.66666 2,0 0,0.33334 -1,0.33334 -1,0 0,-2.08088 1.40237,-0.40237 2,-1 0.2357,-0.2357 -0.2357,-0.7643 0,-1 0.2357,-0.2357 0.66667,0 1,0 0.33333,0 0.66667,0 1,0"
         style="fill:none;stroke:#000000;stroke-width:1px;stroke-linecap:butt;stroke-linejoin:miter;stroke-opacity:1" />
      <path
         inkscape:connector-curvature="0"
         id="path4503"
         d="m 500,108.36218 c 3.33333,0 6.66667,0 10,0 0.33333,0 1,-0.33333 1,0 0,0.33334 -1.33333,0 -1,0 0.66667,0 1.40372,0.29815 2,0 0.29814,-0.14907 -0.2357,-0.7643 0,-1 0.2357,-0.2357 0.66667,0 1,0 0.33333,0 0.7643,-0.2357 1,0 0.4714,0.47141 -0.4714,1.5286 0,2 0.2357,0.2357 0.7643,-0.2357 1,0 0.4714,0.47141 -0.4714,1.5286 0,2 0.2357,0.2357 1,-0.33333 1,0 0,0.33334 -1.33333,0 -1,0 0.66667,0 1.40372,0.29815 2,0 0.59628,-0.29814 -0.4714,-1.52859 0,-2 0.2357,-0.2357 0.7643,0.2357 1,0 0.2357,-0.2357 -0.2357,-0.7643 0,-1 0.2357,-0.2357 0.7643,0.2357 1,0 0.2357,-0.2357 -0.2357,-0.7643 0,-1 0.2357,-0.2357 1,-0.33333 1,0 0,0.33334 -1.33333,0 -1,0 1,0 2,0 3,0 0.33333,0 1.33333,0 1,0 -0.66667,0 -2,-0.66666 -2,0 0,1.37249 6.10585,1 7,1 0.33333,0 0.7643,-0.2357 1,0 0.4714,0.47141 -0.4714,1.5286 0,2 0.4714,0.47141 2,-0.66666 2,0 0,0.33334 -1.33333,0 -1,0 0.66667,0 1.33333,0 2,0 0.33333,0 0.7643,-0.2357 1,0 0.4714,0.47141 -0.4714,1.5286 0,2 0.0322,0.0322 2.75747,0 3,0 0.33333,0 0.7643,0.2357 1,0 0.5,-0.5 -0.5,-2.5 0,-3 0.2357,-0.2357 0.7643,0.2357 1,0 0.2357,-0.2357 -0.2357,-0.7643 0,-1 0.2357,-0.2357 0.66667,0 1,0 0.33333,0 0.66667,0 1,0 2,0 4,0 6,0 0.45036,0 2.69567,0.15217 3,0 0.42164,-0.21082 0.57836,-0.78918 1,-1 0.54249,-0.27124 3.72638,0.27362 4,0 0.2357,-0.2357 -0.33333,-1 0,-1 0.33333,0 0,0.66667 0,1 0,0.36724 -0.0402,3.95976 0,4 0.2357,0.2357 0.7643,0.2357 1,0 0.2357,-0.2357 -0.2357,-0.7643 0,-1 0.2357,-0.2357 0.7643,0.2357 1,0 0.2357,-0.2357 -0.2357,-0.7643 0,-1 0.2357,-0.2357 0.66667,0 1,0 0.33333,0 0.66667,0 1,0 0.33333,0 0.66667,0 1,0 0.33333,0 1,-0.33333 1,0 0,0.33334 -1.33333,0 -1,0 0.66667,0 1.33333,0 2,0 0.33333,0 0.66667,0 1,0 0.33333,0 0.7643,0.2357 1,0 0.2357,-0.2357 -0.2357,-0.7643 0,-1 0.2357,-0.2357 0.70186,0.14907 1,0 0.42164,-0.21082 0.5286,-1 1,-1 0.33333,0 -0.2357,0.7643 0,1 0.2357,0.2357 0.7643,-0.2357 1,0 0.2357,0.2357 -0.2357,0.7643 0,1 0.2357,0.2357 0.7643,-0.2357 1,0 0.2357,0.2357 -0.2357,0.7643 0,1 0.2357,0.2357 1,-0.33333 1,0 0,0.33334 -1.33333,0 -1,0 0.66667,0 1.36754,0.21082 2,0 0.44721,-0.14907 0.66667,-1.33333 1,-1 0.33333,0.33334 -1.4714,1 -1,1 0.74536,0 1.29289,-0.7643 2,-1 0.38912,-0.12971 2.84481,0.15519 3,0 0.2357,-0.2357 -0.2357,-0.7643 0,-1 0.4714,-0.4714 1.5286,0.47141 2,0 0.2357,-0.2357 -0.2357,-0.7643 0,-1 0.1,-0.1 2.9,-0.1 3,0 0.2357,0.2357 0.33333,1 0,1 -0.33333,0 -0.33333,-1 0,-1 0.4714,0 0.57836,0.78918 1,1 0.0523,0.0262 2.94768,0.0262 3,0 0.42164,-0.21082 0.57836,-0.78918 1,-1 0.20513,-0.10256 2.85897,-0.14102 3,0 0.2357,0.2357 -0.2357,0.7643 0,1 0.2357,0.2357 0.66667,0 1,0 0.33333,0 0.66667,0 1,0 0.66667,0 1.33333,0 2,0 0.33333,0 1,-0.33333 1,0 0,0.33334 -1.33333,0 -1,0 0.66667,0 1.33333,0 2,0 0.33333,0 0.7643,-0.2357 1,0 0.2357,0.2357 -0.2357,0.7643 0,1 0.2357,0.2357 0.66667,0 1,0 1.33333,0 2.66667,0 4,0 0.33333,0 1,-0.33333 1,0 0,0.33334 -0.66667,0 -1,0"
         style="fill:none;stroke:#000000;stroke-width:1px;stroke-linecap:butt;stroke-linejoin:miter;stroke-opacity:1" />
      <path
         inkscape:connector-curvature="0"
         id="path4505"
         d="m 537.37905,104.18818 c -0.0287,-2.92873 -0.32489,-3.25 -2.99662,-3.25 -1.92261,0 -3.33407,0.68995 -4.01525,1.96276 -1.20577,2.253 -3.26014,1.84797 -6.90711,-1.36178 -1.68764,-1.48532 -2.51792,-1.734688 -2.83333,-0.85098 -0.24539,0.6875 -1.2821,1.25 -2.30381,1.25 -1.02171,0 -2.13576,0.45 -2.47568,1 -0.94714,1.5325 -4.49075,1.18768 -5.13838,-0.5 -0.40312,-1.05054 -2.04176,-1.5 -5.46861,-1.5 l -4.89301,0 0,-3.89467 c 0,-10.078384 7.5797,-25.036673 16.81305,-33.180002 15.568,-13.730161 38.81175,-16.081638 56.58753,-5.724733 13.84466,8.066471 22.7837,21.950714 25.06423,38.930103 0.59173,4.405682 0.49133,4.663492 -2.06607,5.305352 -1.50154,0.37687 -3.15386,0.20882 -3.74339,-0.3807 -1.57053,-1.57053 -4.65535,-1.27589 -4.65535,0.44465 0,0.83333 -0.88889,1.5 -2,1.5 -1.1,0 -2,-0.45 -2,-1 0,-0.55 -2.48912,-1 -5.53139,-1 -4.06307,0 -5.68857,0.40963 -6.12355,1.54317 -0.51308,1.33705 -0.80942,1.35397 -2.21862,0.12666 -0.89454,-0.77908 -3.35613,-1.72682 -5.4702,-2.10608 -3.02679,-0.543 -4.11179,-0.32301 -5.10479,1.03499 -1.1713,1.60185 -1.50932,1.53518 -4.75063,-0.93709 -4.56857,-3.484624 -7.80082,-3.551604 -7.80082,-0.16165 0,2.20876 -0.42402,2.5 -3.63976,2.5 -2.2937,0 -4.13104,0.64718 -4.9682,1.75 -1.192,1.57026 -1.3317,1.41621 -1.36024,-1.5 z"
         style="opacity:0.87000002;fill:#ffe6d5;stroke:#000000;stroke-width:1;stroke-miterlimit:4;stroke-opacity:1;stroke-dasharray:none;stroke-dashoffset:0" />
      <path
         inkscape:connector-curvature="0"
         id="path4507"
         d="m 534.34725,147.65353 c -15.63444,-5.37107 -27.37096,-17.42668 -32.06797,-32.93982 l -1.77875,-5.87484 6.17336,0.17818 c 4.86776,0.14049 6.51681,0.60752 7.79732,2.20828 l 1.62396,2.03011 1.84828,-2.15863 c 2.21483,-2.58673 8.73552,-2.96977 11.05585,-0.64944 0.83005,0.83005 1.92291,1.25349 2.42857,0.94098 0.50566,-0.31252 0.91938,-0.0917 0.91938,0.49081 0,0.58246 1.29751,1.05902 2.88337,1.05902 2.04236,0 3.03591,-0.58335 3.40638,-2 0.43151,-1.65011 1.37038,-2.00239 5.36663,-2.01366 2.66399,-0.008 5.85612,-0.28499 7.09362,-0.61663 1.81458,-0.48629 2.25,-0.19336 2.25,1.51365 0,2.1971 2.38781,2.91619 3.53262,1.06385 0.35786,-0.57903 1.17192,-0.8733 1.80902,-0.65392 0.6371,0.21937 2.37241,0.0563 3.85625,-0.36246 1.80867,-0.5104 3.05554,-0.3304 3.78298,0.54612 0.89064,1.07316 1.93039,1.0407 5.80211,-0.18115 4.43598,-1.39991 15.27555,-1.8932 19.71702,-0.89729 1.1,0.24666 2.96846,0.48289 4.15213,0.52497 2.09428,0.0745 2.11457,0.20421 0.75479,4.82652 -3.72197,12.65208 -13.22238,24.0977 -24.90692,30.00657 -11.33394,5.73158 -26.04914,6.89262 -37.5,2.95878 z"
         style="opacity:0.87000002;fill:#cccccc;fill-opacity:1;stroke:#000000;stroke-width:1;stroke-miterlimit:4;stroke-opacity:1;stroke-dasharray:none;stroke-dashoffset:0" />
      <path
         inkscape:connector-curvature="0"
         id="path4509"
         d="m 194,119.36218 307,12"
         style="fill:none;stroke:#000000;stroke-width:1px;stroke-linecap:butt;stroke-linejoin:miter;stroke-opacity:1;marker-end:url(#Arrow1Lend)" />
      <path
         inkscape:connector-curvature="0"
         id="path3093"
         d="m 152.99222,113.81448 c -41.28081,0 -41.28081,0 -41.28081,0"
         style="fill:#ff0000;stroke:#e90015;stroke-width:0.94410002000000004;stroke-linecap:butt;stroke-linejoin:miter;stroke-miterlimit:4;stroke-opacity:1;stroke-dasharray:none;marker-end:url(#Arrow1Lend)" />
      <g
         transform="matrix(0.95675134,0,0,0.90120215,-224.33221,-251.13243)"
         id="g3875">
        <text
           sodipodi:linespacing="125%"
           id="text3877"
           y="421.36218"
           x="375"
           style="font-size:12px;font-style:normal;font-variant:normal;font-weight:normal;font-stretch:normal;text-align:start;line-height:125%;letter-spacing:0px;word-spacing:0px;writing-mode:lr-tb;text-anchor:start;fill:#000000;fill-opacity:1;stroke:none;font-family:Calibri;-inkscape-font-specification:Calibri"
           xml:space="preserve"><tspan
             y="421.36218"
             x="375"
             id="tspan3879"
             sodipodi:role="line">F</tspan></text>
        <path
           inkscape:connector-curvature="0"
           id="path3881"
           d="m 372,409.36218 c 9,0 10,0 10,0"
           style="fill:none;stroke:#000000;stroke-width:0.69999999;stroke-linecap:butt;stroke-linejoin:miter;stroke-miterlimit:4;stroke-opacity:1;stroke-dasharray:none;marker-end:url(#Arrow1Mend)" />
      </g>
    </g>
  </g>
</svg>
