<?xml version="1.0" encoding="UTF-8" standalone="no"?>
<!-- Created with Inkscape (http://www.inkscape.org/) -->

<svg
   xmlns:dc="http://purl.org/dc/elements/1.1/"
   xmlns:cc="http://creativecommons.org/ns#"
   xmlns:rdf="http://www.w3.org/1999/02/22-rdf-syntax-ns#"
   xmlns:svg="http://www.w3.org/2000/svg"
   xmlns="http://www.w3.org/2000/svg"
   xmlns:sodipodi="http://sodipodi.sourceforge.net/DTD/sodipodi-0.dtd"
   xmlns:inkscape="http://www.inkscape.org/namespaces/inkscape"
   width="210mm"
   height="297mm"
   id="svg2"
   version="1.1"
   inkscape:version="0.48.1 r9760">
  <defs
     id="defs4" />
  <sodipodi:namedview
     id="base"
     pagecolor="#ffffff"
     bordercolor="#666666"
     borderopacity="1.0"
     inkscape:pageopacity="0.0"
     inkscape:pageshadow="2"
     inkscape:zoom="1"
     inkscape:cx="560.34366"
     inkscape:cy="690.10972"
     inkscape:document-units="px"
     inkscape:current-layer="layer2"
     showgrid="false"
     inkscape:window-width="1680"
     inkscape:window-height="988"
     inkscape:window-x="-8"
     inkscape:window-y="-8"
     inkscape:window-maximized="1" />
  <metadata
     id="metadata7">
    <rdf:RDF>
      <cc:Work
         rdf:about="">
        <dc:format>image/svg+xml</dc:format>
        <dc:type
           rdf:resource="http://purl.org/dc/dcmitype/StillImage" />
        <dc:title></dc:title>
      </cc:Work>
    </rdf:RDF>
  </metadata>
  <g
     inkscape:label="Ebene 1"
     inkscape:groupmode="layer"
     id="layer1" />
  <g
     inkscape:groupmode="layer"
     id="layer2"
     inkscape:label="Ebene 2">
    <path
       style="opacity:0.87000002;fill:none;stroke:#000000;stroke-width:1;stroke-miterlimit:4;stroke-opacity:1;stroke-dasharray:none;stroke-dashoffset:0"
       d=""
       id="path3030"
       inkscape:connector-curvature="0" />
    <g
       id="g3990"
       transform="translate(-89,-113)">
      <g
         id="g3866">
        <path
           style="fill:none;stroke:#000000;stroke-width:1px;stroke-linecap:butt;stroke-linejoin:miter;stroke-opacity:1"
           d="m 98,151.36218 c 10,39 10,39 10,39"
           id="path2985"
           inkscape:connector-curvature="0" />
        <path
           style="fill:none;stroke:#000000;stroke-width:1px;stroke-linecap:butt;stroke-linejoin:miter;stroke-opacity:1"
           d="m 108,191.36218 c 111,10 111,10 111,10"
           id="path2987"
           inkscape:connector-curvature="0" />
        <path
           style="fill:none;stroke:#000000;stroke-width:1px;stroke-linecap:butt;stroke-linejoin:miter;stroke-opacity:1"
           d="m 219,200.36218 c 29,-38 29,-38 29,-38"
           id="path2989"
           inkscape:connector-curvature="0" />
        <path
           style="fill:none;stroke:#000000;stroke-width:1px;stroke-linecap:butt;stroke-linejoin:miter;stroke-opacity:1"
           d="m 98,151.36218 c 80,15 149,11 149,11"
           id="path2993"
           inkscape:connector-curvature="0" />
        <path
           inkscape:connector-curvature="0"
           id="path3001"
           d="m 215,200.36218 c 29,-38 29,-38 29,-38"
           style="fill:none;stroke:#000000;stroke-width:1px;stroke-linecap:butt;stroke-linejoin:miter;stroke-opacity:1" />
        <path
           inkscape:connector-curvature="0"
           id="path3003"
           d="m 98,156.36218 c 77.04698,15 143.5,11 143.5,11"
           style="fill:none;stroke:#000000;stroke-width:0.98137009px;stroke-linecap:butt;stroke-linejoin:miter;stroke-opacity:1" />
        <path
           style="fill:none;stroke:#000000;stroke-width:1px;stroke-linecap:butt;stroke-linejoin:miter;stroke-opacity:1"
           d="m 98,151.36218 c 18,-11 18,-11 18,-11"
           id="path3005"
           inkscape:connector-curvature="0" />
        <path
           style="fill:none;stroke:#000000;stroke-width:1px;stroke-linecap:butt;stroke-linejoin:miter;stroke-opacity:1"
           d="m 116,140.36218 c 103,4 133,21 133,21"
           id="path3007"
           inkscape:connector-curvature="0" />
        <g
           id="g3843"
           transform="translate(-216,15)">
          <g
             transform="translate(214,-14)"
             style="fill:#666666;fill-opacity:1"
             id="g3826">
            <path
               style="fill:#666666;fill-opacity:1;stroke:#000000;stroke-width:1px;stroke-linecap:butt;stroke-linejoin:miter;stroke-opacity:1"
               d="m 118,151.36218 c 0,-21 0,-21 0,-21"
               id="path3010"
               inkscape:connector-curvature="0" />
            <path
               style="fill:#666666;fill-opacity:1;stroke:#000000;stroke-width:1px;stroke-linecap:butt;stroke-linejoin:miter;stroke-opacity:1"
               d="m 140,152.36218 c 1,-17 1,-17 1,-17"
               id="path3012"
               inkscape:connector-curvature="0" />
            <path
               style="fill:#666666;fill-opacity:1;stroke:#000000;stroke-width:1px;stroke-linecap:butt;stroke-linejoin:miter;stroke-opacity:1"
               d="m 117,130.36218 c 23,5 23,5 23,5"
               id="path3014"
               inkscape:connector-curvature="0" />
            <path
               style="fill:#666666;fill-opacity:1;stroke:#000000;stroke-width:1px;stroke-linecap:butt;stroke-linejoin:miter;stroke-opacity:1"
               d="m 140,135.36218 c 10,-5 10,-5 10,-5"
               id="path3018"
               inkscape:connector-curvature="0" />
            <path
               inkscape:connector-curvature="0"
               id="path3020"
               d="m 150,148.36218 c 1,-17 1,-17 1,-17"
               style="fill:#666666;fill-opacity:1;stroke:#000000;stroke-width:1px;stroke-linecap:butt;stroke-linejoin:miter;stroke-opacity:1" />
            <path
               inkscape:connector-curvature="0"
               id="path3022"
               d="m 126.74108,128.38473 c 23.51784,0.9549 23.51784,0.9549 23.51784,0.9549"
               style="fill:#666666;fill-opacity:1;stroke:#000000;stroke-width:1px;stroke-linecap:butt;stroke-linejoin:miter;stroke-opacity:1" />
            <path
               style="fill:#666666;fill-opacity:1;stroke:#000000;stroke-width:1px;stroke-linecap:butt;stroke-linejoin:miter;stroke-opacity:1"
               d="m 118,129.36218 c 13,-2 13,-2 13,-2"
               id="path3024"
               inkscape:connector-curvature="0" />
            <path
               style="fill:#666666;fill-opacity:1;stroke:#000000;stroke-width:1px;stroke-linecap:butt;stroke-linejoin:miter;stroke-opacity:1"
               d="m 118,150.36218 c 22,3 22,3 22,3"
               id="path3026"
               inkscape:connector-curvature="0" />
            <path
               style="fill:#666666;fill-opacity:1;stroke:#000000;stroke-width:1px;stroke-linecap:butt;stroke-linejoin:miter;stroke-opacity:1"
               d="m 141,153.36218 c 10,-6 10,-6 10,-6"
               id="path3028"
               inkscape:connector-curvature="0" />
          </g>
          <path
             inkscape:connector-curvature="0"
             id="path3837"
             d="m 341.24366,136.67663 -8,-1.12416 -0.29067,-8.86862 c -0.28816,-8.79228 -0.27094,-8.86407 2,-8.34114 1.25987,0.29011 6.00317,1.30858 10.54067,2.26326 l 8.25,1.7358 0,4.73035 c 0,7.22914 -0.99873,10.9998 -2.875,10.85451 -0.89375,-0.0692 -5.225,-0.63171 -9.625,-1.25 z"
             style="opacity:0.87000002;fill:#e6e6e6;fill-opacity:1;stroke:#000000;stroke-width:1;stroke-miterlimit:4;stroke-opacity:1;stroke-dasharray:none;stroke-dashoffset:0" />
          <path
             inkscape:connector-curvature="0"
             id="path3839"
             d="m 355.09565,135.04251 c 0.3564,-1.78203 0.64801,-5.57545 0.64801,-8.42983 0,-4.9561 0.15912,-5.26567 3.53392,-6.875 1.94366,-0.92687 3.74366,-1.68521 4,-1.68521 0.66137,0 0.57882,9.18626 -0.11365,12.64863 -0.40675,2.03373 -1.79364,3.59728 -4.64801,5.24004 l -4.06828,2.34141 0.64801,-3.24004 0,0 z"
             style="opacity:0.87000002;fill:#e6e6e6;fill-opacity:1;stroke:#000000;stroke-width:1;stroke-miterlimit:4;stroke-opacity:1;stroke-dasharray:none;stroke-dashoffset:0" />
          <path
             inkscape:connector-curvature="0"
             id="path3841"
             d="m 343.76203,118.15773 c -4.11489,-0.93551 -7.01362,-1.99017 -6.44161,-2.34369 0.57201,-0.35352 6.13508,-0.37398 12.36237,-0.0455 l 11.32236,0.5973 -3.38075,1.80138 c -4.0453,2.15547 -4.34036,2.15527 -13.86237,-0.01 l 0,0 z"
             style="opacity:0.87000002;fill:#e6e6e6;fill-opacity:1;stroke:#000000;stroke-width:1;stroke-miterlimit:4;stroke-opacity:1;stroke-dasharray:none;stroke-dashoffset:0" />
        </g>
      </g>
      <g
         style="fill:#000000;stroke:#000000;stroke-opacity:1"
         transform="translate(-35,33)"
         id="g3958">
        <path
           inkscape:connector-curvature="0"
           id="path3892"
           d="m 307.64144,173.5102 c 2.82895,11.0329 2.82895,11.0329 2.82895,11.0329"
           style="fill:#000000;stroke:#000000;stroke-width:0.28289473px;stroke-linecap:butt;stroke-linejoin:miter;stroke-opacity:1" />
        <path
           inkscape:connector-curvature="0"
           id="path3894"
           d="m 310.47039,184.82599 c 31.40132,2.82895 31.40132,2.82895 31.40132,2.82895"
           style="fill:#000000;stroke:#000000;stroke-width:0.28289473px;stroke-linecap:butt;stroke-linejoin:miter;stroke-opacity:1" />
        <path
           inkscape:connector-curvature="0"
           id="path3896"
           d="m 341.87171,187.37205 c 8.20395,-10.75 8.20395,-10.75 8.20395,-10.75"
           style="fill:#000000;stroke:#000000;stroke-width:0.28289473px;stroke-linecap:butt;stroke-linejoin:miter;stroke-opacity:1" />
        <path
           inkscape:connector-curvature="0"
           id="path3898"
           d="m 307.64144,173.5102 c 22.63158,4.24343 42.15132,3.11185 42.15132,3.11185"
           style="fill:#000000;stroke:#000000;stroke-width:0.28289473px;stroke-linecap:butt;stroke-linejoin:miter;stroke-opacity:1" />
        <path
           style="fill:#000000;stroke:#000000;stroke-width:0.28289473px;stroke-linecap:butt;stroke-linejoin:miter;stroke-opacity:1"
           d="m 340.74013,187.37205 c 8.20395,-10.75 8.20395,-10.75 8.20395,-10.75"
           id="path3900"
           inkscape:connector-curvature="0" />
        <path
           style="fill:#000000;stroke:#000000;stroke-width:0.27762443px;stroke-linecap:butt;stroke-linejoin:miter;stroke-opacity:1"
           d="m 307.64144,174.92468 c 21.79619,4.24342 40.5954,3.11184 40.5954,3.11184"
           id="path3902"
           inkscape:connector-curvature="0" />
        <path
           inkscape:connector-curvature="0"
           id="path3904"
           d="m 307.64144,173.5102 c 5.09211,-3.11184 5.09211,-3.11184 5.09211,-3.11184"
           style="fill:#000000;stroke:#000000;stroke-width:0.28289473px;stroke-linecap:butt;stroke-linejoin:miter;stroke-opacity:1" />
        <path
           inkscape:connector-curvature="0"
           id="path3906"
           d="m 312.73355,170.39836 c 29.13816,1.13158 37.625,5.94079 37.625,5.94079"
           style="fill:#000000;stroke:#000000;stroke-width:0.28289473px;stroke-linecap:butt;stroke-linejoin:miter;stroke-opacity:1" />
      </g>
      <g
         style="fill:#000000;stroke:#000000;stroke-opacity:1"
         transform="translate(-22,-2)"
         id="g3968">
        <path
           style="fill:#000000;stroke:#000000;stroke-width:0.28289473px;stroke-linecap:butt;stroke-linejoin:miter;stroke-opacity:1"
           d="m 307.64144,173.5102 c 2.82895,11.0329 2.82895,11.0329 2.82895,11.0329"
           id="path3970"
           inkscape:connector-curvature="0" />
        <path
           style="fill:#000000;stroke:#000000;stroke-width:0.28289473px;stroke-linecap:butt;stroke-linejoin:miter;stroke-opacity:1"
           d="m 310.47039,184.82599 c 31.40132,2.82895 31.40132,2.82895 31.40132,2.82895"
           id="path3972"
           inkscape:connector-curvature="0" />
        <path
           style="fill:#000000;stroke:#000000;stroke-width:0.28289473px;stroke-linecap:butt;stroke-linejoin:miter;stroke-opacity:1"
           d="m 341.87171,187.37205 c 8.20395,-10.75 8.20395,-10.75 8.20395,-10.75"
           id="path3974"
           inkscape:connector-curvature="0" />
        <path
           style="fill:#000000;stroke:#000000;stroke-width:0.28289473px;stroke-linecap:butt;stroke-linejoin:miter;stroke-opacity:1"
           d="m 307.64144,173.5102 c 22.63158,4.24343 42.15132,3.11185 42.15132,3.11185"
           id="path3976"
           inkscape:connector-curvature="0" />
        <path
           inkscape:connector-curvature="0"
           id="path3978"
           d="m 340.74013,187.37205 c 8.20395,-10.75 8.20395,-10.75 8.20395,-10.75"
           style="fill:#000000;stroke:#000000;stroke-width:0.28289473px;stroke-linecap:butt;stroke-linejoin:miter;stroke-opacity:1" />
        <path
           inkscape:connector-curvature="0"
           id="path3980"
           d="m 307.64144,174.92468 c 21.79619,4.24342 40.5954,3.11184 40.5954,3.11184"
           style="fill:#000000;stroke:#000000;stroke-width:0.27762443px;stroke-linecap:butt;stroke-linejoin:miter;stroke-opacity:1" />
        <path
           style="fill:#000000;stroke:#000000;stroke-width:0.28289473px;stroke-linecap:butt;stroke-linejoin:miter;stroke-opacity:1"
           d="m 307.64144,173.5102 c 5.09211,-3.11184 5.09211,-3.11184 5.09211,-3.11184"
           id="path3982"
           inkscape:connector-curvature="0" />
        <path
           style="fill:#000000;stroke:#000000;stroke-width:0.28289473px;stroke-linecap:butt;stroke-linejoin:miter;stroke-opacity:1"
           d="m 312.73355,170.39836 c 29.13816,1.13158 37.625,5.94079 37.625,5.94079"
           id="path3984"
           inkscape:connector-curvature="0" />
      </g>
      <path
         inkscape:connector-curvature="0"
         id="path3986"
         d="m 233,183.36218 c 53,-7 53,-7 53,-7"
         style="fill:none;stroke:#000000;stroke-width:1px;stroke-linecap:butt;stroke-linejoin:miter;stroke-opacity:1" />
      <path
         inkscape:connector-curvature="0"
         id="path3988"
         d="M 231.46316,184.46536 C 275.53684,207.259 275.53684,207.259 275.53684,207.259"
         style="fill:none;stroke:#000000;stroke-width:1.14285719px;stroke-linecap:butt;stroke-linejoin:miter;stroke-opacity:1" />
    </g>
  </g>
</svg>
